<svg version="1.1" xmlns="http://www.w3.org/2000/svg" xmlns:xlink="http://www.w3.org/1999/xlink" width="159.17898" height="167.08413" viewBox="0,0,159.17898,167.08413"><defs><linearGradient x1="161.01051" y1="212.23791" x2="216.67396" y2="212.23791" gradientUnits="userSpaceOnUse" id="color-1"><stop offset="0" stop-color="#007373"/><stop offset="1" stop-color="#455788"/></linearGradient><linearGradient x1="161.01051" y1="212.23791" x2="216.67396" y2="212.23791" gradientUnits="userSpaceOnUse" id="color-2"><stop offset="0" stop-color="#009090"/><stop offset="1" stop-color="#375d5d"/></linearGradient><linearGradient x1="161.82862" y1="208.06766" x2="180.64292" y2="208.06766" gradientUnits="userSpaceOnUse" id="color-3"><stop offset="0" stop-color="#007373"/><stop offset="1" stop-color="#455788"/></linearGradient><linearGradient x1="161.82862" y1="208.06766" x2="180.64292" y2="208.06766" gradientUnits="userSpaceOnUse" id="color-4"><stop offset="0" stop-color="#009090"/><stop offset="1" stop-color="#375d5d"/></linearGradient><linearGradient x1="173.3951" y1="240.88148" x2="226.30983" y2="240.88148" gradientUnits="userSpaceOnUse" id="color-5"><stop offset="0" stop-color="#007373"/><stop offset="1" stop-color="#455788"/></linearGradient><linearGradient x1="173.3951" y1="240.88148" x2="226.30983" y2="240.88148" gradientUnits="userSpaceOnUse" id="color-6"><stop offset="0" stop-color="#009090"/><stop offset="1" stop-color="#375d5d"/></linearGradient><linearGradient x1="240.82284" y1="208.72322" x2="281.37941" y2="208.72322" gradientUnits="userSpaceOnUse" id="color-7"><stop offset="0" stop-color="#007373"/><stop offset="1" stop-color="#455788"/></linearGradient><linearGradient x1="240.82284" y1="208.72322" x2="281.37941" y2="208.72322" gradientUnits="userSpaceOnUse" id="color-8"><stop offset="0" stop-color="#009090"/><stop offset="1" stop-color="#375d5d"/></linearGradient><linearGradient x1="207.69507" y1="227.14638" x2="285.03322" y2="227.14638" gradientUnits="userSpaceOnUse" id="color-9"><stop offset="0" stop-color="#007373"/><stop offset="1" stop-color="#455788"/></linearGradient><linearGradient x1="207.69507" y1="227.14638" x2="285.03322" y2="227.14638" gradientUnits="userSpaceOnUse" id="color-10"><stop offset="0" stop-color="#009090"/><stop offset="1" stop-color="#375d5d"/></linearGradient><linearGradient x1="225.64602" y1="213.28855" x2="245.22399" y2="213.28855" gradientUnits="userSpaceOnUse" id="color-11"><stop offset="0" stop-color="#007373"/><stop offset="1" stop-color="#455788"/></linearGradient><linearGradient x1="225.64602" y1="213.28855" x2="245.22399" y2="213.28855" gradientUnits="userSpaceOnUse" id="color-12"><stop offset="0" stop-color="#009090"/><stop offset="1" stop-color="#375d5d"/></linearGradient><linearGradient x1="192.27059" y1="208.0728" x2="223.35639" y2="208.0728" gradientUnits="userSpaceOnUse" id="color-13"><stop offset="0" stop-color="#007373"/><stop offset="1" stop-color="#455788"/></linearGradient><linearGradient x1="192.27059" y1="208.0728" x2="223.35639" y2="208.0728" gradientUnits="userSpaceOnUse" id="color-14"><stop offset="0" stop-color="#009090"/><stop offset="1" stop-color="#375d5d"/></linearGradient><linearGradient x1="192.63514" y1="145.91727" x2="302.82364" y2="145.91727" gradientUnits="userSpaceOnUse" id="color-15"><stop offset="0" stop-color="#007373"/><stop offset="1" stop-color="#455788"/></linearGradient><linearGradient x1="192.63514" y1="145.91727" x2="302.82364" y2="145.91727" gradientUnits="userSpaceOnUse" id="color-16"><stop offset="0" stop-color="#009090"/><stop offset="1" stop-color="#375d5d"/></linearGradient><linearGradient x1="212.43795" y1="169.85126" x2="301.96575" y2="169.85126" gradientUnits="userSpaceOnUse" id="color-17"><stop offset="0" stop-color="#007373"/><stop offset="1" stop-color="#455788"/></linearGradient><linearGradient x1="212.43795" y1="169.85126" x2="301.96575" y2="169.85126" gradientUnits="userSpaceOnUse" id="color-18"><stop offset="0" stop-color="#009090"/><stop offset="1" stop-color="#375d5d"/></linearGradient><linearGradient x1="235.02835" y1="174.34601" x2="277.05283" y2="174.34601" gradientUnits="userSpaceOnUse" id="color-19"><stop offset="0" stop-color="#007373"/><stop offset="1" stop-color="#455788"/></linearGradient><linearGradient x1="235.02835" y1="174.34601" x2="277.05283" y2="174.34601" gradientUnits="userSpaceOnUse" id="color-20"><stop offset="0" stop-color="#009090"/><stop offset="1" stop-color="#375d5d"/></linearGradient><linearGradient x1="298.98555" y1="151.64016" x2="318.98949" y2="151.64016" gradientUnits="userSpaceOnUse" id="color-21"><stop offset="0" stop-color="#007373"/><stop offset="1" stop-color="#455788"/></linearGradient><linearGradient x1="298.98555" y1="151.64016" x2="318.98949" y2="151.64016" gradientUnits="userSpaceOnUse" id="color-22"><stop offset="0" stop-color="#009090"/><stop offset="1" stop-color="#375d5d"/></linearGradient><linearGradient x1="299.65795" y1="166.08319" x2="316.80419" y2="166.08319" gradientUnits="userSpaceOnUse" id="color-23"><stop offset="0" stop-color="#007373"/><stop offset="1" stop-color="#455788"/></linearGradient><linearGradient x1="299.65795" y1="166.08319" x2="316.80419" y2="166.08319" gradientUnits="userSpaceOnUse" id="color-24"><stop offset="0" stop-color="#009090"/><stop offset="1" stop-color="#375d5d"/></linearGradient><linearGradient x1="251.91292" y1="154.75951" x2="267.05444" y2="154.75951" gradientUnits="userSpaceOnUse" id="color-25"><stop offset="0" stop-color="#007373"/><stop offset="1" stop-color="#455788"/></linearGradient><linearGradient x1="251.91292" y1="154.75951" x2="267.05444" y2="154.75951" gradientUnits="userSpaceOnUse" id="color-26"><stop offset="0" stop-color="#009090"/><stop offset="1" stop-color="#375d5d"/></linearGradient><linearGradient x1="184.00492" y1="152.81686" x2="204.34506" y2="152.81686" gradientUnits="userSpaceOnUse" id="color-27"><stop offset="0" stop-color="#007373"/><stop offset="1" stop-color="#455788"/></linearGradient><linearGradient x1="184.00492" y1="152.81686" x2="204.34506" y2="152.81686" gradientUnits="userSpaceOnUse" id="color-28"><stop offset="0" stop-color="#009090"/><stop offset="1" stop-color="#375d5d"/></linearGradient><linearGradient x1="185.18163" y1="164.45784" x2="204.84937" y2="164.45784" gradientUnits="userSpaceOnUse" id="color-29"><stop offset="0" stop-color="#007373"/><stop offset="1" stop-color="#455788"/></linearGradient><linearGradient x1="185.18163" y1="164.45784" x2="204.84937" y2="164.45784" gradientUnits="userSpaceOnUse" id="color-30"><stop offset="0" stop-color="#009090"/><stop offset="1" stop-color="#375d5d"/></linearGradient><linearGradient x1="258.57595" y1="136.22385" x2="283.24965" y2="136.22385" gradientUnits="userSpaceOnUse" id="color-31"><stop offset="0" stop-color="#007373"/><stop offset="1" stop-color="#455788"/></linearGradient><linearGradient x1="258.57595" y1="136.22385" x2="283.24965" y2="136.22385" gradientUnits="userSpaceOnUse" id="color-32"><stop offset="0" stop-color="#009090"/><stop offset="1" stop-color="#375d5d"/></linearGradient><linearGradient x1="272.7619" y1="140.29339" x2="278.81351" y2="140.29339" gradientUnits="userSpaceOnUse" id="color-33"><stop offset="0" stop-color="#007373"/><stop offset="1" stop-color="#455788"/></linearGradient><linearGradient x1="272.7619" y1="140.29339" x2="278.81351" y2="140.29339" gradientUnits="userSpaceOnUse" id="color-34"><stop offset="0" stop-color="#009090"/><stop offset="1" stop-color="#375d5d"/></linearGradient><linearGradient x1="215.89789" y1="141.41897" x2="241.47449" y2="141.41897" gradientUnits="userSpaceOnUse" id="color-35"><stop offset="0" stop-color="#007373"/><stop offset="1" stop-color="#455788"/></linearGradient><linearGradient x1="215.89789" y1="141.41897" x2="241.47449" y2="141.41897" gradientUnits="userSpaceOnUse" id="color-36"><stop offset="0" stop-color="#009090"/><stop offset="1" stop-color="#375d5d"/></linearGradient><linearGradient x1="230.73682" y1="145.1683" x2="236.78843" y2="145.1683" gradientUnits="userSpaceOnUse" id="color-37"><stop offset="0" stop-color="#007373"/><stop offset="1" stop-color="#455788"/></linearGradient><linearGradient x1="230.73682" y1="145.1683" x2="236.78843" y2="145.1683" gradientUnits="userSpaceOnUse" id="color-38"><stop offset="0" stop-color="#009090"/><stop offset="1" stop-color="#375d5d"/></linearGradient></defs><g transform="translate(-160.41051,-96.59237)"><g data-paper-data="{&quot;isPaintingLayer&quot;:true}" fill-rule="evenodd" stroke-miterlimit="10" stroke-dasharray="" stroke-dashoffset="0" style="mix-blend-mode: normal"><g><path d="M214.43108,214.92994c1.3448,0.6724 4.20251,2.1853 0.1681,7.90072c-4.03441,5.71541 -15.63333,6.89211 -16.97813,6.89211c-5.21111,0.1681 -11.59892,0.1681 -18.65914,-2.1853c-20.50824,-6.72401 -20.67634,-28.74516 -14.12043,-32.27526c6.38781,-3.53011 9.24552,10.08602 18.49104,18.32294c4.03441,3.69821 8.90932,5.04301 12.94373,5.88351c5.71541,1.0086 16.64193,-5.37921 18.15484,-4.53871z" fill="url(#color-1)" stroke="url(#color-2)" stroke-width="1.2" stroke-linecap="round" stroke-linejoin="round"/><path d="M172.7422,201.31381c2.68961,4.53871 7.90072,10.92652 7.90072,10.92652c0,0 -6.21971,-1.5129 -9.74982,1.3448c-2.85771,2.1853 -2.1853,5.88351 -1.8491,7.06021c-2.1853,-2.1853 -4.87491,-5.21111 -6.55591,-11.09462c-1.681,-5.88351 0,-12.94373 3.36201,-13.95233c3.36201,-0.6724 4.20251,1.8491 6.89211,5.71541z" fill="url(#color-3)" stroke="url(#color-4)" stroke-width="0.5" stroke-linecap="butt" stroke-linejoin="miter"/></g><path d="M222.8361,232.41237c-3.02581,2.0172 -13.44803,9.41362 -26.72795,13.61613l-0.6724,0.1681c-0.6724,0.1681 -1.0086,1.0086 -0.6724,1.681c2.85771,4.03441 8.06882,12.10322 -1.1767,14.96093c-8.90932,2.85771 -25.55125,-20.84444 -18.49104,-27.06415c3.19391,-2.3534 6.05161,-1.1767 7.56451,-0.5043c0.8405,0.3362 1.681,0.3362 2.5215,0.1681c2.0172,-0.6724 5.71541,-2.0172 8.57312,-3.53011c7.22831,-3.69821 8.90932,-5.21111 12.27132,-7.73262c3.36201,-2.5215 11.09462,-8.74122 17.31433,-3.36201c5.37921,4.53871 2.3534,9.58172 -0.5043,11.59892z" fill="url(#color-5)" stroke="url(#color-6)" stroke-width="1.2" stroke-linecap="round" stroke-linejoin="round"/><path d="M249.56405,197.4475c0.8405,0.6724 11.09462,12.77563 14.45663,9.74982c4.03441,-3.53011 9.58172,-10.42222 15.63333,-4.87491c6.05161,5.54731 -5.37921,14.96093 -10.25412,17.48243c-11.59892,5.21111 -21.01254,-4.70681 -23.02975,-7.39641c-2.0172,-2.68961 -5.54731,-7.22831 -5.54731,-11.59892c0.1681,-4.70681 5.88351,-5.88351 8.74122,-3.36201z" fill="url(#color-7)" stroke="url(#color-8)" stroke-width="1.2" stroke-linecap="round" stroke-linejoin="round"/><g><path d="M249.73215,236.61488c3.53011,3.19391 11.26272,9.74982 11.26272,9.74982c0,0 24.03835,-4.20251 24.03835,7.90072c0,7.22831 -12.10322,8.90932 -28.40896,7.39641c-1.0086,-0.1681 -2.0172,-0.5043 -2.85771,-1.1767c-3.69821,-3.19391 -14.28853,-12.60752 -21.01254,-19.16344c-9.91792,-9.74982 -18.15484,-16.13763 -18.15484,-16.13763c-14.28853,-13.95233 -2.68961,-19.83584 1.8491,-27.90466c4.20251,-6.89211 6.05161,-5.54731 16.13763,-3.53011c5.71541,0.8405 9.07742,1.3448 12.77563,1.1767c5.54731,-0.1681 4.53871,7.90072 3.02581,12.10322c0,0 -2.3534,6.21971 -4.53871,9.41362c-2.68961,3.86631 -4.70681,6.38781 -6.72401,7.90072z" fill="url(#color-9)" stroke="url(#color-10)" stroke-width="1.2" stroke-linecap="round" stroke-linejoin="round"/><path d="M235.61173,224.17545c0,0 -2.5215,-2.0172 -5.21111,-4.53871c-3.36201,-3.02581 -6.72401,-5.54731 -3.36201,-10.75842c3.02581,-4.03441 5.88351,-9.41362 13.44803,-4.53871c7.22831,4.53871 4.03441,8.74122 4.03441,8.74122c-3.69821,7.56451 -8.90932,11.09462 -8.90932,11.09462z" fill="url(#color-11)" stroke="url(#color-12)" stroke-width="0.5" stroke-linecap="butt" stroke-linejoin="miter"/></g><path d="M210.22858,210.39123c3.69821,4.70681 9.41362,10.59032 2.1853,15.46523c-9.91792,5.54731 -18.15484,-11.26272 -19.83584,-17.14623c-1.5129,-5.21111 2.85771,-8.57312 6.55591,-11.43082c7.22831,-5.21111 13.27993,-9.91792 20.00394,-7.39641c8.40502,3.02581 2.3534,9.74982 -1.8491,12.77563c-2.5215,1.8491 -5.04301,3.86631 -6.89211,5.04301c-0.5043,0.8405 -0.6724,1.8491 -0.1681,2.68961z" fill="url(#color-13)" stroke="url(#color-14)" stroke-width="1.2" stroke-linecap="round" stroke-linejoin="round"/><g><path d="M263.18018,97.0916c0.5043,-0.3362 1.3448,-0.1681 1.5129,0.5043l4.37061,17.98674c0,0 10.75842,7.90072 13.95233,13.44803c5.37921,9.24552 5.54731,16.81003 5.54731,16.81003c0,0 11.93512,3.53011 13.95233,13.11183c2.0172,9.58172 -5.37921,27.73655 -36.98207,33.95627c-31.60286,6.21971 -56.98601,-2.3534 -68.92114,-21.51684c-11.93512,-19.16344 6.89211,-42.02508 5.88351,-40.68028l-3.53011,-30.08996c-0.1681,-0.6724 0.6724,-1.1767 1.3448,-0.8405l20.34014,13.27993c0,0 7.56451,-2.85771 15.46523,-3.19391c4.70681,-0.3362 8.74122,0 12.60752,0.6724z" fill="url(#color-15)" stroke="url(#color-16)" stroke-width="1.2" stroke-linecap="butt" stroke-linejoin="miter"/><path d="M288.05903,146.5131c0,0 11.59892,3.02581 13.61613,12.60752c2.0172,9.58172 -6.05161,26.89605 -37.31827,32.94767c-40.68028,8.40502 -60.01182,-15.80143 -48.7491,-33.62007c11.26272,-17.98674 30.59426,-2.68961 44.71469,-3.69821c12.10322,-0.8405 13.44803,-11.43082 27.73655,-8.23692z" fill="url(#color-17)" stroke="url(#color-18)" stroke-width="0.5" stroke-linecap="butt" stroke-linejoin="miter"/><path d="M235.10743,164.49984c0,-0.6724 0.6724,-1.1767 1.3448,-1.0086c3.19391,1.1767 12.27132,3.86631 22.35734,4.53871c9.07742,0.5043 14.45663,0 16.97813,-0.5043c0.8405,-0.1681 1.5129,0.6724 1.1767,1.5129c-1.5129,4.53871 -7.90072,17.14623 -25.55125,16.13763c-15.29713,-1.681 -16.81003,-12.43942 -16.30573,-20.67634z" fill="url(#color-19)" stroke="url(#color-20)" stroke-width="1.2" stroke-linecap="round" stroke-linejoin="round"/><path d="M318.98949,148.3622c-7.90072,6.38781 -20.00394,6.55591 -20.00394,6.55591" fill="url(#color-21)" stroke="url(#color-22)" stroke-width="1.2" stroke-linecap="round" stroke-linejoin="round"/><path d="M316.80419,167.18944c-10.59032,0.8405 -17.14623,-2.3534 -17.14623,-2.3534" fill="url(#color-23)" stroke="url(#color-24)" stroke-width="1.2" stroke-linecap="round" stroke-linejoin="round"/><path d="M259.65007,150.37941c3.53011,0 7.22831,0.3362 7.39641,1.5129c0.1681,2.3534 -2.3534,7.06021 -5.04301,7.22831c-3.02581,0.3362 -10.08602,-3.86631 -10.08602,-6.55591c-0.1681,-2.0172 4.37061,-2.1853 7.73262,-2.1853z" fill="url(#color-25)" stroke="url(#color-26)" stroke-width="1.2" stroke-linecap="round" stroke-linejoin="round"/><path d="M184.00492,147.8579c0,0 14.45663,4.70681 20.34014,9.91792" fill="url(#color-27)" stroke="url(#color-28)" stroke-width="1.2" stroke-linecap="round" stroke-linejoin="round"/><path d="M204.84937,163.65933c-7.22831,2.85771 -19.66774,1.0086 -19.66774,1.0086" fill="url(#color-29)" stroke="url(#color-30)" stroke-width="1.2" stroke-linecap="round" stroke-linejoin="round"/><g><path d="M279.48591,130.71167c4.87491,7.56451 5.04301,16.13763 0.3362,19.16344c-4.70681,3.02581 -12.43942,-0.5043 -17.48243,-8.06882c-4.87491,-7.56451 -5.04301,-16.13763 -0.3362,-19.16344c4.70681,-3.19391 12.60752,0.5043 17.48243,8.06882z" fill="url(#color-31)" stroke="url(#color-32)" stroke-width="1.2" stroke-linecap="round" stroke-linejoin="round"/><path d="M278.81351,140.29339c0,1.8491 -1.3448,3.36201 -3.02581,3.36201c-1.681,0 -3.02581,-1.5129 -3.02581,-3.36201c0,-1.8491 1.3448,-3.36201 3.02581,-3.36201c1.681,0 3.02581,1.5129 3.02581,3.36201" fill="url(#color-33)" stroke="url(#color-34)" stroke-width="0.5" stroke-linecap="butt" stroke-linejoin="miter"/></g><g><path d="M237.79703,135.41848c5.04301,7.39641 4.70681,16.47383 0.1681,19.66774c-5.54731,3.19391 -12.94373,0.8405 -17.98674,-6.55591c-5.21111,-7.39641 -5.54731,-16.97813 -0.3362,-20.67634c5.21111,-3.86631 13.11183,0.1681 18.15484,7.56451z" fill="url(#color-35)" stroke="url(#color-36)" stroke-width="1.2" stroke-linecap="round" stroke-linejoin="round"/><path d="M236.78843,145.1683c0,1.8491 -1.3448,3.36201 -3.02581,3.36201c-1.681,0 -3.02581,-1.5129 -3.02581,-3.36201c0,-1.8491 1.3448,-3.36201 3.02581,-3.36201c1.681,0.1681 3.02581,1.5129 3.02581,3.36201" fill="url(#color-37)" stroke="url(#color-38)" stroke-width="0.5" stroke-linecap="butt" stroke-linejoin="miter"/></g></g></g></g></svg>