<svg version="1.1" xmlns="http://www.w3.org/2000/svg" xmlns:xlink="http://www.w3.org/1999/xlink" width="578.07808" height="423.42342" viewBox="0,0,578.07808,423.42342"><g transform="translate(44.53454,9.22048)"><g data-paper-data="{&quot;isPaintingLayer&quot;:true}" fill-rule="nonzero" stroke="none" stroke-linecap="butt" stroke-linejoin="miter" stroke-miterlimit="10" stroke-dasharray="" stroke-dashoffset="0" style="mix-blend-mode: normal"><path d="M-44.53453,414.20295v-423.42342h578.07808v423.42342z" fill="#000000" stroke-width="0"/><path d="M26.81504,78.0445c0,-1.81918 1.32377,-2.31459 2.04476,-2.44951c0.29925,-0.50013 0.5985,-1.00026 0.89776,-1.50039c2.14105,-2.14702 4.55382,-4.00691 6.9041,-5.92265c4.62887,-3.77305 8.67908,-8.69629 12.90389,-12.9211c2.52268,-2.52268 5.18337,-4.9981 7.8195,-7.50555c-11.33931,0.15129 -22.68251,0.05004 -34.0244,0.05004c0,0 -2.5,0 -2.5,-2.5c0,-2.5 2.5,-2.5 2.5,-2.5c13.07544,0 26.15283,0.13626 39.22379,-0.13931c1.56109,-1.59482 3.07154,-3.22197 4.49319,-4.90005c2.66651,-3.14746 5.03567,-6.79107 7.62781,-10.03125c1.96165,-2.45207 4.55228,-4.49556 5.93802,-7.31344c0.60642,-1.23316 0.22444,-2.80931 0.84612,-4.03485c0.84147,-1.65882 2.28827,-2.93306 3.43241,-4.39959c0,0 1.56174,-1.95217 3.51391,-0.39043c1.95217,1.56174 0.39043,3.51391 0.39043,3.51391c-0.93818,1.13636 -2.16425,2.08673 -2.81454,3.40909c-0.60642,1.23316 -0.22444,2.80931 -0.84612,4.03485c-0.19639,0.38715 -6.08865,7.71989 -6.55589,8.30394c-2.60211,3.25264 -4.98607,6.91813 -7.66545,10.07772c-0.43897,0.51764 -0.88596,1.03058 -1.33995,1.53934c0.12764,-0.0043 0.25527,-0.00866 0.38291,-0.01306c6.0391,-0.20824 12.54794,0.24798 18.52348,-0.6249c6.21601,-0.908 12.47826,-2.41133 18.70268,-3.44873c2.68538,-0.44741 5.37944,-0.84211 8.07446,-1.22721l1.99704,-0.28529c0,0 2.47487,-0.35355 2.82843,2.12132c0.35355,2.47487 -2.12132,2.82843 -2.12132,2.82843l-1.99704,0.28529c-2.65668,0.37943 -5.31246,0.7681 -7.95957,1.20943c-6.26276,1.04379 -12.57034,2.57054 -18.82833,3.46803c-6.16341,0.88393 -12.8234,0.45603 -19.04752,0.67065c-1.82242,0.06284 -3.64499,0.11572 -5.4677,0.16011c-3.81999,3.78963 -7.84738,7.43359 -11.59084,11.17704c-4.3489,4.3489 -8.5166,9.35019 -13.26948,13.25228c-2.05564,1.68767 -4.23741,3.24062 -6.12136,5.11802c-0.41645,0.71925 -0.83291,1.4385 -1.24936,2.15775l-3.14583,1.23007c0,0 -2.5,0 -2.5,-2.5z" fill="#636363" stroke-width="0.5"/><path d="M147.02357,61.9643c-0.79057,-2.37171 1.58114,-3.16228 1.58114,-3.16228l2.8046,-0.9277c4.68262,-1.72314 1.09671,-7.38785 -0.42507,-10.16672c-0.66832,-1.2204 -1.21886,-2.5822 -2.25106,-3.51525c-0.93902,-0.84882 -2.28875,-1.08195 -3.43312,-1.62292c0,0 -2.23607,-1.11803 -1.11803,-3.3541c1.11803,-2.23607 3.3541,-1.11803 3.3541,-1.11803c1.50202,0.78222 3.2577,1.20232 4.50607,2.34667c5.10336,4.67813 8.74816,13.95973 4.61196,20.15911c-0.70608,1.05828 -2.21233,1.25685 -3.3185,1.88527l-3.14979,1.05709c0,0 -2.37171,0.79057 -3.16228,-1.58114z" fill="#636363" stroke-width="0.5"/><path d="M119.07148,123.30878c-0.60634,2.42536 -3.0317,1.81902 -3.0317,1.81902l-4.37464,-1.13147c-3.9209,-2.57033 -7.82475,-5.16646 -11.725,-7.76801c-0.33113,1.37407 -0.22426,3.01733 -1.17775,4.05105c-0.54523,0.59112 -8.64331,4.60547 -9.79048,5.16168c-1.74026,0.84377 -3.33135,2.21093 -5.24708,2.47635c-1.91573,0.26541 -3.81858,-0.61767 -5.72269,-0.95654c-4.86807,-0.86635 -5.35217,-1.03447 -10.33001,-2.14715c-2.22748,-2.87946 -4.42347,-5.78402 -6.56469,-8.7282l-2.05747,-2.82902c0,0 -1.47043,-2.02184 0.55141,-3.49227c2.02184,-1.47043 3.49227,0.55141 3.49227,0.55141l2.05747,2.82902c1.78054,2.44824 3.52502,4.92406 5.19874,7.44653c2.87488,0.40822 5.74396,0.87373 8.58828,1.45807c1.37184,0.28183 2.71329,1.10765 4.10053,0.91546c3.03777,-0.42087 5.39072,-2.93397 8.16932,-4.23186c1.19052,-0.55609 2.67705,-0.63757 3.62593,-1.54653c0.52668,-0.50452 0.11655,-1.45718 0.25687,-2.17289c0.11661,-0.59477 0.24367,-1.18433 0.37644,-1.77043c-0.88376,-0.58987 -1.76761,-1.17962 -2.65169,-1.76901c-3.60853,-2.40569 -7.74555,-6.16683 -11.87223,-7.63297c-4.29087,-1.52447 -9.86066,-1.70168 -14.35156,-2.4942c0,0 -2.46196,-0.43446 -2.0275,-2.89642c0.43446,-2.46196 2.89642,-2.0275 2.89642,-2.0275c4.76791,0.8414 10.647,1.08271 15.19195,2.71936c4.53678,1.63371 8.95553,5.51754 12.93642,8.17146c0.36417,0.24278 0.72841,0.48547 1.0927,0.72809c0.36718,-1.71444 0.66049,-3.44444 0.75782,-5.23511c0.70183,-12.91112 0.8282,-25.72567 0.8282,-38.6558c0,0 0,-2.5 2.5,-2.5c2.5,0 2.5,2.5 2.5,2.5c0,13.02069 -0.09886,25.93182 -0.8359,38.93315c-0.15291,2.69727 -0.62159,5.34636 -1.21482,7.97537c4.16749,2.7725 8.3326,5.54868 12.47089,8.36432l3.56455,0.85333c0,0 2.42536,0.60634 1.81902,3.0317z" fill="#636363" stroke-width="0.5"/><path d="M281.8995,38.34856c0,2.5 -2.5,2.5 -2.5,2.5l-5.15699,-0.00762c-6.21679,-0.96734 -13.41777,-1.16113 -19.39762,-3.07599c-6.19745,-1.98453 -12.41544,-6.17475 -18.24417,-9.08911c0,0 -2.23607,-1.11803 -1.11803,-3.3541c1.11803,-2.23607 3.3541,-1.11803 3.3541,-1.11803c5.59415,2.79707 11.58829,6.89586 17.53292,8.79943c5.61913,1.79934 12.41754,1.921 18.26279,2.85304l4.767,-0.00762c0,0 2.5,0 2.5,2.5z" fill="#636363" stroke-width="0.5"/><path d="M233.97207,107.60529c-1.77362,-1.76189 -0.01173,-3.53551 -0.01173,-3.53551l3.40239,-3.38798c2.81635,-1.55405 6.06109,-2.46552 8.50829,-4.55312c0.6224,-0.53094 0.69523,-1.48168 1.07375,-2.20694c1.54228,-2.95508 3.0543,-5.93002 4.74914,-8.80032c0.6375,-1.07965 2.0012,-1.88521 2.07581,-3.1368c0.15279,-2.56342 -4.68147,-3.46409 -5.70987,-3.8594c-9.68609,-3.7232 -19.67185,-6.5361 -30.18906,-6.51229c0,0 -2.5,0 -2.5,-2.5c0,-2.5 2.5,-2.5 2.5,-2.5c9.00766,0.01837 19.03076,1.6775 27.40363,5.01296c0.77717,0.3096 9.64668,3.8214 9.96259,4.11943c1.70618,1.60961 3.35976,3.74775 3.53039,6.08715c0.15186,2.08206 -1.73735,3.79752 -2.67333,5.66352c-1.49451,2.97952 -3.13209,5.88549 -4.74914,8.80032c-0.62662,1.12952 -0.96898,2.49742 -1.93047,3.35998c-0.54406,0.48808 -7.96971,4.44275 -9.04962,5.02392l-2.85727,2.91336c0,0 -1.76189,1.77362 -3.53551,0.01173z" fill="#636363" stroke-width="0.5"/><path d="M69.48818,248.73707c0,-2.5 2.5,-2.5 2.5,-2.5l4.85705,0.0022c4.57092,-0.36512 8.444,-1.92177 12.78871,-3.36784c6.41762,-2.136 12.0005,-4.41466 17.99103,-7.56757c3.22895,-1.69944 8.64568,-3.38969 11.17081,-6.14398c1.85244,-2.02055 2.66271,-4.79399 4.08792,-7.13555c0.71012,-1.1667 1.88571,-2.12376 2.20963,-3.45062c0.58747,-2.40639 -1.68101,-4.66555 -2.69972,-6.92344c-0.6243,-1.38372 -1.07637,-2.85501 -1.84791,-4.16235c-1.36599,-2.31461 -6.42738,-4.246 -8.40018,-5.37473c-2.76572,-1.5824 -5.2792,-3.7029 -8.27762,-4.78118c-5.47876,-1.97024 -13.29585,-1.44525 -19.06173,-1.67064c-1.4279,-0.05582 -2.94563,0.46218 -4.28686,-0.0309c-0.12592,-0.04629 -0.24992,-0.09634 -0.37219,-0.14977l-0.01792,0.05376l-2.92251,-0.97417c-1.02156,-0.31417 -1.76412,-1.26534 -1.76412,-2.38994c0,-1.09052 0.69823,-2.01795 1.67203,-2.35963l3.62939,-1.36947c8.76358,-3.30585 18.56006,-6.49109 26.63001,-11.28709c3.93233,-2.337 7.20686,-6.40968 11.1053,-8.86976c-11.20417,0.48557 -22.35418,0.58359 -33.58994,0.58359c0,0 -2.5,0 -2.5,-2.5c0,-2.5 2.5,-2.5 2.5,-2.5c12.60018,0 25.09019,-0.12267 37.67304,-0.78493l3.85642,-0.20297c0.05005,-0.00299 0.10049,-0.0045 0.15128,-0.0045c1.38071,0 2.5,1.11929 2.5,2.5c0,0.81137 -0.38653,1.53247 -0.98549,1.9892l-3.92642,3.05388l-0.21771,-0.27991c-4.15759,4.29999 -8.90931,8.26904 -13.90063,11.24543c-6.43267,3.83589 -13.89634,6.68965 -21.13425,9.3638c5.55362,0.08218 11.82044,0.16828 16.64112,1.87429c0.27016,0.09561 8.61194,4.88219 9.08184,5.15104c3.15625,1.80585 7.9395,3.61823 10.02675,6.86663c0.98136,1.52729 1.5349,3.29046 2.29012,4.94131c1.02829,2.24777 3.60694,7.00306 3.08623,9.77526c-0.36358,1.93565 -1.86333,3.4707 -2.82908,5.18717c-1.52835,2.71642 -2.63395,5.77153 -4.76695,8.04422c-3.04231,3.24157 -8.6302,5.11331 -12.48195,7.14055c-9.95482,5.23938 -21.57671,10.51347 -32.89858,11.50641l-5.06694,0.0022c0,0 -2.5,0 -2.5,-2.5z" fill="#636363" stroke-width="0.5"/><path d="M192.56431,218.65502c0.31009,2.48069 -2.17061,2.79078 -2.17061,2.79078l-2.9778,0.37222c-12.35056,1.54358 -24.44815,2.88099 -36.88143,3.61236c0,0 -2.49569,0.14681 -2.64249,-2.34888c-0.14681,-2.49569 2.34888,-2.64249 2.34888,-2.64249c12.32677,-0.7251 24.31033,-2.05157 36.55486,-3.58238l2.9778,-0.37222c0,0 2.48069,-0.31009 2.79078,2.17061z" fill="#636363" stroke-width="0.5"/><path d="M303.21706,218.44991c2.5,0 2.5,2.5 2.5,2.5l-0.47189,5.43137c-12.92249,6.064 -27.53388,7.99293 -41.40153,10.94132c-6.36074,0.3162 -12.72686,0.70963 -19.09195,0.91861c-1.96084,0.06438 -4.05573,0.8295 -5.88448,0.11907c-2.19417,-0.85239 -4.31855,-2.4397 -5.43018,-4.51461c-0.83903,-1.56608 -0.01248,-3.55916 0.15717,-5.32771c0.05036,-0.525 1.73296,-10.31604 1.82614,-10.53634c0.15052,-0.3559 5.82074,-7.8796 6.1844,-8.36448c5.75281,-7.67041 11.13464,-15.21445 17.72452,-22.17044c2.08397,-2.19975 3.73469,-4.44143 5.89264,-6.09782c-13.72598,1.8938 -27.43792,4.82773 -40.60615,9.22358c0,0 -2.37171,0.79057 -3.16228,-1.58114c-0.79057,-2.37171 1.58114,-3.16228 1.58114,-3.16228c14.65967,-4.87968 29.96035,-8.016 45.23937,-9.91939l0.10445,0.02547l-0.00133,-0.0319l2.96281,-0.1236c0.03989,-0.00189 0.08003,-0.00285 0.1204,-0.00285c1.38071,0 2.5,1.11929 2.5,2.5c0,0.66784 -0.26186,1.27451 -0.68852,1.72295l-3.43532,3.62618c-3.85452,5.26034 -9.49152,9.24722 -13.58833,14.32412c-3.74045,4.63529 -7.05002,9.87594 -10.6434,14.66713c-1.8436,2.45813 -4.39403,4.50008 -5.58756,7.33147c-1.20506,2.85875 -0.92383,6.13619 -1.46184,9.19154c-0.16079,0.9131 -0.88008,1.87533 -0.52445,2.73157c1.15138,2.77211 4.67353,1.49354 6.48268,1.37517c6.2181,-0.40683 12.45992,-0.59975 18.68503,-0.88251c9.08121,-1.96251 18.51843,-3.34555 27.45148,-5.88708c3.21522,-0.91476 7.16457,-3.31192 10.53888,-3.01957l-0.47189,-2.50782c0,0 0,-2.5 2.5,-2.5z" fill="#636363" stroke-width="0.5"/><path d="M289.45311,156.74414c0.4736,-0.57304 1.30825,-1.13288 2.64574,-0.68705c2.37171,0.79057 1.58114,3.16228 1.58114,3.16228l-2.96365,4.65435c-1.84453,-1.72387 -3.98473,-3.17786 -5.53358,-5.17162c-0.05388,-0.06935 -4.04912,-9.07151 -4.0982,-9.18194c0,0 -1.01535,-2.28453 1.26918,-3.29988c2.28453,-1.01535 3.29988,1.26918 3.29988,1.26918c1.38728,3.12138 2.93762,6.0322 3.79949,9.25468z" fill="#636363" stroke-width="0.5"/><path d="M311.15625,142.07322c-2.12929,0 -2.44503,-1.81355 -2.49185,-2.35139c-4.4161,-3.90372 -8.33608,-7.94678 -12.27786,-12.38128c0,0 -1.66091,-1.86852 0.20761,-3.52943c1.86852,-1.66091 3.52943,0.20761 3.52943,0.20761c4.05282,4.55942 8.06379,8.67798 12.67065,12.67345l0.862,2.88104c0,0 0,2.5 -2.5,2.5z" fill="#636363" stroke-width="0.5"/><path d="M328.5384,196.99386c0.13848,2.49616 -2.35768,2.63464 -2.35768,2.63464l-1.51441,-0.04713c-1.54746,0.61898 -3.09492,1.23797 -4.64238,1.85695c0,0 -2.32119,0.92848 -3.24967,-1.39272c-0.02606,-0.06514 -0.04955,-0.12918 -0.07061,-0.19214l-1.77962,0.64297c0,0 -2.37171,0.79057 -3.16228,-1.58114c-0.79057,-2.37171 1.58114,-3.16228 1.58114,-3.16228l2.35842,-0.68557c1.35035,-1.78143 2.97397,-3.35338 4.23978,-5.19583c1.35845,-1.97728 1.86589,-4.42027 2.81089,-6.62526c0,0 0.9848,-2.29786 3.28266,-1.31306c2.29786,0.9848 1.31306,3.28266 1.31306,3.28266c-1.72326,4.02093 -3.42179,7.09008 -5.74331,10.20502c0.40165,-0.16066 0.80331,-0.32132 1.20496,-0.48198l3.0944,-0.30281c0,0 2.49616,-0.13848 2.63464,2.35768z" fill="#636363" stroke-width="0.5"/><path d="M344.9567,204.39963c1.48995,-6.27215 2.66267,-12.58487 4.06304,-18.86584c0.60597,-2.71791 1.33583,-5.46484 1.31726,-8.24942c0,0 0,-2.5 2.5,-2.5c2.5,0 2.5,2.5 2.5,2.5c-0.01757,3.13803 -0.75129,6.24119 -1.42995,9.305c-1.55525,7.0212 -2.8496,14.07538 -4.59908,21.07329l-3.95281,-1.28306l-0.8979,0.07038c0.02789,-0.11158 0.05567,-0.22317 0.08333,-0.33478l-0.15797,-0.05128c0,0 0,-0.93749 0.57409,-1.6643z" fill="#636363" stroke-width="0.5"/><path d="M427.91264,235.93217c1.88851,1.63814 0.25037,3.52666 0.25037,3.52666l-2.30892,2.12962c-5.42689,1.77299 -9.7379,1.79882 -15.41997,1.70943c-1.9707,-0.031 -4.01221,0.35909 -5.91035,-0.17164c-1.11456,-0.31164 -1.79835,-1.45835 -2.66448,-2.22593c-3.55773,-3.15295 -8.60754,-6.8061 -11.40776,-10.62639c-1.73844,-2.37173 -2.07618,-5.50275 -3.08111,-8.26633c-1.13914,-3.13264 -2.61404,-6.16286 -3.41743,-9.39793c-0.08706,-0.35058 -0.09452,-0.71804 -0.08282,-1.0886c-2.10862,2.75106 -4.48411,5.41176 -6.51043,8.04333l-0.10426,0.05546l0.03054,0.02816l-2.75725,2.99025c-0.45705,0.49886 -1.11389,0.81165 -1.84379,0.81165c-1.38071,0 -2.5,-1.11929 -2.5,-2.5c0,-0.55242 0.17917,-1.06299 0.48258,-1.47677l2.88928,-4.04499l0.35664,0.25474c0.73295,-1.51265 1.56825,-2.96782 2.54956,-4.32341c1.08973,-1.50537 1.7973,-3.39692 3.29478,-4.49746c0.72397,-0.53206 1.5622,-1.17385 2.43232,-1.65348c0.08485,-0.13792 0.16831,-0.27616 0.25031,-0.41472c2.39063,-4.03943 3.92475,-9.07413 5.79738,-13.38118c1.26945,-2.91973 2.97569,-5.68029 3.84556,-8.74291c1.07419,-3.782 0.95888,-8.76497 1.52249,-12.7102c1.02823,-7.19762 1.92148,-13.61142 -0.46742,-20.66416c0,0 -0.79057,-2.37171 1.58114,-3.16228c2.37171,-0.79057 3.16228,1.58114 3.16228,1.58114c2.57983,7.8463 1.81808,14.9421 0.67375,22.9524c-0.58501,4.09505 -0.50043,9.19287 -1.60348,13.14115c-0.10397,0.37215 -3.87443,9.01306 -4.12897,9.59849c-1.8387,4.22901 -3.38737,9.09439 -5.64036,13.16591c0.61874,1.32574 0.88311,3.01942 1.46915,4.32875c2.01307,4.49758 3.4846,9.44932 5.12615,14.0969c0.29333,0.83048 0.30448,1.80434 0.83626,2.50644c1.89385,2.50045 4.65746,4.20304 6.96232,6.33061c1.22467,1.13047 2.47893,2.2297 3.67402,3.3914c0.39579,0.38473 0.55325,1.13148 1.09378,1.24323c1.33616,0.27623 2.72548,-0.14588 4.08965,-0.17164c5.19894,-0.09817 8.88356,0.23764 13.83883,-1.45285l0.11303,-0.66249c0,0 1.63814,-1.88851 3.52666,-0.25037z" fill="#636363" stroke-width="0.5"/><path d="M357.32179,367.82491c0,2.5 -2.5,2.5 -2.5,2.5h-1.9848c-8.22004,-0.09384 -15.99467,-5.05955 -23.51055,-8.22413c-14.51976,-6.11358 -29.82682,-10.15135 -44.66106,-15.48297c-4.56741,-1.64159 -10.26328,-2.88024 -14.49054,-5.2442c-3.18962,-1.78368 -7.44361,-5.79358 -10.26552,-8.16901c-1.56898,-1.32074 -3.62754,-2.26525 -4.62561,-4.05687c-0.86499,-1.55274 0.85976,-9.83525 1.21529,-10.37428c0.37947,-0.57533 8.25481,-5.12463 9.10869,-5.62651c12.96331,-7.61947 26.80822,-13.97499 40.56941,-20.05424c2.94818,-1.30241 6.10158,-2.15859 8.93664,-3.69171c10.0774,-5.44958 18.41938,-13.93133 28.66603,-19.08243c0,0 2.23607,-1.11803 3.3541,1.11803c1.11803,2.23607 -1.11803,3.3541 -1.11803,3.3541c-10.20696,5.07293 -18.49738,13.58643 -28.52372,19.0084c-0.27882,0.15078 -8.77233,3.63649 -9.29591,3.8678c-13.58468,6.00139 -27.25778,12.26881 -40.05489,19.79059c-1.43685,0.84454 -2.85112,1.72871 -4.31054,2.53362c-1.04925,0.57868 -2.54634,0.61833 -3.21154,1.61497c-0.7056,1.05718 -0.22147,2.53351 -0.39746,3.79228c-0.08085,0.5783 -0.71338,1.23804 -0.37205,1.71182c0.75283,1.04497 2.15261,1.41752 3.18308,2.19008c2.95321,2.21407 6.35056,5.90204 9.58245,7.70937c3.98774,2.23001 9.43575,3.35535 13.7413,4.90288c14.91935,5.3624 30.30561,9.43081 44.91017,15.5801c6.62684,2.79025 14.31701,7.93912 21.57026,7.8323h1.9848c0,0 2.5,0 2.5,2.5z" fill="#636363" stroke-width="0.5"/><path d="M376.99393,279.01542c0.62269,0.09921 2.23945,0.55153 2.15863,2.57078c-0.09998,2.498 -2.59798,2.39802 -2.59798,2.39802l-2.96135,-1.0937c-3.10734,-4.4093 -4.99469,-8.75719 -7.14896,-13.68464c-2.63316,-6.02281 -5.14197,-11.86006 -5.1909,-18.48402c0,0 0,-2.5 2.5,-2.5c2.5,0 2.5,2.5 2.5,2.5c-0.05281,5.8387 2.45,11.17696 4.77168,16.47992c1.85973,4.24781 3.44473,8.03246 5.96886,11.81363z" fill="#636363" stroke-width="0.5"/><path d="M390.59235,273.8372c-2.27496,1.03661 -3.31157,-1.23835 -3.31157,-1.23835l-1.69337,-3.76229c-0.98194,-1.21726 -1.96389,-2.43451 -2.94583,-3.65177c0,0 -1.56174,-1.95217 0.39043,-3.51391c1.95217,-1.56174 3.51391,0.39043 3.51391,0.39043c1.10037,1.38564 2.20074,2.77128 3.30112,4.15692l1.98367,4.3074c0,0 1.03661,2.27496 -1.23835,3.31157z" fill="#636363" stroke-width="0.5"/></g></g></svg>