<svg version="1.1" xmlns="http://www.w3.org/2000/svg" xmlns:xlink="http://www.w3.org/1999/xlink" width="98.59073" height="97.28288" viewBox="0,0,98.59073,97.28288"><g transform="translate(-192.22886,-133.58598)"><g data-paper-data="{&quot;isPaintingLayer&quot;:true}" stroke-miterlimit="10" stroke-dasharray="" stroke-dashoffset="0" style="mix-blend-mode: normal"><g fill-rule="evenodd"><path d="M222.27433,201.13431c0.6639,0.54802 2.06133,1.75663 -1.16046,4.1654c-3.22179,2.40877 -10.0577,1.33844 -10.82856,1.14284c-3.01385,-0.66985 -6.67547,-1.59896 -10.34815,-3.85934c-10.6861,-6.50714 -7.27943,-18.07337 -2.9599,-18.97002c4.22317,-0.9211 3.69527,6.63107 7.6847,12.29299c1.72431,2.52512 4.30478,3.93902 6.48367,4.96635c3.11574,1.35994 10.39518,-0.3988 11.1287,0.26179z" fill="#ffab19" stroke="#001026" stroke-width="1.2" stroke-linecap="round" stroke-linejoin="round"/><path d="M200.54343,187.93413c0.81974,2.77004 2.79071,6.876 2.79071,6.876c0,0 -3.3246,-1.69761 -5.80272,-0.71327c-1.98572,0.72971 -2.18858,2.76583 -2.18305,3.43147c-0.90503,-1.46322 -1.96544,-3.44032 -1.9931,-6.7685c-0.02766,-3.32818 2.05903,-6.7841 4.14664,-6.82373c2.03413,0.13658 2.11481,1.58041 3.04151,3.99803z" fill="#ffffff" stroke="none" stroke-width="1" stroke-linecap="butt" stroke-linejoin="miter"/></g><path d="M233.58301,207.27799c-1.61028,1.2861 -7.13504,5.96911 -14.42862,8.98779l-0.37147,0.12761c-0.37147,0.12761 -0.52042,0.61852 -0.29789,0.98182c1.80972,2.13888 5.14441,6.44116 0.06329,8.50433c-4.8913,2.04681 -15.44033,-10.52624 -11.75657,-14.38135c1.68886,-1.4841 3.35957,-0.95871 4.24648,-0.65265c0.49091,0.14894 0.96547,0.10806 1.43185,-0.02772c1.10623,-0.47776 3.12887,-1.41692 4.66878,-2.41012c3.9013,-2.43961 4.77683,-3.37558 6.55243,-4.96276c1.77559,-1.58719 5.83899,-5.47501 9.61234,-2.74036c3.25791,2.30098 1.79479,5.29547 0.27942,6.5734z" fill="#ffab19" fill-rule="evenodd" stroke="#001026" stroke-width="1.2" stroke-linecap="round" stroke-linejoin="round"/><path d="M243.45495,190.23168c0.39146,0.43623 5.02263,8.07181 6.80064,6.42624c2.12987,-1.91484 5.13407,-5.75687 7.92644,-2.19716c2.79237,3.55971 -3.2204,8.63608 -5.72926,9.91525c-5.94009,2.57588 -10.23594,-3.72597 -11.13552,-5.41114c-0.89959,-1.68517 -2.48012,-4.53451 -2.31791,-7.12724c0.25798,-2.78471 3.13335,-3.22876 4.45561,-1.60595z" fill="#ffab19" fill-rule="evenodd" stroke="#001026" stroke-width="1.2" stroke-linecap="round" stroke-linejoin="round"/><g fill-rule="evenodd"><path d="M245.77489,214.34752c2.13239,2.05157 6.8247,6.28431 6.8247,6.28431c0,0 18.26398,-1.8615 17.67648,5.31839c-0.35087,4.28798 -10.75878,5.18407 -21.25106,3.56196c-0.64539,-0.14454 -1.28262,-0.38881 -1.7946,-0.82504c-2.24132,-2.05904 -8.64662,-8.11402 -12.6854,-12.30194c-0.75721,-0.79171 -1.49942,-1.54994 -2.21822,-2.2704c-4.93258,-4.94398 -8.76232,-8.10957 -8.76232,-8.10957c-8.58136,-8.91179 -0.77993,-11.88655 2.55271,-16.47144c3.05768,-3.90179 4.19057,-3.02185 10.62816,-1.37698c3.66265,0.75259 5.81666,1.20116 8.22118,1.26579c3.60268,0.1468 2.55747,4.88857 1.37315,7.31435c0,0 -1.82686,3.58508 -3.39792,5.38265c-1.93048,2.17405 -3.35997,3.58021 -4.74051,4.38805z" fill="#ffab19" stroke="#001026" stroke-width="1.2" stroke-linecap="round" stroke-linejoin="round"/><path d="M237.22903,206.34069c0,0 -1.53595,-1.3087 -3.15636,-2.92404c-2.03162,-1.94438 -4.08772,-3.58959 -1.65626,-6.53152c2.15649,-2.25883 4.26933,-5.32289 8.93432,-2.09483c4.46346,3.01368 2.1899,5.36476 2.1899,5.36476c-2.76355,4.32308 -6.31157,6.18563 -6.31157,6.18563z" fill="#ffffff" stroke="none" stroke-width="1" stroke-linecap="butt" stroke-linejoin="miter"/></g><path d="M233.5815,208.98852c3.9239,2.32169 9.40698,4.79124 7.61922,11.57367c-2.93002,8.38799 -14.3135,-1.87165 -17.66171,-5.93832c-2.97827,-3.59241 -2.07045,-8.0267 -1.30772,-11.78918c1.64728,-7.05282 2.88263,-13.23423 7.49444,-13.86803c5.7121,-0.89364 5.31972,6.91019 4.36037,11.00752c-0.56156,2.48544 -1.05288,5.10609 -1.53962,6.78452c0.08438,0.87566 0.41692,1.75344 1.03502,2.22981z" fill="#ffab19" fill-rule="evenodd" stroke="#001026" stroke-width="1.2" stroke-linecap="round" stroke-linejoin="round"/><g fill-rule="evenodd"><path d="M262.37631,138.75645c0.32835,-0.14897 0.80565,0.0304 0.8398,0.4413l0.83932,10.97932c0,0 5.55772,5.67114 6.9003,9.23449c2.27056,5.94429 1.64311,10.40145 1.64311,10.40145c0,0 6.66808,3.21817 6.93258,9.03711c0.26449,5.81894 -5.82058,15.7674 -24.97126,16.38525c-19.15068,0.61785 -33.22982,-6.85192 -38.39721,-19.24821c-5.16739,-12.39629 8.08039,-24.01078 7.35916,-23.31808l0.81595,-18.00428c-0.03414,-0.4109 0.50771,-0.62628 0.8702,-0.36435l10.66664,9.74898c0,0 4.71535,-0.95158 9.38602,-0.39054c2.79557,0.25444 5.13186,0.8391 7.33716,1.605z" fill="#ffab19" stroke="#001026" stroke-width="1.2" stroke-linecap="butt" stroke-linejoin="miter"/><path d="M272.23823,170.15937c0,0 6.51912,2.88982 6.78361,8.70876c0.26449,5.81894 -6.13466,15.20941 -25.07181,15.76084c-24.68968,1.02944 -33.71531,-15.03753 -25.39266,-24.41747c8.3388,-9.47863 18.21967,1.3578 26.60641,2.12113c7.18633,0.66838 8.99244,-5.41997 17.07445,-2.17326z" fill="#ffffff" stroke="none" stroke-width="1" stroke-linecap="butt" stroke-linejoin="miter"/><path d="M239.42444,175.63615c0.06455,-0.39476 0.50771,-0.62628 0.88634,-0.46304c1.76214,0.99741 6.83319,3.44783 12.69002,4.81077c5.28082,1.16744 8.4873,1.38774 10.01604,1.33372c0.50958,-0.018 0.82366,0.53999 0.54559,1.00117c-1.32389,2.51939 -6.28433,9.30791 -16.5499,7.02145c-8.81938,-2.45532 -8.67484,-8.91667 -7.58809,-13.70405z" fill="#ffffff" stroke="#001026" stroke-width="1.2" stroke-linecap="round" stroke-linejoin="round"/><path d="M290.21959,174.21406c-5.25159,2.99179 -12.37337,1.92865 -12.37337,1.92865" fill="none" stroke="#001026" stroke-width="1.2" stroke-linecap="round" stroke-linejoin="round"/><path d="M287.12934,185.05752c-6.29812,-0.52315 -9.84042,-3.02757 -9.84042,-3.02757" fill="none" stroke="#001026" stroke-width="1.2" stroke-linecap="round" stroke-linejoin="round"/><path d="M255.18857,169.70216c2.07248,0.33887 4.21138,0.89124 4.19711,1.59821c-0.12723,1.39779 -2.05938,3.91905 -3.65455,3.75956c-1.80868,-0.09307 -5.55023,-3.23805 -5.29204,-4.81708c0.09495,-1.20041 2.77571,-0.86342 4.74949,-0.54069z" fill="#001026" stroke="#001026" stroke-width="1.2" stroke-linecap="round" stroke-linejoin="round"/><path d="M211.02035,160.9604c0,0 8.03548,4.15105 10.98937,7.7752" fill="none" stroke="#001026" stroke-width="1.2" stroke-linecap="round" stroke-linejoin="round"/><path d="M221.74101,172.23813c-4.51797,0.98385 -11.64349,-1.29583 -11.64349,-1.29583" fill="none" stroke="#001026" stroke-width="1.2" stroke-linecap="round" stroke-linejoin="round"/><g><path d="M268.7219,160.0596c2.13585,4.90898 1.41158,9.95828 -1.64218,11.28287c-3.05376,1.32458 -7.25461,-1.49017 -9.48915,-6.41529c-2.13585,-4.90898 -1.41158,-9.95828 1.64218,-11.28287c3.0699,-1.42328 7.3533,1.50631 9.48915,6.41529z" fill="#ffffff" stroke="#001026" stroke-width="1.2" stroke-linecap="round" stroke-linejoin="round"/><path d="M267.40736,165.62034c-0.1775,1.08558 -1.11224,1.8447 -2.09914,1.68333c-0.98689,-0.16137 -1.63118,-1.17866 -1.45369,-2.26424c0.1775,-1.08558 1.11224,-1.8447 2.09914,-1.68333c0.98689,0.16137 1.63118,1.17866 1.45369,2.26424" fill="#001026" stroke="none" stroke-width="1" stroke-linecap="butt" stroke-linejoin="miter"/></g><g><path d="M243.79508,158.82106c2.25068,4.82643 1.18193,10.12339 -1.78928,11.5628c-3.56334,1.3426 -7.67977,-0.74906 -9.93045,-5.5755c-2.34937,-4.84257 -1.62697,-10.50014 1.78741,-12.17108c3.43051,-1.76962 7.68165,1.35734 9.93232,6.18377z" fill="#ffffff" stroke="#001026" stroke-width="1.2" stroke-linecap="round" stroke-linejoin="round"/><path d="M242.26703,164.44823c-0.1775,1.08558 -1.11224,1.8447 -2.09914,1.68333c-0.98689,-0.16137 -1.63118,-1.17866 -1.45369,-2.26424c0.1775,-1.08558 1.11224,-1.8447 2.09914,-1.68333c0.97076,0.26006 1.63118,1.17866 1.45369,2.26424" fill="#001026" stroke="none" stroke-width="1" stroke-linecap="butt" stroke-linejoin="miter"/></g></g><path d="M226.44064,217.51664c0.71861,-1.02279 1.7414,-0.30418 1.7414,-0.30418l1.57755,1.1194c2.42316,0.94384 4.24195,2.15334 6.31516,3.70753c0,0 1,0.75 0.25,1.75c-0.75,1 -1.75,0.25 -1.75,0.25c-1.99412,-1.4963 -3.66321,-2.59172 -5.99678,-3.50441l-1.83313,-1.27694c0,0 -1.0228,-0.71861 -0.30419,-1.7414z" fill="#19ffdf" fill-rule="nonzero" stroke="none" stroke-width="0.5" stroke-linecap="butt" stroke-linejoin="miter"/><path d="M218.28149,205.99613c0.88388,-0.88388 1.76777,0 1.76777,0l0.24623,0.28056c0.93249,0.62384 1.9187,1.16854 2.92282,1.66899c0,0 1.11803,0.55902 0.55902,1.67705c-0.55902,1.11803 -1.67705,0.55902 -1.67705,0.55902c-1.09545,-0.54936 -2.17088,-1.14665 -3.19154,-1.82493l-0.62725,-0.59292c0,0 -0.88388,-0.88388 0,-1.76777z" fill="#19ffdf" fill-rule="nonzero" stroke="none" stroke-width="0.5" stroke-linecap="butt" stroke-linejoin="miter"/><path d="M217.6106,196.27598c0.55902,-1.11803 1.67705,-0.55902 1.67705,-0.55902l1.14851,0.62372c1.67252,1.60834 4.75586,1.99512 6.84717,3.38491c0,0 1.04006,0.69338 0.34669,1.73344c-0.69338,1.04006 -1.73344,0.34669 -1.73344,0.34669c-2.31569,-1.5492 -5.07952,-1.84877 -7.1285,-3.60292l-0.59845,-0.24976c0,0 -1.11803,-0.55902 -0.55902,-1.67705z" fill="#19ffdf" fill-rule="nonzero" stroke="none" stroke-width="0.5" stroke-linecap="butt" stroke-linejoin="miter"/><path d="M218.48408,188.41467c0.55902,-1.11803 1.67705,-0.55902 1.67705,-0.55902l0.70975,0.36892c1.20307,0.40153 2.38517,0.8647 3.56287,1.33548c0,0 1.1606,0.46424 0.69636,1.62483c-0.46424,1.1606 -1.62483,0.69636 -1.62483,0.69636c-1.13204,-0.45312 -2.26802,-0.89983 -3.42496,-1.28496l-1.03721,-0.50456c0,0 -1.11803,-0.55902 -0.55902,-1.67705z" fill="#19ffdf" fill-rule="nonzero" stroke="none" stroke-width="0.5" stroke-linecap="butt" stroke-linejoin="miter"/><path d="M214.67274,187.47326c0.46424,-1.1606 1.62483,-0.69636 1.62483,-0.69636l1.59964,0.64205c1.78986,0.48496 3.495,0.90828 5.1618,1.73384c0,0 1.11803,0.55902 0.55902,1.67705c-0.55902,1.11803 -1.67705,0.55902 -1.67705,0.55902c-1.55041,-0.78385 -3.16951,-1.14173 -4.8382,-1.59949l-1.73369,-0.69128c0,0 -1.1606,-0.46424 -0.69636,-1.62483z" fill="#0048ff" fill-rule="nonzero" stroke="none" stroke-width="0.5" stroke-linecap="butt" stroke-linejoin="miter"/><path d="M220.94945,199.38695c0.88388,-0.88388 1.76777,0 1.76777,0l0.19945,0.21722c0.86561,0.65163 1.69949,1.35159 2.46722,2.11612c0,0 0.88388,0.88388 0,1.76777c-0.88388,0.88388 -1.76777,0 -1.76777,0c-0.68096,-0.6842 -1.42604,-1.30623 -2.19945,-1.88388l-0.46722,-0.44945c0,0 -0.88388,-0.88388 0,-1.76777z" fill="#0048ff" fill-rule="nonzero" stroke="none" stroke-width="0.5" stroke-linecap="butt" stroke-linejoin="miter"/><path d="M217.45994,206.91079c0.69338,-1.04006 1.73344,-0.34669 1.73344,-0.34669l2,1.33333c0,0 1.04006,0.69338 0.34669,1.73344c-0.69338,1.04006 -1.73344,0.34669 -1.73344,0.34669l-2,-1.33333c0,0 -1.04006,-0.69338 -0.34669,-1.73344z" fill="#0048ff" fill-rule="nonzero" stroke="none" stroke-width="0.5" stroke-linecap="butt" stroke-linejoin="miter"/><path d="M228.46954,220.22994c0.70756,-1.03046 1.73803,-0.3229 1.73803,-0.3229l-0.03322,0.14669c1.59785,0.2035 3.19146,0.52605 4.72094,1.03125c0,0 1.18585,0.39528 0.79057,1.58114c-0.39528,1.18585 -1.58114,0.79057 -1.58114,0.79057c-1.37089,-0.46164 -2.80464,-0.74651 -4.24045,-0.92226l-1.07183,-0.56646c0,0 -1.03046,-0.70756 -0.3229,-1.73803z" fill="#0048ff" fill-rule="nonzero" stroke="none" stroke-width="0.5" stroke-linecap="butt" stroke-linejoin="miter"/></g></g></svg>