<svg version="1.1" xmlns="http://www.w3.org/2000/svg" xmlns:xlink="http://www.w3.org/1999/xlink" width="111.84148" height="120.97109" viewBox="0,0,111.84148,120.97109"><g transform="translate(-185.24186,-124.31021)"><g data-paper-data="{&quot;isPaintingLayer&quot;:true}" stroke-miterlimit="10" stroke-dasharray="" stroke-dashoffset="0" style="mix-blend-mode: normal"><g fill-rule="evenodd"><path d="M226.97359,193.91415c0.72493,0.5239 2.25734,1.68654 -0.66007,4.6545c-2.91741,2.96795 -9.8399,2.54485 -10.62942,2.4157c-3.07548,-0.40177 -6.82564,-1.01523 -10.74453,-3.07491c-11.39422,-5.91707 -9.37807,-18.86138 -5.19022,-20.30423c4.08918,-1.459 4.45923,6.8092 9.09604,12.53284c2.01335,2.55859 4.74617,3.81627 7.03397,4.69716c3.25854,1.14102 10.28674,-1.55979 11.09421,-0.92105z" fill="#ffab19" stroke="#001026" stroke-width="1.2" stroke-linecap="round" stroke-linejoin="round"/><path d="M203.80655,181.91674c1.14313,2.92288 3.589,7.1735 3.589,7.1735c0,0 -3.50617,-1.48551 -5.85308,-0.14684c-1.88757,1.0085 -1.84798,3.24422 -1.76361,3.96732c-1.07308,-1.49282 -2.3615,-3.5275 -2.78335,-7.14303c-0.42185,-3.61553 1.24307,-7.59899 3.3137,-7.86825c2.03835,-0.07188 2.28963,1.48917 3.49733,4.0173z" fill="#ffffff" stroke="none" stroke-width="1" stroke-linecap="butt" stroke-linejoin="miter"/></g><path d="M227.80921,201.43148c-1.07463,1.35994 -4.71819,6.29481 -10.03625,9.66326l-0.27505,0.14557c-0.27505,0.14557 -0.31473,0.64127 -0.07935,0.99142c1.78325,2.03633 5.12715,6.14769 1.41588,8.45476c-3.56286,2.28126 -13.97452,-9.6935 -11.66273,-13.71253c1.10534,-1.5608 2.51893,-1.12219 3.27371,-0.86233c0.41448,0.12347 0.78547,0.05899 1.13472,-0.09948c0.80341,-0.5307 2.26182,-1.5663 3.32749,-2.6314c2.71215,-2.62221 3.25845,-3.59702 4.41624,-5.26471c1.1578,-1.66768 3.76639,-5.73832 7.20756,-3.20806c2.96146,2.12483 2.27823,5.17646 1.27778,6.5235z" fill="#ffab19" fill-rule="evenodd" stroke="#001026" stroke-width="1.2" stroke-linecap="round" stroke-linejoin="round"/><path d="M247.64913,185.78104c-0.21118,0.64848 -5.09977,9.6127 -2.55602,10.66346c2.99269,1.28814 8.31603,2.50905 6.37694,7.36862c-1.9391,4.85958 -10.06958,1.05099 -12.65177,-0.9764c-5.67645,-5.03662 -1.896,-12.94392 -0.75133,-14.7907c1.14467,-1.84679 3.04819,-5.03327 5.63938,-6.2133c2.828,-1.17741 4.80035,1.67998 3.94281,3.9483z" fill="#ffab19" fill-rule="evenodd" stroke="#001026" stroke-width="1.2" stroke-linecap="round" stroke-linejoin="round"/><g fill-rule="evenodd"><path d="M236.57028,220.23356c1.19294,2.93882 3.90062,9.05856 3.90062,9.05856c0,0 13.69816,1.28975 11.09818,10.02134c-1.55276,5.21469 -8.3563,4.25154 -16.7107,0.22868c-0.50075,-0.3026 -0.96541,-0.72646 -1.26836,-1.36267c-1.28241,-2.96903 -4.89735,-11.66416 -7.06817,-17.60261c-3.18481,-8.81681 -6.19702,-14.90595 -6.19702,-14.90595c-4.60845,-12.63434 2.82941,-14.79363 6.97863,-19.79873c3.71749,-4.21664 4.41286,-2.91403 9.34824,0.35447c2.8617,1.63386 4.54294,2.60209 6.54757,3.14568c2.98891,0.87601 0.7187,6.51574 -0.98938,9.27556c0,0 -2.5888,4.06397 -4.43811,5.97529c-2.26219,2.30573 -3.8776,3.76215 -5.27635,4.49096z" fill="#ffab19" stroke="#001026" stroke-width="1.2" stroke-linecap="round" stroke-linejoin="round"/><path d="M231.7263,208.72089c0,0 -0.90886,-1.90858 -1.79883,-4.21118c-1.13957,-2.7873 -2.38748,-5.21081 0.52152,-8.36581c2.47727,-2.36656 5.15395,-5.73352 8.13325,-0.85668c2.87257,4.57384 0.26973,7.03145 0.26973,7.03145c-3.59351,4.79238 -7.12565,6.40227 -7.12565,6.40227z" fill="#ffffff" stroke="none" stroke-width="1" stroke-linecap="butt" stroke-linejoin="miter"/></g><path d="M221.67337,190.27723c-0.43148,3.53466 -0.51216,8.41354 -5.60129,7.4132c-6.50161,-1.85176 -2.87386,-12.38026 -1.0996,-15.55863c1.56141,-2.82524 4.81323,-2.39434 7.57021,-2.03516c5.23085,0.85921 9.75517,1.43414 11.51499,5.32682c2.25292,4.81294 -3.12166,5.08481 -6.1612,4.58362c-1.8379,-0.2866 -3.74665,-0.50263 -5.01886,-0.78807c-0.56597,0.14027 -1.06167,0.49281 -1.20424,1.0582z" fill="#ffab19" fill-rule="evenodd" stroke="#001026" stroke-width="1.2" stroke-linecap="round" stroke-linejoin="round"/><g fill-rule="evenodd"><path d="M266.27982,138.0048c0.35462,-0.0652 0.77441,0.22423 0.70823,0.63121l-1.83933,10.85665c0,0 4.02216,6.84633 4.46367,10.62852c0.76647,6.31684 -0.9197,10.4902 -0.9197,10.4902c0,0 5.69252,4.73446 4.5427,10.4448c-1.14982,5.71032 -9.45907,13.89301 -28.19125,9.86371c-18.73218,-4.02931 -30.58839,-14.68062 -32.60629,-27.95834c-2.01792,-13.27773 13.64435,-21.34576 12.77709,-20.84794l5.14351,-17.27322c0.06619,-0.40697 0.64403,-0.485 0.93246,-0.14322l7.99398,12.03813c0,0 4.80554,0.21635 9.20212,1.8897c2.65118,0.92261 4.77687,2.05463 6.73168,3.33085z" fill="#ffab19" stroke="#001026" stroke-width="1.2" stroke-linecap="butt" stroke-linejoin="miter"/><path d="M268.25904,170.86029c0,0 5.62733,4.37986 4.47751,10.0902c-1.14982,5.71032 -9.62897,13.27565 -28.13793,9.2335c-24.20644,-4.96874 -29.08097,-22.74088 -18.73788,-29.83106c10.38259,-7.18205 17.35126,5.72137 25.30483,8.4892c6.81169,2.38555 10.03585,-3.08573 17.09348,2.01818z" fill="#ffffff" stroke="none" stroke-width="1" stroke-linecap="butt" stroke-linejoin="miter"/><path d="M235.09442,168.24337c0.15805,-0.36745 0.64403,-0.485 0.97197,-0.23508c1.46881,1.39376 5.79722,4.99722 11.15095,7.73538c4.84206,2.40922 7.90021,3.39802 9.3967,3.71513c0.49884,0.1057 0.66873,0.72307 0.28745,1.10334c-1.89358,2.12469 -8.34777,7.51297 -17.75632,2.81304c-7.96441,-4.51421 -6.26241,-10.74906 -4.05074,-15.1318z" fill="#ffffff" stroke="#001026" stroke-width="1.2" stroke-linecap="round" stroke-linejoin="round"/><path d="M284.7272,179.14097c-5.81902,1.63373 -12.47266,-1.11926 -12.47266,-1.11926" fill="none" stroke="#001026" stroke-width="1.2" stroke-linecap="round" stroke-linejoin="round"/><path d="M279.10763,188.91597c-5.98493,-2.02994 -8.81685,-5.3163 -8.81685,-5.3163" fill="none" stroke="#001026" stroke-width="1.2" stroke-linecap="round" stroke-linejoin="round"/><path d="M251.82542,166.29562c1.92912,0.82976 3.87109,1.88273 3.68636,2.5653c-0.46131,1.3256 -2.94558,3.30508 -4.45491,2.76475c-1.73256,-0.52749 -4.60301,-4.48357 -3.97081,-5.95336c0.38227,-1.14187 2.9021,-0.16691 4.73935,0.62332z" fill="#001026" stroke="#001026" stroke-width="1.2" stroke-linecap="round" stroke-linejoin="round"/><path d="M211.07975,147.13731c0,0 6.7939,5.97019 8.78422,10.20087" fill="none" stroke="#001026" stroke-width="1.2" stroke-linecap="round" stroke-linejoin="round"/><path d="M218.75665,160.67191c-4.62181,-0.13734 -10.98504,-4.07172 -10.98504,-4.07172" fill="none" stroke="#001026" stroke-width="1.2" stroke-linecap="round" stroke-linejoin="round"/><g><path d="M267.28814,160.21006c0.886,5.27969 -1.03726,10.00422 -4.32064,10.5514c-3.28339,0.5472 -6.67932,-3.19947 -7.65719,-8.51867c-0.886,-5.27969 1.03726,-10.00422 4.32064,-10.5514c3.32288,-0.63906 6.77119,3.23899 7.65718,8.51868z" fill="#ffffff" stroke="#001026" stroke-width="1.2" stroke-linecap="round" stroke-linejoin="round"/><path d="M264.66852,165.2882c-0.43463,1.01049 -1.52515,1.52117 -2.44378,1.12606c-0.91862,-0.39512 -1.29793,-1.53798 -0.8633,-2.54847c0.43463,-1.01049 1.52515,-1.52116 2.44378,-1.12605c0.91862,0.39512 1.29793,1.53797 0.8633,2.54847" fill="#001026" stroke="none" stroke-width="1" stroke-linecap="butt" stroke-linejoin="miter"/></g><g><path d="M243.3998,152.98326c1.01736,5.22733 -1.3,10.10891 -4.53104,10.78747c-3.78221,0.4415 -7.27101,-2.58311 -8.28838,-7.81044c-1.10922,-5.26684 0.95923,-10.58206 4.67623,-11.37818c3.75653,-0.88797 7.1258,3.17379 8.14316,8.40112z" fill="#ffffff" stroke="#001026" stroke-width="1.2" stroke-linecap="round" stroke-linejoin="round"/><path d="M240.55692,158.07424c-0.43463,1.01049 -1.52515,1.52116 -2.44378,1.12605c-0.91862,-0.39512 -1.29793,-1.53798 -0.86329,-2.54848c0.43463,-1.01049 1.52515,-1.52116 2.44378,-1.12605c0.87912,0.48699 1.29793,1.53798 0.86329,2.54848" fill="#001026" stroke="none" stroke-width="1" stroke-linecap="butt" stroke-linejoin="miter"/></g></g><path d="M230.20035,236.35129c0.20616,-0.05237 0.3456,0.00743 0.4374,0.09193c-0.26971,-1.26427 -0.4183,-2.55511 -0.66835,-3.8272c-3.39087,-3.78503 -6.08039,-7.99324 -8.81112,-12.33508c-0.98835,-1.97379 -2.05915,-3.87242 -3.17144,-5.77921l-0.42186,-0.72319c0,0 -0.24702,-0.42346 0.17644,-0.67048c0.42346,-0.24702 0.67048,0.17644 0.67048,0.17644l0.42186,0.72319c1.11464,1.9108 2.19077,3.8129 3.17886,5.79217c2.3781,3.77066 4.71485,7.44234 7.52466,10.81559c-0.72218,-3.27625 -1.48758,-6.54943 -2.38621,-9.77988c-0.84954,-3.05399 -1.56895,-6.20618 -2.60424,-9.20221c-1.16543,-3.37263 -2.67609,-6.64169 -4.11785,-9.90158c-0.88117,-1.69745 -1.76218,-3.383 -2.54526,-5.12817l-0.16249,-0.32403c0,0 -0.21924,-0.43848 0.21924,-0.65773v-0.00002c0.43848,-0.21924 0.65773,0.21924 0.65773,0.21924l0.18008,0.36112c0.7796,1.73742 1.65814,3.41485 2.53459,5.1052c1.45924,3.29514 2.98546,6.60119 4.16263,10.01142c1.04032,3.01378 1.76574,6.18231 2.62019,9.25398c1.04847,3.76911 1.91684,7.59616 2.74591,11.41869c0.01208,0.05568 0.0239,0.11142 0.03548,0.16721c0.48562,0.53594 0.98602,1.06308 1.50347,1.58053c0,0 0.34665,0.34665 0,0.69331c-0.34665,0.34665 -0.69331,0 -0.69331,0c-0.1686,-0.1686 -0.33544,-0.33822 -0.50059,-0.50881c0.20033,1.27465 0.38844,2.55114 0.79847,3.77543c0,0 0.15147,0.45441 -0.2942,0.61462c0.2763,0.39958 0.55501,0.79745 0.84058,1.19138c0.30961,0.42708 0.44256,1.06472 0.92099,1.28689c0.09864,0.04581 0.12908,-0.17508 0.19361,-0.26262c0,0 0.40791,-0.27194 0.67984,0.13597c0.27194,0.40791 -0.13597,0.67984 -0.13597,0.67984c-0.27803,0.14084 -0.53088,0.49461 -0.8341,0.42252c-0.43272,-0.10288 -0.70993,-0.54185 -1.01783,-0.86283c-0.90508,-0.94354 -1.60238,-2.24433 -2.32491,-3.32905l-0.16725,-0.62871c0,0 -0.12071,-0.47515 0.35444,-0.59585z" fill="#19fff5" fill-rule="nonzero" stroke="none" stroke-width="0.5" stroke-linecap="butt" stroke-linejoin="miter"/><path d="M251.1073,238.26994c0,0.84021 -0.84021,0.84021 -0.84021,0.84021h-0.88069c-0.53019,-0.00213 -1.03033,-0.058 -1.52384,-0.12046c0.0791,0.39548 0.15819,0.79097 0.23729,1.18645c0.12031,-0.0665 0.25867,-0.10435 0.40586,-0.10435c0.29293,0 0.55084,0.1499 0.70122,0.37717c0.33028,-0.09029 0.65893,-0.18632 0.98457,-0.29174l0.78377,-0.53145c0,0 0.6991,-0.46606 1.16516,0.23303c0.46606,0.6991 -0.23303,1.16516 -0.23303,1.16516l-0.97761,0.6428c-0.7298,0.24843 -1.47249,0.46013 -2.22031,0.64748c0,0 -0.81512,0.20378 -1.01891,-0.61134c-0.02838,-0.11351 -0.037,-0.21516 -0.03081,-0.30606c-0.04964,0.01823 -0.10401,0.03357 -0.16354,0.04548c-0.82389,0.16478 -0.98867,-0.65912 -0.98867,-0.65912c-0.05986,-0.29928 -0.11971,-0.59856 -0.17957,-0.89785c-0.23112,-0.11721 -0.34186,-0.28891 -0.39024,-0.4571l-0.57765,-0.01195c-0.13445,-0.40336 -0.2689,-0.80671 -0.40336,-1.21007c-0.14268,0.04613 -0.31865,0.05156 -0.53306,-0.01991c-0.14491,-0.0483 -0.2547,-0.11417 -0.33734,-0.18962c0.08054,1.12761 0.1954,2.73555 0.26686,3.73611c0,0 0.05986,0.83808 -0.77821,0.89794c-0.83808,0.05986 -0.89794,-0.77821 -0.89794,-0.77821c-0.07982,-1.11743 -0.15963,-2.23487 -0.23945,-3.3523l-0.05411,-0.75758c0,0 -0.05986,-0.83808 0.77821,-0.89794c0.37604,-0.02686 0.5954,0.12706 0.72298,0.30493c0.00451,-0.01686 0.0076,-0.02612 0.0076,-0.02612c0.1048,-0.31217 0.2096,-0.62435 0.3144,-0.93652l0.61187,-1.22847c0,0 0.26055,-0.52109 0.78164,-0.47849c-0.57139,-3.03537 -0.28321,-6.25276 -0.28321,-9.33949c0,-0.8093 0.00048,-1.61635 0.0026,-2.42165c-0.80764,3.5468 -1.55134,7.10708 -2.14992,10.69858c0,0 -0.13813,0.82878 -0.96691,0.69065c-0.82878,-0.13813 -0.69065,-0.96691 -0.69065,-0.96691c1.01948,-6.11689 2.45757,-12.1433 3.91697,-18.16654c0.09193,-2.99829 0.25874,-5.99492 0.56092,-9.01665c0.42576,-4.24898 0.42841,-8.53491 0.78325,-12.79303l0.01446,-0.17352c0,0 0.06978,-0.83731 0.90708,-0.76754c0.83731,0.06978 0.76754,0.90708 0.76754,0.90708l-0.01446,0.17352c-0.33043,3.96516 -0.35827,7.95346 -0.70148,11.91484c0.07494,-0.33143 0.1493,-0.66299 0.22301,-0.9947c1.43626,-6.46314 2.95928,-12.88804 4.20978,-19.39066l0.19844,-1.03189c0,0 0.15867,-0.82509 0.98377,-0.66642l-0.00002,0.00001c0.82509,0.15867 0.66642,0.98377 0.66642,0.98377l-0.19844,1.03189c-1.25354,6.51841 -2.77983,12.95904 -4.21956,19.43785c-0.78811,3.5465 -1.65058,7.07627 -2.50664,10.60695c-0.0981,3.29998 -0.10575,6.60252 -0.10575,9.94436c0,3.01184 -0.322,6.19646 0.27725,9.14827c0,0 0.16478,0.8239 -0.65911,0.98867c-0.07157,0.01431 -0.13816,0.02117 -0.2001,0.02175c-0.00309,0.22925 -0.09386,0.41079 -0.09386,0.41079l-0.44077,0.87783c0.35502,0.14165 0.48635,0.53566 0.48635,0.53566c0.00351,0.01053 0.00702,0.02105 0.01053,0.03158c0.04775,0.0031 0.09531,0.00653 0.14272,0.01025c0.00465,-0.01394 0.00929,-0.02788 0.01394,-0.04182l0.33915,-0.69718c0,0 0.37575,-0.75151 1.12726,-0.37575c0.75151,0.37575 0.37575,1.12726 0.37575,1.12726l-0.09825,0.18901c0.35936,0.03792 0.72547,0.0646 1.10812,0.06284h0.88069c0,0 0.84021,0 0.84021,0.84021z" fill="#19fff5" fill-rule="nonzero" stroke="none" stroke-width="0.5" stroke-linecap="butt" stroke-linejoin="miter"/><path d="M236.36257,230.87251c0.29042,0 0.47901,0.10183 0.60148,0.23408c-0.14749,-2.23457 -1.18025,-4.62169 -1.52234,-6.85612c-1.05749,-6.90736 -2.29167,-13.78403 -3.69615,-20.63039c-0.5548,-2.70463 -1.10959,-5.40926 -1.66439,-8.11388l-0.3179,-1.54976c0,0 -0.16644,-0.81139 0.64495,-0.97783h0.00001c0.81139,-0.16644 0.97783,0.64495 0.97783,0.64495c0.5548,2.70463 1.42749,6.95901 1.98229,9.66364c1.40988,6.87366 2.64916,13.7777 3.71086,20.71257c0.39161,2.55789 1.53757,5.15989 1.55863,7.70102c0,0 0,0.82828 -0.82828,0.82828c-0.23247,0 -0.39969,-0.06525 -0.51998,-0.15911c0.87311,2.21684 1.62803,4.45134 1.63766,6.85511c0,0 0,0.425 -0.30443,0.66613c1.06395,1.31675 2.09536,2.63766 3.05928,4.08354c0,0 0.45945,0.68917 -0.22972,1.14862c-0.68917,0.45945 -1.14862,-0.22972 -1.14862,-0.22972c-1.4307,-2.14605 -3.00807,-4.00389 -4.62567,-5.99814l-0.2484,-0.30654c0,0 -0.52147,-0.64353 0.12206,-1.16499c0.64353,-0.52147 1.16499,0.12206 1.16499,0.12206l0.2484,0.30654c0.0847,0.10463 0.16931,0.20892 0.25381,0.31291c-0.1937,-1.92942 -0.90097,-3.76954 -1.62539,-5.57827l-0.05924,-0.88641c0,0 0,-0.82828 0.82828,-0.82828z" fill="#19fff5" fill-rule="nonzero" stroke="none" stroke-width="0.5" stroke-linecap="butt" stroke-linejoin="miter"/><path d="M248.5,238.35417c1.25,0 1.25,1.25 1.25,1.25v1.66667c0,0 0,1.25 -1.25,1.25c-1.25,0 -1.25,-1.25 -1.25,-1.25v-1.66667c0,0 0,-1.25 1.25,-1.25z" fill="#0048ff" fill-rule="nonzero" stroke="none" stroke-width="0.5" stroke-linecap="butt" stroke-linejoin="miter"/><path d="M247.63091,231.44357c1.1606,0.46424 0.69636,1.62483 0.69636,1.62483l-0.59982,1.43881c0.01665,0.80996 0.02255,1.62015 0.02255,2.43028c0,0 0,1.25 -1.25,1.25c-1.25,0 -1.25,-1.25 -1.25,-1.25c0,-0.96771 0.00865,-1.93544 0.02255,-2.90305l0.73352,-1.89452c0,0 0.46424,-1.1606 1.62483,-0.69636z" fill="#0048ff" fill-rule="nonzero" stroke="none" stroke-width="0.5" stroke-linecap="butt" stroke-linejoin="miter"/><path d="M255.39235,211.1528c1.11803,0.55902 0.55902,1.67705 0.55902,1.67705l-0.29752,0.58842c-2.1893,5.25433 -3.18734,11.0309 -5.70248,16.07825c0,0 -0.55902,1.11803 -1.67705,0.55902c-1.11803,-0.55902 -0.55902,-1.67705 -0.55902,-1.67705c2.49582,-4.97341 3.4676,-10.72995 5.63085,-15.92175l0.36915,-0.74491c0,0 0.55902,-1.11803 1.67705,-0.55902z" fill="#0048ff" fill-rule="nonzero" stroke="none" stroke-width="0.5" stroke-linecap="butt" stroke-linejoin="miter"/><path d="M286.02235,225.88516c0.38567,1.18902 -0.80335,1.57469 -0.80335,1.57469l-2.28236,0.73953c-1.40193,0.35081 -2.79703,0.65665 -4.19001,0.92912c0.16292,1.04043 -0.90407,1.34448 -0.90407,1.34448l-1.35372,0.37629c-3.62223,2.0842 -7.72368,3.41029 -11.89338,3.57639c-2.13718,1.03471 -4.37307,1.73912 -6.76213,1.76184c0,0 -1.25,0 -1.25,-1.25c0,-1.25 1.25,-1.25 1.25,-1.25c0.52432,0.00612 1.04488,-0.03147 1.56152,-0.10682c-0.12293,-0.20651 -0.18892,-0.48221 -0.12784,-0.84868c0.2055,-1.23299 1.43849,-1.02749 1.43849,-1.02749c1.13433,0.19447 2.2712,0.27288 3.40216,0.24985c0.54704,-0.28235 1.08851,-0.58866 1.62415,-0.91067c-0.35811,0.0445 -0.71701,0.08916 -1.07676,0.13416c0,0 -1.24035,0.15504 -1.39539,-1.0853c-0.15504,-1.24035 1.0853,-1.39539 1.0853,-1.39539c2.04316,-0.2552 4.05818,-0.49786 6.05917,-0.76389c0.70834,-0.48601 1.40342,-0.95364 2.08453,-1.37924l1.98463,-1.32325c0,0 1.04006,-0.69338 1.73344,0.34669c0.45239,0.67859 0.16688,1.2096 -0.08623,1.49673c2.03775,-0.35237 4.07497,-0.76543 6.1269,-1.27792l2.20026,-0.71445c0,0 1.18902,-0.38567 1.57469,0.80335zM270.6746,230.74322c0.4647,-0.15861 0.92517,-0.33079 1.38073,-0.51537c-0.25785,0.03603 -0.51588,0.07155 -0.77412,0.10664c-0.20178,0.13583 -0.40396,0.2722 -0.60661,0.40872z" fill="#0048ff" fill-rule="nonzero" stroke="none" stroke-width="0.5" stroke-linecap="butt" stroke-linejoin="miter"/><path d="M233.52355,223.19897c1.07187,-0.64312 1.71499,0.42875 1.71499,0.42875c0.33333,0.55556 1.66667,2.77778 2,3.33333c0,0 0.64312,1.07187 -0.42875,1.71499c-1.07187,0.64312 -1.71499,-0.42875 -1.71499,-0.42875c-0.33333,-0.55556 -0.66667,-1.11111 -1,-1.66667l-1,-1.66667c0,0 -0.64312,-1.07187 0.42875,-1.71499z" fill="#0048ff" fill-rule="nonzero" stroke="none" stroke-width="0.5" stroke-linecap="butt" stroke-linejoin="miter"/><path d="M234.83333,237.02083c1.25,0 1.25,1.25 1.25,1.25v1.33333c0,0 0,1.25 -1.25,1.25c-0.53813,0 -0.84459,-0.23167 -1.01912,-0.49553c-0.11238,0.05898 -0.24531,0.10651 -0.4024,0.13793c-1.22573,0.24515 -1.47087,-0.98058 -1.47087,-0.98058l-0.33333,-1.66667c0,0 -0.24515,-1.22573 0.98058,-1.47087c1.02362,-0.20472 1.36337,0.61637 1.44758,0.8927c0.18242,-0.1471 0.43839,-0.25031 0.79756,-0.25031z" fill="#0048ff" fill-rule="nonzero" stroke="none" stroke-width="0.5" stroke-linecap="butt" stroke-linejoin="miter"/><path d="M220.55961,225.8448c1.0927,-0.60705 1.69975,0.48564 1.69975,0.48564l0.45256,0.81461c0.74387,1.33919 1.52892,2.65007 2.25783,3.99367c1.09885,-0.52576 1.64828,0.57309 1.64828,0.57309l0.42798,0.92251c0.20317,0.83401 0.51724,1.64517 0.90536,2.41082c0,0 0.55902,1.11803 -0.55902,1.67705c-1.11803,0.55902 -1.67705,-0.55902 -1.67705,-0.55902c-0.32385,-0.65519 -0.60597,-1.33479 -0.83437,-2.03064c-0.99931,0.36329 -1.49896,-0.63602 -1.49896,-0.63602c-0.8759,-1.7546 -1.90248,-3.42231 -2.85544,-5.13736l-0.45256,-0.81461c0,0 -0.60705,-1.0927 0.48564,-1.69975z" fill="#0048ff" fill-rule="nonzero" stroke="none" stroke-width="0.5" stroke-linecap="butt" stroke-linejoin="miter"/><path d="M213.67629,210.7978c0.47303,-1.15704 1.63007,-0.68401 1.63007,-0.68401l1.80991,0.74107c3.63114,1.8426 9.72338,4.10952 9.96706,8.74931c0,0 0,1.25 -1.25,1.25c-1.25,0 -1.25,-1.25 -1.25,-1.25c0.32007,-2.87602 -6.46491,-5.43825 -8.5069,-6.47582l-1.71613,-0.70048c0,0 -1.15704,-0.47303 -0.68401,-1.63007z" fill="#0048ff" fill-rule="nonzero" stroke="none" stroke-width="0.5" stroke-linecap="butt" stroke-linejoin="miter"/><path d="M185.27427,219.69235c0.24515,-1.22573 1.47087,-0.98058 1.47087,-0.98058l1.54874,0.31555c8.71772,0.03173 16.61652,0.18219 24.19457,4.8456c0,0 1.01312,0.62346 0.45449,1.6423c2.05983,0.67602 4.05593,1.65921 5.97373,3.08894c0,0 1,0.75 0.25,1.75c-0.75,1 -1.75,0.25 -1.75,0.25c-6.14201,-4.63745 -13.43884,-4.04511 -20.7824,-4.07696l-1.47302,-0.00639c0,0 -1.24999,-0.00542 -1.24457,-1.25541c0.00542,-1.24999 1.25541,-1.24457 1.25541,-1.24457l1.47302,0.00639c3.99585,0.01733 7.90756,-0.08408 11.65734,0.4397c-6.36895,-2.90936 -13.03707,-2.88715 -20.263,-2.95259l-1.7846,-0.35112c0,0 -1.22573,-0.24515 -0.98058,-1.47087z" fill="#0048ff" fill-rule="nonzero" stroke="none" stroke-width="0.5" stroke-linecap="butt" stroke-linejoin="miter"/><path d="M270.2847,218.04515c0.55902,1.11803 -0.55902,1.67705 -0.55902,1.67705l-0.3418,0.09918c-0.88889,0.88889 -1.77778,1.77778 -2.66667,2.66667c0,0 -0.88388,0.88388 -1.76777,0c-0.88388,-0.88388 0,-1.76777 0,-1.76777c0.88889,-0.88889 1.77778,-1.77778 2.66667,-2.66667l0.99153,-0.56748c0,0 1.11803,-0.55902 1.67705,0.55902z" fill="#0048ff" fill-rule="nonzero" stroke="none" stroke-width="0.5" stroke-linecap="butt" stroke-linejoin="miter"/><path d="M297.08333,226.93431c0.00319,1.25 -1.2468,1.25319 -1.2468,1.25319l-1.53427,0.00392c-3.58023,-0.02356 -6.70503,1.91969 -10.00468,3.24002c0,0 -1.1606,0.46424 -1.62483,-0.69636c-0.46424,-1.1606 0.69636,-1.62483 0.69636,-1.62483c3.67611,-1.46991 6.92072,-3.36439 10.92433,-3.41881l1.53672,-0.00392c0,0 1.25,-0.00319 1.25319,1.2468z" fill="#0048ff" fill-rule="nonzero" stroke="none" stroke-width="0.5" stroke-linecap="butt" stroke-linejoin="miter"/></g></g></svg>