<svg version="1.1" xmlns="http://www.w3.org/2000/svg" xmlns:xlink="http://www.w3.org/1999/xlink" width="97.48906" height="100.37073" viewBox="0,0,97.48906,100.37073"><g transform="translate(-192.22886,-131.58566)"><g data-paper-data="{&quot;isPaintingLayer&quot;:true}" stroke-miterlimit="10" stroke-dasharray="" stroke-dashoffset="0" style="mix-blend-mode: normal"><g fill-rule="evenodd"><path d="M222.27433,201.13431c0.6639,0.54802 2.06133,1.75663 -1.16046,4.1654c-3.22179,2.40877 -10.0577,1.33844 -10.82856,1.14284c-3.01385,-0.66985 -6.67547,-1.59896 -10.34815,-3.85934c-10.6861,-6.50714 -7.27943,-18.07337 -2.9599,-18.97002c4.22317,-0.9211 3.69527,6.63107 7.6847,12.29299c1.72431,2.52512 4.30478,3.93902 6.48367,4.96635c3.11574,1.35994 10.39518,-0.3988 11.1287,0.26179z" fill="#ffab19" stroke="#001026" stroke-width="1.2" stroke-linecap="round" stroke-linejoin="round"/><path d="M200.54343,187.93413c0.81974,2.77004 2.79071,6.876 2.79071,6.876c0,0 -3.3246,-1.69761 -5.80272,-0.71327c-1.98572,0.72971 -2.18858,2.76583 -2.18305,3.43147c-0.90503,-1.46322 -1.96544,-3.44032 -1.9931,-6.7685c-0.02766,-3.32818 2.05903,-6.7841 4.14664,-6.82373c2.03413,0.13658 2.11481,1.58041 3.04151,3.99803z" fill="#ffffff" stroke="none" stroke-width="1" stroke-linecap="butt" stroke-linejoin="miter"/></g><path d="M233.58301,207.27799c-1.61028,1.2861 -7.13504,5.96911 -14.42862,8.98779l-0.37147,0.12761c-0.37147,0.12761 -0.52042,0.61852 -0.29789,0.98182c1.80972,2.13888 5.14441,6.44116 0.06329,8.50433c-4.8913,2.04681 -15.44033,-10.52624 -11.75657,-14.38135c1.68886,-1.4841 3.35957,-0.95871 4.24648,-0.65265c0.49091,0.14894 0.96547,0.10806 1.43185,-0.02772c1.10623,-0.47776 3.12887,-1.41692 4.66878,-2.41012c3.9013,-2.43961 4.77683,-3.37558 6.55243,-4.96276c1.77559,-1.58719 5.83899,-5.47501 9.61234,-2.74036c3.25791,2.30098 1.79479,5.29547 0.27942,6.5734z" fill="#ffab19" fill-rule="evenodd" stroke="#001026" stroke-width="1.2" stroke-linecap="round" stroke-linejoin="round"/><path d="M243.45495,190.23168c0.39146,0.43623 5.02263,8.07181 6.80064,6.42624c2.12987,-1.91484 5.13407,-5.75687 7.92644,-2.19716c2.79237,3.55971 -3.2204,8.63608 -5.72926,9.91525c-5.94009,2.57588 -10.23594,-3.72597 -11.13552,-5.41114c-0.89959,-1.68517 -2.48012,-4.53451 -2.31791,-7.12724c0.25798,-2.78471 3.13335,-3.22876 4.45561,-1.60595z" fill="#ffab19" fill-rule="evenodd" stroke="#001026" stroke-width="1.2" stroke-linecap="round" stroke-linejoin="round"/><g fill-rule="evenodd"><path d="M244.90141,213.91078c2.13239,2.05157 6.8247,6.28431 6.8247,6.28431c0,0 18.26398,-1.8615 17.67648,5.31839c-0.35087,4.28798 -10.75878,5.18407 -21.25106,3.56196c-0.64539,-0.14454 -1.28262,-0.38881 -1.7946,-0.82504c-2.24132,-2.05904 -8.64662,-8.11402 -12.6854,-12.30194c-0.75721,-0.79171 -1.49942,-1.54994 -2.21822,-2.2704c-4.93258,-4.94398 -8.76232,-8.10957 -8.76232,-8.10957c-8.58136,-8.91179 -0.77993,-11.88655 2.55271,-16.47144c3.05768,-3.90179 4.19057,-3.02185 10.62816,-1.37698c3.66265,0.75259 5.81666,1.20116 8.22118,1.26579c3.60268,0.1468 2.55747,4.88857 1.37315,7.31435c0,0 -1.82686,3.58508 -3.39792,5.38265c-1.93048,2.17405 -3.35997,3.58021 -4.74051,4.38805z" fill="#ffab19" stroke="#001026" stroke-width="1.2" stroke-linecap="round" stroke-linejoin="round"/><path d="M236.35555,205.90395c0,0 -1.53595,-1.3087 -3.15636,-2.92404c-2.03162,-1.94438 -4.08772,-3.58959 -1.65626,-6.53152c2.15649,-2.25883 4.26933,-5.32289 8.93432,-2.09483c4.46346,3.01368 2.1899,5.36476 2.1899,5.36476c-2.76355,4.32308 -6.31157,6.18563 -6.31157,6.18563z" fill="#ffffff" stroke="none" stroke-width="1" stroke-linecap="butt" stroke-linejoin="miter"/></g><path d="M236.21518,213.36064c4.77774,2.82689 11.45394,5.83381 9.27716,14.0921c-3.56759,10.21321 -17.42811,-2.27892 -21.50489,-7.2305c-3.62634,-4.37412 -2.52098,-9.77331 -1.59228,-14.3545c2.00573,-8.58751 3.50989,-16.11399 9.12523,-16.88571c6.95505,-1.0881 6.47729,8.41384 5.30918,13.40275c-0.68376,3.02627 -1.28199,6.21717 -1.87464,8.26083c0.10274,1.0662 0.50764,2.13499 1.26024,2.71502z" fill="#ffab19" fill-rule="evenodd" stroke="#001026" stroke-width="1.2" stroke-linecap="round" stroke-linejoin="round"/><g fill-rule="evenodd"><path d="M264.82437,140.05595c0.34119,-0.11661 0.79896,0.10796 0.79332,0.52024l-0.22356,11.00908c0,0 4.98482,6.18075 5.97745,9.85698c1.68664,6.13557 0.63222,10.51144 0.63222,10.51144c0,0 6.3266,3.84631 6.02862,9.66363c-0.29799,5.81732 -7.31423,15.13249 -26.43521,13.90035c-19.12099,-1.23213 -32.41402,-10.02503 -36.36168,-22.86192c-3.94766,-12.8369 10.35858,-23.11947 9.5739,-22.49957l2.54868,-17.84164c0.00565,-0.41228 0.56575,-0.57439 0.90128,-0.27872l9.67661,10.73234c0,0 4.78515,-0.49234 9.37993,0.51657c2.758,0.52289 5.027,1.33016 7.14815,2.30519z" fill="#ffab19" stroke="#001026" stroke-width="1.2" stroke-linecap="butt" stroke-linejoin="miter"/><path d="M271.61147,172.26366c0,0 6.21,3.50512 5.91201,9.32244c-0.29799,5.81732 -7.57302,14.54681 -26.47507,13.26916c-24.67386,-1.35671 -32.10773,-18.2193 -22.91918,-26.75278c9.21415,-8.63015 18.00376,3.10878 26.27778,4.67746c7.08836,1.35839 9.47328,-4.52737 17.20446,-0.51628z" fill="#ffffff" stroke="none" stroke-width="1" stroke-linecap="butt" stroke-linejoin="miter"/><path d="M238.42243,174.54998c0.10232,-0.38669 0.56575,-0.57439 0.92687,-0.37539c1.65772,1.16272 6.46878,4.09082 12.16685,6.01231c5.1436,1.67134 8.31388,2.19988 9.8407,2.29356c0.50894,0.03123 0.76774,0.61692 0.44648,1.04913c-1.56072,2.37995 -7.15279,8.65838 -17.14997,5.39246c-8.54144,-3.29451 -7.77437,-9.7118 -6.23094,-14.37204z" fill="#ffffff" stroke="#001026" stroke-width="1.2" stroke-linecap="round" stroke-linejoin="round"/><path d="M289.11792,178.03376c-5.51567,2.47132 -12.5017,0.72623 -12.5017,0.72623" fill="none" stroke="#001026" stroke-width="1.2" stroke-linecap="round" stroke-linejoin="round"/><path d="M284.99621,188.52861c-6.2183,-1.12817 -9.50253,-3.96257 -9.50253,-3.96257" fill="none" stroke="#001026" stroke-width="1.2" stroke-linecap="round" stroke-linejoin="round"/><path d="M254.6854,170.16412c2.03013,0.53718 4.10578,1.29328 4.02339,1.99557c-0.26146,1.379 -2.42778,3.70215 -4.00013,3.38955c-1.79127,-0.26709 -5.21204,-3.75828 -4.80275,-5.30504c0.21029,-1.18566 2.84605,-0.59167 4.7795,-0.08008z" fill="#001026" stroke="#001026" stroke-width="1.2" stroke-linecap="round" stroke-linejoin="round"/><path d="M211.56626,157.20305c0,0 7.59764,4.90673 10.18821,8.79889" fill="none" stroke="#001026" stroke-width="1.2" stroke-linecap="round" stroke-linejoin="round"/><path d="M221.14918,169.46221c-4.5918,0.5435 -11.46422,-2.41282 -11.46422,-2.41282" fill="none" stroke="#001026" stroke-width="1.2" stroke-linecap="round" stroke-linejoin="round"/><g><path d="M269.08567,161.87182c1.65242,5.0921 0.44451,10.048 -2.72277,11.07188c-3.16728,1.02387 -7.07706,-2.18294 -8.82615,-7.30062c-1.65242,-5.0921 -0.44451,-10.048 2.72277,-11.07188c3.19286,-1.12055 7.17373,2.20852 8.82615,7.30062z" fill="#ffffff" stroke="#001026" stroke-width="1.2" stroke-linecap="round" stroke-linejoin="round"/><path d="M267.24092,167.27985c-0.28138,1.0634 -1.28498,1.72882 -2.25171,1.47302c-0.96672,-0.2558 -1.50989,-1.33049 -1.22852,-2.39389c0.28138,-1.0634 1.28498,-1.72882 2.25171,-1.47302c0.96672,0.2558 1.50989,1.33049 1.22852,2.39389" fill="#001026" stroke="none" stroke-width="1" stroke-linecap="butt" stroke-linejoin="miter"/></g><g><path d="M244.39452,158.23484c1.77467,5.02101 0.20001,10.19019 -2.89618,11.33631c-3.67622,0.99265 -7.57172,-1.48629 -9.34639,-6.50731c-1.87135,-5.04659 -0.60664,-10.60811 2.95299,-11.94194c3.5852,-1.43049 7.51492,2.09191 9.28958,7.11292z" fill="#ffffff" stroke="#001026" stroke-width="1.2" stroke-linecap="round" stroke-linejoin="round"/><path d="M242.33085,163.68839c-0.28138,1.0634 -1.28498,1.72882 -2.25171,1.47302c-0.96672,-0.2558 -1.50989,-1.33049 -1.22852,-2.39389c0.28138,-1.0634 1.28498,-1.72882 2.25171,-1.47302c0.94115,0.35248 1.50989,1.33049 1.22852,2.39389" fill="#001026" stroke="none" stroke-width="1" stroke-linecap="butt" stroke-linejoin="miter"/></g></g><path d="M226.44064,217.51664c0.71861,-1.02279 1.7414,-0.30418 1.7414,-0.30418l1.57755,1.1194c2.42316,0.94384 4.24195,2.15334 6.31516,3.70753c0,0 1,0.75 0.25,1.75c-0.75,1 -1.75,0.25 -1.75,0.25c-1.99412,-1.4963 -3.66321,-2.59172 -5.99678,-3.50441l-1.83313,-1.27694c0,0 -1.0228,-0.71861 -0.30419,-1.7414z" fill="#19ffdf" fill-rule="nonzero" stroke="none" stroke-width="0.5" stroke-linecap="butt" stroke-linejoin="miter"/><path d="M218.28149,205.99613c0.88388,-0.88388 1.76777,0 1.76777,0l0.24623,0.28056c0.93249,0.62384 1.9187,1.16854 2.92282,1.66899c0,0 1.11803,0.55902 0.55902,1.67705c-0.55902,1.11803 -1.67705,0.55902 -1.67705,0.55902c-1.09545,-0.54936 -2.17088,-1.14665 -3.19154,-1.82493l-0.62725,-0.59292c0,0 -0.88388,-0.88388 0,-1.76777z" fill="#19ffdf" fill-rule="nonzero" stroke="none" stroke-width="0.5" stroke-linecap="butt" stroke-linejoin="miter"/><path d="M217.6106,196.27598c0.55902,-1.11803 1.67705,-0.55902 1.67705,-0.55902l1.14851,0.62372c1.67252,1.60834 4.75586,1.99512 6.84717,3.38491c0,0 1.04006,0.69338 0.34669,1.73344c-0.69338,1.04006 -1.73344,0.34669 -1.73344,0.34669c-2.31569,-1.5492 -5.07952,-1.84877 -7.1285,-3.60292l-0.59845,-0.24976c0,0 -1.11803,-0.55902 -0.55902,-1.67705z" fill="#19ffdf" fill-rule="nonzero" stroke="none" stroke-width="0.5" stroke-linecap="butt" stroke-linejoin="miter"/><path d="M221.22255,191.7176c0.07293,-0.09724 0.14822,-0.17793 0.22473,-0.24438l-1.36698,-0.44021c0,0 -0.67419,-0.22473 -0.83643,-0.84364l-0.20077,-0.09767c0,0 -1.11803,-0.55902 -0.55902,-1.67705h-0.00001c0.55902,-1.11803 1.67705,-0.55902 1.67705,-0.55902l0.70975,0.36892c1.20307,0.40153 2.38517,0.8647 3.56287,1.33548c0,0 0.07094,0.02838 0.17073,0.08864c0.61903,0.24587 1.24001,0.52682 1.94401,0.75958c0,0 1.18585,0.39528 0.79057,1.58114c-0.39528,1.18585 -1.58114,0.79057 -1.58114,0.79057c-0.78449,-0.26336 -1.44961,-0.60116 -2.13332,-0.86109c-0.03492,-0.00927 -0.0632,-0.01808 -0.08346,-0.02484l1.17836,0.88377c1.09453,0.83378 2.13581,1.78994 2.9105,2.92706c0,0 0.69338,1.04006 -0.34669,1.73344c-1.04006,0.69338 -1.73344,-0.34669 -1.73344,-0.34669c-0.59517,-0.91872 -1.44872,-1.66501 -2.33038,-2.31381l-1.74696,-1.31022c0,0 -1,-0.75 -0.25,-1.75z" fill="#19ffdf" fill-rule="nonzero" stroke="none" stroke-width="0.5" stroke-linecap="butt" stroke-linejoin="miter"/><path d="M220.90193,200.75525c0.88388,-0.88388 1.76777,0 1.76777,0l-0.05186,0.13477c1.02891,0.35116 2.01012,0.85871 2.91853,1.45601c0,0 1.04006,0.69338 0.34669,1.73344c-0.69338,1.04006 -1.73344,0.34669 -1.73344,0.34669c-0.71674,-0.486 -1.49835,-0.89807 -2.32235,-1.16443l-0.92534,-0.73871c0,0 -0.88388,-0.88388 0,-1.76777z" fill="#19ffdf" fill-rule="nonzero" stroke="none" stroke-width="0.5" stroke-linecap="butt" stroke-linejoin="miter"/><path d="M210.05406,210.37393c0,-1.25 1.25,-1.25 1.25,-1.25l1.5016,0.01474c4.74569,1.47261 8.79087,2.47879 12.78733,5.47614c0,0 1,0.75 0.25,1.75c-0.75,1 -1.75,0.25 -1.75,0.25c-3.66589,-2.74942 -7.32067,-3.58757 -11.6701,-5.00561l-1.11884,0.01474c0,0 -1.25,0 -1.25,-1.25z" fill="#19ffdf" fill-rule="nonzero" stroke="none" stroke-width="0.5" stroke-linecap="butt" stroke-linejoin="miter"/><path d="M222.7153,190.37848c0.55902,-1.11803 1.67705,-0.55902 1.67705,-0.55902l0.66667,0.33333c1.65876,0.83062 3.06103,1.68122 4.83627,2.26551c0,0 1.18585,0.39528 0.79057,1.58114c-0.39528,1.18585 -1.58114,0.79057 -1.58114,0.79057c-1.89187,-0.63762 -3.39495,-1.51817 -5.16373,-2.40115l-0.66667,-0.33333c0,0 -1.11803,-0.55902 -0.55902,-1.67705z" fill="#0048ff" fill-rule="nonzero" stroke="none" stroke-width="0.5" stroke-linecap="butt" stroke-linejoin="miter"/><path d="M219.29197,196.94963c0.3212,-1.20803 1.52923,-0.88682 1.52923,-0.88682l0.8789,0.23369c1.63474,0.43507 3.25688,0.92058 4.86184,1.45515c0,0 1.18585,0.39528 0.79057,1.58114c-0.39528,1.18585 -1.58114,0.79057 -1.58114,0.79057c-1.5558,-0.51902 -3.12856,-0.98975 -4.71368,-1.4108l-0.8789,-0.23369c0,0 -1.20803,-0.3212 -0.88682,-1.52923z" fill="#0048ff" fill-rule="nonzero" stroke="none" stroke-width="0.5" stroke-linecap="butt" stroke-linejoin="miter"/><path d="M220.91667,207.27083c0,-0.69036 0.55964,-1.25 1.25,-1.25c0.69036,0 1.25,0.55964 1.25,1.25c0,0.69036 -0.55964,1.25 -1.25,1.25c-0.69036,0 -1.25,-0.55964 -1.25,-1.25z" fill="#0048ff" fill-rule="nonzero" stroke="none" stroke-width="0.5" stroke-linecap="butt" stroke-linejoin="miter"/><path d="M239.94098,229.38887c-1.11803,-0.55902 -0.55902,-1.67705 -0.55902,-1.67705l0.77065,-1.5052c0.62446,-0.63333 2.11088,-2.0509 2.58269,-2.86647c2.10129,-3.63233 -5.2344,-8.06881 -6.11853,-11.44879c-1.06572,-4.07418 -0.36677,-9.08446 -0.36677,-13.28719c0,0 0,-1.25 1.25,-1.25c1.25,0 1.25,1.25 1.25,1.25c0,4.05808 -0.62014,8.76447 0.29989,12.71281c1.17436,5.03976 9.07096,7.12766 5.88147,13.21788c-0.5729,1.09392 -1.85769,2.25495 -2.75064,3.13353l-0.56269,1.16146c0,0 -0.55902,1.11803 -1.67705,0.55902z" fill="#0048ff" fill-rule="nonzero" stroke="none" stroke-width="0.5" stroke-linecap="butt" stroke-linejoin="miter"/><path d="M240.38892,230.86608c-0.26191,1.22225 -1.48416,0.96034 -1.48416,0.96034l-2.22216,-0.47618c-4.43988,-0.9622 -8.74518,-3.27343 -12.2968,-6.10332c0,0 -0.97609,-0.78087 -0.19522,-1.75695c0.78087,-0.97609 1.75695,-0.19522 1.75695,-0.19522c3.22237,2.58934 7.21162,4.75457 11.25888,5.61099l2.22216,0.47618c0,0 1.22225,0.26191 0.96034,1.48416z" fill="#0048ff" fill-rule="nonzero" stroke="none" stroke-width="0.5" stroke-linecap="butt" stroke-linejoin="miter"/></g></g></svg>