<svg version="1.1" xmlns="http://www.w3.org/2000/svg" xmlns:xlink="http://www.w3.org/1999/xlink" width="432.59758" height="90.19561" viewBox="0,0,432.59758,90.19561"><g transform="translate(-22.82684,-214.19618)"><g data-paper-data="{&quot;isPaintingLayer&quot;:true}" fill-rule="nonzero" stroke-linecap="butt" stroke-linejoin="miter" stroke-miterlimit="10" stroke-dasharray="" stroke-dashoffset="0" style="mix-blend-mode: normal"><path d="M443.36865,237.69289c-4.20662,1.04759 -8.60761,1.71188 -12.7652,1.8968c-0.36569,0.05263 -0.61828,0.05263 -0.61828,0.05263l0.07769,-0.03124c-0.06607,0.00229 -0.13208,0.00445 -0.19802,0.00648c-2.53233,0.64605 -5.26793,0.77474 -7.89718,1.16559c-3.31808,0.49326 -6.41028,1.64753 -9.69274,2.2617c-6.00353,2.04903 -7.31655,6.53002 -11.03489,10.3835c-2.90981,3.01557 -7.82322,4.50053 -11.47964,6.92372c-1.28927,0.85442 -2.18815,2.10188 -3.72049,2.68456c-2.19249,0.83369 -4.73851,0.97175 -7.11538,1.4358c-3.5077,0.68483 -6.84152,1.83828 -10.37149,2.45452c-4.35062,0.75951 -8.93213,0.47238 -13.31373,1.12265c-7.05162,1.04653 -13.53835,3.80422 -20.85102,4.19757c-5.1912,0.27923 -9.82635,-0.59297 -14.93059,-0.59297c-2.72125,0.31685 -5.15998,1.4522 -7.72261,2.2122c-3.9891,1.18305 -8.68363,0.89729 -12.74327,1.82456c-7.04892,1.61007 -14.18208,3.4373 -21.35778,4.97337c-5.27549,1.1293 -9.89972,3.35177 -15.355,4.01957c-3.77105,0.46163 -7.64066,0.02417 -11.46102,0.02417c-9.42985,0 -18.8597,0 -28.28955,0c-0.54323,0 -8.85002,0.02241 -9.40522,-0.06688c-1.04375,-0.16785 -1.76378,-1.03618 -2.82185,-1.14119c-2.67323,-0.26529 -5.24617,1.01254 -7.93101,1.19955c-3.30703,0.23034 -6.61717,0.44103 -9.93189,0.5961c-11.30692,0.52895 -23.77452,0.01623 -34.50557,-2.47013c-5.49471,-1.27311 -10.99864,-0.48578 -16.66667,-1.81935c-6.31288,-1.48529 -11.59878,-5.46034 -16.1648,-8.88974c-1.62005,-1.22246 -2.76256,-2.90082 -4.76979,-3.73433c-3.00389,-1.24739 -6.73257,-0.98422 -10.08719,-1.51916c-9.1285,-1.45569 -18.45818,-3.74278 -27.67176,-4.70783c-2.52513,-0.26449 -5.35322,0.62041 -7.64211,-0.22665c-2.26399,-0.83785 -3.79293,-2.65769 -4.83441,-4.39059c-0.53681,-0.89319 1.13316,-2.0946 0.43861,-2.92356c-0.56205,-0.67083 -2.11136,-0.09815 -3.1317,-0.29073c-1.10972,-0.20944 -2.14312,-0.60421 -3.21435,-0.90699c-8.14073,-2.30097 -16.06569,-4.89032 -22.89709,-8.98535c0,0 -0.69287,-0.41827 -1.07462,-1.09246c-2.15585,-1.1606 -4.68074,-2.14977 -6.92152,-3.31203c-0.84478,-1.26603 -1.59937,-2.60912 -2.78674,-3.59866c-0.69645,-0.58041 -1.39478,-1.1339 -2.09256,-1.67853c-0.19228,-0.86922 -0.49766,-1.69593 -0.89992,-2.46391l-0.03935,-1.0252c-0.00183,-0.03096 -0.00183,-0.04782 -0.00183,-0.04782c0,-1.3836 0,-2.76719 0,-4.15079v-0.59297c0,0 0,-2.5 3.31307,-2.5c0.2966,0 0.56664,0.02004 0.81251,0.05652c12.44254,-3.08001 27.02485,-4.7972 40.05017,-4.80029h4.71493c0,0 3.31307,0 3.31307,2.5c0,0.55929 -0.16582,0.99346 -0.42326,1.3305c6.75307,-0.46316 13.46092,-1.19913 20.26851,-1.34814c19.10871,-0.41826 38.06165,0.15104 57.12886,-1.15248c43.09503,-0.57632 86.29036,-1.32988 129.4203,-1.32988c8.32218,0 16.64811,-0.01021 24.93581,-0.58149c3.45834,-0.23839 6.833,-1.01573 10.29795,-1.19114c13.56587,-0.68677 27.50409,-0.00629 41.09754,-0.00629c14.81637,0 30.02895,-0.74855 44.73885,0.6549c4.55379,1.16681 8.52903,1.11829 13.22336,1.75794c8.34526,1.13712 16.06171,2.33092 24.54899,2.33092h3.9291c0,0 2.8378,0 3.26064,1.98183c-0.12854,0.63999 -0.19598,1.30208 -0.19598,1.97993c0,0.05694 0.00048,0.11377 0.00142,0.17048c-0.11601,0.31893 -0.21626,0.64544 -0.29979,0.97858c-1.84693,2.13893 -3.44049,4.45269 -3.66269,7.0074c-1.57923,1.06537 -3.10959,2.19255 -4.57983,3.38474z" fill="#737373" stroke="#040000" stroke-width="6.5"/><path d="M23.9205,219.44993h425.70924" fill="none" stroke="#000000" stroke-width="10"/><path d="M79.50385,269.85381c-0.78674,-0.06578 -1.56516,-0.10152 -2.33628,-0.12969c-0.47119,-0.26108 -0.94474,-0.51826 -1.42039,-0.772c-3.42372,-2.58634 -6.2663,-6.08917 -9.6748,-8.64957c-3.92452,-2.94803 -8.15551,-5.08498 -12.46636,-7.3841c-1.07087,-0.57113 -2.21545,-1.08254 -3.39847,-1.56602c-3.20137,-2.05998 -6.79445,-4.20529 -9.85726,-5.4064c-1.0677,-0.4187 -2.12215,-1.20103 -3.20639,-1.57467c-0.76528,-0.61058 -1.55036,-1.18149 -2.37078,-1.68259c-0.51815,-1.6074 -2.03665,-2.78246 -3.15636,-3.95635c-1.54081,-1.61537 -2.35084,-3.83846 -4.09891,-5.29528c-0.69645,-0.58041 -1.39478,-1.1339 -2.09256,-1.67853c-0.22196,-1.00343 -0.59466,-1.95021 -1.09312,-2.81538c1.12198,0.01372 1.98324,0.36639 1.98324,0.36639c4.60573,1.89809 9.18266,2.49941 13.47708,5.11166c3.53063,2.14764 6.69292,4.87985 10.08644,7.27333c0.54982,0.3878 0.89971,1.08172 1.5194,1.33618c0.3198,0.13132 0.64878,0.23738 0.98504,0.32391c0.10947,0.53061 0.1954,1.05546 0.22303,1.566c0.30247,5.5886 7.29303,6.60776 10.60976,10.24416c3.98266,4.36651 10.88912,6.28865 15.69099,9.51847c2.57448,1.73164 4.4324,3.66799 6.8818,5.57499c-2.09011,-0.09595 -4.18049,-0.22854 -6.28511,-0.40451z" fill="#730000" stroke="none" stroke-width="0.5"/><path d="" fill="#730000" stroke="none" stroke-width="0.5"/><path d="" fill="#730000" stroke="none" stroke-width="0.5"/><path d="" fill="#730000" stroke="none" stroke-width="0.5"/><path d="" fill="#730000" stroke="none" stroke-width="0.5"/><path d="M445.50658,229.05837c-0.28828,0.73203 -0.48167,1.48436 -0.54904,2.25884c-2.68819,1.8135 -5.23479,3.80608 -7.58433,5.99358c-2.68657,2.50129 -3.33975,4.55571 -3.09705,7.13209c-1.08583,0.43065 -2.1773,0.81133 -3.25802,1.11105c1.73546,-2.00472 3.20554,-4.32619 3.20554,-6.84029c0,-4.12194 -1.56603,-6.6476 -3.89861,-8.14329c5.10107,0.05502 10.37053,-0.31985 15.1815,-1.51199z" fill="#730000" stroke="none" stroke-width="0.5"/><path d="M219.69509,299.07924c-1.7566,0.90163 -4.20713,1.17644 -8.42633,1.23038c-10.36774,0.13255 -20.73803,0.13255 -31.10577,0c-4.98206,-0.06369 -9.51313,-2.82407 -11.81649,-6.75741c-1.31961,-0.04203 -2.69505,-0.10626 -4.22207,-0.23424c-10.61178,-0.88944 -21.05433,-3.88992 -31.35958,-6.28149c-9.70738,-2.25282 -19.68539,-4.29022 -29.64528,-4.98228c-6.6393,-3.5408 -14.01808,-5.85951 -20.79501,-9.22346c-2.12654,-1.40241 -4.32849,-2.67893 -6.57738,-3.87862c-3.4237,-2.58634 -6.26628,-6.08916 -9.67476,-8.64955c-3.92452,-2.94803 -8.15551,-5.08498 -12.46636,-7.3841c-1.07088,-0.57113 -2.21546,-1.08254 -3.39849,-1.56603c-3.20137,-2.05998 -6.79446,-4.2053 -9.85728,-5.40641c-1.30439,-0.51153 -2.58901,-1.56577 -3.93233,-1.75449c-0.47019,-0.24439 -0.96225,-0.45254 -1.47246,-0.62072c-0.14914,-2.07985 -2.01387,-3.45991 -3.3287,-4.83838h-0.00001c-1.54081,-1.61537 -2.35084,-3.83846 -4.09891,-5.29528c-0.69645,-0.58041 -1.39478,-1.1339 -2.09256,-1.67853c-0.40818,-1.84525 -1.3261,-3.49895 -2.59848,-4.8058c0.80654,-0.091 1.6401,-0.11017 2.40547,-0.18553c5.01803,-0.49412 11.99268,-0.38235 16.83026,2.35155c2.47523,0.05687 4.96626,0.70596 7.16,1.51747c2.88969,1.06897 6.77248,1.02672 9.36786,2.41093c5.15399,2.7488 12.17896,8.06975 17.67734,9.76894c2.65551,0.82064 3.94168,1.14679 6.38191,2.04412c0.38593,0.14192 3.15684,2.4726 3.28184,2.32573c2.17138,-2.55139 4.19573,-2.46213 8.30693,-2.15213c5.92137,0.44649 11.93304,4.52126 17.728,5.87595c4.96552,1.16079 9.99249,1.60119 14.93056,2.92216c10.02322,2.68128 19.43047,9.38339 30.06369,9.42474c13.43063,0.05223 26.86153,0.0923 40.29234,0.08949c1.76684,-1.76856 4.62043,-2.90487 8.77922,-3.73663c2.37991,-0.47598 5.89314,2.38462 7.9669,3.7087c4.37643,-0.01426 8.75283,-0.03443 13.1292,-0.06156c4.91362,-0.03047 9.77297,-1.7615 14.64802,-1.79456c8.97261,-0.06086 17.94751,0.18308 26.91846,0c20.65971,-0.42163 40.44579,-5.9604 60.69128,-9.46297c9.08306,-1.57141 18.1815,-2.80918 26.92868,-5.28298c3.65824,-1.03459 7.54222,-1.22206 11.19265,-2.34657c0.7333,-1.35424 1.74894,-2.53325 2.96797,-3.45812c0.33095,-0.32039 0.69996,-0.60248 1.11645,-0.83676l-0.00003,-0.00002c0.24584,-0.13829 0.55931,-0.26598 0.93017,-0.38469c1.35467,-0.61597 2.85968,-0.95906 4.44483,-0.95906c0.23725,0 0.47271,0.00769 0.70614,0.02282c1.63159,-0.19723 3.41915,-0.37033 5.1915,-0.54629c6.47334,-2.57196 13.00392,-4.97223 19.8076,-6.83188c3.67576,-1.0047 6.82896,-3.05687 10.78423,-3.41204c0.24702,-0.02218 0.49051,-0.044 0.73064,-0.06547c3.8725,-1.87237 7.80666,-3.68954 12.02618,-5.14753c2.40882,-0.83233 5.37856,-0.54632 7.76508,-0.57345c1.54362,-0.01755 3.43241,-1.23827 4.62404,-0.25689c1.73876,1.43196 3.20218,3.25175 4.33439,5.24982c0.13662,0.00475 0.27419,0.00958 0.41274,0.01447c1.04055,-0.35162 2.72337,-1.05297 4.14555,-1.49616c-1.33333,1.74795 -2.3621,3.61338 -2.53739,5.62878c-0.07008,0.04728 -0.14007,0.09468 -0.20996,0.14221c0.68956,3.66523 -3.60761,8.25617 -5.54163,10.2865c-0.60242,0.63242 -2.73014,1.19581 -4.97654,1.7236c-0.00218,0.71854 0.08476,1.47101 0.2324,2.28162c-5.08245,3.08991 -12.41771,5.5341 -11.32759,13.26174c0.01776,0.12593 0.04551,0.24796 0.08181,0.36667c-0.47096,1.05979 -1.77345,1.63886 -3.15219,2.10927c-0.8342,0.41839 -1.73039,0.7314 -2.67111,0.9216c-0.18326,0.07969 -0.3552,0.1631 -0.51263,0.25181c-5.32548,3.00084 -9.99314,5.51371 -15.8506,7.67062c-7.99769,2.94502 -15.58406,6.06282 -24.07188,7.17991c-5.24529,0.69034 -11.33838,0.68408 -16.88742,1.16044c-5.00864,2.72188 -10.72405,3.60724 -16.3284,4.07107c-7.07974,0.58594 -14.42085,0.60761 -21.53477,1.19638c-6.07057,0.50242 -12.14402,2.98353 -18.21911,3.80704c-2.10601,0.28548 -4.13661,0.50868 -6.13749,0.68166c0.09096,0.56273 0.13823,1.14009 0.13823,1.72849c0,1.11088 -0.1685,2.18241 -0.48134,3.19042c-7.63011,0.02285 -15.26024,0.03277 -22.89039,0.03455c-0.53661,0.65403 -1.14887,1.24361 -1.82342,1.75537c-0.33096,0.3204 -0.69997,0.60248 -1.11646,0.83676c-0.83386,0.46905 -1.75098,0.79384 -2.69788,1.00774c-0.85585,0.21936 -1.75286,0.33601 -2.67712,0.33601c-6.82499,0.26056 -17.83854,1.13903 -27.97178,0.09222c-4.64404,2.37667 -11.32348,2.31673 -17.93136,1.249c-0.22285,0.15296 -0.45645,0.29237 -0.70382,0.41934z" fill="#737373" stroke="none" stroke-width="0.5"/><path d="M109.97388,282.14666c0.23824,0.03385 0.47629,0.06892 0.71417,0.10504c0.13272,0.03417 0.26554,0.06788 0.39847,0.10112c2.00882,0.50221 3.96314,0.75238 5.91124,0.99212c1.2726,0.22363 2.54707,0.43485 3.82736,0.60772c5.37259,0.72546 9.67633,3.77193 14.794,4.76554c2.31367,-0.00728 4.77733,0.08425 7.26093,0.28474c4.2844,0.93345 8.58919,1.78465 12.91525,2.48405c3.64886,1.90737 6.52985,5.72762 10.53175,6.23018c3.47678,0.43662 4.76596,-0.34913 8.22183,-0.63198c3.75235,-0.30712 7.57483,0.27442 11.3279,0.00289c9.70072,-0.70184 19.22225,-1.80564 28.98109,-1.80564c16.76043,0 33.46228,-1.19637 50.2478,-1.19637c2.83963,0 5.67927,0 8.5189,0c2.24159,-0.41347 4.74682,-0.31484 7.1119,-0.1798c0.70866,-0.00029 1.41307,0.03069 2.092,0.11914c0.70227,0.03559 1.37886,0.06067 2.01741,0.06067h2.0797c2.28085,-0.8437 4.45043,-1.88959 6.38087,-3.10374c2.58944,-1.62863 4.71878,-4.72252 7.35334,-6.08271c1.05512,-0.54474 2.34518,-0.42555 3.46974,-0.80684c0.46713,-0.15839 0.89466,-0.42268 1.3254,-0.67503c2.19371,-0.32213 4.3815,-0.69602 6.55641,-1.16494c3.42347,-0.08932 6.92879,0.18509 10.25232,-0.11944c2.41564,-0.22134 4.76232,-0.97823 7.17825,-1.19637c3.20035,-0.28899 6.62773,-0.01108 9.83907,-0.01108c7.54955,0 14.38915,-2.2144 21.81271,-2.97512c2.72368,-0.27911 2.80646,0.40452 5.24739,-0.43809c2.46047,-0.84936 2.15188,-1.78431 5.09355,-2.48172c1.04352,-0.2474 2.16172,0.14592 3.21705,-0.04498c2.30283,-0.41656 4.45232,-1.58285 6.78041,-1.82072c0.85073,-0.08692 1.73003,0.25811 2.5645,0.07112c0.78463,-0.17582 1.36442,-0.89232 2.13441,-1.12401c4.98343,-1.4995 9.54485,-3.04095 14.30681,-5.36708c6.77712,-1.35543 10.58829,-5.24724 15.6746,-9.55034c2.30842,-1.95296 5.11325,-2.61379 7.40735,-4.36863c1.58375,-1.21146 3.15195,-2.44572 4.78551,-3.58912c3.08245,-2.15758 3.62362,-6.01259 6.50344,-8.31768c0.81583,-0.65301 2.12818,-0.45876 2.92013,-1.14053c0.84697,-0.72915 1.15755,-1.91211 1.73633,-2.86817c0,0 1.80278,-2.70416 4.50694,-0.90139c2.70416,1.80277 0.90139,4.50694 0.90139,4.50694c-1.01639,1.43669 -1.7477,3.12546 -3.04917,4.31009c-0.81543,0.74222 -2.15071,0.63107 -3.06176,1.25222c-1.30046,0.88666 -1.40847,2.83121 -2.33134,4.10623c-1.87201,2.58634 -4.32372,3.72594 -6.71811,5.52174c-0.90236,0.67677 -1.48502,1.7232 -2.39275,2.39275c-2.22219,1.63912 -4.82267,2.15435 -6.94916,4.00601c-5.54296,4.82658 -10.3524,9.29375 -17.82392,10.78806c-4.73666,2.4447 -9.39626,3.90144 -14.40621,5.4003c-0.93858,0.2808 -1.69446,1.05752 -2.6511,1.26874c-1.11258,0.24565 -2.28342,-0.03974 -3.41739,0.07112c-2.19629,0.21472 -4.2089,1.37176 -6.37972,1.76842c-0.90672,0.16568 -1.8612,-0.22673 -2.76484,-0.04497c-1.64551,0.33097 -2.88146,1.78413 -4.47746,2.30378c-2.14232,0.69752 -4.47394,0.54021 -6.71637,0.75829c-7.63311,0.74232 -14.67285,3.00675 -22.45321,3.00675c-3.02918,0 -6.28246,-0.28784 -9.30295,-0.01108c-2.41564,0.22134 -4.76233,0.97823 -7.17826,1.19638c-4.68516,0.42305 -9.91867,-0.51736 -14.47607,0.52232c-0.76715,0.17501 -1.33651,0.86376 -2.0847,1.10741c-0.80575,0.26238 -1.74638,0.02668 -2.51215,0.38954c-0.53645,0.2542 -0.71912,0.95393 -1.16061,1.35079c-0.60173,0.5409 -4.90055,3.94433 -5.84256,4.53026c-2.13742,1.32948 -4.48084,2.47777 -6.93355,3.42225c-0.50445,0.37991 -1.12311,0.6163 -1.7953,0.64848c-4.54845,1.53692 -9.38139,2.38112 -13.91636,2.39653c-0.99698,0 -1.99396,0 -2.99094,0h-2.99094c-1.59789,0 -2.92645,-1.15315 -3.19887,-2.67265c-4.632,-0.10393 -9.2619,-0.1236 -13.88052,0.26882c-11.90116,1.01117 -24.19292,1.20745 -36.15934,1.20745c-9.57791,0 -18.92167,1.11141 -28.44496,1.78349c-3.77529,0.26644 -7.63356,-0.31722 -11.40324,0.0029c-4.18483,0.35537 -5.17205,1.26625 -9.7238,0.5644c-5.55679,-0.85683 -8.36602,-6.13493 -13.56002,-7.26936c-5.31101,-1.15999 -11.3289,-1.66156 -16.74723,-1.67731c-5.29196,-1.07713 -9.67327,-4.08952 -15.11541,-4.80547c-3.57959,-0.47092 -7.10979,-1.2696 -10.68352,-1.78313c-1.76787,-0.25403 -3.5658,-0.33321 -5.37045,-0.38894c-0.67207,-0.73733 -1.45294,-1.37375 -2.31726,-1.88385c-1.20954,-2.11669 -2.66952,-3.72542 -4.29089,-5.04127c4.17351,0.7769 8.611,0.27145 12.77278,0.86277z" fill="#730000" stroke="none" stroke-width="0.5"/><path d="M25.91451,236.06383c1.45344,-2.90689 4.36033,-1.45345 4.36033,-1.45345l2.04103,1.20698c3.43545,3.43545 6.42946,7.32455 9.71874,10.85567c-0.57483,-0.26848 -1.13801,-0.51277 -1.68433,-0.727c-1.59938,-0.62721 -3.16903,-2.07036 -4.85363,-1.73344c-1.23388,0.24678 -2.37053,0.56851 -3.40544,0.95608c-1.41182,-1.62447 -2.84733,-3.23091 -4.37153,-4.75511l-0.35173,0.0106c0,0 -2.90688,-1.45344 -1.45344,-4.36033z" fill="#730000" stroke="none" stroke-width="0.5"/><path d="M30.3569,243.49915c0,-3.25 3.25,-3.25 3.25,-3.25l2.40339,0.23245c6.46937,2.58775 12.83118,5.44917 18.85036,8.86756c2.41215,2.16741 6.1766,3.42679 8.3555,5.8157c2.2107,2.42377 5.32227,4.09439 8.4747,5.65357c1.26619,1.36755 2.44233,2.93648 3.89496,3.9717c3.16543,2.25584 6.73712,3.98227 10.3698,5.59719c0.08689,0.06685 0.17455,0.13367 0.26303,0.20042c1.08034,0.81513 2.47629,3.85645 4.00161,4.39255c6.65326,2.33838 13.25691,5.37175 20.13691,7.1852c0.04958,0.24573 0.07687,0.51625 0.07687,0.81406c0,3.25 -3.25,3.25 -3.25,3.25c-5.90166,-0.13728 -9.5434,-3.20499 -14.61358,-5.72681c-6.86123,-3.41265 -14.53759,-5.97014 -20.78526,-10.43955c-3.88303,-2.77781 -6.4672,-6.38434 -10.68054,-8.91235c-8.30663,-6.26998 -17.79691,-10.74956 -27.50839,-14.63415l0.01065,0.23245c0,0 -3.25,0 -3.25,-3.25z" fill="#730000" stroke="none" stroke-width="0.5"/><path d="M170.05767,302.9346c-1.99506,-0.33925 -4.02209,-0.5622 -6.04577,-0.55397h-1.19638c0,0 -3.17391,0 -3.24866,-3.13654c-0.52871,0.1456 -0.93865,0.1456 -0.93865,0.1456h-3.58913c-5.37477,-0.02264 -9.38707,-0.63712 -14.36715,-2.6252c-0.35647,-0.14231 -0.71616,-0.29518 -1.07869,-0.45563c-1.5668,-0.02335 -3.13391,-0.15772 -4.75091,-0.6842c-2.28192,-0.74298 -4.3296,-2.14394 -6.39893,-3.40408c-0.30745,-0.01745 -0.6145,-0.02101 -0.92096,-0.00914c0,0 -2.34784,0 -3.05243,-1.99555c-0.57668,-0.20241 -1.16589,-0.36066 -1.77226,-0.46031l-1.75538,0.06311c0,0 -3.25,0 -3.25,-3.25c0,-1.71704 0.90715,-2.52693 1.76291,-2.90894c1.21455,0.17033 2.43455,0.37596 3.67167,0.67515c3.54908,0.85831 7.11158,1.73458 10.68803,2.58753c2.45089,0.83466 4.80962,1.98024 7.21983,3.04673c1.57223,-0.03555 3.15842,-0.1977 4.70132,-0.05932c0.94074,0.08437 1.88461,0.17696 2.83043,0.27535c5.95377,1.17243 11.94733,2.12857 17.98304,2.68413c2.50483,0.88103 4.90201,1.89844 7.63149,1.81495c0,0 3.25,0 3.25,3.25c0,3.25 -3.25,3.25 -3.25,3.25c-0.21499,-0.00431 -0.43061,-0.00299 -0.64656,0.00144c-0.93347,2.17281 -3.47687,1.74891 -3.47687,1.74891z" fill="#730000" stroke="none" stroke-width="0.5"/><path d="M260.6593,293.14876c0,-3.25 3.25,-3.25 3.25,-3.25h1.19637c5.79459,0 11.9035,-0.55592 17.6677,0.01582c3.18355,0.31576 6.01388,1.19372 9.25076,1.18056c0,0 3.25,0 3.25,3.25c0,3.25 -3.25,3.25 -3.25,3.25c-3.44321,-0.0117 -6.51629,-0.87135 -9.89126,-1.21219c-5.54021,-0.55951 -11.45407,0.01581 -17.02721,0.01581h-1.19637c0,0 -3.25,0 -3.25,-3.25z" fill="#730000" stroke="none" stroke-width="0.5"/><path d="M132.64706,288.96143c0,-0.9835 0.29763,-1.66938 0.71275,-2.1477c3.73142,0.89219 7.47801,1.76088 11.24037,2.55916c1.1307,0.9587 2.18863,2.03105 3.51771,2.66354c0,0 2.90689,1.45344 1.45344,4.36033c-1.45344,2.90689 -4.36033,1.45344 -4.36033,1.45344c-3.47624,-1.79556 -6.02544,-4.2091 -9.57101,-5.98188l0.25707,0.34311c0,0 -3.24999,0 -3.25,-3.24999z" fill="#730000" stroke="none" stroke-width="0.5"/></g></g></svg>