<svg version="1.1" xmlns="http://www.w3.org/2000/svg" xmlns:xlink="http://www.w3.org/1999/xlink" width="165.45314" height="106.10246" viewBox="0,0,165.45314,106.10246"><defs><linearGradient x1="357.95103" y1="201.4074" x2="261.45502" y2="206.90576" gradientUnits="userSpaceOnUse" id="color-1"><stop offset="0" stop-color="#abb4c9"/><stop offset="1" stop-color="#d9e2ff"/></linearGradient><radialGradient cx="308.23018" cy="214.91956" r="50.0654" gradientUnits="userSpaceOnUse" id="color-2"><stop offset="0" stop-color="#dae9ff"/><stop offset="1" stop-color="#9ea5ba"/></radialGradient><linearGradient x1="344.50642" y1="184.08762" x2="260.85311" y2="205.64292" gradientUnits="userSpaceOnUse" id="color-3"><stop offset="0" stop-color="#abb4c9"/><stop offset="1" stop-color="#d9e2ff"/></linearGradient><linearGradient x1="311.00212" y1="135.86498" x2="250.61412" y2="200.79451" gradientUnits="userSpaceOnUse" id="color-4"><stop offset="0" stop-color="#abb4c9"/><stop offset="1" stop-color="#d9e2ff"/></linearGradient><linearGradient x1="352.16471" y1="156.70156" x2="252.81526" y2="204.56796" gradientUnits="userSpaceOnUse" id="color-5"><stop offset="0" stop-color="#abb4c9"/><stop offset="1" stop-color="#d9e2ff"/></linearGradient><linearGradient x1="358.69102" y1="178.91262" x2="253.25092" y2="207.11462" gradientUnits="userSpaceOnUse" id="color-6"><stop offset="0" stop-color="#abb4c9"/><stop offset="1" stop-color="#d9e2ff"/></linearGradient></defs><g transform="translate(-195.60538,-129.53262)"><g data-paper-data="{&quot;isPaintingLayer&quot;:true}" stroke-miterlimit="10" stroke-dasharray="" stroke-dashoffset="0" style="mix-blend-mode: normal"><path d="M261.203,202.66894l97.00005,2.97526" fill="none" fill-rule="nonzero" stroke="url(#color-1)" stroke-width="2" stroke-linecap="round" stroke-linejoin="miter"/><path d="M357.04687,226.99417l-97.63339,-24.14925" fill="none" fill-rule="nonzero" stroke="url(#color-2)" stroke-width="2" stroke-linecap="round" stroke-linejoin="miter"/><path d="M345.55159,188.14371l-85.74366,13.44307" fill="none" fill-rule="nonzero" stroke="url(#color-3)" stroke-width="2" stroke-linecap="round" stroke-linejoin="miter"/><g fill-rule="evenodd"><path d="M228.15504,198.08372c0.89351,-0.04052 2.81658,-0.08295 2.3775,4.05555c-0.43908,4.1385 -6.12342,8.11195 -6.82202,8.50177c-2.65835,1.59787 -5.9767,3.4495 -10.32653,4.27349c-12.60274,2.45171 -19.07333,-8.93914 -16.69092,-12.67333c2.29508,-3.68546 7.72651,2.55951 14.91702,4.15844c3.1678,0.7517 6.09004,0.03721 8.42948,-0.69561c3.26141,-1.13277 7.08591,-7.61839 8.11547,-7.62031z" fill="#ffab19" stroke="#001026" stroke-width="1.2" stroke-linecap="round" stroke-linejoin="round"/><path d="M202.55152,203.09473c2.71283,1.57814 7.27154,3.38595 7.27154,3.38595c0,0 -3.66957,1.01698 -4.67504,3.52478c-0.85107,1.96359 0.57023,3.68983 1.08597,4.20365c-1.76868,-0.50177 -4.04297,-1.29399 -6.62167,-3.86309c-2.5787,-2.56911 -3.75199,-6.72403 -2.29785,-8.22252c1.55159,-1.32384 2.71912,-0.2576 5.23705,0.97124z" fill="#ffffff" stroke="none" stroke-width="1" stroke-linecap="butt" stroke-linejoin="miter"/></g><path d="M234.69891,205.58601c-2.09716,0.92091 -9.36967,4.37095 -18.06609,5.52781l-0.43545,0.03086c-0.43545,0.03086 -0.73575,0.51552 -0.60063,0.96932c1.33215,2.81457 3.68361,8.38866 -2.36343,9.15182c-5.83849,0.79987 -13.57359,-15.71968 -8.51501,-18.80691c2.23815,-1.11109 3.88231,-0.06916 4.74734,0.51311c0.48466,0.30032 1.00602,0.39209 1.54574,0.37958c1.32469,-0.19684 3.76553,-0.62724 5.70336,-1.25367c4.88753,-1.50478 6.09546,-2.25969 8.45623,-3.4567c2.36077,-1.19701 7.83643,-4.21082 11.1072,-0.19498c2.84118,3.4027 0.41364,6.20051 -1.57925,7.13978z" fill="#ffab19" fill-rule="evenodd" stroke="#001026" stroke-width="1.2" stroke-linecap="round" stroke-linejoin="round"/><path d="M246.49117,188.52026c0.12378,0.77972 -0.42136,12.74034 3.08568,12.27198c4.15532,-0.49869 10.94301,-2.46368 11.46215,3.59355c0.51914,6.05724 -10.94425,7.10095 -15.04618,6.60887c-9.34433,-1.66555 -9.47269,-11.89684 -9.20281,-14.44346c0.26992,-2.54662 0.65359,-6.8977 2.95688,-9.64092c2.57607,-2.8827 6.44742,-1.18887 6.74424,1.60994z" fill="#ffab19" fill-rule="evenodd" stroke="#001026" stroke-width="1.2" stroke-linecap="round" stroke-linejoin="round"/><g fill-rule="evenodd"><path d="M244.18642,215.0374c1.41446,2.58786 4.59135,7.99005 4.59135,7.99005c0,0 14.26143,1.91405 12.10227,9.23997c-1.2895,4.3752 -8.39248,3.14821 -17.28789,-0.79133c-0.53694,-0.28879 -1.04388,-0.67933 -1.39638,-1.24219c-1.50895,-2.61904 -5.78231,-10.2809 -8.39228,-15.49603c-3.83544,-7.74066 -7.32577,-13.1346 -7.32577,-13.1346c-5.54241,-11.09489 2.02684,-12.50515 6.01744,-16.54741c3.59172,-3.39237 4.39117,-2.23547 9.70056,0.85591c3.06264,1.56864 4.86243,2.49734 6.97114,3.08141c3.14809,0.92697 1.14171,5.62387 -0.45838,7.88703c0,0 -2.4324,3.32829 -4.23051,4.85626c-2.20154,1.84145 -3.78522,2.9936 -5.18896,3.53526z" fill="#ffab19" stroke="#001026" stroke-width="1.2" stroke-linecap="round" stroke-linejoin="round"/><path d="M238.46861,204.88943c0,0 -1.05746,-1.68859 -2.11944,-3.71359c-1.34997,-2.45495 -2.78989,-4.60464 0.02951,-7.13539c2.4205,-1.88085 4.98641,-4.60688 8.36871,-0.25337c3.25329,4.08767 0.7083,6.0391 0.7083,6.0391c-3.4282,3.8929 -6.98708,5.06325 -6.98708,5.06325z" fill="#ffffff" stroke="none" stroke-width="1" stroke-linecap="butt" stroke-linejoin="miter"/></g><g fill-rule="evenodd"><path d="M258.77303,132.47495c0.31894,-0.16815 0.80604,-0.01735 0.86444,0.39081l1.48778,10.91039c0,0 5.88367,5.3322 7.43484,8.80982c2.61845,5.79946 2.25594,10.28595 2.25594,10.28595c0,0 6.8469,2.81781 7.45538,8.61088c0.60848,5.79307 -4.87702,16.0843 -23.95753,17.8347c-19.08051,1.7504 -33.57716,-4.87285 -39.46929,-16.94152c-5.89213,-12.06867 6.64489,-24.447 5.96594,-23.71282l-0.25125,-18.02101c-0.0584,-0.40815 0.46975,-0.65524 0.8471,-0.41523l11.22503,9.10048c0,0 4.65075,-1.22904 9.34645,-0.94547c2.80574,0.08851 5.17253,0.53385 7.41931,1.16786z" fill="#ffab19" stroke="#001026" stroke-width="1.2" stroke-linecap="butt" stroke-linejoin="miter"/><path d="M270.47656,163.23899c0,0 6.67875,2.49886 7.28724,8.29193c0.60848,5.79307 -5.22358,15.54587 -24.09488,17.21733c-24.58544,2.48916 -34.54634,-13.01537 -26.79352,-22.87153c7.76308,-9.95562 18.26809,0.2769 26.68531,0.54244c7.21329,0.24181 8.65583,-5.94277 16.91586,-3.18018z" fill="#ffffff" stroke="none" stroke-width="1" stroke-linecap="butt" stroke-linejoin="miter"/><path d="M238.04452,170.6486c0.04107,-0.39789 0.46975,-0.65524 0.85737,-0.5147c1.81809,0.89136 7.0253,3.03728 12.95254,4.05114c5.34067,0.85279 8.55456,0.88289 10.07743,0.73847c0.50763,-0.04814 0.85418,0.49029 0.6039,0.96711c-1.17244,2.59334 -5.72232,9.6636 -16.10524,7.98881c-8.94925,-1.92894 -9.18746,-8.38752 -8.386,-13.23083z" fill="#ffffff" stroke="#001026" stroke-width="1.2" stroke-linecap="round" stroke-linejoin="round"/><path d="M288.66641,166.22218c-5.06529,3.29741 -12.23751,2.65771 -12.23751,2.65771" fill="none" stroke="#001026" stroke-width="1.2" stroke-linecap="round" stroke-linejoin="round"/><path d="M286.22346,177.22954c-6.31804,-0.14942 -10.00238,-2.43976 -10.00238,-2.43976" fill="none" stroke="#001026" stroke-width="1.2" stroke-linecap="round" stroke-linejoin="round"/><path d="M253.42974,163.79187c2.08891,0.21559 4.25675,0.64039 4.28436,1.34696c-0.04426,1.40287 -1.82378,4.03408 -3.42559,3.96929c-1.81102,0.01415 -5.73218,-2.90382 -5.56791,-4.49536c0.02373,-1.20392 2.71972,-1.02621 4.70915,-0.82089z" fill="#001026" stroke="#001026" stroke-width="1.2" stroke-linecap="round" stroke-linejoin="round"/><path d="M208.8215,157.67998c0,0 8.26711,3.6681 11.43036,7.11104" fill="none" stroke="#001026" stroke-width="1.2" stroke-linecap="round" stroke-linejoin="round"/><path d="M220.19095,168.30334c-4.45181,1.24957 -11.69977,-0.60432 -11.69977,-0.60432" fill="none" stroke="#001026" stroke-width="1.2" stroke-linecap="round" stroke-linejoin="round"/><g><path d="M266.36854,153.3651c2.42269,4.77394 1.9986,9.85726 -0.97141,11.3603c-2.97,1.50304 -7.33011,-1.05812 -9.85227,-5.84233c-2.4227,-4.77394 -1.99859,-9.85726 0.97141,-11.3603c2.98026,-1.60251 7.42958,1.06839 9.85227,5.84233z" fill="#ffffff" stroke="#001026" stroke-width="1.2" stroke-linecap="round" stroke-linejoin="round"/><path d="M265.38548,158.9939c-0.11293,1.09419 -1.0011,1.9073 -1.99581,1.80464c-0.99471,-0.10266 -1.6981,-1.08003 -1.58517,-2.17422c0.11293,-1.09419 1.0011,-1.9073 1.99582,-1.80464c0.99471,0.10266 1.69809,1.08004 1.58516,2.17423" fill="#001026" stroke="none" stroke-width="1" stroke-linecap="butt" stroke-linejoin="miter"/></g><g><path d="M241.41212,153.60428c2.53243,4.68474 1.77911,10.03567 -1.10168,11.64844c-3.47762,1.55118 -7.71064,-0.29314 -10.24308,-4.97788c-2.6319,-4.69501 -2.24568,-10.38541 1.0638,-12.25554c3.31975,-1.96959 7.74852,0.90024 10.28096,5.58498z" fill="#ffffff" stroke="#001026" stroke-width="1.2" stroke-linecap="round" stroke-linejoin="round"/><path d="M240.21985,159.31203c-0.11293,1.09419 -1.0011,1.9073 -1.99581,1.80464c-0.99472,-0.10266 -1.69809,-1.08003 -1.58516,-2.17422c0.11293,-1.09419 1.0011,-1.9073 1.99581,-1.80464c0.98445,0.20213 1.69809,1.08004 1.58516,2.17423" fill="#001026" stroke="none" stroke-width="1" stroke-linecap="butt" stroke-linejoin="miter"/></g></g><path d="M314.15041,138.79306l-66.68449,59.07339" fill="none" fill-rule="nonzero" stroke="url(#color-4)" stroke-width="2" stroke-linecap="round" stroke-linejoin="miter"/><path d="M239.43833,199.31212c4.23195,-1.30932 9.70884,-3.6594 12.20005,2.20531c2.54524,7.77883 -11.71847,9.20911 -16.50513,8.92492c-4.24374,-0.23605 -6.06694,-3.87946 -7.61953,-6.96542c-2.7483,-5.94368 -5.31227,-11.00055 -2.23373,-14.79882c3.75175,-4.77747 7.85826,0.75319 9.4531,4.2079c0.98263,2.08071 2.09378,4.20093 2.67727,5.68468c0.55645,0.52669 1.29898,0.87335 2.02796,0.74144z" fill="#ffab19" fill-rule="evenodd" stroke="#001026" stroke-width="1.2" stroke-linecap="round" stroke-linejoin="round"/><path d="M250.49433,199.75077l103.99123,-38.23196" fill="none" fill-rule="nonzero" stroke="url(#color-5)" stroke-width="2" stroke-linecap="round" stroke-linejoin="miter"/><path d="M251.88349,202.00216l108.17503,-17.97706" fill="none" fill-rule="nonzero" stroke="url(#color-6)" stroke-width="2" stroke-linecap="round" stroke-linejoin="miter"/><path d="M335.92739,151.01284c0.67547,-1.05178 1.72725,-0.3763 1.72725,-0.3763l0.55696,0.35769c5.25912,3.37753 10.86684,8.20229 16.79367,10.14752c0,0 1.18585,0.39528 0.79057,1.58114c-0.39528,1.18585 -1.58114,0.79057 -1.58114,0.79057c-6.15428,-2.07917 -11.88021,-6.90025 -17.35405,-10.41567l-0.55696,-0.35769c0,0 -1.05178,-0.67547 -0.3763,-1.72725z" fill="#0048ff" fill-rule="nonzero" stroke="none" stroke-width="0.5" stroke-linecap="butt" stroke-linejoin="miter"/><path d="M322.44652,165.36613c0.91321,-0.85355 1.76676,0.05965 1.76676,0.05965l1.38949,1.48674c1.56228,1.77176 2.43543,3.41797 3.63285,5.41125c0,0 0.64312,1.07187 -0.42875,1.71499c-1.07187,0.64312 -1.71499,-0.42875 -1.71499,-0.42875c-1.10768,-1.84826 -1.88115,-3.39095 -3.33673,-5.01335l-1.36829,-1.46377c0,0 -0.85355,-0.91321 0.05965,-1.76676z" fill="#0048ff" fill-rule="nonzero" stroke="none" stroke-width="0.5" stroke-linecap="butt" stroke-linejoin="miter"/><path d="M309.04109,157.188c0.88388,-0.88388 1.76777,0 1.76777,0l0.39812,0.40943c3.99012,5.01318 7.25696,10.89341 11.76106,15.39752c0,0 0.88388,0.88388 0,1.76777c-0.88388,0.88388 -1.76777,0 -1.76777,0c-4.57667,-4.57667 -7.89758,-10.51777 -11.94935,-15.60841l-0.20984,-0.19853c0,0 -0.88388,-0.88388 0,-1.76777z" fill="#0048ff" fill-rule="nonzero" stroke="none" stroke-width="0.5" stroke-linecap="butt" stroke-linejoin="miter"/><path d="M324.74615,157.91123c0.76862,-0.98576 1.75438,-0.21714 1.75438,-0.21714l1.86935,1.45842c1.7227,1.53495 3.35515,3.01052 4.74561,4.85693c0,0 0.75,1 -0.25,1.75c-1,0.75 -1.75,-0.25 -1.75,-0.25c-1.26506,-1.6945 -2.77099,-3.03257 -4.34671,-4.43691l-1.80548,-1.40692c0,0 -0.98576,-0.76862 -0.21714,-1.75438z" fill="#0048ff" fill-rule="nonzero" stroke="none" stroke-width="0.5" stroke-linecap="butt" stroke-linejoin="miter"/><path d="M304.24724,216.995c-0.55902,-1.11803 0.55902,-1.67705 0.55902,-1.67705l-0.06602,0.60856c0.64463,-3.81944 2.53518,-6.73874 0.98434,-10.57751c0,0 -0.46424,-1.1606 0.69636,-1.62483c1.1606,-0.46424 1.62483,0.69636 1.62483,0.69636c1.75326,4.42144 -0.12512,7.56918 -0.83954,11.91699l-1.28193,1.21651c0,0 -1.11803,0.55902 -1.67705,-0.55902z" fill="#0048ff" fill-rule="nonzero" stroke="none" stroke-width="0.5" stroke-linecap="butt" stroke-linejoin="miter"/><path d="M331.81151,217.98997c-1.25,0 -1.25,-1.25 -1.25,-1.25c0,-2.83714 0,-7.19419 0,-10.03133c0,0 0,-1.25 1.25,-1.25c1.25,0 1.25,1.25 1.25,1.25c0,2.83714 0,5.67429 0,8.51143v1.5199c0,0 0,1.25 -1.25,1.25z" fill="#0048ff" fill-rule="nonzero" stroke="none" stroke-width="0.5" stroke-linecap="butt" stroke-linejoin="miter"/><path d="M350.65825,218.90191c-1.25,0 -1.25,-1.25 -1.25,-1.25c0,-1.82388 0,-4.25572 0,-6.07959c0,0 0,-1.25 1.25,-1.25c1.25,0 1.25,1.25 1.25,1.25c0,1.82388 0,3.64776 0,5.47163v0.60796c0,0 0,1.25 -1.25,1.25z" fill="#0048ff" fill-rule="nonzero" stroke="none" stroke-width="0.5" stroke-linecap="butt" stroke-linejoin="miter"/><path d="M317.31837,231.58603c-0.55902,-1.11803 0.55902,-1.67705 0.55902,-1.67705l0.77169,-0.3718c2.60385,-0.83509 3.64634,-2.00455 4.36103,-4.62918c0,0 0.3434,-1.2019 1.54531,-0.8585c1.2019,0.3434 0.8585,1.54531 0.8585,1.54531c-1.01663,3.42865 -2.57617,5.14705 -5.97428,6.31409l-0.44423,0.23616c0,0 -1.11803,0.55902 -1.67705,-0.55902z" fill="#0048ff" fill-rule="nonzero" stroke="none" stroke-width="0.5" stroke-linecap="butt" stroke-linejoin="miter"/><path d="M339.54162,231.64719c-0.62017,-1.0853 0.46513,-1.70548 0.46513,-1.70548l2.06162,-1.17529c1.90838,-1.35278 2.52264,-3.36153 2.47621,-5.64288c0,0 0,-1.25 1.25,-1.25c1.25,0 1.25,1.25 1.25,1.25c-0.05126,3.28333 -0.99643,5.70912 -3.60338,7.73222l-2.1941,1.25655c0,0 -1.0853,0.62017 -1.70548,-0.46513z" fill="#0048ff" fill-rule="nonzero" stroke="none" stroke-width="0.5" stroke-linecap="butt" stroke-linejoin="miter"/><path d="M297.78321,226.82245c-0.35514,-1.19849 0.84335,-1.55363 0.84335,-1.55363l1.36901,-0.40012c2.69435,-1.36218 4.06083,-3.24997 5.91352,-5.56584c0,0 0.78087,-0.97609 1.75695,-0.19522c0.97609,0.78087 0.19522,1.75695 0.19522,1.75695c-2.15148,2.68936 -3.80826,4.71151 -6.93757,6.32543l-1.58685,0.47576c0,0 -1.19849,0.35514 -1.55363,-0.84335z" fill="#0048ff" fill-rule="nonzero" stroke="none" stroke-width="0.5" stroke-linecap="butt" stroke-linejoin="miter"/><path d="M304.55122,141.70592c0.55902,-1.11803 1.67705,-0.55902 1.67705,-0.55902l1.16897,0.58569c1.97834,0.79134 2.9069,1.10507 3.94974,3.01312c0,0 0.55902,1.11803 -0.55902,1.67705c-1.11803,0.55902 -1.67705,-0.55902 -1.67705,-0.55902c-0.55971,-1.33419 -1.36424,-1.30113 -2.73781,-1.85055l-1.26287,-0.63023c0,0 -1.11803,-0.55902 -0.55902,-1.67705z" fill="#0048ff" fill-rule="nonzero" stroke="none" stroke-width="0.5" stroke-linecap="butt" stroke-linejoin="miter"/><path d="M293.88612,145.71259c0.50409,-1.14385 1.64794,-0.63976 1.64794,-0.63976l0.78452,0.35328c3.25229,1.04452 5.6936,2.73954 8.69377,4.23223c0,0 1.11803,0.55902 0.55902,1.67705c-0.55902,1.11803 -1.67705,0.55902 -1.67705,0.55902c-2.88942,-1.45119 -5.20863,-3.08808 -8.33826,-4.08743l-1.03019,-0.44645c0,0 -1.14385,-0.50409 -0.63976,-1.64794z" fill="#0048ff" fill-rule="nonzero" stroke="none" stroke-width="0.5" stroke-linecap="butt" stroke-linejoin="miter"/><path d="M286.78843,153.20821c0,-1.25 1.25,-1.25 1.25,-1.25l0.78607,0.01276c2.12894,0.31059 4.16519,0.97751 6.23603,1.55275c0,0 1.2044,0.33455 0.86984,1.53895c-0.33455,1.2044 -1.53895,0.86984 -1.53895,0.86984c-1.9639,-0.54553 -3.90279,-1.20061 -5.92315,-1.48705l-0.42984,0.01276c0,0 -1.25,0 -1.25,-1.25z" fill="#0048ff" fill-rule="nonzero" stroke="none" stroke-width="0.5" stroke-linecap="butt" stroke-linejoin="miter"/><path d="M316.9165,208.26262c-1.25,0 -1.25,-1.25 -1.25,-1.25v-1.5199c0,0 0,-1.25 1.25,-1.25c1.25,0 1.25,1.25 1.25,1.25v1.5199c0,0 0,1.25 -1.25,1.25z" fill="#0048ff" fill-rule="nonzero" stroke="none" stroke-width="0.5" stroke-linecap="butt" stroke-linejoin="miter"/><path d="M325.12396,197.01537c-1.25,0 -1.25,-1.25 -1.25,-1.25l0.20994,-0.21856c-0.40531,-0.60796 -0.81061,-1.21592 -1.21592,-1.82388c0,0 -0.69338,-1.04006 0.34669,-1.73344c1.04006,-0.69338 1.73344,0.34669 1.73344,0.34669c0.40531,0.60796 0.81061,1.21592 1.21592,1.82388l0.20994,1.60531c0,0 0,1.25 -1.25,1.25z" fill="#0048ff" fill-rule="nonzero" stroke="none" stroke-width="0.5" stroke-linecap="butt" stroke-linejoin="miter"/><path d="M337.8911,197.01537c-1.25,0 -1.25,-1.25 -1.25,-1.25c0,-0.81061 0,-2.22918 0,-3.0398c0,0 0,-1.25 1.25,-1.25c1.25,0 1.25,1.25 1.25,1.25c0,0.81061 0,1.62123 0,2.43184v0.60796c0,0 0,1.25 -1.25,1.25z" fill="#0048ff" fill-rule="nonzero" stroke="none" stroke-width="0.5" stroke-linecap="butt" stroke-linejoin="miter"/><path d="M292.96094,179.34066c1.22573,-0.24515 1.47087,0.98058 1.47087,0.98058l0.30398,1.5199c0,0 0.24515,1.22573 -0.98058,1.47087c-1.22573,0.24515 -1.47087,-0.98058 -1.47087,-0.98058l-0.30398,-1.5199c0,0 -0.24515,-1.22573 0.98058,-1.47087z" fill="#0048ff" fill-rule="nonzero" stroke="none" stroke-width="0.5" stroke-linecap="butt" stroke-linejoin="miter"/></g></g></svg>