<svg version="1.1" xmlns="http://www.w3.org/2000/svg" xmlns:xlink="http://www.w3.org/1999/xlink" width="440.10424" height="73.85512" viewBox="0,0,440.10424,73.85512"><g transform="translate(-20.13281,-214.44993)"><g data-paper-data="{&quot;isPaintingLayer&quot;:true}" fill-rule="nonzero" stroke-linecap="butt" stroke-linejoin="miter" stroke-miterlimit="10" stroke-dasharray="" stroke-dashoffset="0" style="mix-blend-mode: normal"><path d="M452.62252,228.12803c2.19364,0.7648 4.48139,2.40679 4.35989,4.09849c-0.10316,1.43646 -3.1248,1.92 -4.85027,2.72955c-6.77279,3.17764 -16.14054,5.29554 -24.51964,5.6358c-0.36569,0.04805 -0.61828,0.04805 -0.61828,0.04805l0.07769,-0.02852c-0.06607,0.00209 -0.13208,0.00406 -0.19801,0.00593c-2.53233,0.58984 -5.26793,0.70732 -7.89718,1.06418c-3.31809,0.45034 -6.41028,1.50418 -9.69274,2.06492c-6.00353,1.87075 -7.31654,5.96185 -11.03489,9.48006c-2.90981,2.75318 -7.82322,4.10895 -11.47964,6.32131c-1.28927,0.78009 -2.18815,1.91901 -3.7205,2.45098c-2.19249,0.76116 -4.73851,0.8872 -7.11537,1.31088c-3.5077,0.62524 -6.84152,1.67834 -10.37149,2.24096c-4.35062,0.69343 -8.93214,0.43128 -13.31373,1.02497c-7.05162,0.95547 -13.53835,3.47323 -20.85102,3.83235c-5.1912,0.25493 -9.82635,-0.54138 -14.9306,-0.54138c-2.72124,0.28928 -5.15998,1.32585 -7.72261,2.01972c-3.9891,1.08012 -8.68363,0.81922 -12.74327,1.66581c-7.04891,1.46998 -14.18208,3.13823 -21.35778,4.54064c-5.27549,1.03104 -9.89971,3.06014 -15.355,3.66984c-3.77105,0.42146 -7.64066,0.02206 -11.46102,0.02206c-9.42985,0 -18.8597,0 -28.28955,0c-0.54323,0 -8.85002,0.02046 -9.40522,-0.06106c-1.04375,-0.15325 -1.76378,-0.94602 -2.82185,-1.04189c-2.67323,-0.24221 -5.24617,0.92443 -7.93101,1.09517c-3.30703,0.21031 -6.61717,0.40266 -9.93189,0.54424c-11.30691,0.48293 -23.77452,0.01482 -34.50557,-2.25521c-5.49471,-1.16234 -10.99864,-0.44351 -16.66667,-1.66105c-6.31288,-1.35606 -11.59878,-4.98524 -16.16481,-8.11627c-1.62005,-1.11611 -2.76256,-2.64842 -4.76979,-3.40942c-3.0039,-1.13886 -6.73257,-0.89859 -10.08719,-1.38698c-9.1285,-1.32903 -18.45818,-3.41713 -27.67176,-4.29822c-2.52512,-0.24148 -5.35322,0.56643 -7.64211,-0.20693c-2.264,-0.76495 -3.79293,-2.42645 -4.83441,-4.00858c-0.5368,-0.81548 1.13315,-1.91235 0.4386,-2.66919c-0.56205,-0.61246 -2.11136,-0.08961 -3.1317,-0.26543c-1.10973,-0.19122 -2.14313,-0.55164 -3.21435,-0.82808c-8.14072,-2.10077 -16.06568,-4.46483 -22.8971,-8.20356c0,0 -0.69288,-0.38188 -1.07462,-0.99741c-3.89446,-1.91416 -8.99319,-3.31757 -11.44591,-6.06449c-0.90712,-1.01593 -0.82112,-2.31748 -1.23167,-3.47621l-0.0625,-1.48673c-0.00184,-0.02827 -0.00184,-0.04366 -0.00184,-0.04366c0,-1.26322 0,-2.52643 0,-3.78964v-0.54138c0,0 0,-2.28248 3.31307,-2.28248c0.2966,0 0.56665,0.0183 0.81252,0.0516c12.44254,-2.81203 27.02485,-4.37982 40.05017,-4.38262h4.71492c0,0 3.31307,0 3.31307,2.28248c0,0.51063 -0.16582,0.90702 -0.42326,1.21474c6.75307,-0.42286 13.46092,-1.0948 20.26851,-1.23084c19.10871,-0.38187 38.06165,0.1379 57.12886,-1.05221c43.09503,-0.52619 86.29036,-1.21417 129.4203,-1.21417c8.32218,0 16.64811,-0.00931 24.93581,-0.5309c3.45834,-0.21765 6.83299,-0.92735 10.29794,-1.08749c13.56587,-0.62701 27.5041,-0.00574 41.09754,-0.00574c14.81637,0 30.02894,-0.68341 44.73884,0.59792c4.55378,1.06528 8.52904,1.02099 13.22336,1.60499c8.34526,1.03818 16.0617,2.12811 24.54898,2.12811h3.9291c0,0 3.31307,0 3.31307,2.28248c0,0.24607 -0.03851,0.46561 -0.10722,0.66148c1.49675,0.05753 2.76201,0.19887 3.56275,0.47804z" fill="#737373" stroke="#060000" stroke-width="6.5"/><path d="M23.92049,219.44993h433.65903" fill="none" stroke="#000000" stroke-width="10"/><path d="M127.72687,265.46539c0,1.64945 -0.54413,2.75476 -1.27339,3.49544c0.80711,-0.0365 1.6326,-0.24721 2.42566,-0.10656c2.3317,0.41353 4.36052,1.95241 6.68515,2.40403c2.23534,0.43427 4.55394,0.27833 6.80024,0.65181c0.80368,0.26789 1.61393,0.49853 2.42966,0.69884c2.14832,-0.12207 4.27116,-0.24484 6.29094,-0.23467c7.30722,1.18614 14.81251,2.79824 22.13311,3.58037c3.56363,0.38074 7.16777,-0.02986 10.75168,-0.02986c8.8438,0 17.61452,0.1304 26.40223,-0.58201c10.85501,-0.88001 22.25283,-0.07455 33.15895,0.01175c4.29571,-0.88866 8.84045,-1.50533 13.21928,-1.79553c3.07893,-0.20405 6.19683,0.42078 9.25701,0.02488c1.62087,-0.20969 3.14106,-0.94268 4.75674,-1.18919c1.93584,-0.29535 3.98051,0.09986 5.85657,-0.46148c4.14571,-1.24044 8.21032,-2.90076 12.35658,-4.12544c2.19761,-0.64911 4.53771,-0.6902 6.75999,-1.24903c3.40247,-0.85561 6.67461,-2.19879 10.22605,-2.50148c6.01393,-0.51256 12.28379,-0.02433 18.33047,-0.02433c5.73242,0.01246 11.098,-1.28996 16.7505,-1.75944c6.97278,-0.57915 14.07078,0.38105 21.05436,-0.01813c3.03712,-0.1736 5.95974,-1.23264 8.96164,-1.72542c0.84442,-0.13862 1.73761,0.2328 2.58035,0.18858c0.57796,-0.22164 1.15036,-0.45463 1.71466,-0.699c0.68866,-0.46838 1.32427,-1.05361 2.06156,-1.43512c2.34083,-1.21127 4.93208,-2.50931 7.47109,-3.64538c2.84656,-2.89549 5.11096,-6.87343 8.59911,-9.10724c1.80728,-1.15737 3.91383,-2.26135 6.15724,-3.22961c1.22591,-2.80042 2.82702,-5.37734 6.12776,-7.11265c3.27151,-1.71994 5.80839,-0.96436 9.2179,-1.17857c4.998,-0.314 10.27502,-0.08013 15.24322,-0.57791c7.85795,-0.78732 15.79575,-2.92659 23.6818,-2.9973c0,0 5,0 5,5c0,2.75229 -1.51502,3.98956 -2.87715,4.54576c-0.44258,0.84502 -0.9657,1.36814 -0.9657,1.36814l-2.48865,2.12579c-4.03238,2.0086 -8.86379,4.46688 -13.32701,5.22004c-0.48673,0.08214 -7.05282,0.06456 -7.93602,0.06456c-5.74773,0 -11.49546,0 -17.24319,0c-2.00319,-0.05954 -4.38664,0.46344 -6.76501,1.26779c-0.11402,0.42889 -0.24126,0.86342 -0.39748,1.30082c-1.27997,3.58386 -2.61123,4.5437 -5.15353,7.61698c-3.49494,1.81979 -6.58084,2.26201 -10.14886,3.70403c-0.41787,0.16888 -0.83405,0.34969 -1.24887,0.54018c-1.36103,1.09127 -2.42795,1.3675 -3.61943,1.86673c-3.30581,1.83827 -6.58951,3.87818 -10.032,4.94131c-0.56176,0.17349 -1.14964,0.17276 -1.7443,0.13521c-1.12378,0.33344 -2.27526,0.66163 -3.46564,1.01419c-1.17969,0.34939 -2.24332,1.07722 -3.45216,1.30625c-3.16502,0.59965 -7.23396,0.09022 -10.45902,0.09022c-6.45266,0 -13.30858,-0.68171 -19.72346,-0.02433c-9.6021,0.984 -19.03216,4.21596 -28.203,6.95216c-4.18184,1.24769 -8.2121,3.52145 -12.36496,4.71894c-4.16843,1.20198 -8.76664,1.07468 -13.05209,1.93177c-1.96747,0.37939 -4.01788,0.20003 -5.98097,0.60147c-1.04569,0.21384 -1.92357,0.99436 -2.97296,1.18919c-0.60882,0.11303 -5.87384,0.09022 -6.89146,0.09022c-5.54953,0 -11.09906,0 -16.6486,0c-12.28825,0 -24.5765,0 -36.86475,0c-5.5377,-0.01542 -10.97829,-0.68898 -16.46641,-1.20622c-7.2656,-0.68476 -14.72022,0.58993 -21.99993,0c-5.17806,-0.41962 -10.0218,-1.68491 -15.15952,-2.41159c-5.89474,-0.83375 -11.88257,-0.82209 -17.65574,-2.07683c-4.18397,0.21906 -8.4745,0.38594 -12.31232,-0.34151c-3.6208,-0.68631 -8.16625,-3.09929 -11.61143,-5.1692c-0.26912,-0.11585 -0.54113,-0.2234 -0.81795,-0.31692c-1.2529,-0.42327 -2.69975,-0.30723 -3.84919,-0.96121c-2.04371,-1.16277 -4.38725,-3.67374 -6.44841,-5.68356c-0.82967,-0.23073 -1.65403,-0.47452 -2.43172,-0.83643c-0.66521,-0.30956 -0.94292,-1.23724 -1.63898,-1.46926c-0.69606,-0.23202 -1.47016,0.31935 -2.19274,0.19202c-3.51211,-0.61891 -3.31527,-1.47635 -6.2323,-1.74355c-0.0079,-0.00072 -0.01579,-0.00144 -0.02369,-0.00216c-1.39514,0.11394 -2.7558,0.15246 -3.99672,-0.06372c-0.17314,-0.03016 -0.34507,-0.06626 -0.51601,-0.10716c-2.99454,0.00922 -6.02746,0.19501 -8.95722,0.18771c-3.39065,-0.42706 -7.06071,-0.87582 -10.56555,-1.71124c-2.25571,-0.02454 -4.50865,-0.23006 -6.55016,-1.06062c-1.57149,-0.63935 -4.70007,-3.33686 -5.9208,-4.82979c-0.20071,-0.24547 -0.34071,-0.5401 -0.47603,-0.8369c-0.35578,-0.43983 -0.68191,-0.8686 -0.97302,-1.28667c-0.32098,-0.05845 -0.73141,0.17794 -1.07804,0.13949c-1.0645,-0.11809 -7.76931,-1.33811 -8.2007,-1.51042c-5.77793,-2.30792 -9.55472,-8.35729 -15.2954,-10.6359c-3.19264,-1.26723 -6.87904,-1.68817 -10.16205,-2.99419c0,0 -4.64238,-1.85695 -2.78543,-6.49934c1.85695,-4.64238 6.49934,-2.78543 6.49934,-2.78543c4.71491,1.89809 9.40034,2.49941 13.79656,5.11166c3.61433,2.14764 6.85158,4.87985 10.32554,7.27333c0.56285,0.38779 0.92104,1.08172 1.55542,1.33618c2.99489,1.20131 6.77637,0.28926 9.85039,1.6384c0.23177,-0.07665 0.47107,-0.15263 0.71807,-0.22793c1.24918,-0.38085 8.95165,2.11453 10.89423,2.41876c6.42332,1.00595 12.69584,1.17112 18.96978,3.0948c3.3257,1.01971 6.67853,2.04655 9.98017,3.12276c1.25915,-0.02971 2.49046,0.06644 3.65758,0.43415c1.87216,0.58984 3.71645,1.84417 5.43366,3.23306c1.86213,0.3079 3.76701,0.38728 5.6162,0.77198c0.82676,-0.00811 1.65352,-0.01622 2.48028,-0.02433h2.37837c0,0 5,0 5,5z" fill="#730000" stroke="none" stroke-width="0.5"/><path d="M225.62526,286.22956c-1.40096,0 -2.59489,-0.88643 -3.0515,-2.12902c-1.53082,1.71695 -3.78564,0.58954 -3.78564,0.58954c-3.10323,-1.60165 -5.59561,-1.40592 -9.0335,-2.05087c-11.26588,-0.02992 -22.47814,-0.59696 -33.77897,-0.59696h-4.18732c-1.70773,0 -3.10782,-1.31713 -3.23983,-2.99094c-10.28563,0 -20.57126,0 -30.85689,0h-2.99094c-1.79493,0 -3.25,-1.45507 -3.25,-3.25c0,-1.0829 0.52963,-2.0421 1.34398,-2.6327c-0.47125,-0.02898 -0.93987,-0.06673 -1.40517,-0.115c-3.29158,-0.34145 -7.13336,-1.53087 -10.28193,-2.86683c-1.55049,-0.16777 -3.06859,-0.42016 -4.34705,-1.24325c-0.89365,-0.57534 -1.66514,-1.35334 -2.38354,-2.22089c-2.55669,-0.53409 -6.76343,-0.31542 -8.51949,-1.71271c-0.18893,-0.15033 -0.36923,-0.30918 -0.54225,-0.47521l-0.0812,0.10826l-0.4887,-0.36653c-2.89428,0.52765 -6.33654,0.98084 -9.07538,0.3314c-5.11737,-1.21345 -8.22061,-6.42618 -12.72541,-8.65891c-1.26917,-0.62904 -2.62795,-1.04203 -3.99859,-1.42335h-0.47494v-0.01437c-0.0893,0.00192 -0.17865,0.00304 -0.26806,0.00329c-1.00262,0.00285 -1.98722,-0.13874 -2.95326,-0.38952c-2.49628,-0.15982 -4.96362,-0.19759 -7.54606,-0.19759c-0.84895,0 -6.22945,0.02318 -6.72858,-0.08694c-2.40856,-0.53142 -4.54869,-1.61124 -6.55836,-2.90946c-0.50699,-0.03419 -2.38837,-0.28266 -2.95844,-2.08825c-1.21295,-0.9095 -2.40142,-1.83989 -3.60057,-2.70707c-2.4268,-1.75497 -5.58738,-3.09517 -8.18295,-4.65743c-1.86229,-1.1209 -4.36124,-1.31093 -5.83718,-2.90659c-0.02946,-0.03184 -0.05876,-0.06381 -0.08791,-0.09591l-0.02027,0.03379l-2.93986,-1.76392c-0.97361,-0.56137 -1.62897,-1.6129 -1.62897,-2.8175c0,-1.79493 1.45507,-3.25 3.25,-3.25c0.4802,0 0.93608,0.10414 1.34627,0.29108l4.09544,1.75519c2.73307,1.10552 5.3482,3.28867 8.12528,4.09492c4.10606,1.19209 8.59303,1.51917 12.67569,2.27541c0.95967,0.17776 1.93563,0.39464 2.91995,0.64243c0.23978,-0.05638 0.48979,-0.08621 0.74678,-0.08621c0.24145,0 0.47675,0.02633 0.70318,0.07627l2.92513,0.58503l-0.02529,0.12646c0.18633,0.00266 0.37293,0.01206 0.55985,0.02909c0.85269,0.07766 2.1633,0.85679 3.41081,1.9083c1.51087,0.55625 2.98781,1.13151 4.40071,1.69462c1.56668,0.62667 3.1358,1.33162 4.70806,2.03568c2.36136,0.63666 4.7131,1.28823 7.02626,1.84212c2.21579,0.53057 4.70037,0.32565 6.67826,1.45666c0.04511,0.0258 0.08991,0.05201 0.13439,0.07863c6.10779,0.81119 12.31256,2.40443 18.16783,4.03435c1.14574,0.31894 2.39462,0.29365 3.48332,0.77237c3.07543,1.35232 5.98784,4.21443 9.25106,5.26045c1.68716,0.54082 5.36544,0.44192 7.36803,0.43838c0,0 3.25,0 3.25,3.25c0,0.64626 -0.12851,1.16401 -0.33442,1.57881l2.98689,1.86681c1.44383,-0.04283 2.87935,-0.11555 4.26672,-0.11555c8.68065,0 17.36178,-0.02565 26.04233,0.01582c29.31373,5.72143 58.64644,0.58237 88.21158,0.58237c7.43998,0 15.08223,0.53519 22.49754,0.0084c3.96227,-0.81074 7.8991,-1.67876 11.81688,-2.60227c0.26595,-0.13403 0.53954,-0.24602 0.83016,-0.31013c0.42612,-0.094 0.85745,-0.1549 1.29191,-0.19595c0.39616,-0.09557 0.79214,-0.19171 1.18793,-0.28841c0.70468,-1.99533 3.05236,-1.99533 3.05236,-1.99533c1.76057,0.00154 3.53569,-0.03796 5.31133,-0.13779c8.23371,-2.18757 16.41041,-4.61633 24.59074,-7.26941c18.69933,-6.06405 37.53435,-12.62829 56.78348,-16.45468c3.88232,-0.77174 7.53875,-2.35242 11.46677,-3.00993c3.51357,-0.58814 7.06767,-1.07629 10.6381,-1.45746c2.17211,-0.95523 4.29193,-1.77012 6.80151,-2.6006c0.94654,-0.31323 1.71936,-1.10978 2.7008,-1.28535c3.99488,-0.71464 4.09889,-0.17689 7.13543,1.26874c1.89216,0.90082 5.22617,0.65092 5.67905,2.69706c0.00008,0.00037 0.00016,0.00073 0.00024,0.0011c0.25595,-0.13126 0.51462,-0.25237 0.78164,-0.3351c3.22222,-0.99831 6.4447,-2.42176 9.81787,-2.45427c0.00162,-0.00002 0.00324,-0.00003 0.00487,-0.00005c0.02394,-0.00499 0.04762,-0.00992 0.07102,-0.0148l0.00436,0.01443c0.01707,-0.00001 0.03413,0.00002 0.05118,0.0001l-0.00393,-0.02356l3.52873,-0.58812c0.1928,-0.03565 0.39157,-0.05429 0.59469,-0.05429c1.79493,0 3.25,1.45507 3.25,3.25c0,1.63129 -1.20186,2.98186 -2.7684,3.21456l-2.52674,0.42112c0.32263,0.50474 0.50963,1.10453 0.50963,1.74801c0,1.46198 -0.96533,2.69849 -2.29336,3.10692l-3.36693,1.12231c-4.73412,2.19115 -9.0114,0.71497 -13.98435,1.39412c-4.66941,0.63769 -8.0365,1.14951 -12.60441,1.20983c-3.61732,1.48899 -7.11552,3.20512 -10.04143,5.54585c-6.46928,2.656 -12.6211,5.87385 -19.27148,8.08882l-0.12921,-0.00259l0.00879,0.03516l-4.7148,1.1787c-0.27361,0.07479 -0.56162,0.11471 -0.85895,0.11471c-1.69375,0 -3.08489,-1.29567 -3.23633,-2.94992c-1.35257,1.00671 -2.8572,2.41532 -4.14423,3.13135c-5.90499,3.28516 -13.58274,5.12379 -20.13868,6.34361c-3.8376,0.71404 -7.7291,1.05158 -11.62631,1.35158c-0.42858,0.13708 -0.85732,0.26655 -1.28593,0.38666c-3.58973,1.00594 -7.31359,1.1143 -10.94126,1.83636c-4.56848,1.06856 -8.68932,3.7486 -13.17627,4.7887c-1.29075,0.2992 -2.65385,-0.05127 -3.97453,0.0553c-2.29805,0.18543 -4.4508,1.21053 -6.69962,1.7187c-0.13941,0.0315 -0.27922,0.06032 -0.41938,0.08674l-0.84642,0.33857c-0.3916,0.16725 -0.82271,0.25982 -1.27545,0.25982c-0.47551,0 -0.92717,-0.10212 -1.33424,-0.28562c-1.22261,0.04516 -2.4482,0.07591 -3.65236,0.26127c-5.25125,0.80837 -11.11718,2.08587 -16.27063,3.49327c-1.12124,0.30621 -2.10748,1.05583 -3.25207,1.25794c-0.42659,0.07533 -7.04821,0.05864 -7.79286,0.05864c-9.9248,0 -19.8496,0 -29.7744,0c-0.2444,0.96289 -0.97024,2.39275 -3.12594,2.39275c-0.83312,0 -1.45267,-0.21357 -1.91341,-0.5312c-0.5459,1.02772 -1.62727,1.72758 -2.8721,1.72758zM350.45588,254.31833c1.56335,-0.78173 3.11752,-1.6145 4.67473,-2.45385c-2.91518,0.8923 -5.82398,1.80996 -8.72749,2.74118h0.05612v0c0.71438,0 1.37493,0.23049 1.91134,0.62117c0.69561,-0.2971 1.39067,-0.59988 2.0853,-0.9085z" fill="#737373" stroke="none" stroke-width="0.5"/></g></g></svg>