<svg version="1.1" xmlns="http://www.w3.org/2000/svg" xmlns:xlink="http://www.w3.org/1999/xlink" width="87.8866" height="105.88305" viewBox="0,0,87.8866,105.88305"><g transform="translate(-196.68841,-129.65837)"><g data-paper-data="{&quot;isPaintingLayer&quot;:true}" fill-rule="evenodd" stroke-miterlimit="10" stroke-dasharray="" stroke-dashoffset="0" style="mix-blend-mode: normal"><g><path d="M229.06739,198.9163c0.8,0.4 2.5,1.3 0.1,4.7c-2.4,3.4 -9.3,4.1 -10.1,4.1c-3.1,0.1 -6.9,0.1 -11.1,-1.3c-12.2,-4 -12.3,-17.1 -8.4,-19.2c3.8,-2.1 5.5,6 11,10.9c2.4,2.2 5.3,3 7.7,3.5c3.4,0.6 9.9,-3.2 10.8,-2.7z" fill="#ffab19" stroke="#001026" stroke-width="1.2" stroke-linecap="round" stroke-linejoin="round"/><path d="M204.26739,190.8163c1.6,2.7 4.7,6.5 4.7,6.5c0,0 -3.7,-0.9 -5.8,0.8c-1.7,1.3 -1.3,3.5 -1.1,4.2c-1.3,-1.3 -2.9,-3.1 -3.9,-6.6c-1,-3.5 0,-7.7 2,-8.3c2,-0.4 2.5,1.1 4.1,3.4z" fill="#ffffff" stroke="none" stroke-width="1" stroke-linecap="butt" stroke-linejoin="miter"/></g><path d="M233.26227,207.29925c-1.74046,1.16031 -7.73538,5.41476 -15.37406,7.83207l-0.38677,0.09669c-0.38677,0.09669 -0.58015,0.58015 -0.38677,0.96692c1.64377,2.32061 4.64123,6.96184 -0.67685,8.60561c-5.12469,1.64377 -14.69722,-11.98984 -10.63614,-15.56745c1.83715,-1.35369 3.48092,-0.67685 4.35115,-0.29008c0.48346,0.19338 0.96692,0.19338 1.45038,0.09669c1.16031,-0.38677 3.28754,-1.16031 4.9313,-2.03054c4.15777,-2.12723 5.12469,-2.99746 7.05853,-4.44784c1.93384,-1.45038 6.38169,-5.028 9.9593,-1.93384c3.09415,2.61069 1.35369,5.51146 -0.29008,6.67176z" fill="#ffab19" stroke="#001026" stroke-width="1.2" stroke-linecap="round" stroke-linejoin="round"/><path d="M240.02181,188.49253c0.38715,0.56145 4.54363,9.88772 6.92273,8.50403c2.84026,-1.59638 7.0418,-5.08575 9.72666,-0.59497c2.68487,4.49078 -5.27705,8.64024 -8.45561,9.46167c-7.44822,1.45382 -11.4374,-6.35025 -12.21022,-8.38092c-0.77282,-2.03068 -2.14968,-5.47761 -1.51458,-8.2531c0.78092,-2.9621 4.24891,-2.79508 5.53101,-0.73671z" fill="#ffab19" stroke="#001026" stroke-width="1.2" stroke-linecap="round" stroke-linejoin="round"/><g><path d="M239.60631,216.74063c1.45942,2.34992 4.70276,7.2141 4.70276,7.2141c0,0 12.67964,-0.69458 11.40098,7.09226c-0.76364,4.65047 -7.10185,4.72036 -15.24173,2.38413c-0.49562,-0.19245 -0.97349,-0.49306 -1.33028,-0.99591c-1.54499,-2.36397 -5.94101,-9.30557 -8.67097,-14.08545c-4.01826,-7.1017 -7.53604,-11.89988 -7.53604,-11.89988c-5.79893,-10.17077 0.72655,-12.98657 3.88922,-17.79844c2.86722,-4.08292 3.66635,-3.06316 8.5871,-0.92234c2.82038,1.01846 4.47839,1.62392 6.37855,1.82487c2.84138,0.35551 1.47555,5.46243 0.26149,8.03975c0,0 -1.85499,3.80487 -3.30474,5.67708c-1.77748,2.26266 -3.07064,3.71631 -4.25725,4.52107z" fill="#ffab19" stroke="#001026" stroke-width="1.2" stroke-linecap="round" stroke-linejoin="round"/><path d="M233.7331,207.55727c0,0 -1.07036,-1.50856 -2.17299,-3.35562c-1.39161,-2.22772 -2.83651,-4.13098 -0.57469,-7.20264c1.96637,-2.34271 3.98926,-5.56467 7.32463,-1.79604c3.19975,3.52423 1.13007,5.96104 1.13007,5.96104c-2.68158,4.55767 -5.707,6.39327 -5.707,6.39327z" fill="#ffffff" stroke="none" stroke-width="1" stroke-linecap="butt" stroke-linejoin="miter"/></g><path d="M227.87761,198.4c2.2,2.8 5.6,6.3 1.3,9.2c-5.9,3.3 -10.8,-6.7 -11.8,-10.2c-0.9,-3.1 1.7,-5.1 3.9,-6.8c4.3,-3.1 7.9,-5.9 11.9,-4.4c5,1.8 1.4,5.8 -1.1,7.6c-1.5,1.1 -3,2.3 -4.1,3c-0.3,0.5 -0.4,1.1 -0.1,1.6z" fill="#ffab19" stroke="#001026" stroke-width="1.2" stroke-linecap="round" stroke-linejoin="round"/><g><path d="M253.72481,132.20018c0.31715,-0.17153 0.80581,-0.0259 0.86855,0.38161l1.6036,10.89396c0,0 5.93998,5.2694 7.52801,8.73035c2.67991,5.77131 2.36509,10.2614 2.36509,10.2614c0,0 6.87644,2.74491 7.54643,8.5312c0.66999,5.78628 -4.70588,16.1352 -23.76672,18.0882c-19.06084,1.953 -33.62702,-4.51588 -39.64703,-16.52127c-6.02001,-12.00539 6.38481,-24.5162 5.71369,-23.77486l-0.44268,-18.01732c-0.06274,-0.40751 0.46276,-0.66019 0.84265,-0.42421l11.32108,8.98072c0,0 4.63743,-1.27838 9.33587,-1.04471c2.80652,0.0587 5.17791,0.47887 7.4313,1.08897z" fill="#ffab19" stroke="#001026" stroke-width="1.2" stroke-linecap="butt" stroke-linejoin="miter"/><path d="M265.7545,162.83818c0,0 6.70492,2.42777 7.37491,8.21406c0.66999,5.78628 -5.05813,15.60049 -23.91062,17.47233c-24.55761,2.75019 -34.68266,-12.64765 -27.03499,-22.58561c7.65688,-10.03753 18.27001,0.08283 26.68957,0.25893c7.21545,0.16517 8.59222,-6.03439 16.88113,-3.3597z" fill="#ffffff" stroke="none" stroke-width="1" stroke-linecap="butt" stroke-linejoin="miter"/><path d="M233.40299,170.5919c0.03683,-0.3983 0.46276,-0.66019 0.85185,-0.52378c1.82746,0.87199 7.05718,2.96248 12.99484,3.91331c5.34942,0.79601 8.56345,0.79197 10.08471,0.63138c0.50709,-0.05353 0.85934,0.48118 0.61415,0.96063c-1.14481,2.60565 -5.61934,9.72384 -16.01947,8.15945c-8.96924,-1.83376 -9.27605,-8.28945 -8.52608,-13.141z" fill="#ffffff" stroke="#001026" stroke-width="1.2" stroke-linecap="round" stroke-linejoin="round"/><path d="M283.97501,165.62795c-5.02997,3.35103 -12.20858,2.78757 -12.20858,2.78757" fill="none" stroke="#001026" stroke-width="1.2" stroke-linecap="round" stroke-linejoin="round"/><path d="M281.64913,176.66064c-6.31928,-0.08229 -10.02773,-2.33337 -10.02773,-2.33337" fill="none" stroke="#001026" stroke-width="1.2" stroke-linecap="round" stroke-linejoin="round"/><path d="M248.7145,163.57209c2.09107,0.19339 4.26331,0.59513 4.29842,1.30137c-0.02935,1.40326 -1.78083,4.05323 -3.38324,4.00546c-1.81077,0.03339 -5.7627,-2.84276 -5.61535,-4.43596c0.01093,-1.20411 2.70867,-1.05505 4.70017,-0.87087z" fill="#001026" stroke="#001026" stroke-width="1.2" stroke-linecap="round" stroke-linejoin="round"/><path d="M204.04385,157.93445c0,0 8.30561,3.58007 11.50526,6.98921" fill="none" stroke="#001026" stroke-width="1.2" stroke-linecap="round" stroke-linejoin="round"/><path d="M215.52552,168.43641c-4.43828,1.29679 -11.70554,-0.48 -11.70554,-0.48" fill="none" stroke="#001026" stroke-width="1.2" stroke-linecap="round" stroke-linejoin="round"/><g><path d="M261.54181,153.00847c2.47328,4.74794 2.10319,9.83548 -0.85067,11.36998c-2.95387,1.5345 -7.34093,-0.98019 -9.91378,-5.73733c-2.47328,-4.74794 -2.10319,-9.83548 0.85067,-11.36998c2.96307,-1.63407 7.44051,0.9894 9.91378,5.73734z" fill="#ffffff" stroke="#001026" stroke-width="1.2" stroke-linecap="round" stroke-linejoin="round"/><path d="M260.6186,158.64741c-0.1013,1.09533 -0.98078,1.91784 -1.97653,1.82575c-0.99575,-0.09209 -1.70947,-1.06194 -1.60818,-2.15726c0.1013,-1.09533 0.98078,-1.91783 1.97653,-1.82574c0.99575,0.09209 1.70947,1.06193 1.60818,2.15726" fill="#001026" stroke="none" stroke-width="1" stroke-linecap="butt" stroke-linejoin="miter"/></g><g><path d="M236.58934,153.51275c2.58206,4.65757 1.88563,10.01621 -0.97787,11.65949c-3.46095,1.58803 -7.71332,-0.21122 -10.29539,-4.86879c-2.68163,-4.66678 -2.35587,-10.36098 0.93355,-12.26615c3.29863,-2.00475 7.75764,0.81788 10.33971,5.47545z" fill="#ffffff" stroke="#001026" stroke-width="1.2" stroke-linecap="round" stroke-linejoin="round"/><path d="M235.45777,159.23285c-0.1013,1.09533 -0.98078,1.91783 -1.97653,1.82574c-0.99575,-0.09209 -1.70947,-1.06194 -1.60817,-2.15726c0.1013,-1.09533 0.98078,-1.91783 1.97653,-1.82574c0.98654,0.19167 1.70947,1.06194 1.60817,2.15726" fill="#001026" stroke="none" stroke-width="1" stroke-linecap="butt" stroke-linejoin="miter"/></g></g></g></g></svg>