<svg version="1.1" xmlns="http://www.w3.org/2000/svg" xmlns:xlink="http://www.w3.org/1999/xlink" width="91.89464" height="102.58041" viewBox="0,0,91.89464,102.58041"><defs><linearGradient x1="272.57566" y1="156.58664" x2="272.90202" y2="182.54886" gradientUnits="userSpaceOnUse" id="color-1"><stop offset="0" stop-color="#abb4c9"/><stop offset="1" stop-color="#d9e2ff"/></linearGradient><radialGradient cx="277.11444" cy="170.82595" r="12.26651" gradientUnits="userSpaceOnUse" id="color-2"><stop offset="0" stop-color="#dae9ff"/><stop offset="1" stop-color="#9ea5ba"/></radialGradient><linearGradient x1="267.68045" y1="154.99782" x2="267.68045" y2="181.8886" gradientUnits="userSpaceOnUse" id="color-3"><stop offset="0" stop-color="#abb4c9"/><stop offset="1" stop-color="#d9e2ff"/></linearGradient><linearGradient x1="243.63033" y1="214.37322" x2="225.89421" y2="203.58496" gradientUnits="userSpaceOnUse" id="color-4"><stop offset="0" stop-color="#abb4c9"/><stop offset="1" stop-color="#d9e2ff"/></linearGradient><linearGradient x1="238.71945" y1="215.75269" x2="222.65659" y2="206.27951" gradientUnits="userSpaceOnUse" id="color-5"><stop offset="0" stop-color="#abb4c9"/><stop offset="1" stop-color="#d9e2ff"/></linearGradient><linearGradient x1="232.20923" y1="215.52604" x2="219.88403" y2="207.90441" gradientUnits="userSpaceOnUse" id="color-6"><stop offset="0" stop-color="#abb4c9"/><stop offset="1" stop-color="#d9e2ff"/></linearGradient></defs><g transform="translate(-195.60537,-130.50077)"><g data-paper-data="{&quot;isPaintingLayer&quot;:true}" stroke-miterlimit="10" stroke-dasharray="" stroke-dashoffset="0" style="mix-blend-mode: normal"><path d="M271.64318,182.56469l2.19132,-25.99388" fill="none" fill-rule="nonzero" stroke="url(#color-1)" stroke-width="2" stroke-linecap="round" stroke-linejoin="miter"/><path d="M275.71862,183.06765l2.79162,-24.48339" fill="none" fill-rule="nonzero" stroke="url(#color-2)" stroke-width="2" stroke-linecap="round" stroke-linejoin="miter"/><path d="M266.37659,181.8886l2.60772,-26.89079" fill="none" fill-rule="nonzero" stroke="url(#color-3)" stroke-width="2" stroke-linecap="round" stroke-linejoin="miter"/><g fill-rule="evenodd"><path d="M228.15503,198.0837c0.89351,-0.04052 2.81658,-0.08295 2.3775,4.05555c-0.43908,4.1385 -6.12342,8.11195 -6.82202,8.50177c-2.65835,1.59787 -5.9767,3.4495 -10.32653,4.27349c-12.60274,2.45171 -19.07333,-8.93914 -16.69092,-12.67333c2.29508,-3.68546 7.72651,2.55951 14.91702,4.15844c3.1678,0.7517 6.09004,0.03721 8.42948,-0.69561c3.26141,-1.13277 7.08591,-7.61839 8.11547,-7.62031z" fill="#ffab19" stroke="#001026" stroke-width="1.2" stroke-linecap="round" stroke-linejoin="round"/><path d="M202.55151,203.09471c2.71283,1.57814 7.27154,3.38595 7.27154,3.38595c0,0 -3.66957,1.01698 -4.67504,3.52478c-0.85107,1.96359 0.57023,3.68983 1.08597,4.20365c-1.76868,-0.50177 -4.04297,-1.29399 -6.62167,-3.86309c-2.5787,-2.56911 -3.75199,-6.72403 -2.29785,-8.22252c1.55159,-1.32384 2.71912,-0.2576 5.23705,0.97124z" fill="#ffffff" stroke="none" stroke-width="1" stroke-linecap="butt" stroke-linejoin="miter"/></g><path d="M236.29367,204.80016c-1.73794,1.28824 -7.7109,5.99183 -15.47645,8.88254l-0.39452,0.11982c-0.39452,0.11982 -0.56934,0.62916 -0.34965,1.0187c1.81753,2.31227 5.15295,6.95177 -0.25547,8.92383c-5.20867,1.96209 -15.79924,-11.62687 -11.7889,-15.53164c1.82785,-1.49297 3.56063,-0.87859 4.47945,-0.52395c0.50935,0.17483 1.00873,0.1499 1.50312,0.0251c1.17857,-0.45932 3.33595,-1.368 4.98898,-2.35162c4.18498,-2.41162 5.13888,-3.36035 7.06162,-4.95818c1.92274,-1.59783 6.33258,-5.52254 10.1875,-2.51096c3.33062,2.53712 1.6824,5.62312 0.04434,6.90638z" fill="#ffab19" fill-rule="evenodd" stroke="#001026" stroke-width="1.2" stroke-linecap="round" stroke-linejoin="round"/><path d="M250.46164,188.56726c0.79599,0.17018 11.82728,4.88378 13.07653,1.69955c1.53326,-3.75287 2.95155,-10.2914 8.92169,-8.58861c5.97014,1.70279 1.42675,11.93809 -1.01631,15.29342c-6.07966,7.45029 -15.80281,3.92997 -18.07738,2.794c-2.27456,-1.13599 -6.19817,-3.01025 -7.67764,-5.96584c-1.47961,-3.23983 1.98704,-5.97029 4.77309,-5.2325z" fill="#ffab19" fill-rule="evenodd" stroke="#001026" stroke-width="1.2" stroke-linecap="round" stroke-linejoin="round"/><g fill-rule="evenodd"><path d="M242.97983,213.41073c1.08138,2.45341 3.54186,7.59223 3.54186,7.59223c0,0 12.77058,2.8353 10.24893,9.30456c-1.50599,3.86359 -7.84531,2.20354 -15.59875,-2.05205c-0.46407,-0.30307 -0.89311,-0.69598 -1.16894,-1.23306c-1.16457,-2.48895 -4.44373,-9.75933 -6.40512,-14.68493c-2.8764,-7.30794 -5.62143,-12.46351 -5.62143,-12.46351c-4.16355,-10.47814 2.80181,-11.17098 6.72882,-14.52436c3.5155,-2.7955 4.15031,-1.6858 8.72094,1.52454c2.65307,1.65746 4.21164,2.63772 6.07666,3.32965c2.78003,1.08282 0.59983,5.18245 -1.02438,7.1089c0,0 -2.4604,2.82699 -4.2072,4.07219c-2.13644,1.498 -3.65997,2.41934 -4.97336,2.80157z" fill="#ffab19" stroke="#001026" stroke-width="1.2" stroke-linecap="round" stroke-linejoin="round"/><path d="M238.58426,203.77679c0,0 -0.82745,-1.61124 -1.63302,-3.52757c-1.03323,-2.32803 -2.17152,-4.3865 0.57784,-6.46117c2.33783,-1.51678 4.87265,-3.78791 7.60018,0.41686c2.63121,3.954 0.17517,5.5251 0.17517,5.5251c-3.40604,3.26152 -6.72016,4.04678 -6.72016,4.04678z" fill="#ffffff" stroke="none" stroke-width="1" stroke-linecap="butt" stroke-linejoin="miter"/></g><g fill-rule="evenodd"><path d="M253.70001,131c0.3,-0.2 0.8,-0.1 0.9,0.3l2.6,10.7c0,0 6.4,4.7 8.3,8c3.2,5.5 3.3,10 3.3,10c0,0 7.1,2.1 8.3,7.8c1.2,5.7 -3.2,16.5 -22,20.2c-18.8,3.7 -33.9,-1.4 -41,-12.8c-7.1,-11.4 4.1,-25 3.5,-24.2l-2.1,-17.9c-0.1,-0.4 0.4,-0.7 0.8,-0.5l12.1,7.9c0,0 4.5,-1.7 9.2,-1.9c2.8,-0.2 5.2,0 7.5,0.4z" fill="#ffab19" stroke="#001026" stroke-width="1.2" stroke-linecap="butt" stroke-linejoin="miter"/><path d="M268.50001,160.4c0,0 6.9,1.8 8.1,7.5c1.2,5.7 -3.6,16 -22.2,19.6c-24.2,5 -35.7,-9.4 -29,-20c6.7,-10.7 18.2,-1.6 26.6,-2.2c7.2,-0.5 8,-6.8 16.5,-4.9z" fill="#ffffff" stroke="none" stroke-width="1" stroke-linecap="butt" stroke-linejoin="miter"/><path d="M237.00001,171.1c0,-0.4 0.4,-0.7 0.8,-0.6c1.9,0.7 7.3,2.3 13.3,2.7c5.4,0.3 8.6,0 10.1,-0.3c0.5,-0.1 0.9,0.4 0.7,0.9c-0.9,2.7 -4.7,10.2 -15.2,9.6c-9.1,-1 -10,-7.4 -9.7,-12.3z" fill="#ffffff" stroke="#001026" stroke-width="1.2" stroke-linecap="round" stroke-linejoin="round"/><path d="M286.90001,161.5c-4.7,3.8 -11.9,3.9 -11.9,3.9" fill="none" stroke="#001026" stroke-width="1.2" stroke-linecap="round" stroke-linejoin="round"/><path d="M285.60001,172.7c-6.3,0.5 -10.2,-1.4 -10.2,-1.4" fill="none" stroke="#001026" stroke-width="1.2" stroke-linecap="round" stroke-linejoin="round"/><path d="M251.60001,162.7c2.1,0 4.3,0.2 4.4,0.9c0.1,1.4 -1.4,4.2 -3,4.3c-1.8,0.2 -6,-2.3 -6,-3.9c-0.1,-1.2 2.6,-1.3 4.6,-1.3z" fill="#001026" stroke="#001026" stroke-width="1.2" stroke-linecap="round" stroke-linejoin="round"/><path d="M206.60001,161.2c0,0 8.6,2.8 12.1,5.9" fill="none" stroke="#001026" stroke-width="1.2" stroke-linecap="round" stroke-linejoin="round"/><path d="M219.00001,170.6c-4.3,1.7 -11.7,0.6 -11.7,0.6" fill="none" stroke="#001026" stroke-width="1.2" stroke-linecap="round" stroke-linejoin="round"/><g><path d="M263.40001,151c2.9,4.5 3,9.6 0.2,11.4c-2.8,1.8 -7.4,-0.3 -10.4,-4.8c-2.9,-4.5 -3,-9.6 -0.2,-11.4c2.8,-1.9 7.5,0.3 10.4,4.8z" fill="#ffffff" stroke="#001026" stroke-width="1.2" stroke-linecap="round" stroke-linejoin="round"/><path d="M263.00001,156.7c0,1.1 -0.8,2 -1.8,2c-1,0 -1.8,-0.9 -1.8,-2c0,-1.1 0.8,-2 1.8,-2c1,0 1.8,0.9 1.8,2" fill="#001026" stroke="none" stroke-width="1" stroke-linecap="butt" stroke-linejoin="miter"/></g><g><path d="M238.60001,153.8c3,4.4 2.8,9.8 0.1,11.7c-3.3,1.9 -7.7,0.5 -10.7,-3.9c-3.1,-4.4 -3.3,-10.1 -0.2,-12.3c3.1,-2.3 7.8,0.1 10.8,4.5z" fill="#ffffff" stroke="#001026" stroke-width="1.2" stroke-linecap="round" stroke-linejoin="round"/><path d="M238.00001,159.6c0,1.1 -0.8,2 -1.8,2c-1,0 -1.8,-0.9 -1.8,-2c0,-1.1 0.8,-2 1.8,-2c1,0.1 1.8,0.9 1.8,2" fill="#001026" stroke="none" stroke-width="1" stroke-linecap="butt" stroke-linejoin="miter"/></g></g><path d="M223.68709,198.47443c2.3993,3.17344 6.12449,7.15377 1.26094,10.30383c-6.65914,3.56361 -11.9248,-7.70866 -12.96911,-11.63909c-0.9409,-3.48155 2.00497,-5.6616 4.4978,-7.51485c4.86772,-3.37346 8.94726,-6.42636 13.38425,-4.66765c5.54781,2.11461 1.44332,6.50795 -1.3867,8.46666c-1.69843,1.19758 -3.39895,2.50684 -4.64224,3.26592c-0.34551,0.55229 -0.46969,1.22044 -0.14496,1.78519z" fill="#ffab19" fill-rule="evenodd" stroke="#001026" stroke-width="1.2" stroke-linecap="round" stroke-linejoin="round"/><path d="M243.10724,215.2332l-16.68993,-12.50821" fill="none" fill-rule="nonzero" stroke="url(#color-4)" stroke-width="2" stroke-linecap="round" stroke-linejoin="miter"/><path d="M223.11592,205.50066l15.14419,11.03087" fill="none" fill-rule="nonzero" stroke="url(#color-5)" stroke-width="2" stroke-linecap="round" stroke-linejoin="miter"/><path d="M220.25358,207.3068l11.5861,8.81686" fill="none" fill-rule="nonzero" stroke="url(#color-6)" stroke-width="2" stroke-linecap="round" stroke-linejoin="miter"/></g></g></svg>