<svg version="1.1" xmlns="http://www.w3.org/2000/svg" xmlns:xlink="http://www.w3.org/1999/xlink" width="106.49794" height="102.58041" viewBox="0,0,106.49794,102.58041"><g transform="translate(-181.00206,-130.50077)"><g data-paper-data="{&quot;isPaintingLayer&quot;:true}" fill-rule="evenodd" stroke-miterlimit="10" stroke-dasharray="" stroke-dashoffset="0" style="mix-blend-mode: normal"><g><path d="M227.1182,190.7916c1.27291,-0.05773 4.01256,-0.11817 3.38704,5.77762c-0.62552,5.89579 -8.72355,11.55645 -9.71879,12.1118c-3.78714,2.27636 -8.51453,4.91423 -14.71139,6.0881c-17.95413,3.49276 -27.17226,-12.73489 -23.77823,-18.05469c3.26962,-5.25038 11.00735,3.64633 21.2511,5.9242c4.51291,1.07089 8.676,0.05301 12.00881,-0.99098c4.64627,-1.61377 10.09474,-10.85332 11.56147,-10.85605z" fill="#ffab19" stroke="#001026" stroke-width="1.2" stroke-linecap="round" stroke-linejoin="round"/><path d="M190.64289,197.93039c3.86475,2.24825 10.35919,4.82369 10.35919,4.82369c0,0 -5.22775,1.44881 -6.66016,5.02148c-1.21245,2.79737 0.81236,5.25661 1.5471,5.98861c-2.5197,-0.71483 -5.7597,-1.84345 -9.43337,-5.50344c-3.67367,-3.66001 -5.34516,-9.57919 -3.27356,-11.71397c2.21043,-1.88597 3.87372,-0.36698 7.46081,1.38365z" fill="#ffffff" stroke="none" stroke-width="1" stroke-linecap="butt" stroke-linejoin="miter"/></g><path d="M236.88137,203.63407c-1.47524,1.5823 -6.49523,7.29191 -13.60709,11.54414l-0.36622,0.18944c-0.36622,0.18944 -0.44568,0.72205 -0.15894,1.06524c2.20704,1.94396 6.32918,5.90098 1.36855,8.82197c-4.76601,2.87493 -17.6472,-8.566 -14.41224,-13.13383c1.5265,-1.79994 3.34201,-1.51029 4.30994,-1.32832c0.53262,0.07947 1.01918,-0.03569 1.48271,-0.24815c1.07562,-0.66561 3.03223,-1.95079 4.47926,-3.21811c3.67773,-3.13118 4.44358,-4.23729 6.04436,-6.15758c1.60078,-1.92029 5.22499,-6.58024 9.56251,-4.31839c3.73581,1.89043 2.67511,5.22434 1.29719,6.78361z" fill="#ffab19" stroke="#001026" stroke-width="1.2" stroke-linecap="round" stroke-linejoin="round"/><path d="M248.39659,188.54742c0.59979,0.22418 8.64049,5.16353 9.97961,2.82971c1.62567,-2.74358 3.48293,-7.66806 7.93234,-5.65491c4.44941,2.01315 -0.26576,9.45407 -2.55357,11.78344c-5.58961,5.09669 -12.74993,1.23666 -14.38895,0.09054c-1.63902,-1.14614 -4.47613,-3.05684 -5.28672,-5.52725c-0.77793,-2.69161 2.23436,-4.41674 4.31728,-3.52151z" fill="#ffab19" stroke="#001026" stroke-width="1.2" stroke-linecap="round" stroke-linejoin="round"/><g><path d="M242.97982,213.41073c1.08138,2.45341 3.54186,7.59223 3.54186,7.59223c0,0 12.77058,2.8353 10.24893,9.30456c-1.50599,3.86359 -7.84531,2.20354 -15.59875,-2.05205c-0.46407,-0.30307 -0.89311,-0.69598 -1.16894,-1.23306c-1.16457,-2.48895 -4.44373,-9.75933 -6.40512,-14.68493c-2.8764,-7.30794 -5.62143,-12.46351 -5.62143,-12.46351c-4.16355,-10.47814 2.80181,-11.17098 6.72882,-14.52436c3.5155,-2.7955 4.15031,-1.6858 8.72094,1.52454c2.65307,1.65746 4.21164,2.63772 6.07666,3.32965c2.78003,1.08282 0.59983,5.18245 -1.02438,7.1089c0,0 -2.4604,2.82699 -4.2072,4.07219c-2.13644,1.498 -3.65997,2.41934 -4.97336,2.80157z" fill="#ffab19" stroke="#001026" stroke-width="1.2" stroke-linecap="round" stroke-linejoin="round"/><path d="M238.58425,203.77679c0,0 -0.82745,-1.61124 -1.63302,-3.52757c-1.03323,-2.32803 -2.17152,-4.3865 0.57784,-6.46117c2.33783,-1.51678 4.87265,-3.78791 7.60018,0.41686c2.63121,3.954 0.17517,5.5251 0.17517,5.5251c-3.40604,3.26152 -6.72016,4.04678 -6.72016,4.04678z" fill="#ffffff" stroke="none" stroke-width="1" stroke-linecap="butt" stroke-linejoin="miter"/></g><path d="M225.42431,196.12859c1.55566,3.20312 4.13542,7.34495 -0.68208,9.26633c-6.46595,1.9727 -9.13208,-8.83941 -9.36651,-12.4719c-0.2216,-3.22039 2.74362,-4.62304 5.25429,-5.81743c4.85995,-2.11682 8.97217,-4.08903 12.56271,-1.7743c4.5041,2.82012 0.13721,5.96499 -2.68785,7.19343c-1.69928,0.75661 -3.41978,1.61093 -4.64328,2.06155c-0.39928,0.42494 -0.62434,0.99005 -0.43729,1.54233z" fill="#ffab19" stroke="#001026" stroke-width="1.2" stroke-linecap="round" stroke-linejoin="round"/><g><path d="M253.7,131c0.3,-0.2 0.8,-0.1 0.9,0.3l2.6,10.7c0,0 6.4,4.7 8.3,8c3.2,5.5 3.3,10 3.3,10c0,0 7.1,2.1 8.3,7.8c1.2,5.7 -3.2,16.5 -22,20.2c-18.8,3.7 -33.9,-1.4 -41,-12.8c-7.1,-11.4 4.1,-25 3.5,-24.2l-2.1,-17.9c-0.1,-0.4 0.4,-0.7 0.8,-0.5l12.1,7.9c0,0 4.5,-1.7 9.2,-1.9c2.8,-0.2 5.2,0 7.5,0.4z" fill="#ffab19" stroke="#001026" stroke-width="1.2" stroke-linecap="butt" stroke-linejoin="miter"/><path d="M268.5,160.4c0,0 6.9,1.8 8.1,7.5c1.2,5.7 -3.6,16 -22.2,19.6c-24.2,5 -35.7,-9.4 -29,-20c6.7,-10.7 18.2,-1.6 26.6,-2.2c7.2,-0.5 8,-6.8 16.5,-4.9z" fill="#ffffff" stroke="none" stroke-width="1" stroke-linecap="butt" stroke-linejoin="miter"/><path d="M237,171.1c0,-0.4 0.4,-0.7 0.8,-0.6c1.9,0.7 7.3,2.3 13.3,2.7c5.4,0.3 8.6,0 10.1,-0.3c0.5,-0.1 0.9,0.4 0.7,0.9c-0.9,2.7 -4.7,10.2 -15.2,9.6c-9.1,-1 -10,-7.4 -9.7,-12.3z" fill="#ffffff" stroke="#001026" stroke-width="1.2" stroke-linecap="round" stroke-linejoin="round"/><path d="M286.9,161.5c-4.7,3.8 -11.9,3.9 -11.9,3.9" fill="none" stroke="#001026" stroke-width="1.2" stroke-linecap="round" stroke-linejoin="round"/><path d="M285.59999,172.7c-6.3,0.5 -10.2,-1.4 -10.2,-1.4" fill="none" stroke="#001026" stroke-width="1.2" stroke-linecap="round" stroke-linejoin="round"/><path d="M251.6,162.7c2.1,0 4.3,0.2 4.4,0.9c0.1,1.4 -1.4,4.2 -3,4.3c-1.8,0.2 -6,-2.3 -6,-3.9c-0.1,-1.2 2.6,-1.3 4.6,-1.3z" fill="#001026" stroke="#001026" stroke-width="1.2" stroke-linecap="round" stroke-linejoin="round"/><path d="M206.6,161.2c0,0 8.6,2.8 12.1,5.9" fill="none" stroke="#001026" stroke-width="1.2" stroke-linecap="round" stroke-linejoin="round"/><path d="M219,170.6c-4.3,1.7 -11.7,0.6 -11.7,0.6" fill="none" stroke="#001026" stroke-width="1.2" stroke-linecap="round" stroke-linejoin="round"/><g><path d="M263.4,151c2.9,4.5 3,9.6 0.2,11.4c-2.8,1.8 -7.4,-0.3 -10.4,-4.8c-2.9,-4.5 -3,-9.6 -0.2,-11.4c2.8,-1.9 7.5,0.3 10.4,4.8z" fill="#ffffff" stroke="#001026" stroke-width="1.2" stroke-linecap="round" stroke-linejoin="round"/><path d="M263,156.7c0,1.1 -0.8,2 -1.8,2c-1,0 -1.8,-0.9 -1.8,-2c0,-1.1 0.8,-2 1.8,-2c1,0 1.8,0.9 1.8,2" fill="#001026" stroke="none" stroke-width="1" stroke-linecap="butt" stroke-linejoin="miter"/></g><g><path d="M238.6,153.8c3,4.4 2.8,9.8 0.1,11.7c-3.3,1.9 -7.7,0.5 -10.7,-3.9c-3.1,-4.4 -3.3,-10.1 -0.2,-12.3c3.1,-2.3 7.8,0.1 10.8,4.5z" fill="#ffffff" stroke="#001026" stroke-width="1.2" stroke-linecap="round" stroke-linejoin="round"/><path d="M238,159.6c0,1.1 -0.8,2 -1.8,2c-1,0 -1.8,-0.9 -1.8,-2c0,-1.1 0.8,-2 1.8,-2c1,0.1 1.8,0.9 1.8,2" fill="#001026" stroke="none" stroke-width="1" stroke-linecap="butt" stroke-linejoin="miter"/></g></g></g></g></svg>