<svg version="1.1" xmlns="http://www.w3.org/2000/svg" xmlns:xlink="http://www.w3.org/1999/xlink" width="120.77543" height="100.75653" viewBox="0,0,120.77543,100.75653"><g transform="translate(-166.72457,-130.50077)"><g data-paper-data="{&quot;isPaintingLayer&quot;:true}" fill-rule="evenodd" stroke-miterlimit="10" stroke-dasharray="" stroke-dashoffset="0" style="mix-blend-mode: normal"><g><path d="M230.31492,188.95128c1.71423,0.21805 5.38892,0.77263 3.18587,8.50543c-2.20306,7.7328 -14.33624,13.41854 -15.79486,13.92979c-5.58821,2.16339 -12.51661,4.59178 -21.06898,4.72322c-24.80001,0.50336 -33.3539,-23.31748 -27.58517,-29.63863c5.58639,-6.25724 13.86226,7.4248 27.02155,12.84401c5.78174,2.47746 11.58044,2.08282 16.2758,1.46074c6.58251,-1.07881 16.00535,-12.16104 17.9658,-11.82455z" fill="#ffab19" stroke="#001026" stroke-width="1.2" stroke-linecap="round" stroke-linejoin="round"/><path d="M179.92167,190.0313c4.64264,3.90032 12.72316,8.84766 12.72316,8.84766c0,0 -7.32122,0.72355 -10.0637,5.16512c-2.26877,3.45663 -0.13356,7.21219 0.67844,8.36066c-3.20101,-1.53947 -7.26852,-3.79888 -11.32846,-9.54123c-4.05994,-5.74238 -4.92068,-14.03912 -1.65758,-16.41117c3.3909,-2.0074 5.26111,0.40797 9.64815,3.57899z" fill="#ffffff" stroke="none" stroke-width="1" stroke-linecap="butt" stroke-linejoin="miter"/></g><path d="M236.65265,201.6903c-0.9055,1.96471 -3.88488,8.95922 -9.30732,15.22478l-0.28847,0.2946c-0.28847,0.2946 -0.19714,0.8253 0.18266,1.06143c2.70481,1.15499 7.85882,3.62203 4.06249,7.94961c-3.62592,4.22289 -19.44211,-2.60851 -17.80039,-7.95966c0.88602,-2.18745 2.70092,-2.48094 3.67714,-2.61125c0.53072,-0.09133 0.95673,-0.35307 1.33041,-0.70001c0.81306,-0.96898 2.26877,-2.80227 3.24612,-4.459c2.51213,-4.12543 2.89306,-5.41574 3.81193,-7.74075c0.91888,-2.32501 2.90141,-7.88555 7.72909,-7.09586c4.13991,0.62539 4.17666,4.12377 3.35637,6.03613z" fill="#ffab19" stroke="#001026" stroke-width="1.2" stroke-linecap="round" stroke-linejoin="round"/><path d="M248.9379,189.9269c0.49413,0.40723 6.48872,7.69523 8.51469,5.92452c2.43031,-2.06486 5.7896,-6.11641 9.34121,-2.76438c3.55161,3.35203 -3.32915,8.8525 -6.25068,10.31015c-6.94438,2.99927 -12.45794,-2.98159 -13.63453,-4.59887c-1.17659,-1.6173 -3.23709,-4.34756 -3.19925,-6.94728c0.14073,-2.79824 3.55055,-3.4487 5.22854,-1.92413z" fill="#ffab19" stroke="#001026" stroke-width="1.2" stroke-linecap="round" stroke-linejoin="round"/><g><path d="M242.37021,212.30066c1.0409,2.36158 3.40929,7.30805 3.40929,7.30805c0,0 12.29258,2.72917 9.86531,8.95629c-1.44962,3.71898 -7.55166,2.12106 -15.01489,-1.97524c-0.4467,-0.29173 -0.85968,-0.66993 -1.12519,-1.18691c-1.12098,-2.39579 -4.2774,-9.39404 -6.16538,-14.13527c-2.76874,-7.0344 -5.41102,-11.997 -5.41102,-11.997c-4.00771,-10.08594 2.69694,-10.75285 6.47696,-13.98071c3.38391,-2.69086 3.99496,-1.6227 8.39451,1.46748c2.55377,1.59542 4.054,2.53899 5.84921,3.20502c2.67597,1.04229 0.57738,4.98847 -0.98604,6.84281c0,0 -2.36831,2.72118 -4.04972,3.91977c-2.05647,1.44193 -3.52298,2.32878 -4.78721,2.69671z" fill="#ffab19" stroke="#001026" stroke-width="1.2" stroke-linecap="round" stroke-linejoin="round"/><path d="M238.13916,203.02732c0,0 -0.79648,-1.55093 -1.5719,-3.39553c-0.99456,-2.24089 -2.09024,-4.22231 0.55621,-6.21933c2.25032,-1.46001 4.69027,-3.64613 7.3157,0.40126c2.53272,3.806 0.16861,5.31829 0.16861,5.31829c-3.27855,3.13944 -6.46862,3.89531 -6.46862,3.89531z" fill="#ffffff" stroke="none" stroke-width="1" stroke-linecap="butt" stroke-linejoin="miter"/></g><path d="M230.00034,199.98431c2.39188,2.63799 6.0301,5.88964 1.94519,9.0855c-5.65275,3.70763 -11.24536,-5.92215 -12.48955,-9.34296c-1.11625,-3.02886 1.33632,-5.20713 3.41103,-7.05797c4.07082,-3.39536 7.46452,-6.44212 11.56029,-5.22777c5.11443,1.44312 1.80531,5.6869 -0.56161,7.65863c-1.41874,1.20299 -2.83044,2.50572 -3.87836,3.28152c-0.26402,0.5199 -0.32148,1.12545 0.01301,1.60307z" fill="#ffab19" stroke="#001026" stroke-width="1.2" stroke-linecap="round" stroke-linejoin="round"/><g><path d="M253.7,131c0.3,-0.2 0.8,-0.1 0.9,0.3l2.6,10.7c0,0 6.4,4.7 8.3,8c3.2,5.5 3.3,10 3.3,10c0,0 7.1,2.1 8.3,7.8c1.2,5.7 -3.2,16.5 -22,20.2c-18.8,3.7 -33.9,-1.4 -41,-12.8c-7.1,-11.4 4.1,-25 3.5,-24.2l-2.1,-17.9c-0.1,-0.4 0.4,-0.7 0.8,-0.5l12.1,7.9c0,0 4.5,-1.7 9.2,-1.9c2.8,-0.2 5.2,0 7.5,0.4z" fill="#ffab19" stroke="#001026" stroke-width="1.2" stroke-linecap="butt" stroke-linejoin="miter"/><path d="M268.5,160.4c0,0 6.9,1.8 8.1,7.5c1.2,5.7 -3.6,16 -22.2,19.6c-24.2,5 -35.7,-9.4 -29,-20c6.7,-10.7 18.2,-1.6 26.6,-2.2c7.2,-0.5 8,-6.8 16.5,-4.9z" fill="#ffffff" stroke="none" stroke-width="1" stroke-linecap="butt" stroke-linejoin="miter"/><path d="M237,171.1c0,-0.4 0.4,-0.7 0.8,-0.6c1.9,0.7 7.3,2.3 13.3,2.7c5.4,0.3 8.6,0 10.1,-0.3c0.5,-0.1 0.9,0.4 0.7,0.9c-0.9,2.7 -4.7,10.2 -15.2,9.6c-9.1,-1 -10,-7.4 -9.7,-12.3z" fill="#ffffff" stroke="#001026" stroke-width="1.2" stroke-linecap="round" stroke-linejoin="round"/><path d="M286.9,161.5c-4.7,3.8 -11.9,3.9 -11.9,3.9" fill="none" stroke="#001026" stroke-width="1.2" stroke-linecap="round" stroke-linejoin="round"/><path d="M285.6,172.7c-6.3,0.5 -10.2,-1.4 -10.2,-1.4" fill="none" stroke="#001026" stroke-width="1.2" stroke-linecap="round" stroke-linejoin="round"/><path d="M251.6,162.7c2.1,0 4.3,0.2 4.4,0.9c0.1,1.4 -1.4,4.2 -3,4.3c-1.8,0.2 -6,-2.3 -6,-3.9c-0.1,-1.2 2.6,-1.3 4.6,-1.3z" fill="#001026" stroke="#001026" stroke-width="1.2" stroke-linecap="round" stroke-linejoin="round"/><path d="M206.6,161.2c0,0 8.6,2.8 12.1,5.9" fill="none" stroke="#001026" stroke-width="1.2" stroke-linecap="round" stroke-linejoin="round"/><path d="M219,170.6c-4.3,1.7 -11.7,0.6 -11.7,0.6" fill="none" stroke="#001026" stroke-width="1.2" stroke-linecap="round" stroke-linejoin="round"/><g><path d="M263.4,151c2.9,4.5 3,9.6 0.2,11.4c-2.8,1.8 -7.4,-0.3 -10.4,-4.8c-2.9,-4.5 -3,-9.6 -0.2,-11.4c2.8,-1.9 7.5,0.3 10.4,4.8z" fill="#ffffff" stroke="#001026" stroke-width="1.2" stroke-linecap="round" stroke-linejoin="round"/><path d="M263,156.7c0,1.1 -0.8,2 -1.8,2c-1,0 -1.8,-0.9 -1.8,-2c0,-1.1 0.8,-2 1.8,-2c1,0 1.8,0.9 1.8,2" fill="#001026" stroke="none" stroke-width="1" stroke-linecap="butt" stroke-linejoin="miter"/></g><g><path d="M238.6,153.8c3,4.4 2.8,9.8 0.1,11.7c-3.3,1.9 -7.7,0.5 -10.7,-3.9c-3.1,-4.4 -3.3,-10.1 -0.2,-12.3c3.1,-2.3 7.8,0.1 10.8,4.5z" fill="#ffffff" stroke="#001026" stroke-width="1.2" stroke-linecap="round" stroke-linejoin="round"/><path d="M238,159.6c0,1.1 -0.8,2 -1.8,2c-1,0 -1.8,-0.9 -1.8,-2c0,-1.1 0.8,-2 1.8,-2c1,0.1 1.8,0.9 1.8,2" fill="#001026" stroke="none" stroke-width="1" stroke-linecap="butt" stroke-linejoin="miter"/></g></g></g></g></svg>