<svg version="1.1" xmlns="http://www.w3.org/2000/svg" xmlns:xlink="http://www.w3.org/1999/xlink" width="91.9137" height="119.5247" viewBox="0,0,91.9137,119.5247"><g transform="translate(-195.83899,-126.5248)"><g data-paper-data="{&quot;isPaintingLayer&quot;:true}" stroke-miterlimit="10" stroke-dasharray="" stroke-dashoffset="0" style="mix-blend-mode: normal"><g fill-rule="evenodd"><path d="M226.97359,193.91415c0.72493,0.5239 2.25734,1.68654 -0.66007,4.6545c-2.91741,2.96795 -9.8399,2.54485 -10.62942,2.4157c-3.07548,-0.40177 -6.82564,-1.01523 -10.74453,-3.07491c-11.39422,-5.91707 -9.37807,-18.86138 -5.19022,-20.30423c4.08918,-1.459 4.45923,6.8092 9.09604,12.53284c2.01335,2.55859 4.74617,3.81627 7.03397,4.69716c3.25854,1.14102 10.28674,-1.55979 11.09421,-0.92105z" fill="#ffab19" stroke="#001026" stroke-width="1.2" stroke-linecap="round" stroke-linejoin="round"/><path d="M203.80655,181.91674c1.14313,2.92288 3.589,7.1735 3.589,7.1735c0,0 -3.50617,-1.48551 -5.85308,-0.14684c-1.88757,1.0085 -1.84798,3.24422 -1.76361,3.96732c-1.07308,-1.49282 -2.3615,-3.5275 -2.78335,-7.14303c-0.42185,-3.61553 1.24307,-7.59899 3.3137,-7.86825c2.03835,-0.07188 2.28963,1.48917 3.49733,4.0173z" fill="#ffffff" stroke="none" stroke-width="1" stroke-linecap="butt" stroke-linejoin="miter"/></g><path d="M227.64239,202.86131c-1.28421,1.62516 -5.63835,7.52245 -11.99357,11.54783l-0.32869,0.17396c-0.32869,0.17396 -0.37611,0.76633 -0.09483,1.18477c2.13103,2.43346 6.12707,7.34664 1.69201,10.10365c-4.25771,2.72616 -16.69989,-11.58397 -13.93725,-16.38681c1.32091,-1.86519 3.01018,-1.34104 3.91216,-1.03051c0.49531,0.14755 0.93866,0.07049 1.35602,-0.11888c0.96009,-0.6342 2.70293,-1.87177 3.97643,-3.14459c3.24109,-3.13361 3.89393,-4.29853 5.27752,-6.29146c1.3836,-1.99292 4.50093,-6.85743 8.61321,-3.83371c3.53902,2.53922 2.72254,6.186 1.52698,7.79574z" fill="#ffab19" fill-rule="evenodd" stroke="#001026" stroke-width="1.2" stroke-linecap="round" stroke-linejoin="round"/><path d="M246.07093,186.7842c0.21919,0.9339 0.88092,15.28046 4.70651,14.68808c4.53866,-0.63448 11.83094,-3.05028 13.04473,4.20831c1.21379,7.2586 -11.34219,8.61076 -15.92657,8.05676c-10.50091,-1.91509 -11.72407,-14.18215 -11.695,-17.23813c0.02906,-3.05599 -0.00679,-8.27668 2.24823,-11.58627c2.54171,-3.47922 6.99832,-1.48217 7.6221,1.87123z" fill="#ffab19" fill-rule="evenodd" stroke="#001026" stroke-width="1.2" stroke-linecap="round" stroke-linejoin="round"/><g fill-rule="evenodd"><path d="M236.57028,220.23356c1.19294,2.93882 3.90062,9.05856 3.90062,9.05856c0,0 13.69816,1.28975 11.09818,10.02134c-1.55276,5.21469 -8.3563,4.25154 -16.7107,0.22868c-0.50075,-0.3026 -0.96541,-0.72646 -1.26836,-1.36267c-1.28241,-2.96903 -4.89735,-11.66416 -7.06817,-17.60261c-3.18481,-8.81681 -6.19702,-14.90595 -6.19702,-14.90595c-4.60845,-12.63434 2.82941,-14.79363 6.97863,-19.79873c3.71749,-4.21664 4.41286,-2.91403 9.34824,0.35447c2.8617,1.63386 4.54294,2.60209 6.54757,3.14568c2.98891,0.87601 0.7187,6.51574 -0.98938,9.27556c0,0 -2.5888,4.06397 -4.43811,5.97529c-2.26219,2.30573 -3.8776,3.76215 -5.27635,4.49096z" fill="#ffab19" stroke="#001026" stroke-width="1.2" stroke-linecap="round" stroke-linejoin="round"/><path d="M231.7263,208.72089c0,0 -0.90886,-1.90858 -1.79883,-4.21118c-1.13957,-2.7873 -2.38748,-5.21081 0.52152,-8.36581c2.47727,-2.36656 5.15395,-5.73352 8.13325,-0.85668c2.87257,4.57384 0.26973,7.03145 0.26973,7.03145c-3.59351,4.79238 -7.12565,6.40227 -7.12565,6.40227z" fill="#ffffff" stroke="none" stroke-width="1" stroke-linecap="butt" stroke-linejoin="miter"/></g><path d="M220.40486,191.30228c-0.47384,3.88166 -0.56244,9.23951 -6.15118,8.14097c-7.13989,-2.03355 -3.15599,-13.59565 -1.20755,-17.08605c1.7147,-3.1026 5.28575,-2.6294 8.31339,-2.23496c5.74437,0.94356 10.71285,1.57493 12.64544,5.84976c2.47409,5.28544 -3.42812,5.584 -6.76606,5.0336c-2.01833,-0.31474 -4.11447,-0.55197 -5.51157,-0.86544c-0.62153,0.15404 -1.1659,0.54119 -1.32246,1.16209z" fill="#ffab19" fill-rule="evenodd" stroke="#001026" stroke-width="1.2" stroke-linecap="round" stroke-linejoin="round"/><g fill-rule="evenodd"><path d="M263.42921,135.53445c0.34289,-0.11151 0.79726,0.11989 0.78546,0.53205l-0.38799,11.00452c0,0 4.89191,6.25453 5.82954,9.94516c1.5948,6.16008 0.47513,10.51971 0.47513,10.51971c0,0 6.26843,3.94038 5.88359,9.75261c-0.38485,5.81221 -7.53946,15.02153 -26.6399,13.5039c-19.10044,-1.51764 -32.26065,-10.50813 -36.01609,-23.40257c-3.75546,-12.89444 10.70279,-22.96214 9.90895,-22.35404l2.81493,-17.80157c0.01181,-0.41215 0.57426,-0.56588 0.90534,-0.26523l9.51521,10.87571c0,0 4.79197,-0.42082 9.37117,0.65664c2.74988,0.56404 5.00656,1.40512 7.11292,2.41172z" fill="#ffab19" stroke="#001026" stroke-width="1.2" stroke-linecap="butt" stroke-linejoin="miter"/><path d="M269.73441,167.83995c0,0 6.15694,3.59751 5.77209,9.40974c-0.38485,5.81221 -7.78948,14.43204 -26.67036,12.87217c-24.65084,-1.72515 -31.83199,-18.69693 -22.51696,-27.09219c9.34204,-8.49155 17.95532,3.3774 26.20498,5.06951c7.06727,1.46414 9.53985,-4.38534 17.21026,-0.25921z" fill="#ffffff" stroke="none" stroke-width="1" stroke-linecap="butt" stroke-linejoin="miter"/><path d="M236.51491,169.6302c0.10809,-0.38512 0.57426,-0.56588 0.93236,-0.36151c1.64017,1.18736 6.40695,4.187 12.07567,6.19339c5.11805,1.74798 8.28008,2.32383 9.80535,2.44032c0.50844,0.03883 0.75845,0.62832 0.43078,1.05566c-1.59609,2.35637 -7.28133,8.55057 -17.22861,5.13566c-8.49127,-3.42173 -7.62843,-9.82686 -6.01554,-14.46351z" fill="#ffffff" stroke="#001026" stroke-width="1.2" stroke-linecap="round" stroke-linejoin="round"/><path d="M287.1527,173.87094c-5.55198,2.38864 -12.51116,0.53939 -12.51116,0.53939" fill="none" stroke="#001026" stroke-width="1.2" stroke-linecap="round" stroke-linejoin="round"/><path d="M282.87466,184.30303c-6.20075,-1.22094 -9.44226,-4.1041 -9.44226,-4.1041" fill="none" stroke="#001026" stroke-width="1.2" stroke-linecap="round" stroke-linejoin="round"/><path d="M252.84159,165.48779c2.02188,0.56746 4.086,1.35447 3.99313,2.05547c-0.28202,1.37495 -2.48281,3.66547 -4.05033,3.3294c-1.78709,-0.29382 -5.15532,-3.83572 -4.72297,-5.37619c0.22797,-1.18238 2.85457,-0.54909 4.78016,-0.00867z" fill="#001026" stroke="#001026" stroke-width="1.2" stroke-linecap="round" stroke-linejoin="round"/><path d="M209.92087,151.88401c0,0 7.52351,5.01967 10.05563,8.95011" fill="none" stroke="#001026" stroke-width="1.2" stroke-linecap="round" stroke-linejoin="round"/><path d="M219.31961,164.28497c-4.5994,0.47485 -11.42689,-2.58381 -11.42689,-2.58381" fill="none" stroke="#001026" stroke-width="1.2" stroke-linecap="round" stroke-linejoin="round"/><g><path d="M267.36412,157.41153c1.57617,5.11623 0.29436,10.05354 -2.88787,11.02997c-3.18224,0.97645 -7.04366,-2.28842 -8.71612,-7.43166c-1.57617,-5.11623 -0.29436,-10.05354 2.88787,-11.02997c3.20924,-1.07272 7.13994,2.31544 8.71611,7.43167z" fill="#ffffff" stroke="#001026" stroke-width="1.2" stroke-linecap="round" stroke-linejoin="round"/><path d="M265.43879,162.79141c-0.29723,1.05908 -1.31067,1.70944 -2.27347,1.43923c-0.96279,-0.27021 -1.48985,-1.3529 -1.19262,-2.41198c0.29723,-1.05908 1.31067,-1.70943 2.27347,-1.43922c0.96279,0.27021 1.48985,1.35289 1.19262,2.41198" fill="#001026" stroke="none" stroke-width="1" stroke-linecap="butt" stroke-linejoin="miter"/></g><g><path d="M242.73008,153.40609c1.69946,5.04696 0.04776,10.19204 -3.06522,11.29178c-3.69065,0.93762 -7.54867,-1.59925 -9.24814,-6.64621c-1.79574,-5.07398 -0.44809,-10.61599 3.13105,-11.8965c3.60618,-1.37677 7.48282,2.20394 9.18228,7.2509z" fill="#ffffff" stroke="#001026" stroke-width="1.2" stroke-linecap="round" stroke-linejoin="round"/><path d="M240.58515,158.8282c-0.29723,1.05908 -1.31067,1.70943 -2.27347,1.43922c-0.96279,-0.27021 -1.48985,-1.3529 -1.19261,-2.41199c0.29723,-1.05908 1.31067,-1.70943 2.27347,-1.43922c0.93578,0.3665 1.48985,1.3529 1.19261,2.41199" fill="#001026" stroke="none" stroke-width="1" stroke-linecap="butt" stroke-linejoin="miter"/></g></g><path d="M236.36257,230.87251c0.29042,0 0.47901,0.10183 0.60148,0.23408c-0.14749,-2.23457 -1.18025,-4.62169 -1.52234,-6.85612c-1.05749,-6.90736 -2.29167,-13.78403 -3.69615,-20.63039c-0.5548,-2.70463 -1.10959,-5.40926 -1.66439,-8.11388l-0.3179,-1.54976c0,0 -0.16644,-0.81139 0.64495,-0.97783h0.00001c0.81139,-0.16644 0.97783,0.64495 0.97783,0.64495c0.5548,2.70463 1.42749,6.95901 1.98229,9.66364c1.40988,6.87366 2.64916,13.7777 3.71086,20.71257c0.39161,2.55789 1.53757,5.15989 1.55863,7.70102c0,0 0,0.82828 -0.82828,0.82828c-0.23247,0 -0.39969,-0.06525 -0.51998,-0.15911c0.87311,2.21684 1.62803,4.45134 1.63766,6.85511c0,0 0,0.425 -0.30443,0.66613c1.06395,1.31675 2.09536,2.63766 3.05928,4.08354c0,0 0.45945,0.68917 -0.22972,1.14862c-0.68917,0.45945 -1.14862,-0.22972 -1.14862,-0.22972c-1.4307,-2.14605 -3.00807,-4.00389 -4.62567,-5.99814l-0.2484,-0.30654c0,0 -0.52147,-0.64353 0.12206,-1.16499c0.64353,-0.52147 1.16499,0.12206 1.16499,0.12206l0.2484,0.30654c0.0847,0.10463 0.16931,0.20892 0.25381,0.31291c-0.1937,-1.92942 -0.90097,-3.76954 -1.62539,-5.57827l-0.05924,-0.88641c0,0 0,-0.82828 0.82828,-0.82828z" fill="#19fff5" fill-rule="nonzero" stroke="none" stroke-width="0.5" stroke-linecap="butt" stroke-linejoin="miter"/><path d="M237.67687,236.66345c0.94072,-0.82313 1.76385,0.11759 1.76385,0.11759l0.99719,1.14076c0.20516,-0.14746 0.45682,-0.2343 0.72876,-0.2343c0.69036,0 1.25,0.55964 1.25,1.25c0,0.40017 -0.18804,0.75642 -0.48059,0.98521c0.54697,0.76528 1.08215,1.539 1.60398,2.32141c0,0 0.69338,1.04006 -0.34669,1.73344c-1.04006,0.69338 -1.73344,-0.34669 -1.73344,-0.34669c-0.88456,-1.32742 -1.80745,-2.62998 -2.76432,-3.90625l-1.13634,-1.29733c0,0 -0.82313,-0.94072 0.11759,-1.76385z" fill="#0048ff" fill-rule="nonzero" stroke="none" stroke-width="0.5" stroke-linecap="butt" stroke-linejoin="miter"/><path d="M251.54006,232.91079c0.69338,1.04006 -0.34669,1.73344 -0.34669,1.73344l-0.91251,0.60269c-1.11111,0.88889 -2.22222,1.77778 -3.33333,2.66667c0,0 -0.85316,0.68253 -1.60232,-0.02625c-0.12042,0.28015 -0.23779,0.56254 -0.35129,0.84774c0,0 -0.46424,1.1606 -1.62483,0.69636c-1.1606,-0.46424 -0.69636,-1.62483 -0.69636,-1.62483c1.23117,-3.06375 2.89643,-5.79181 3.97842,-8.94192l-0.06783,0.07283c0,0 0,-1.25 1.25,-1.25c1.25,0 1.25,1.25 1.25,1.25l-0.06783,0.7395c-0.62593,1.82133 -1.44599,3.50512 -2.26413,5.19196c0.65592,-0.52474 1.31184,-1.04947 1.96776,-1.57421l1.08749,-0.73064c0,0 1.04006,-0.69338 1.73344,0.34669z" fill="#0048ff" fill-rule="nonzero" stroke="none" stroke-width="0.5" stroke-linecap="butt" stroke-linejoin="miter"/><path d="M266.85336,234.21498c0.72252,1.02003 -0.29751,1.74255 -0.29751,1.74255l-1.95994,1.38829c-5.16961,3.66144 -9.40874,10.87045 -16.25498,8.07394c0,0 -1.14893,-0.4924 -0.65653,-1.64133c0.4924,-1.14893 1.64133,-0.65653 1.64133,-0.65653c3.82876,1.74427 5.19449,-0.58545 7.96703,-3.1827c0.42444,-0.3976 0.85374,-0.77963 1.28829,-1.14998c-1.10868,0.37842 -2.24397,0.60484 -3.41438,0.59787l0,0.46706l-1.33333,0c-0.59826,0 -1.09836,-0.42029 -1.22114,-0.98171c-0.03791,0.04907 -0.07531,0.09852 -0.11219,0.14838c0,0 -0.75,1 -1.75,0.25c-1,-0.75 -0.25,-1.75 -0.25,-1.75c0.89638,-1.18168 2.0166,-2.19028 3.1713,-3.12116l1.38116,-1.10493c0,0 0.97609,-0.78087 1.75695,0.19522c0.78087,0.97609 -0.19522,1.75695 -0.19522,1.75695l-1.3595,1.0876c0.29302,0.00736 0.62127,0.13206 0.91196,0.51965c0.01816,0.02422 0.0353,0.04829 0.05145,0.0722c0.30369,-0.13471 0.61831,-0.24508 0.88249,-0.34022c3.11551,-1.12201 5.78735,-2.94094 8.62742,-4.63637l2.3471,-0.85452c0,0 1.17558,-0.42488 1.60045,0.7507c0.42488,1.17558 -0.7507,1.60045 -0.7507,1.60045l-2.08634,0.74794c0.00496,0.0068 0.0099,0.01367 0.01483,0.02063z" fill="#0048ff" fill-rule="nonzero" stroke="none" stroke-width="0.5" stroke-linecap="butt" stroke-linejoin="miter"/><path d="M227.15813,242.16224c-1.47058,-1.02258 -2.94168,-2.07477 -4.20868,-3.34086c0,0 -0.28964,-0.28964 -0.37151,-0.70312c-0.1288,0.04486 -0.26719,0.06923 -0.41127,0.06923c-0.69036,0 -1.25,-0.55964 -1.25,-1.25c0,-0.69036 0.55964,-1.25 1.25,-1.25c0.62344,0 1.14028,0.45641 1.23462,1.05333c0.23391,-0.09653 0.45651,-0.09553 0.64987,-0.05077c0.04207,-0.072 0.09339,-0.14525 0.15523,-0.21946c0.80023,-0.96028 1.76051,-0.16005 1.76051,-0.16005l0.07945,0.06621c2.13476,1.78079 4.2891,3.49661 5.57169,6.00172c0,0 0.55902,1.11803 -0.55902,1.67705c-1.11803,0.55902 -1.67705,-0.55902 -1.67705,-0.55902c-0.36358,-0.75049 -0.85071,-1.42423 -1.40798,-2.04751z" fill="#0048ff" fill-rule="nonzero" stroke="none" stroke-width="0.5" stroke-linecap="butt" stroke-linejoin="miter"/><path d="M223.94945,227.72028c0.88388,-0.88388 1.76777,0 1.76777,0l0.14283,0.17715c2.64029,1.7602 6.2981,3.01191 6.55662,6.3734c0,0 0,1.25 -1.25,1.25c-1.25,0 -1.25,-1.25 -1.25,-1.25c0.28891,-1.45234 -4.16797,-3.443 -5.44338,-4.29327l-0.52384,-0.48951c0,0 -0.88388,-0.88388 0,-1.76777z" fill="#0048ff" fill-rule="nonzero" stroke="none" stroke-width="0.5" stroke-linecap="butt" stroke-linejoin="miter"/><path d="M283.32726,233.13993c0.46424,1.1606 -0.69636,1.62483 -0.69636,1.62483l-2.18285,0.75499c-0.61347,-0.26585 -1.22693,-0.5317 -1.8404,-0.79755c0,0 -1.11803,-0.55902 -0.55902,-1.67705c0.55902,-1.11803 1.67705,-0.55902 1.67705,-0.55902c0.27542,0.17859 0.55084,0.35719 0.82626,0.53578l1.15048,-0.57834c0,0 1.1606,-0.46424 1.62483,0.69636z" fill="#0048ff" fill-rule="nonzero" stroke="none" stroke-width="0.5" stroke-linecap="butt" stroke-linejoin="miter"/><path d="M268.54006,240.24412c0.69338,1.04006 -0.34669,1.73344 -0.34669,1.73344l-1,0.66667c-1.42626,0.88908 -3.23237,1.41072 -4.89887,1.19293c0,0 -1.23299,-0.2055 -1.02749,-1.43849c0.2055,-1.23299 1.43849,-1.02749 1.43849,-1.02749c1.04217,0.23409 2.23995,-0.17517 3.10113,-0.80707l1,-0.66667c0,0 1.04006,-0.69338 1.73344,0.34669z" fill="#0048ff" fill-rule="nonzero" stroke="none" stroke-width="0.5" stroke-linecap="butt" stroke-linejoin="miter"/></g></g></svg>