<svg version="1.1" xmlns="http://www.w3.org/2000/svg" xmlns:xlink="http://www.w3.org/1999/xlink" width="110.40193" height="113.39605" viewBox="0,0,110.40193,113.39605"><defs><linearGradient x1="289.93534" y1="223.97419" x2="249.77969" y2="217.77674" gradientUnits="userSpaceOnUse" id="color-1"><stop offset="0" stop-color="#abb4c9"/><stop offset="1" stop-color="#d9e2ff"/></linearGradient><radialGradient cx="271.81964" cy="227.23074" r="25.81848" gradientUnits="userSpaceOnUse" id="color-2"><stop offset="0" stop-color="#dae9ff"/><stop offset="1" stop-color="#9ea5ba"/></radialGradient><linearGradient x1="285.74672" y1="214.96508" x2="251.82533" y2="216.85826" gradientUnits="userSpaceOnUse" id="color-3"><stop offset="0" stop-color="#abb4c9"/><stop offset="1" stop-color="#d9e2ff"/></linearGradient><linearGradient x1="282.41482" y1="151.58252" x2="253.35259" y2="190.54862" gradientUnits="userSpaceOnUse" id="color-4"><stop offset="0" stop-color="#abb4c9"/><stop offset="1" stop-color="#d9e2ff"/></linearGradient><linearGradient x1="289.36119" y1="159.3898" x2="257.87721" y2="189.72055" gradientUnits="userSpaceOnUse" id="color-5"><stop offset="0" stop-color="#abb4c9"/><stop offset="1" stop-color="#d9e2ff"/></linearGradient><linearGradient x1="295.4769" y1="170.00288" x2="261.67265" y2="191.32804" gradientUnits="userSpaceOnUse" id="color-6"><stop offset="0" stop-color="#abb4c9"/><stop offset="1" stop-color="#d9e2ff"/></linearGradient></defs><g transform="translate(-195.60539,-128.93901)"><g data-paper-data="{&quot;isPaintingLayer&quot;:true}" stroke-miterlimit="10" stroke-dasharray="" stroke-dashoffset="0" style="mix-blend-mode: normal"><path d="M250.30909,215.15338l39.09686,11.44415" fill="none" fill-rule="nonzero" stroke="url(#color-1)" stroke-width="2" stroke-linecap="round" stroke-linejoin="miter"/><path d="M248.26222,216.38738l47.11484,21.6867" fill="none" fill-rule="nonzero" stroke="url(#color-2)" stroke-width="2" stroke-linecap="round" stroke-linejoin="miter"/><path d="M285.80353,217.62343l-34.03499,-3.42354" fill="none" fill-rule="nonzero" stroke="url(#color-3)" stroke-width="2" stroke-linecap="round" stroke-linejoin="miter"/><g fill-rule="evenodd"><path d="M228.15505,198.08372c0.89351,-0.04052 2.81658,-0.08295 2.3775,4.05555c-0.43908,4.1385 -6.12342,8.11195 -6.82202,8.50177c-2.65835,1.59787 -5.9767,3.4495 -10.32653,4.27349c-12.60274,2.45171 -19.07333,-8.93914 -16.69092,-12.67333c2.29508,-3.68546 7.72651,2.55951 14.91702,4.15844c3.1678,0.7517 6.09004,0.03721 8.42948,-0.69561c3.26141,-1.13277 7.08591,-7.61839 8.11547,-7.62031z" fill="#ffab19" stroke="#001026" stroke-width="1.2" stroke-linecap="round" stroke-linejoin="round"/><path d="M202.55153,203.09473c2.71283,1.57814 7.27154,3.38595 7.27154,3.38595c0,0 -3.66957,1.01698 -4.67504,3.52478c-0.85107,1.96359 0.57023,3.68983 1.08597,4.20365c-1.76868,-0.50177 -4.04297,-1.29399 -6.62167,-3.86309c-2.5787,-2.56911 -3.75199,-6.72403 -2.29785,-8.22252c1.55159,-1.32384 2.71912,-0.2576 5.23705,0.97124z" fill="#ffffff" stroke="none" stroke-width="1" stroke-linecap="butt" stroke-linejoin="miter"/></g><path d="M234.69892,205.58601c-2.09716,0.92091 -9.36967,4.37095 -18.06609,5.52781l-0.43545,0.03086c-0.43545,0.03086 -0.73575,0.51552 -0.60063,0.96932c1.33215,2.81457 3.68361,8.38866 -2.36343,9.15182c-5.83849,0.79987 -13.57359,-15.71968 -8.51501,-18.80691c2.23815,-1.11109 3.88231,-0.06916 4.74734,0.51311c0.48466,0.30032 1.00602,0.39209 1.54574,0.37958c1.32469,-0.19684 3.76553,-0.62724 5.70336,-1.25367c4.88753,-1.50478 6.09546,-2.25969 8.45623,-3.4567c2.36077,-1.19701 7.83643,-4.21082 11.1072,-0.19498c2.84118,3.4027 0.41364,6.20051 -1.57925,7.13978z" fill="#ffab19" fill-rule="evenodd" stroke="#001026" stroke-width="1.2" stroke-linecap="round" stroke-linejoin="round"/><path d="M246.04919,196.36874c-0.18493,0.76752 -5.2785,11.60307 -1.86027,12.51648c4.02851,1.1342 11.05056,1.92462 9.20535,7.71725c-1.84522,5.79265 -12.83138,2.35709 -16.43036,0.32847c-7.98961,-5.12413 -4.18164,-14.62124 -2.9551,-16.86929c1.22657,-2.24803 3.2507,-6.11869 6.4304,-7.76791c3.48512,-1.67333 6.40998,1.37651 5.60996,4.07492z" fill="#ffab19" fill-rule="evenodd" stroke="#001026" stroke-width="1.2" stroke-linecap="round" stroke-linejoin="round"/><g fill-rule="evenodd"><path d="M244.18643,215.0374c1.41446,2.58786 4.59135,7.99005 4.59135,7.99005c0,0 14.26143,1.91405 12.10227,9.23997c-1.2895,4.3752 -8.39248,3.14821 -17.28789,-0.79133c-0.53694,-0.28879 -1.04388,-0.67933 -1.39638,-1.24219c-1.50895,-2.61904 -5.78231,-10.2809 -8.39228,-15.49603c-3.83544,-7.74066 -7.32577,-13.1346 -7.32577,-13.1346c-5.54241,-11.09489 2.02684,-12.50515 6.01744,-16.54741c3.59172,-3.39237 4.39117,-2.23547 9.70056,0.85591c3.06264,1.56864 4.86243,2.49734 6.97114,3.08141c3.14809,0.92697 1.14171,5.62387 -0.45838,7.88703c0,0 -2.4324,3.32829 -4.23051,4.85626c-2.20154,1.84145 -3.78522,2.9936 -5.18896,3.53526z" fill="#ffab19" stroke="#001026" stroke-width="1.2" stroke-linecap="round" stroke-linejoin="round"/><path d="M238.46862,204.88943c0,0 -1.05746,-1.68859 -2.11944,-3.71359c-1.34997,-2.45495 -2.78989,-4.60464 0.02951,-7.13539c2.4205,-1.88085 4.98641,-4.60688 8.36871,-0.25337c3.25329,4.08767 0.7083,6.0391 0.7083,6.0391c-3.4282,3.8929 -6.98708,5.06325 -6.98708,5.06325z" fill="#ffffff" stroke="none" stroke-width="1" stroke-linecap="butt" stroke-linejoin="miter"/></g><g fill-rule="evenodd"><path d="M262.76277,134.90163c0.33141,-0.142 0.80483,0.04741 0.83028,0.45895l0.6071,10.99461c0,0 5.43662,5.78733 6.7036,9.37825c2.14442,5.99095 1.42291,10.43386 1.42291,10.43386c0,0 6.59859,3.35838 6.74004,9.1816c0.14145,5.82322 -6.15251,15.64086 -25.31196,15.85385c-19.15945,0.21298 -33.0776,-7.55267 -37.98185,-20.0554c-4.90425,-12.50273 8.58603,-23.83465 7.85033,-23.15734l1.19627,-17.98302c-0.02545,-0.41152 0.52084,-0.61541 0.8777,-0.34589l10.45822,9.97224c0,0 4.73441,-0.85171 9.39219,-0.19209c2.78958,0.31347 5.11298,0.94737 7.30161,1.75971z" fill="#ffab19" stroke="#001026" stroke-width="1.2" stroke-linecap="butt" stroke-linejoin="miter"/><path d="M271.95883,166.50593c0,0 6.45659,3.02696 6.59805,8.85018c0.14145,5.82322 -6.45473,15.07635 -25.3993,15.22744c-24.70592,0.50743 -33.38998,-15.74671 -24.87093,-24.94867c8.53725,-9.30027 18.1869,1.74255 26.55563,2.68296c7.1706,0.82011 9.10497,-5.22871 17.11656,-1.81192z" fill="#ffffff" stroke="none" stroke-width="1" stroke-linecap="butt" stroke-linejoin="miter"/><path d="M239.03663,171.288c0.07288,-0.39331 0.52084,-0.61541 0.89592,-0.44421c1.74066,1.03444 6.7588,3.59146 12.58551,5.07788c5.25497,1.27878 8.45607,1.56679 9.98562,1.54509c0.50986,-0.00723 0.81206,0.55728 0.52431,1.01247c-1.37685,2.49085 -6.47964,9.17303 -16.69459,6.67011c-8.76551,-2.64115 -8.48446,-9.09801 -7.29677,-13.86135z" fill="#ffffff" stroke="#001026" stroke-width="1.2" stroke-linecap="round" stroke-linejoin="round"/><path d="M289.85048,170.93975c-5.31365,2.88013 -12.41137,1.66672 -12.41137,1.66672" fill="none" stroke="#001026" stroke-width="1.2" stroke-linecap="round" stroke-linejoin="round"/><path d="M286.53175,181.71547c-6.28565,-0.65614 -9.77423,-3.23487 -9.77423,-3.23487" fill="none" stroke="#001026" stroke-width="1.2" stroke-linecap="round" stroke-linejoin="round"/><path d="M254.92264,165.68852c2.06486,0.38259 4.1916,0.98005 4.1624,1.68656c-0.15674,1.39479 -2.14175,3.87465 -3.73318,3.68148c-1.80631,-0.13128 -5.48056,-3.35462 -5.18906,-4.92784c0.1203,-1.19813 2.79333,-0.80456 4.75985,-0.44019z" fill="#001026" stroke="#001026" stroke-width="1.2" stroke-linecap="round" stroke-linejoin="round"/><path d="M210.94903,156.01524c0,0 7.94596,4.31994 10.8226,8.00571" fill="none" stroke="#001026" stroke-width="1.2" stroke-linecap="round" stroke-linejoin="round"/><path d="M221.42895,167.51704c-4.53776,0.88815 -11.61349,-1.54162 -11.61349,-1.54162" fill="none" stroke="#001026" stroke-width="1.2" stroke-linecap="round" stroke-linejoin="round"/><g><path d="M268.65673,156.33412c2.03162,4.95302 1.20082,9.98589 -1.88027,11.24565c-3.08108,1.25976 -7.22151,-1.64316 -9.35145,-6.61441c-2.03163,-4.95302 -1.20081,-9.98589 1.88027,-11.24565c3.09929,-1.35809 7.31983,1.66138 9.35145,6.61441z" fill="#ffffff" stroke="#001026" stroke-width="1.2" stroke-linecap="round" stroke-linejoin="round"/><path d="M267.22497,161.86583c-0.20041,1.08159 -1.15099,1.82078 -2.13424,1.63859c-0.98326,-0.18218 -1.60592,-1.21287 -1.40551,-2.29446c0.20041,-1.08159 1.15099,-1.82078 2.13425,-1.63859c0.98326,0.18218 1.6059,1.21288 1.4055,2.29447" fill="#001026" stroke="none" stroke-width="1" stroke-linecap="butt" stroke-linejoin="miter"/></g><g><path d="M243.76166,154.56904c2.14817,4.87292 0.96771,10.1461 -2.03325,11.5224c-3.59092,1.26699 -7.66222,-0.9112 -9.8104,-5.78412c-2.24649,-4.89114 -1.4047,-10.53217 2.04423,-12.13058c3.46715,-1.69673 7.65124,1.51938 9.79942,6.3923z" fill="#ffffff" stroke="#001026" stroke-width="1.2" stroke-linecap="round" stroke-linejoin="round"/><path d="M242.11502,160.16266c-0.20041,1.08159 -1.15099,1.82078 -2.13424,1.63859c-0.98327,-0.18218 -1.60591,-1.21287 -1.4055,-2.29446c0.20041,-1.08159 1.15099,-1.82078 2.13424,-1.63859c0.96505,0.28051 1.6059,1.21288 1.4055,2.29447" fill="#001026" stroke="none" stroke-width="1" stroke-linecap="butt" stroke-linejoin="miter"/></g></g><path d="M251.46327,189.13946l32.84093,-36.14778" fill="none" fill-rule="nonzero" stroke="url(#color-4)" stroke-width="2" stroke-linecap="round" stroke-linejoin="miter"/><path d="M248.28875,192.13745c1.81543,-4.04078 3.67303,-9.7037 9.72022,-7.69558c7.51904,3.23302 -0.83776,14.88047 -4.2155,18.28395c-2.9827,3.02796 -6.92164,1.98719 -10.26343,1.1119c-6.2764,-1.86744 -11.76557,-3.28688 -12.58011,-8.10775c-1.10414,-5.97333 5.76031,-5.398 9.40669,-4.31063c2.21076,0.63833 4.53612,1.20636 6.03512,1.74949c0.76304,-0.0693 1.51404,-0.39722 1.89701,-1.03138z" fill="#ffab19" fill-rule="evenodd" stroke="#001026" stroke-width="1.2" stroke-linecap="round" stroke-linejoin="round"/><path d="M256.40654,188.19398l34.42529,-27.27757" fill="none" fill-rule="nonzero" stroke="url(#color-5)" stroke-width="2" stroke-linecap="round" stroke-linejoin="miter"/><path d="M260.63866,189.68898l35.87227,-18.04704" fill="none" fill-rule="nonzero" stroke="url(#color-6)" stroke-width="2" stroke-linecap="round" stroke-linejoin="miter"/><path d="M303.50732,228.59518c0,-0.69036 0.55964,-1.25 1.25,-1.25c0.69036,0 1.25,0.55964 1.25,1.25c0,0.69036 -0.55964,1.25 -1.25,1.25c-0.69036,0 -1.25,-0.55964 -1.25,-1.25z" fill="#0048ff" fill-rule="nonzero" stroke="none" stroke-width="0.5" stroke-linecap="butt" stroke-linejoin="miter"/><path d="M302.96752,240.1464c0,0.89784 -0.64489,1.15079 -1.00826,1.22205c-0.19126,0.19126 -0.38252,0.38252 -0.57377,0.57377c0,0 -0.88388,0.88388 -1.76777,0c-0.88388,-0.88388 0,-1.76777 0,-1.76777c0.30398,-0.30398 0.60796,-0.60796 0.91194,-0.91194l1.18786,-0.36612c0,0 1.25,0 1.25,1.25z" fill="#0048ff" fill-rule="nonzero" stroke="none" stroke-width="0.5" stroke-linecap="butt" stroke-linejoin="miter"/><path d="M289.11063,165.31208c-1.1606,0.46424 -1.62483,-0.69636 -1.62483,-0.69636l-0.60796,-1.5199c0,0 -0.46424,-1.1606 0.69636,-1.62483c1.1606,-0.46424 1.62483,0.69636 1.62483,0.69636l0.60796,1.5199c0,0 0.46424,1.1606 -0.69636,1.62483z" fill="#0048ff" fill-rule="nonzero" stroke="none" stroke-width="0.5" stroke-linecap="butt" stroke-linejoin="miter"/><path d="M303.81732,158.34781c-0.88388,0.88388 -1.76777,0 -1.76777,0l-0.63277,-0.88469c-0.28373,-1.14105 -0.46556,-2.30632 -0.63272,-3.47017c0,0 -0.17678,-1.23744 1.06066,-1.41421c1.23744,-0.17678 1.41421,1.06066 1.41421,1.06066c0.15328,1.07911 0.31738,2.16036 0.5832,3.21738l-0.02481,-0.27673c0,0 0.88388,0.88388 0,1.76777z" fill="#0048ff" fill-rule="nonzero" stroke="none" stroke-width="0.5" stroke-linecap="butt" stroke-linejoin="miter"/></g></g></svg>