<svg version="1.1" xmlns="http://www.w3.org/2000/svg" xmlns:xlink="http://www.w3.org/1999/xlink" width="99.67276" height="114.66136" viewBox="0,0,99.67276,114.66136"><g transform="translate(-192.22887,-132.45914)"><g data-paper-data="{&quot;isPaintingLayer&quot;:true}" stroke-miterlimit="10" stroke-dasharray="" stroke-dashoffset="0" style="mix-blend-mode: normal"><g fill-rule="evenodd"><path d="M222.27434,201.13431c0.6639,0.54802 2.06133,1.75663 -1.16046,4.1654c-3.22179,2.40877 -10.0577,1.33844 -10.82856,1.14284c-3.01385,-0.66985 -6.67547,-1.59896 -10.34815,-3.85934c-10.6861,-6.50714 -7.27943,-18.07337 -2.9599,-18.97002c4.22317,-0.9211 3.69527,6.63107 7.6847,12.29299c1.72431,2.52512 4.30478,3.93902 6.48367,4.96635c3.11574,1.35994 10.39518,-0.3988 11.1287,0.26179z" fill="#ffab19" stroke="#001026" stroke-width="1.2" stroke-linecap="round" stroke-linejoin="round"/><path d="M200.54344,187.93413c0.81974,2.77004 2.79071,6.876 2.79071,6.876c0,0 -3.3246,-1.69761 -5.80272,-0.71327c-1.98572,0.72971 -2.18858,2.76583 -2.18305,3.43147c-0.90503,-1.46322 -1.96544,-3.44032 -1.9931,-6.7685c-0.02766,-3.32818 2.05903,-6.7841 4.14664,-6.82373c2.03413,0.13658 2.11481,1.58041 3.04151,3.99803z" fill="#ffffff" stroke="none" stroke-width="1" stroke-linecap="butt" stroke-linejoin="miter"/></g><path d="M233.58302,207.27799c-1.61028,1.2861 -7.13504,5.96911 -14.42862,8.98779l-0.37147,0.12761c-0.37147,0.12761 -0.52042,0.61852 -0.29789,0.98182c1.80972,2.13888 5.14441,6.44116 0.06329,8.50433c-4.8913,2.04681 -15.44033,-10.52624 -11.75657,-14.38135c1.68886,-1.4841 3.35957,-0.95871 4.24648,-0.65265c0.49091,0.14894 0.96547,0.10806 1.43185,-0.02772c1.10623,-0.47776 3.12887,-1.41692 4.66878,-2.41012c3.9013,-2.43961 4.77683,-3.37558 6.55243,-4.96276c1.77559,-1.58719 5.83899,-5.47501 9.61234,-2.74036c3.25791,2.30098 1.79479,5.29547 0.27942,6.5734z" fill="#ffab19" fill-rule="evenodd" stroke="#001026" stroke-width="1.2" stroke-linecap="round" stroke-linejoin="round"/><path d="M243.45496,190.23168c0.39146,0.43623 5.02263,8.07181 6.80064,6.42624c2.12987,-1.91484 5.13407,-5.75687 7.92644,-2.19716c2.79237,3.55971 -3.2204,8.63608 -5.72926,9.91525c-5.94009,2.57588 -10.23594,-3.72597 -11.13552,-5.41114c-0.89959,-1.68517 -2.48012,-4.53451 -2.31791,-7.12724c0.25798,-2.78471 3.13335,-3.22876 4.45561,-1.60595z" fill="#ffab19" fill-rule="evenodd" stroke="#001026" stroke-width="1.2" stroke-linecap="round" stroke-linejoin="round"/><g fill-rule="evenodd"><path d="M244.90142,213.91078c2.13239,2.05157 6.8247,6.28431 6.8247,6.28431c0,0 18.26398,-1.8615 17.67648,5.31839c-0.35087,4.28798 -10.75878,5.18407 -21.25106,3.56196c-0.64539,-0.14454 -1.28262,-0.38881 -1.7946,-0.82504c-2.24132,-2.05904 -8.64662,-8.11402 -12.6854,-12.30194c-0.75721,-0.79171 -1.49942,-1.54994 -2.21822,-2.2704c-4.93258,-4.94398 -8.76232,-8.10957 -8.76232,-8.10957c-8.58136,-8.91179 -0.77993,-11.88655 2.55271,-16.47144c3.05768,-3.90179 4.19057,-3.02185 10.62816,-1.37698c3.66265,0.75259 5.81666,1.20116 8.22118,1.26579c3.60268,0.1468 2.55747,4.88857 1.37315,7.31435c0,0 -1.82686,3.58508 -3.39792,5.38265c-1.93048,2.17405 -3.35997,3.58021 -4.74051,4.38805z" fill="#ffab19" stroke="#001026" stroke-width="1.2" stroke-linecap="round" stroke-linejoin="round"/><path d="M236.35556,205.90395c0,0 -1.53595,-1.3087 -3.15636,-2.92404c-2.03162,-1.94438 -4.08772,-3.58959 -1.65626,-6.53152c2.15649,-2.25883 4.26933,-5.32289 8.93432,-2.09483c4.46346,3.01368 2.1899,5.36476 2.1899,5.36476c-2.76355,4.32308 -6.31157,6.18563 -6.31157,6.18563z" fill="#ffffff" stroke="none" stroke-width="1" stroke-linecap="butt" stroke-linejoin="miter"/></g><path d="M252.91351,222.08449c8.63748,1.21693 20.13774,1.54904 21.96494,14.84332c0.98961,16.96983 -26.65859,7.21428 -35.56175,2.49194c-7.90113,-4.15653 -9.55675,-12.65637 -10.97488,-19.86289c-2.27407,-13.66864 -4.63527,-25.49526 3.04506,-30.00445c9.43287,-5.77685 14.47554,8.29599 15.79247,16.23852c0.83485,4.80295 1.89315,9.7931 2.26703,13.1156c0.79265,1.48472 2.0252,2.7908 3.46712,3.17795z" fill="#ffab19" fill-rule="evenodd" stroke="#001026" stroke-width="1.2" stroke-linecap="round" stroke-linejoin="round"/><g fill-rule="evenodd"><path d="M267.00807,140.92943c0.34119,-0.11661 0.79896,0.10796 0.79332,0.52024l-0.22356,11.00908c0,0 4.98482,6.18075 5.97745,9.85698c1.68664,6.13557 0.63222,10.51144 0.63222,10.51144c0,0 6.3266,3.84631 6.02862,9.66363c-0.29799,5.81732 -7.31423,15.13249 -26.43521,13.90035c-19.12099,-1.23213 -32.41402,-10.02503 -36.36168,-22.86192c-3.94766,-12.8369 10.35858,-23.11947 9.5739,-22.49957l2.54868,-17.84164c0.00565,-0.41228 0.56575,-0.57439 0.90128,-0.27872l9.67661,10.73234c0,0 4.78515,-0.49234 9.37993,0.51657c2.758,0.52289 5.027,1.33016 7.14815,2.30519z" fill="#ffab19" stroke="#001026" stroke-width="1.2" stroke-linecap="butt" stroke-linejoin="miter"/><path d="M273.79518,173.13714c0,0 6.21,3.50512 5.91201,9.32244c-0.29799,5.81732 -7.57302,14.54681 -26.47507,13.26916c-24.67386,-1.35671 -32.10773,-18.2193 -22.91918,-26.75278c9.21415,-8.63015 18.00376,3.10878 26.27778,4.67746c7.08836,1.35839 9.47328,-4.52737 17.20446,-0.51628z" fill="#ffffff" stroke="none" stroke-width="1" stroke-linecap="butt" stroke-linejoin="miter"/><path d="M240.60614,175.42346c0.10232,-0.38669 0.56575,-0.57439 0.92687,-0.37539c1.65772,1.16272 6.46878,4.09082 12.16685,6.01231c5.1436,1.67134 8.31388,2.19988 9.8407,2.29356c0.50894,0.03123 0.76774,0.61692 0.44648,1.04913c-1.56072,2.37995 -7.15279,8.65838 -17.14997,5.39246c-8.54144,-3.29451 -7.77437,-9.7118 -6.23094,-14.37204z" fill="#ffffff" stroke="#001026" stroke-width="1.2" stroke-linecap="round" stroke-linejoin="round"/><path d="M291.30163,178.90724c-5.51567,2.47132 -12.5017,0.72623 -12.5017,0.72623" fill="none" stroke="#001026" stroke-width="1.2" stroke-linecap="round" stroke-linejoin="round"/><path d="M287.17992,189.40209c-6.2183,-1.12817 -9.50253,-3.96257 -9.50253,-3.96257" fill="none" stroke="#001026" stroke-width="1.2" stroke-linecap="round" stroke-linejoin="round"/><path d="M256.86911,171.0376c2.03013,0.53718 4.10578,1.29328 4.02339,1.99557c-0.26146,1.379 -2.42778,3.70215 -4.00013,3.38955c-1.79127,-0.26709 -5.21204,-3.75828 -4.80275,-5.30504c0.21029,-1.18566 2.84605,-0.59167 4.7795,-0.08008z" fill="#001026" stroke="#001026" stroke-width="1.2" stroke-linecap="round" stroke-linejoin="round"/><path d="M213.74997,158.07653c0,0 7.59764,4.90673 10.18821,8.79889" fill="none" stroke="#001026" stroke-width="1.2" stroke-linecap="round" stroke-linejoin="round"/><path d="M223.33289,170.33569c-4.5918,0.5435 -11.46422,-2.41282 -11.46422,-2.41282" fill="none" stroke="#001026" stroke-width="1.2" stroke-linecap="round" stroke-linejoin="round"/><g><path d="M271.26937,162.7453c1.65242,5.0921 0.44451,10.048 -2.72277,11.07188c-3.16728,1.02387 -7.07706,-2.18294 -8.82615,-7.30062c-1.65242,-5.0921 -0.44451,-10.048 2.72277,-11.07188c3.19286,-1.12055 7.17373,2.20852 8.82615,7.30062z" fill="#ffffff" stroke="#001026" stroke-width="1.2" stroke-linecap="round" stroke-linejoin="round"/><path d="M269.42463,168.15333c-0.28138,1.0634 -1.28498,1.72882 -2.25171,1.47302c-0.96672,-0.2558 -1.50989,-1.33049 -1.22852,-2.39389c0.28138,-1.0634 1.28498,-1.72882 2.25171,-1.47302c0.96672,0.2558 1.50989,1.33049 1.22852,2.39389" fill="#001026" stroke="none" stroke-width="1" stroke-linecap="butt" stroke-linejoin="miter"/></g><g><path d="M246.57823,159.10832c1.77467,5.02101 0.20001,10.19019 -2.89618,11.33631c-3.67622,0.99265 -7.57172,-1.48629 -9.34639,-6.50731c-1.87135,-5.04659 -0.60664,-10.60811 2.95299,-11.94194c3.5852,-1.43049 7.51492,2.09191 9.28958,7.11292z" fill="#ffffff" stroke="#001026" stroke-width="1.2" stroke-linecap="round" stroke-linejoin="round"/><path d="M244.51456,164.56187c-0.28138,1.0634 -1.28498,1.72882 -2.25171,1.47302c-0.96672,-0.2558 -1.50989,-1.33049 -1.22852,-2.39389c0.28138,-1.0634 1.28498,-1.72882 2.25171,-1.47302c0.94115,0.35248 1.50989,1.33049 1.22852,2.39389" fill="#001026" stroke="none" stroke-width="1" stroke-linecap="butt" stroke-linejoin="miter"/></g></g><path d="M262.83934,226.59352l0.90098,0.0894c1.38009,0.58539 2.76574,1.42814 3.633,2.65092c0,0 0.69338,1.04006 -0.34669,1.73344c-1.04006,0.69338 -1.73344,-0.34669 -1.73344,-0.34669c-0.51821,-0.86194 -1.53733,-1.36961 -2.48135,-1.71648l0.0275,0.0894c0,0 -0.19061,0 -0.42296,-0.07443c-0.3263,0.10487 -0.6273,0.06187 -0.6273,0.06187c-1.41721,-0.20246 -2.83726,-0.3795 -4.25944,-0.53779c0.00564,0.05508 0.0086,0.11297 0.0086,0.17383c0,1.25 -1.25,1.25 -1.25,1.25c-3.66464,0 -7.32928,0 -10.99392,0h-1.23479c0,0 -1.25,0 -1.25,-1.25c0,-1.25 1.25,-1.25 1.25,-1.25c0.30111,0 0.61056,0 0.92698,0c-3.85395,-0.28474 -7.70768,-0.575 -11.54677,-1.00156l-0.2987,0.00765c0,0 -1.25,0 -1.25,-1.25c0,-1.25 1.25,-1.25 1.25,-1.25l0.57478,0.00765c9.45882,1.05098 19.00475,1.27935 28.42682,2.62536c0,0 0.10711,0.0153 0.25379,0.06841c0.24129,-0.08097 0.44291,-0.08097 0.44291,-0.08097z" fill="#b3b3b3" fill-rule="nonzero" stroke="none" stroke-width="0.5" stroke-linecap="butt" stroke-linejoin="miter"/><path d="M247.55345,220.9159l1.39801,0.00309c2.80072,0.39243 5.63832,0.88133 8.48591,1.2967c0.78155,0.00687 1.56314,0.01043 2.34479,0.01043c0,0 0.61463,0 0.98191,0.43099c2.29815,0.26792 4.59598,0.4451 6.8794,0.44249c0,0 1.25,0 1.25,1.25c0,1.25 -1.25,1.25 -1.25,1.25c-3.42872,-0.00361 -6.8855,-0.39016 -10.32774,-0.88493c-11.36099,-0.10417 -22.71163,-0.9009 -34.05597,-1.63721l-1.55492,-0.10092c0,0 -1.24738,-0.08096 -1.16641,-1.32834c0.08096,-1.24738 1.32834,-1.16641 1.32834,-1.16641l1.55492,0.10092c7.62994,0.49523 15.26258,1.01871 22.89933,1.33831c0.15154,-1.00512 1.23243,-1.00512 1.23243,-1.00512z" fill="#b3b3b3" fill-rule="nonzero" stroke="none" stroke-width="0.5" stroke-linecap="butt" stroke-linejoin="miter"/><path d="M223.60264,213.71281c0.15504,-1.24035 1.39539,-1.0853 1.39539,-1.0853l0.10473,0.01309c8.43801,1.05475 16.98494,2.60178 25.50787,2.59769c0,0 1.25,0 1.25,1.25c0,1.25 -1.25,1.25 -1.25,1.25c-8.63019,-0.00389 -17.2733,-1.54892 -25.81796,-2.617l-0.10473,-0.01309c0,0 -1.24035,-0.15504 -1.0853,-1.39539z" fill="#b3b3b3" fill-rule="nonzero" stroke="none" stroke-width="0.5" stroke-linecap="butt" stroke-linejoin="miter"/><path d="M269.39044,236.20179c0.69036,0 1.25,0.55964 1.25,1.25c0,0.69036 -0.55964,1.25 -1.25,1.25c-0.24138,0 -0.46678,-0.06842 -0.65787,-0.18692c-0.05669,0.03664 -0.09333,0.05496 -0.09333,0.05496c-2.49981,1.24991 -3.42695,1.8409 -6.23663,1.87892h-1.31022c0,0 -1.25,0 -1.25,-1.25c0,-0.31502 0.07939,-0.55065 0.19816,-0.7269c-0.08132,-0.00819 -0.16459,-0.01654 -0.24991,-0.02502l-1.8798,-0.18798c0,0 -1.2438,-0.12438 -1.11942,-1.36818c0.04627,-0.46272 0.24748,-0.73609 0.48193,-0.89694c-1.6431,-0.04705 -3.28679,-0.11648 -4.93702,-0.21619l-2.23781,-0.1352c0,0 -1.24772,-0.07538 -1.17234,-1.32311c0.02512,-0.41577 0.18041,-0.68463 0.37634,-0.85831h-1.31231c0,0 -1.25,0 -1.25,-1.25c0,-1.25 1.25,-1.25 1.25,-1.25c4.16667,0 10.24574,0 14.41241,0c0,0 1.25,0 1.25,1.25c0,1.25 -1.25,1.25 -1.25,1.25c-2.04215,0 -4.08431,0 -6.12646,0c2.62109,0.09137 5.23707,0.12044 7.87342,0.12044c0,0 1.25,0 1.25,1.25c0,1.25 -1.25,1.25 -1.25,1.25c-0.41215,0 -0.82382,-0.00071 -1.23511,-0.00225c0.14616,0.04363 0.27661,0.10558 0.38911,0.1928c0.2261,-0.07011 0.40926,-0.07011 0.40926,-0.07011h1.31022c0.53912,0 0.99853,0.3413 1.17394,0.81963c0.37715,-0.19779 0.80299,-0.42705 1.32422,-0.68766c0,0 0.67645,-0.33823 1.2401,0.03767c0.18479,-0.10784 0.39975,-0.16963 0.62914,-0.16963z" fill="#b3b3b3" fill-rule="nonzero" stroke="none" stroke-width="0.5" stroke-linecap="butt" stroke-linejoin="miter"/><path d="M266.52545,244.12517c-0.55902,-1.11803 0.55902,-1.67705 0.55902,-1.67705l1.74696,-0.87348c0,0 1.11803,-0.55902 1.67705,0.55902c0.55902,1.11803 -0.55902,1.67705 -0.55902,1.67705l-1.74696,0.87348c0,0 -1.11803,0.55902 -1.67705,-0.55902z" fill="#b3b3b3" fill-rule="nonzero" stroke="none" stroke-width="0.5" stroke-linecap="butt" stroke-linejoin="miter"/><path d="M270.76088,245.31311c0,-0.69036 0.55964,-1.25 1.25,-1.25c0.69036,0 1.25,0.55964 1.25,1.25c0,0.69036 -0.55964,1.25 -1.25,1.25c-0.69036,0 -1.25,-0.55964 -1.25,-1.25z" fill="#b3b3b3" fill-rule="nonzero" stroke="none" stroke-width="0.5" stroke-linecap="butt" stroke-linejoin="miter"/></g></g></svg>