<svg version="1.1" xmlns="http://www.w3.org/2000/svg" xmlns:xlink="http://www.w3.org/1999/xlink" width="106.06" height="81.82" viewBox="0,0,106.06,81.82"><g transform="translate(-189.52,-142.1)"><g data-paper-data="{&quot;isPaintingLayer&quot;:true}" stroke-miterlimit="10" stroke-dasharray="" stroke-dashoffset="0" style="mix-blend-mode: normal"><g fill-rule="nonzero" stroke-width="2" stroke-linecap="butt" stroke-linejoin="miter"><path d="M283.08,160.38h-0.86v-16.24h-84.46v16.24h-0.86v-17.28h86.18z" fill="#1c9b47" stroke="#1c9b47"/><path d="M282.22,144.14v16.24h-2v-14.3h-80.44v14.3h-2.02v-16.24z" fill="#007c2c" stroke="#007c2c"/></g><g><path d="M289.54,161.84c0.3698,0.542 0.5651,1.1839 0.56,1.84l0.0001,11.6h-100.2002l0.0001,-11.6c-0.0051,-0.6561 0.1902,-1.298 0.56,-1.84z" fill="#ffdb48" fill-rule="nonzero" stroke="none" stroke-width="1" stroke-linecap="butt" stroke-linejoin="miter"/><path d="M289.54,161.84h-99.08c0.6179,-0.9074 1.6422,-1.4532 2.74,-1.46h93.6c1.0978,0.0068 2.1221,0.5526 2.74,1.46z" fill="#ffed9f" fill-rule="nonzero" stroke="none" stroke-width="1" stroke-linecap="butt" stroke-linejoin="miter"/><path d="M289.84,216.42h-99.58c-0.1686,-0.4059 -0.2569,-0.8405 -0.26,-1.28v-39.86h100.1v39.86c-0.0031,0.4395 -0.0914,0.8741 -0.26,1.28z" fill="#d2a6cc" fill-rule="nonzero" stroke="none" stroke-width="1" stroke-linecap="butt" stroke-linejoin="miter"/><path d="M289.84,216.42c-0.5252,1.2121 -1.719,1.9975 -3.04,2h-93.6c-1.321,-0.0025 -2.5148,-0.7879 -3.04,-2z" fill="#9f509e" fill-rule="nonzero" stroke="none" stroke-width="1" stroke-linecap="butt" stroke-linejoin="miter"/><path d="M193.98,188.64l0.6,1.54" fill="none" fill-rule="evenodd" stroke="#ca90c7" stroke-width="0.5" stroke-linecap="round" stroke-linejoin="round"/><path d="M225.6,189.96l-1.44,1.26" fill="none" fill-rule="evenodd" stroke="#ca90c7" stroke-width="0.5" stroke-linecap="round" stroke-linejoin="round"/><path d="M217.5,185.36l-0.96,-1" fill="none" fill-rule="evenodd" stroke="#ca90c7" stroke-width="0.5" stroke-linecap="round" stroke-linejoin="round"/><path d="M219.12,213.82l-1.78,0.86" fill="none" fill-rule="evenodd" stroke="#ca90c7" stroke-width="0.5" stroke-linecap="round" stroke-linejoin="round"/><path d="M196.42,212.94l-0.3,1.3" fill="none" fill-rule="evenodd" stroke="#ca90c7" stroke-width="0.5" stroke-linecap="round" stroke-linejoin="round"/><path d="M192.38,201.04v1.76" fill="none" fill-rule="evenodd" stroke="#ca90c7" stroke-width="0.5" stroke-linecap="round" stroke-linejoin="round"/><path d="M224.04,208.82l0.66,-1.74" fill="none" fill-rule="evenodd" stroke="#ca90c7" stroke-width="0.5" stroke-linecap="round" stroke-linejoin="round"/><path d="M259.42,186.36l-0.8,1.4" fill="none" fill-rule="evenodd" stroke="#ca90c7" stroke-width="0.5" stroke-linecap="round" stroke-linejoin="round"/><path d="M282.86,185.92l0.62,1.4" fill="none" fill-rule="evenodd" stroke="#ca90c7" stroke-width="0.5" stroke-linecap="round" stroke-linejoin="round"/><path d="M287,208.38l-1.28,0.9" fill="none" fill-rule="evenodd" stroke="#ca90c7" stroke-width="0.5" stroke-linecap="round" stroke-linejoin="round"/><path d="M280.02,214.58h1.58" fill="none" fill-rule="evenodd" stroke="#ca90c7" stroke-width="0.5" stroke-linecap="round" stroke-linejoin="round"/><path d="M262.2,214.4l-1.16,-1.34" fill="none" fill-rule="evenodd" stroke="#ca90c7" stroke-width="0.5" stroke-linecap="round" stroke-linejoin="round"/><path d="M255.72,207.04v-1.84" fill="none" fill-rule="evenodd" stroke="#ca90c7" stroke-width="0.5" stroke-linecap="round" stroke-linejoin="round"/><path d="M256.26,195.26l-1.08,-1.62" fill="none" fill-rule="evenodd" stroke="#ca90c7" stroke-width="0.5" stroke-linecap="round" stroke-linejoin="round"/><path d="M201.9,184.86h1.86" fill="none" fill-rule="evenodd" stroke="#ca90c7" stroke-width="0.5" stroke-linecap="round" stroke-linejoin="round"/></g><g><path d="M204.56,160.46v-2h5.86v2z" fill="#c9e2b3" fill-rule="nonzero" stroke="none" stroke-width="1" stroke-linecap="butt" stroke-linejoin="miter"/><path d="M204.56,158.54v-2h5.86v2z" fill="#ffffff" fill-rule="nonzero" stroke="none" stroke-width="1" stroke-linecap="butt" stroke-linejoin="miter"/><path d="M212.5,158.54v-2h5.86v2z" fill="#ffffff" fill-rule="nonzero" stroke="none" stroke-width="1" stroke-linecap="butt" stroke-linejoin="miter"/><path d="M212.5,160.46v-2h5.86v2z" fill="#c9e2b3" fill-rule="nonzero" stroke="none" stroke-width="1" stroke-linecap="butt" stroke-linejoin="miter"/><path d="M224.88,160.46v-2h5.86v2z" fill="#c9e2b3" fill-rule="nonzero" stroke="none" stroke-width="1" stroke-linecap="butt" stroke-linejoin="miter"/><path d="M224.88,158.54v-2h5.86v2z" fill="#ffffff" fill-rule="nonzero" stroke="none" stroke-width="1" stroke-linecap="butt" stroke-linejoin="miter"/><path d="M232.82,160.46v-2h5.86v2z" fill="#c9e2b3" fill-rule="nonzero" stroke="none" stroke-width="1" stroke-linecap="butt" stroke-linejoin="miter"/><path d="M232.82,158.54v-2h5.86v2z" fill="#ffffff" fill-rule="nonzero" stroke="none" stroke-width="1" stroke-linecap="butt" stroke-linejoin="miter"/><path d="M240.7,160.46v-2h5.86v2z" fill="#ffffff" fill-rule="nonzero" stroke="none" stroke-width="1" stroke-linecap="butt" stroke-linejoin="miter"/><path d="M248.64,160.46v-2h5.86v2z" fill="#c9e2b3" fill-rule="nonzero" stroke="none" stroke-width="1" stroke-linecap="butt" stroke-linejoin="miter"/><path d="M248.64,158.54v-2h5.86v2z" fill="#ffffff" fill-rule="nonzero" stroke="none" stroke-width="1" stroke-linecap="butt" stroke-linejoin="miter"/><path d="M261.62,158.54v-2h5.86v2z" fill="#ffffff" fill-rule="nonzero" stroke="none" stroke-width="1" stroke-linecap="butt" stroke-linejoin="miter"/><path d="M261.62,160.46v-2h5.86v2z" fill="#c9e2b3" fill-rule="nonzero" stroke="none" stroke-width="1" stroke-linecap="butt" stroke-linejoin="miter"/><path d="M269.54,158.54v-2h5.86v2z" fill="#ffffff" fill-rule="nonzero" stroke="none" stroke-width="1" stroke-linecap="butt" stroke-linejoin="miter"/><path d="M269.54,160.46v-2h5.86v2z" fill="#c9e2b3" fill-rule="nonzero" stroke="none" stroke-width="1" stroke-linecap="butt" stroke-linejoin="miter"/><path d="M204.56,156.54h5.86v1.92v1.92h-5.86v-1.92z" fill="none" fill-rule="evenodd" stroke="#149948" stroke-width="0.5" stroke-linecap="round" stroke-linejoin="round"/><path d="M212.48,156.54h5.88v1.92v1.92h-5.88v-1.92z" fill="none" fill-rule="evenodd" stroke="#149948" stroke-width="0.5" stroke-linecap="round" stroke-linejoin="round"/><path d="M224.88,156.54h5.86v1.92v1.92h-5.86v-1.92z" fill="none" fill-rule="evenodd" stroke="#149948" stroke-width="0.5" stroke-linecap="round" stroke-linejoin="round"/><path d="M232.82,156.54h5.86v1.92v1.92h-5.86v-1.92z" fill="none" fill-rule="evenodd" stroke="#149948" stroke-width="0.5" stroke-linecap="round" stroke-linejoin="round"/><path d="M240.7,160.46v-2h5.86v2z" fill="none" fill-rule="evenodd" stroke="#149948" stroke-width="0.5" stroke-linecap="round" stroke-linejoin="round"/><path d="M248.64,156.54h5.86v1.92v1.92h-5.86v-1.92z" fill="none" fill-rule="evenodd" stroke="#149948" stroke-width="0.5" stroke-linecap="round" stroke-linejoin="round"/><path d="M261.62,156.54h5.86v1.92v1.92h-5.86v-1.92z" fill="none" fill-rule="evenodd" stroke="#149948" stroke-width="0.5" stroke-linecap="round" stroke-linejoin="round"/><path d="M275.4,156.54v1.92v1.92h-5.86v-1.92v-1.92z" fill="none" fill-rule="evenodd" stroke="#149948" stroke-width="0.5" stroke-linecap="round" stroke-linejoin="round"/></g><g stroke-linecap="butt" stroke-linejoin="miter"><path d="M205.28,171.6v-7.46h68.84v7.46z" fill="#ffffff" fill-rule="nonzero" stroke="#5e154d" stroke-width="0.72"/><path d="M270.08,166.76h-41.06" fill="none" fill-rule="evenodd" stroke="#5e154d" stroke-width="0.5"/><path d="M270.08,169.02h-41.06" fill="none" fill-rule="evenodd" stroke="#5e154d" stroke-width="0.5"/><path d="M249.56,164.14v7.48" fill="none" fill-rule="evenodd" stroke="#5e154d" stroke-width="0.5"/><g fill-rule="nonzero" stroke-width="2"><path d="M209.66,169.02v-2.26h3.5v2.26z" fill="#007c2c" stroke="#007c2c"/><path d="M213.16,169.02v-2.26h3.38v2.26z" fill="#f05822" stroke="#f05822"/><path d="M216.54,169.02v-2.26h3.38v2.26z" fill="#007c2c" stroke="#007c2c"/><path d="M219.92,169.02v-2.26h3.5v2.26z" fill="#f05822" stroke="#f05822"/></g></g><g stroke="#f05822" stroke-linecap="round" stroke-linejoin="round"><path d="M192.7,167.88c0,-2.71724 2.20276,-4.92 4.92,-4.92c2.71724,0 4.92,2.20276 4.92,4.92c0,2.71724 -2.20276,4.92 -4.92,4.92c-2.71724,0 -4.92,-2.20276 -4.92,-4.92z" fill="#ffffff" fill-rule="nonzero" stroke-width="0.96"/><path d="M193.06,169.68l6.36,-6.34" fill="none" fill-rule="evenodd" stroke-width="0.5"/><path d="M194.34,170.96l6.34,-6.34" fill="none" fill-rule="evenodd" stroke-width="0.5"/><path d="M195.58,172.2l6.34,-6.36" fill="none" fill-rule="evenodd" stroke-width="0.5"/><path d="M202.16,169.92l-6.34,-6.34" fill="none" fill-rule="evenodd" stroke-width="0.5"/><path d="M194.54,164.86l6.34,6.34" fill="none" fill-rule="evenodd" stroke-width="0.5"/><path d="M199.66,172.44l-6.36,-6.36" fill="none" fill-rule="evenodd" stroke-width="0.5"/><path d="M193.98,167.88c0,-2.01032 1.62968,-3.64 3.64,-3.64c2.01032,0 3.64,1.62968 3.64,3.64c0,2.01032 -1.62968,3.64 -3.64,3.64c-2.01032,0 -3.64,-1.62968 -3.64,-3.64z" fill="none" fill-rule="evenodd" stroke-width="0.5"/></g><g stroke="#f05822" stroke-linecap="round" stroke-linejoin="round"><path d="M277.16,167.88c0,-2.71724 2.20276,-4.92 4.92,-4.92c2.71724,0 4.92,2.20276 4.92,4.92c0,2.71724 -2.20276,4.92 -4.92,4.92c-2.71724,0 -4.92,-2.20276 -4.92,-4.92z" fill="#ffffff" fill-rule="nonzero" stroke-width="0.96"/><path d="M278.44,167.88c0,-2.01032 1.62968,-3.64 3.64,-3.64c2.01032,0 3.64,1.62968 3.64,3.64c0,2.01032 -1.62968,3.64 -3.64,3.64c-2.01032,0 -3.64,-1.62968 -3.64,-3.64z" fill="none" fill-rule="evenodd" stroke-width="0.5"/><path d="M277.52,169.68l6.36,-6.34" fill="none" fill-rule="evenodd" stroke-width="0.5"/><path d="M285.14,164.62l-6.34,6.34" fill="none" fill-rule="evenodd" stroke-width="0.5"/><path d="M286.38,165.84l-6.34,6.36" fill="none" fill-rule="evenodd" stroke-width="0.5"/><path d="M286.62,169.92l-6.34,-6.34" fill="none" fill-rule="evenodd" stroke-width="0.5"/><path d="M285.36,171.2l-6.36,-6.34" fill="none" fill-rule="evenodd" stroke-width="0.5"/><path d="M277.76,166.08l6.36,6.36" fill="none" fill-rule="evenodd" stroke-width="0.5"/></g><g><path d="M194.58,199.8c0,-7.97499 6.46501,-14.44 14.44,-14.44c7.97499,0 14.44,6.46501 14.44,14.44c0,7.97499 -6.46501,14.44 -14.44,14.44c-7.97499,0 -14.44,-6.46501 -14.44,-14.44z" fill="#ca90c7" fill-rule="nonzero" stroke="none" stroke-width="1" stroke-linecap="butt" stroke-linejoin="miter"/><path d="M197.34,199.8c0,-6.45069 5.22931,-11.68 11.68,-11.68c6.45069,0 11.68,5.22931 11.68,11.68c0,6.45069 -5.22931,11.68 -11.68,11.68c-6.45069,0 -11.68,-5.22931 -11.68,-11.68z" fill="#eac5dd" fill-rule="nonzero" stroke="#eac5dd" stroke-width="0.5" stroke-linecap="round" stroke-linejoin="round"/><g fill="none" fill-rule="evenodd" stroke="#9f509e" stroke-width="0.72" stroke-linecap="round" stroke-linejoin="round"><path d="M193.64,203.38l19.06,-19.06"/><path d="M196,205.78l19.06,-19.06"/><path d="M198.36,208.18l19.08,-19.08"/><path d="M200.72,210.56l19.08,-19.06"/><path d="M203.08,212.96l19.08,-19.06"/><path d="M205.46,215.36l19.06,-19.08"/><path d="M212.62,215.28l-19.06,-19.08"/><path d="M215.02,212.92l-19.06,-19.08"/><path d="M217.42,210.56l-19.08,-19.08"/><path d="M219.8,208.18l-19.06,-19.06"/><path d="M203.14,186.76l19.06,19.06"/><path d="M224.6,203.46l-19.08,-19.06"/></g><path d="M197.34,199.8c0,-6.45069 5.22931,-11.68 11.68,-11.68c6.45069,0 11.68,5.22931 11.68,11.68c0,6.45069 -5.22931,11.68 -11.68,11.68c-6.45069,0 -11.68,-5.22931 -11.68,-11.68z" fill="none" fill-rule="evenodd" stroke="#5e154d" stroke-width="0.96" stroke-linecap="round" stroke-linejoin="round"/></g><g><g fill="none" fill-rule="evenodd" stroke="#9f509e" stroke-width="0.72" stroke-linecap="round" stroke-linejoin="round"><path d="M255.64,203.38l19.06,-19.06"/><path d="M258,205.78l19.06,-19.06"/><path d="M279.44,189.1l-19.08,19.08"/><path d="M262.72,210.56l19.08,-19.06"/><path d="M265.08,212.96l19.08,-19.06"/><path d="M267.46,215.36l19.06,-19.08"/><path d="M255.56,196.2l19.06,19.08"/><path d="M277.02,212.92l-19.06,-19.08"/><path d="M279.42,210.56l-19.08,-19.08"/><path d="M281.8,208.18l-19.06,-19.06"/><path d="M284.2,205.82l-19.06,-19.06"/><path d="M286.6,203.46l-19.08,-19.06"/></g><path d="M256.58,199.8c0,-7.97499 6.46501,-14.44 14.44,-14.44c7.97499,0 14.44,6.46501 14.44,14.44c0,7.97499 -6.46501,14.44 -14.44,14.44c-7.97499,0 -14.44,-6.46501 -14.44,-14.44z" fill="#ca90c7" fill-rule="nonzero" stroke="none" stroke-width="1" stroke-linecap="butt" stroke-linejoin="miter"/><path d="M259.34,199.8c0,-6.45069 5.22931,-11.68 11.68,-11.68c6.45069,0 11.68,5.22931 11.68,11.68c0,6.45069 -5.22931,11.68 -11.68,11.68c-6.45069,0 -11.68,-5.22931 -11.68,-11.68z" fill="#eac5dd" fill-rule="nonzero" stroke="#eac5dd" stroke-width="0.5" stroke-linecap="round" stroke-linejoin="round"/><g fill="none" fill-rule="evenodd" stroke="#9f509e" stroke-width="0.72" stroke-linecap="round" stroke-linejoin="round"><path d="M275.12,184.32l-19.08,19.06"/><path d="M258.4,205.78l19.08,-19.06"/><path d="M260.78,208.18l19.06,-19.08"/><path d="M263.14,210.56l19.06,-19.06"/><path d="M265.5,212.96l19.06,-19.06"/><path d="M267.86,215.36l19.06,-19.08"/><path d="M255.96,196.2l19.08,19.08"/><path d="M277.44,212.92l-19.08,-19.08"/><path d="M260.76,191.48l19.06,19.08"/><path d="M282.22,208.18l-19.08,-19.06"/><path d="M284.62,205.82l-19.08,-19.06"/><path d="M267.94,184.4l19.06,19.06"/></g><path d="M259.34,199.8c0,-6.45069 5.22931,-11.68 11.68,-11.68c6.45069,0 11.68,5.22931 11.68,11.68c0,6.45069 -5.22931,11.68 -11.68,11.68c-6.45069,0 -11.68,-5.22931 -11.68,-11.68z" fill="none" fill-rule="evenodd" stroke="#5e154d" stroke-width="0.96" stroke-linecap="round" stroke-linejoin="round"/></g><g stroke-linecap="butt" stroke-linejoin="miter"><path d="M194.56,182.36v-4.5h28.88v4.5z" fill="#eac5dd" fill-rule="nonzero" stroke="#eac5dd" stroke-width="0.5"/><path d="M257.14,182.36v-4.5h28.88v4.5z" fill="#eac5dd" fill-rule="nonzero" stroke="#ec2777" stroke-width="0.5"/><path d="M257.14,182.42v-4.5h28.88v4.5z" fill="none" fill-rule="evenodd" stroke="#9f509e" stroke-width="0.72"/><path d="M194.56,179.36h28.88" fill="none" fill-rule="evenodd" stroke="#9f509e" stroke-width="0.5"/><path d="M194.58,180.88h28.86" fill="none" fill-rule="evenodd" stroke="#9f509e" stroke-width="0.5"/><path d="M286.02,179.36h-28.88" fill="none" fill-rule="evenodd" stroke="#9f509e" stroke-width="0.5"/><path d="M286.02,180.88h-28.88" fill="none" fill-rule="evenodd" stroke="#9f509e" stroke-width="0.5"/><path d="M194.56,182.36v-4.5h28.88v4.5z" fill="none" fill-rule="evenodd" stroke="#9f509e" stroke-width="0.72"/></g><g><path d="M230.5,200.56v-10.6h20.3v10.6z" fill="#5e154d" fill-rule="nonzero" stroke="#5e154d" stroke-width="0.96" stroke-linecap="round" stroke-linejoin="round"/><path d="M228.06,187.58v-9.66h25.3v9.66z" fill="#ffdb48" fill-rule="nonzero" stroke="none" stroke-width="1" stroke-linecap="butt" stroke-linejoin="miter"/><path d="M228.06,214.58v-11.06h25.3v11.06z" fill="#007c2c" fill-rule="nonzero" stroke="none" stroke-width="1" stroke-linecap="butt" stroke-linejoin="miter"/><path d="M228.06,203.54v-15.96h25.3v15.96z" fill="none" fill-rule="evenodd" stroke="none" stroke-width="1" stroke-linecap="butt" stroke-linejoin="miter"/><path d="M255.18,218.44h-29.06l1.94,-3.84h25.3z" fill="#5e154d" fill-rule="nonzero" stroke="#5e154d" stroke-width="0.72" stroke-linecap="round" stroke-linejoin="round"/><path d="M228.06,187.58v-9.66h25.3v9.66z" fill="#f05822" fill-rule="nonzero" stroke="none" stroke-width="1" stroke-linecap="butt" stroke-linejoin="miter"/><path d="M253.36,177.92v9.66v15.96v11.06h-25.3v-11.06v-15.96v-9.66z" fill="none" fill-rule="evenodd" stroke="#5e154d" stroke-width="0.72" stroke-linecap="round" stroke-linejoin="round"/><path d="M230.5,185.18v-4.5h20.3v4.5z" fill="#ffdb48" fill-rule="nonzero" stroke="#5e154d" stroke-width="0.72" stroke-linecap="round" stroke-linejoin="round"/><path d="M232.84,182v1.86" fill="none" fill-rule="evenodd" stroke="#5e154d" stroke-width="0.5" stroke-linecap="round" stroke-linejoin="round"/><path d="M238.08,182v1.86" fill="none" fill-rule="evenodd" stroke="#5e154d" stroke-width="0.5" stroke-linecap="round" stroke-linejoin="round"/><path d="M243.32,182v1.86" fill="none" fill-rule="evenodd" stroke="#5e154d" stroke-width="0.5" stroke-linecap="round" stroke-linejoin="round"/><path d="M248.56,182v1.86" fill="none" fill-rule="evenodd" stroke="#5e154d" stroke-width="0.5" stroke-linecap="round" stroke-linejoin="round"/><path d="M250.8,182.92h-20.3" fill="none" fill-rule="evenodd" stroke="#5e154d" stroke-width="0.5" stroke-linecap="round" stroke-linejoin="round"/><g stroke="#5e154d" stroke-width="0.72" stroke-linecap="round" stroke-linejoin="round"><path d="M230.5,209v-3.02h20.3v3.02z" fill="#ffffff" fill-rule="nonzero"/><path d="M230.5,212.02v-3.02h20.3v3.02z" fill="#ffdb48" fill-rule="nonzero"/><path d="M235.66,205.96v3.04" fill="none" fill-rule="evenodd"/><path d="M245.62,209v-3.04" fill="none" fill-rule="evenodd"/><path d="M240.64,205.96v3.04" fill="none" fill-rule="evenodd"/></g><path d="M235.42,198.04c-1.5354,0 -2.78,-1.2446 -2.78,-2.78c0,-1.5354 1.2446,-2.78 2.78,-2.78c1.5354,0 2.78,1.2446 2.78,2.78c0,1.5354 -1.2446,2.78 -2.78,2.78zM240,195.26h1.28z" fill="none" fill-rule="evenodd" stroke="#ffffff" stroke-width="0.72" stroke-linecap="round" stroke-linejoin="round"/><path d="M243.1,195.26c0,-1.53535 1.24465,-2.78 2.78,-2.78c1.53535,0 2.78,1.24465 2.78,2.78c0,1.53535 -1.24465,2.78 -2.78,2.78c-1.53535,0 -2.78,-1.24465 -2.78,-2.78z" fill="none" fill-rule="evenodd" stroke="#ffffff" stroke-width="0.72" stroke-linecap="round" stroke-linejoin="round"/><path d="M233.42,195.26c0,-1.10457 0.89543,-2 2,-2c1.10457,0 2,0.89543 2,2c0,1.10457 -0.89543,2 -2,2c-1.10457,0 -2,-0.89543 -2,-2z" fill="#ffffff" fill-rule="nonzero" stroke="#ffffff" stroke-width="0.5" stroke-linecap="round" stroke-linejoin="round"/><path d="M243.88,195.26c0,-1.10457 0.89543,-2 2,-2c1.10457,0 2,0.89543 2,2c0,1.10457 -0.89543,2 -2,2c-1.10457,0 -2,-0.89543 -2,-2z" fill="#ffffff" fill-rule="nonzero" stroke="#ffffff" stroke-width="0.5" stroke-linecap="round" stroke-linejoin="round"/></g><g fill="none" fill-rule="evenodd" stroke="#ffffff" stroke-width="0.96" stroke-linecap="round" stroke-linejoin="round"><path d="M287.98,203.1v-2.36"/><path d="M287.98,198.76v-14.52"/></g><path d="M290.1,163.68v51.46c0,0.8752 -0.3477,1.7146 -0.9665,2.3335c-0.6189,0.6188 -1.4583,0.9665 -2.3335,0.9665h-93.5c-1.8225,0 -3.3,-1.4775 -3.3,-3.3v-51.46c-0.0008,-1.7842 1.4166,-3.2459 3.2,-3.3h93.6c1.8225,0 3.3,1.4775 3.3,3.3z" fill="none" fill-rule="evenodd" stroke="#5e154d" stroke-width="0.96" stroke-linecap="round" stroke-linejoin="round"/><g fill-rule="nonzero" stroke-width="2" stroke-linecap="butt" stroke-linejoin="miter"><path d="M288.08,165.38h-0.86v-16.24h-84.46v16.24h-0.86v-17.28h86.18z" fill="#1c9b47" stroke="#1c9b47"/><path d="M287.22,149.14v16.24h-2v-14.3h-80.44v14.3h-2.02v-16.24z" fill="#007c2c" stroke="#007c2c"/></g><g><path d="M294.54,166.84c0.3698,0.542 0.5651,1.1839 0.56,1.84l0.0001,11.6h-100.2002l0.0001,-11.6c-0.0051,-0.6561 0.1902,-1.298 0.56,-1.84z" fill="#ffdb48" fill-rule="nonzero" stroke="none" stroke-width="1" stroke-linecap="butt" stroke-linejoin="miter"/><path d="M294.54,166.84h-99.08c0.6179,-0.9074 1.6422,-1.4532 2.74,-1.46h93.6c1.0978,0.0068 2.1221,0.5526 2.74,1.46z" fill="#ffed9f" fill-rule="nonzero" stroke="none" stroke-width="1" stroke-linecap="butt" stroke-linejoin="miter"/><path d="M294.84,221.42h-99.58c-0.1686,-0.4059 -0.2569,-0.8405 -0.26,-1.28v-39.86h100.1v39.86c-0.0031,0.4395 -0.0914,0.8741 -0.26,1.28z" fill="#d2a6cc" fill-rule="nonzero" stroke="none" stroke-width="1" stroke-linecap="butt" stroke-linejoin="miter"/><path d="M294.84,221.42c-0.5252,1.2121 -1.719,1.9975 -3.04,2h-93.6c-1.321,-0.0025 -2.5148,-0.7879 -3.04,-2z" fill="#9f509e" fill-rule="nonzero" stroke="none" stroke-width="1" stroke-linecap="butt" stroke-linejoin="miter"/><path d="M198.98,193.64l0.6,1.54" fill="none" fill-rule="evenodd" stroke="#ca90c7" stroke-width="0.5" stroke-linecap="round" stroke-linejoin="round"/><path d="M230.6,194.96l-1.44,1.26" fill="none" fill-rule="evenodd" stroke="#ca90c7" stroke-width="0.5" stroke-linecap="round" stroke-linejoin="round"/><path d="M222.5,190.36l-0.96,-1" fill="none" fill-rule="evenodd" stroke="#ca90c7" stroke-width="0.5" stroke-linecap="round" stroke-linejoin="round"/><path d="M224.12,218.82l-1.78,0.86" fill="none" fill-rule="evenodd" stroke="#ca90c7" stroke-width="0.5" stroke-linecap="round" stroke-linejoin="round"/><path d="M201.42,217.94l-0.3,1.3" fill="none" fill-rule="evenodd" stroke="#ca90c7" stroke-width="0.5" stroke-linecap="round" stroke-linejoin="round"/><path d="M197.38,206.04v1.76" fill="none" fill-rule="evenodd" stroke="#ca90c7" stroke-width="0.5" stroke-linecap="round" stroke-linejoin="round"/><path d="M229.04,213.82l0.66,-1.74" fill="none" fill-rule="evenodd" stroke="#ca90c7" stroke-width="0.5" stroke-linecap="round" stroke-linejoin="round"/><path d="M264.42,191.36l-0.8,1.4" fill="none" fill-rule="evenodd" stroke="#ca90c7" stroke-width="0.5" stroke-linecap="round" stroke-linejoin="round"/><path d="M287.86,190.92l0.62,1.4" fill="none" fill-rule="evenodd" stroke="#ca90c7" stroke-width="0.5" stroke-linecap="round" stroke-linejoin="round"/><path d="M292,213.38l-1.28,0.9" fill="none" fill-rule="evenodd" stroke="#ca90c7" stroke-width="0.5" stroke-linecap="round" stroke-linejoin="round"/><path d="M285.02,219.58h1.58" fill="none" fill-rule="evenodd" stroke="#ca90c7" stroke-width="0.5" stroke-linecap="round" stroke-linejoin="round"/><path d="M267.2,219.4l-1.16,-1.34" fill="none" fill-rule="evenodd" stroke="#ca90c7" stroke-width="0.5" stroke-linecap="round" stroke-linejoin="round"/><path d="M260.72,212.04v-1.84" fill="none" fill-rule="evenodd" stroke="#ca90c7" stroke-width="0.5" stroke-linecap="round" stroke-linejoin="round"/><path d="M261.26,200.26l-1.08,-1.62" fill="none" fill-rule="evenodd" stroke="#ca90c7" stroke-width="0.5" stroke-linecap="round" stroke-linejoin="round"/><path d="M206.9,189.86h1.86" fill="none" fill-rule="evenodd" stroke="#ca90c7" stroke-width="0.5" stroke-linecap="round" stroke-linejoin="round"/></g><g><path d="M209.56,165.46v-2h5.86v2z" fill="#c9e2b3" fill-rule="nonzero" stroke="none" stroke-width="1" stroke-linecap="butt" stroke-linejoin="miter"/><path d="M209.56,163.54v-2h5.86v2z" fill="#ffffff" fill-rule="nonzero" stroke="none" stroke-width="1" stroke-linecap="butt" stroke-linejoin="miter"/><path d="M217.5,163.54v-2h5.86v2z" fill="#ffffff" fill-rule="nonzero" stroke="none" stroke-width="1" stroke-linecap="butt" stroke-linejoin="miter"/><path d="M217.5,165.46v-2h5.86v2z" fill="#c9e2b3" fill-rule="nonzero" stroke="none" stroke-width="1" stroke-linecap="butt" stroke-linejoin="miter"/><path d="M229.88,165.46v-2h5.86v2z" fill="#c9e2b3" fill-rule="nonzero" stroke="none" stroke-width="1" stroke-linecap="butt" stroke-linejoin="miter"/><path d="M229.88,163.54v-2h5.86v2z" fill="#ffffff" fill-rule="nonzero" stroke="none" stroke-width="1" stroke-linecap="butt" stroke-linejoin="miter"/><path d="M237.82,165.46v-2h5.86v2z" fill="#c9e2b3" fill-rule="nonzero" stroke="none" stroke-width="1" stroke-linecap="butt" stroke-linejoin="miter"/><path d="M237.82,163.54v-2h5.86v2z" fill="#ffffff" fill-rule="nonzero" stroke="none" stroke-width="1" stroke-linecap="butt" stroke-linejoin="miter"/><path d="M245.7,165.46v-2h5.86v2z" fill="#ffffff" fill-rule="nonzero" stroke="none" stroke-width="1" stroke-linecap="butt" stroke-linejoin="miter"/><path d="M253.64,165.46v-2h5.86v2z" fill="#c9e2b3" fill-rule="nonzero" stroke="none" stroke-width="1" stroke-linecap="butt" stroke-linejoin="miter"/><path d="M253.64,163.54v-2h5.86v2z" fill="#ffffff" fill-rule="nonzero" stroke="none" stroke-width="1" stroke-linecap="butt" stroke-linejoin="miter"/><path d="M266.62,163.54v-2h5.86v2z" fill="#ffffff" fill-rule="nonzero" stroke="none" stroke-width="1" stroke-linecap="butt" stroke-linejoin="miter"/><path d="M266.62,165.46v-2h5.86v2z" fill="#c9e2b3" fill-rule="nonzero" stroke="none" stroke-width="1" stroke-linecap="butt" stroke-linejoin="miter"/><path d="M274.54,163.54v-2h5.86v2z" fill="#ffffff" fill-rule="nonzero" stroke="none" stroke-width="1" stroke-linecap="butt" stroke-linejoin="miter"/><path d="M274.54,165.46v-2h5.86v2z" fill="#c9e2b3" fill-rule="nonzero" stroke="none" stroke-width="1" stroke-linecap="butt" stroke-linejoin="miter"/><path d="M209.56,161.54h5.86v1.92v1.92h-5.86v-1.92z" fill="none" fill-rule="evenodd" stroke="#149948" stroke-width="0.5" stroke-linecap="round" stroke-linejoin="round"/><path d="M217.48,161.54h5.88v1.92v1.92h-5.88v-1.92z" fill="none" fill-rule="evenodd" stroke="#149948" stroke-width="0.5" stroke-linecap="round" stroke-linejoin="round"/><path d="M229.88,161.54h5.86v1.92v1.92h-5.86v-1.92z" fill="none" fill-rule="evenodd" stroke="#149948" stroke-width="0.5" stroke-linecap="round" stroke-linejoin="round"/><path d="M237.82,161.54h5.86v1.92v1.92h-5.86v-1.92z" fill="none" fill-rule="evenodd" stroke="#149948" stroke-width="0.5" stroke-linecap="round" stroke-linejoin="round"/><path d="M245.7,165.46v-2h5.86v2z" fill="none" fill-rule="evenodd" stroke="#149948" stroke-width="0.5" stroke-linecap="round" stroke-linejoin="round"/><path d="M253.64,161.54h5.86v1.92v1.92h-5.86v-1.92z" fill="none" fill-rule="evenodd" stroke="#149948" stroke-width="0.5" stroke-linecap="round" stroke-linejoin="round"/><path d="M266.62,161.54h5.86v1.92v1.92h-5.86v-1.92z" fill="none" fill-rule="evenodd" stroke="#149948" stroke-width="0.5" stroke-linecap="round" stroke-linejoin="round"/><path d="M280.4,161.54v1.92v1.92h-5.86v-1.92v-1.92z" fill="none" fill-rule="evenodd" stroke="#149948" stroke-width="0.5" stroke-linecap="round" stroke-linejoin="round"/></g><g stroke-linecap="butt" stroke-linejoin="miter"><path d="M210.28,176.6v-7.46h68.84v7.46z" fill="#ffffff" fill-rule="nonzero" stroke="#5e154d" stroke-width="0.72"/><path d="M275.08,171.76h-41.06" fill="none" fill-rule="evenodd" stroke="#5e154d" stroke-width="0.5"/><path d="M275.08,174.02h-41.06" fill="none" fill-rule="evenodd" stroke="#5e154d" stroke-width="0.5"/><path d="M254.56,169.14v7.48" fill="none" fill-rule="evenodd" stroke="#5e154d" stroke-width="0.5"/><g fill-rule="nonzero" stroke-width="2"><path d="M214.66,174.02v-2.26h3.5v2.26z" fill="#007c2c" stroke="#007c2c"/><path d="M218.16,174.02v-2.26h3.38v2.26z" fill="#f05822" stroke="#f05822"/><path d="M221.54,174.02v-2.26h3.38v2.26z" fill="#007c2c" stroke="#007c2c"/><path d="M224.92,174.02v-2.26h3.5v2.26z" fill="#f05822" stroke="#f05822"/></g></g><g stroke="#f05822" stroke-linecap="round" stroke-linejoin="round"><path d="M197.7,172.88c0,-2.71724 2.20276,-4.92 4.92,-4.92c2.71724,0 4.92,2.20276 4.92,4.92c0,2.71724 -2.20276,4.92 -4.92,4.92c-2.71724,0 -4.92,-2.20276 -4.92,-4.92z" fill="#ffffff" fill-rule="nonzero" stroke-width="0.96"/><path d="M198.06,174.68l6.36,-6.34" fill="none" fill-rule="evenodd" stroke-width="0.5"/><path d="M199.34,175.96l6.34,-6.34" fill="none" fill-rule="evenodd" stroke-width="0.5"/><path d="M200.58,177.2l6.34,-6.36" fill="none" fill-rule="evenodd" stroke-width="0.5"/><path d="M207.16,174.92l-6.34,-6.34" fill="none" fill-rule="evenodd" stroke-width="0.5"/><path d="M199.54,169.86l6.34,6.34" fill="none" fill-rule="evenodd" stroke-width="0.5"/><path d="M204.66,177.44l-6.36,-6.36" fill="none" fill-rule="evenodd" stroke-width="0.5"/><path d="M198.98,172.88c0,-2.01031 1.62969,-3.64 3.64,-3.64c2.01031,0 3.64,1.62968 3.64,3.64c0,2.01031 -1.62968,3.64 -3.64,3.64c-2.01031,0 -3.64,-1.62969 -3.64,-3.64z" fill="none" fill-rule="evenodd" stroke-width="0.5"/></g><g stroke="#f05822" stroke-linecap="round" stroke-linejoin="round"><path d="M282.16,172.88c0,-2.71724 2.20276,-4.92 4.92,-4.92c2.71724,0 4.92,2.20276 4.92,4.92c0,2.71724 -2.20276,4.92 -4.92,4.92c-2.71724,0 -4.92,-2.20276 -4.92,-4.92z" fill="#ffffff" fill-rule="nonzero" stroke-width="0.96"/><path d="M283.44,172.88c0,-2.01031 1.62968,-3.64 3.64,-3.64c2.01031,0 3.64,1.62968 3.64,3.64c0,2.01031 -1.62969,3.64 -3.64,3.64c-2.01031,0 -3.64,-1.62969 -3.64,-3.64z" fill="none" fill-rule="evenodd" stroke-width="0.5"/><path d="M282.52,174.68l6.36,-6.34" fill="none" fill-rule="evenodd" stroke-width="0.5"/><path d="M290.14,169.62l-6.34,6.34" fill="none" fill-rule="evenodd" stroke-width="0.5"/><path d="M291.38,170.84l-6.34,6.36" fill="none" fill-rule="evenodd" stroke-width="0.5"/><path d="M291.62,174.92l-6.34,-6.34" fill="none" fill-rule="evenodd" stroke-width="0.5"/><path d="M290.36,176.2l-6.36,-6.34" fill="none" fill-rule="evenodd" stroke-width="0.5"/><path d="M282.76,171.08l6.36,6.36" fill="none" fill-rule="evenodd" stroke-width="0.5"/></g><g><path d="M199.58,204.8c0,-7.97499 6.46501,-14.44 14.44,-14.44c7.97499,0 14.44,6.46501 14.44,14.44c0,7.97499 -6.46501,14.44 -14.44,14.44c-7.97499,0 -14.44,-6.46501 -14.44,-14.44z" fill="#ca90c7" fill-rule="nonzero" stroke="none" stroke-width="1" stroke-linecap="butt" stroke-linejoin="miter"/><path d="M202.34,204.8c0,-6.45068 5.22932,-11.68 11.68,-11.68c6.45068,0 11.68,5.22932 11.68,11.68c0,6.45068 -5.22931,11.68 -11.68,11.68c-6.45068,0 -11.68,-5.22931 -11.68,-11.68z" fill="#eac5dd" fill-rule="nonzero" stroke="#eac5dd" stroke-width="0.5" stroke-linecap="round" stroke-linejoin="round"/><g fill="none" fill-rule="evenodd" stroke="#9f509e" stroke-width="0.72" stroke-linecap="round" stroke-linejoin="round"><path d="M198.64,208.38l19.06,-19.06"/><path d="M201,210.78l19.06,-19.06"/><path d="M203.36,213.18l19.08,-19.08"/><path d="M205.72,215.56l19.08,-19.06"/><path d="M208.08,217.96l19.08,-19.06"/><path d="M210.46,220.36l19.06,-19.08"/><path d="M217.62,220.28l-19.06,-19.08"/><path d="M220.02,217.92l-19.06,-19.08"/><path d="M222.42,215.56l-19.08,-19.08"/><path d="M224.8,213.18l-19.06,-19.06"/><path d="M208.14,191.76l19.06,19.06"/><path d="M229.6,208.46l-19.08,-19.06"/></g><path d="M202.34,204.8c0,-6.45068 5.22932,-11.68 11.68,-11.68c6.45068,0 11.68,5.22932 11.68,11.68c0,6.45068 -5.22931,11.68 -11.68,11.68c-6.45068,0 -11.68,-5.22931 -11.68,-11.68z" fill="none" fill-rule="evenodd" stroke="#5e154d" stroke-width="0.96" stroke-linecap="round" stroke-linejoin="round"/></g><g><g fill="none" fill-rule="evenodd" stroke="#9f509e" stroke-width="0.72" stroke-linecap="round" stroke-linejoin="round"><path d="M260.64,208.38l19.06,-19.06"/><path d="M263,210.78l19.06,-19.06"/><path d="M284.44,194.1l-19.08,19.08"/><path d="M267.72,215.56l19.08,-19.06"/><path d="M270.08,217.96l19.08,-19.06"/><path d="M272.46,220.36l19.06,-19.08"/><path d="M260.56,201.2l19.06,19.08"/><path d="M282.02,217.92l-19.06,-19.08"/><path d="M284.42,215.56l-19.08,-19.08"/><path d="M286.8,213.18l-19.06,-19.06"/><path d="M289.2,210.82l-19.06,-19.06"/><path d="M291.6,208.46l-19.08,-19.06"/></g><path d="M261.58,204.8c0,-7.97499 6.46501,-14.44 14.44,-14.44c7.97499,0 14.44,6.46501 14.44,14.44c0,7.97499 -6.46501,14.44 -14.44,14.44c-7.97499,0 -14.44,-6.46501 -14.44,-14.44z" fill="#ca90c7" fill-rule="nonzero" stroke="none" stroke-width="1" stroke-linecap="butt" stroke-linejoin="miter"/><path d="M264.34,204.8c0,-6.45068 5.22931,-11.68 11.68,-11.68c6.45069,0 11.68,5.22932 11.68,11.68c0,6.45068 -5.22931,11.68 -11.68,11.68c-6.45069,0 -11.68,-5.22931 -11.68,-11.68z" fill="#eac5dd" fill-rule="nonzero" stroke="#eac5dd" stroke-width="0.5" stroke-linecap="round" stroke-linejoin="round"/><g fill="none" fill-rule="evenodd" stroke="#9f509e" stroke-width="0.72" stroke-linecap="round" stroke-linejoin="round"><path d="M280.12,189.32l-19.08,19.06"/><path d="M263.4,210.78l19.08,-19.06"/><path d="M265.78,213.18l19.06,-19.08"/><path d="M268.14,215.56l19.06,-19.06"/><path d="M270.5,217.96l19.06,-19.06"/><path d="M272.86,220.36l19.06,-19.08"/><path d="M260.96,201.2l19.08,19.08"/><path d="M282.44,217.92l-19.08,-19.08"/><path d="M265.76,196.48l19.06,19.08"/><path d="M287.22,213.18l-19.08,-19.06"/><path d="M289.62,210.82l-19.08,-19.06"/><path d="M272.94,189.4l19.06,19.06"/></g><path d="M264.34,204.8c0,-6.45068 5.22931,-11.68 11.68,-11.68c6.45069,0 11.68,5.22932 11.68,11.68c0,6.45068 -5.22931,11.68 -11.68,11.68c-6.45069,0 -11.68,-5.22931 -11.68,-11.68z" fill="none" fill-rule="evenodd" stroke="#5e154d" stroke-width="0.96" stroke-linecap="round" stroke-linejoin="round"/></g><g stroke-linecap="butt" stroke-linejoin="miter"><path d="M199.56,187.36v-4.5h28.88v4.5z" fill="#eac5dd" fill-rule="nonzero" stroke="#eac5dd" stroke-width="0.5"/><path d="M262.14,187.36v-4.5h28.88v4.5z" fill="#eac5dd" fill-rule="nonzero" stroke="#ec2777" stroke-width="0.5"/><path d="M262.14,187.42v-4.5h28.88v4.5z" fill="none" fill-rule="evenodd" stroke="#9f509e" stroke-width="0.72"/><path d="M199.56,184.36h28.88" fill="none" fill-rule="evenodd" stroke="#9f509e" stroke-width="0.5"/><path d="M199.58,185.88h28.86" fill="none" fill-rule="evenodd" stroke="#9f509e" stroke-width="0.5"/><path d="M291.02,184.36h-28.88" fill="none" fill-rule="evenodd" stroke="#9f509e" stroke-width="0.5"/><path d="M291.02,185.88h-28.88" fill="none" fill-rule="evenodd" stroke="#9f509e" stroke-width="0.5"/><path d="M199.56,187.36v-4.5h28.88v4.5z" fill="none" fill-rule="evenodd" stroke="#9f509e" stroke-width="0.72"/></g><g><path d="M235.5,205.56v-10.6h20.3v10.6z" fill="#5e154d" fill-rule="nonzero" stroke="#5e154d" stroke-width="0.96" stroke-linecap="round" stroke-linejoin="round"/><path d="M233.06,192.58v-9.66h25.3v9.66z" fill="#ffdb48" fill-rule="nonzero" stroke="none" stroke-width="1" stroke-linecap="butt" stroke-linejoin="miter"/><path d="M233.06,219.58v-11.06h25.3v11.06z" fill="#007c2c" fill-rule="nonzero" stroke="none" stroke-width="1" stroke-linecap="butt" stroke-linejoin="miter"/><path d="M233.06,208.54v-15.96h25.3v15.96z" fill="none" fill-rule="evenodd" stroke="none" stroke-width="1" stroke-linecap="butt" stroke-linejoin="miter"/><path d="M260.18,223.44h-29.06l1.94,-3.84h25.3z" fill="#5e154d" fill-rule="nonzero" stroke="#5e154d" stroke-width="0.72" stroke-linecap="round" stroke-linejoin="round"/><path d="M233.06,192.58v-9.66h25.3v9.66z" fill="#f05822" fill-rule="nonzero" stroke="none" stroke-width="1" stroke-linecap="butt" stroke-linejoin="miter"/><path d="M258.36,182.92v9.66v15.96v11.06h-25.3v-11.06v-15.96v-9.66z" fill="none" fill-rule="evenodd" stroke="#5e154d" stroke-width="0.72" stroke-linecap="round" stroke-linejoin="round"/><path d="M235.5,190.18v-4.5h20.3v4.5z" fill="#ffdb48" fill-rule="nonzero" stroke="#5e154d" stroke-width="0.72" stroke-linecap="round" stroke-linejoin="round"/><path d="M237.84,187v1.86" fill="none" fill-rule="evenodd" stroke="#5e154d" stroke-width="0.5" stroke-linecap="round" stroke-linejoin="round"/><path d="M243.08,187v1.86" fill="none" fill-rule="evenodd" stroke="#5e154d" stroke-width="0.5" stroke-linecap="round" stroke-linejoin="round"/><path d="M248.32,187v1.86" fill="none" fill-rule="evenodd" stroke="#5e154d" stroke-width="0.5" stroke-linecap="round" stroke-linejoin="round"/><path d="M253.56,187v1.86" fill="none" fill-rule="evenodd" stroke="#5e154d" stroke-width="0.5" stroke-linecap="round" stroke-linejoin="round"/><path d="M255.8,187.92h-20.3" fill="none" fill-rule="evenodd" stroke="#5e154d" stroke-width="0.5" stroke-linecap="round" stroke-linejoin="round"/><g stroke="#5e154d" stroke-width="0.72" stroke-linecap="round" stroke-linejoin="round"><path d="M235.5,214v-3.02h20.3v3.02z" fill="#ffffff" fill-rule="nonzero"/><path d="M235.5,217.02v-3.02h20.3v3.02z" fill="#ffdb48" fill-rule="nonzero"/><path d="M240.66,210.96v3.04" fill="none" fill-rule="evenodd"/><path d="M250.62,214v-3.04" fill="none" fill-rule="evenodd"/><path d="M245.64,210.96v3.04" fill="none" fill-rule="evenodd"/></g><path d="M240.42,203.04c-1.5354,0 -2.78,-1.2446 -2.78,-2.78c0,-1.5354 1.2446,-2.78 2.78,-2.78c1.5354,0 2.78,1.2446 2.78,2.78c0,1.5354 -1.2446,2.78 -2.78,2.78zM245,200.26h1.28z" fill="none" fill-rule="evenodd" stroke="#ffffff" stroke-width="0.72" stroke-linecap="round" stroke-linejoin="round"/><path d="M248.1,200.26c0,-1.53535 1.24465,-2.78 2.78,-2.78c1.53535,0 2.78,1.24465 2.78,2.78c0,1.53535 -1.24465,2.78 -2.78,2.78c-1.53535,0 -2.78,-1.24465 -2.78,-2.78z" fill="none" fill-rule="evenodd" stroke="#ffffff" stroke-width="0.72" stroke-linecap="round" stroke-linejoin="round"/><path d="M238.42,200.26c0,-1.10457 0.89543,-2 2,-2c1.10457,0 2,0.89543 2,2c0,1.10457 -0.89543,2 -2,2c-1.10457,0 -2,-0.89543 -2,-2z" fill="#ffffff" fill-rule="nonzero" stroke="#ffffff" stroke-width="0.5" stroke-linecap="round" stroke-linejoin="round"/><path d="M248.88,200.26c0,-1.10457 0.89543,-2 2,-2c1.10457,0 2,0.89543 2,2c0,1.10457 -0.89543,2 -2,2c-1.10457,0 -2,-0.89543 -2,-2z" fill="#ffffff" fill-rule="nonzero" stroke="#ffffff" stroke-width="0.5" stroke-linecap="round" stroke-linejoin="round"/></g><g fill="none" fill-rule="evenodd" stroke="#ffffff" stroke-width="0.96" stroke-linecap="round" stroke-linejoin="round"><path d="M292.98,208.1v-2.36"/><path d="M292.98,203.76v-14.52"/></g><path d="M295.1,168.68v51.46c0,0.8752 -0.3477,1.7146 -0.9665,2.3335c-0.6189,0.6188 -1.4583,0.9665 -2.3335,0.9665h-93.5c-1.8225,0 -3.3,-1.4775 -3.3,-3.3v-51.46c-0.0008,-1.7842 1.4166,-3.2459 3.2,-3.3h93.6c1.8225,0 3.3,1.4775 3.3,3.3z" fill="none" fill-rule="evenodd" stroke="#5e154d" stroke-width="0.96" stroke-linecap="round" stroke-linejoin="round"/></g></g></svg>