<svg version="1.1" xmlns="http://www.w3.org/2000/svg" xmlns:xlink="http://www.w3.org/1999/xlink" width="108.45606" height="110.70305" viewBox="0,0,108.45606,110.70305"><defs><linearGradient x1="283.49569" y1="124.99126" x2="267.51492" y2="193.81713" gradientUnits="userSpaceOnUse" id="color-1"><stop offset="0" stop-color="#abb4c9"/><stop offset="1" stop-color="#d9e2ff"/></linearGradient><radialGradient cx="284.36777" cy="160.70954" r="37.10741" gradientUnits="userSpaceOnUse" id="color-2"><stop offset="0" stop-color="#dae9ff"/><stop offset="1" stop-color="#9ea5ba"/></radialGradient><linearGradient x1="269.21779" y1="123.16023" x2="264.72338" y2="194.3147" gradientUnits="userSpaceOnUse" id="color-3"><stop offset="0" stop-color="#abb4c9"/><stop offset="1" stop-color="#d9e2ff"/></linearGradient><linearGradient x1="299.49549" y1="210.06733" x2="241.53286" y2="206.84273" gradientUnits="userSpaceOnUse" id="color-4"><stop offset="0" stop-color="#abb4c9"/><stop offset="1" stop-color="#d9e2ff"/></linearGradient><linearGradient x1="301.13093" y1="220.80208" x2="241.81417" y2="207.95097" gradientUnits="userSpaceOnUse" id="color-5"><stop offset="0" stop-color="#abb4c9"/><stop offset="1" stop-color="#d9e2ff"/></linearGradient><linearGradient x1="303.68262" y1="227.38563" x2="241.09105" y2="214.57385" gradientUnits="userSpaceOnUse" id="color-6"><stop offset="0" stop-color="#abb4c9"/><stop offset="1" stop-color="#d9e2ff"/></linearGradient></defs><g transform="translate(-195.60537,-122.37813)"><g data-paper-data="{&quot;isPaintingLayer&quot;:true}" stroke-miterlimit="10" stroke-dasharray="" stroke-dashoffset="0" style="mix-blend-mode: normal"><path d="M286.51977,125.68548l-22.02894,67.43743" fill="none" fill-rule="nonzero" stroke="url(#color-1)" stroke-width="2" stroke-linecap="round" stroke-linejoin="miter"/><path d="M266.37831,193.3531l35.9789,-65.28713" fill="none" fill-rule="nonzero" stroke="url(#color-2)" stroke-width="2" stroke-linecap="round" stroke-linejoin="miter"/><path d="M272.66786,123.37813l-11.39458,70.71866" fill="none" fill-rule="nonzero" stroke="url(#color-3)" stroke-width="2" stroke-linecap="round" stroke-linejoin="miter"/><g fill-rule="evenodd"><path d="M228.15503,198.0837c0.89351,-0.04052 2.81658,-0.08295 2.3775,4.05555c-0.43908,4.1385 -6.12342,8.11195 -6.82202,8.50177c-2.65835,1.59787 -5.9767,3.4495 -10.32653,4.27349c-12.60274,2.45171 -19.07333,-8.93914 -16.69092,-12.67333c2.29508,-3.68546 7.72651,2.55951 14.91702,4.15844c3.1678,0.7517 6.09004,0.03721 8.42948,-0.69561c3.26141,-1.13277 7.08591,-7.61839 8.11547,-7.62031z" fill="#ffab19" stroke="#001026" stroke-width="1.2" stroke-linecap="round" stroke-linejoin="round"/><path d="M202.55151,203.09471c2.71283,1.57814 7.27154,3.38595 7.27154,3.38595c0,0 -3.66957,1.01698 -4.67504,3.52478c-0.85107,1.96359 0.57023,3.68983 1.08597,4.20365c-1.76868,-0.50177 -4.04297,-1.29399 -6.62167,-3.86309c-2.5787,-2.56911 -3.75199,-6.72403 -2.29785,-8.22252c1.55159,-1.32384 2.71912,-0.2576 5.23705,0.97124z" fill="#ffffff" stroke="none" stroke-width="1" stroke-linecap="butt" stroke-linejoin="miter"/></g><path d="M236.29367,204.80016c-1.73794,1.28824 -7.7109,5.99183 -15.47645,8.88254l-0.39452,0.11982c-0.39452,0.11982 -0.56934,0.62916 -0.34965,1.0187c1.81753,2.31227 5.15295,6.95177 -0.25547,8.92383c-5.20867,1.96209 -15.79924,-11.62687 -11.7889,-15.53164c1.82785,-1.49297 3.56063,-0.87859 4.47945,-0.52395c0.50935,0.17483 1.00873,0.1499 1.50312,0.0251c1.17857,-0.45932 3.33595,-1.368 4.98898,-2.35162c4.18498,-2.41162 5.13888,-3.36035 7.06162,-4.95818c1.92274,-1.59783 6.33258,-5.52254 10.1875,-2.51096c3.33062,2.53712 1.6824,5.62312 0.04434,6.90638z" fill="#ffab19" fill-rule="evenodd" stroke="#001026" stroke-width="1.2" stroke-linecap="round" stroke-linejoin="round"/><path d="M244.24394,188.15198c0.60463,0.50765 8.03392,9.89696 10.37519,7.24419c2.81093,-3.10066 6.6484,-9.03428 11.01132,-4.80055c4.36293,4.23373 -3.60931,12.53687 -7.02942,14.85436c-8.14815,4.86809 -14.95234,-2.77381 -16.41801,-4.87379c-1.46565,-2.1 -4.02833,-5.63721 -4.08739,-9.21866c0.0555,-3.86561 4.08932,-5.12447 6.14826,-3.20555z" fill="#ffab19" fill-rule="evenodd" stroke="#001026" stroke-width="1.2" stroke-linecap="round" stroke-linejoin="round"/><g fill-rule="evenodd"><path d="M242.97983,213.41073c1.08138,2.45341 3.54186,7.59223 3.54186,7.59223c0,0 12.77058,2.8353 10.24893,9.30456c-1.50599,3.86359 -7.84531,2.20354 -15.59875,-2.05205c-0.46407,-0.30307 -0.89311,-0.69598 -1.16894,-1.23306c-1.16457,-2.48895 -4.44373,-9.75933 -6.40512,-14.68493c-2.8764,-7.30794 -5.62143,-12.46351 -5.62143,-12.46351c-4.16355,-10.47814 2.80181,-11.17098 6.72882,-14.52436c3.5155,-2.7955 4.15031,-1.6858 8.72094,1.52454c2.65307,1.65746 4.21164,2.63772 6.07666,3.32965c2.78003,1.08282 0.59983,5.18245 -1.02438,7.1089c0,0 -2.4604,2.82699 -4.2072,4.07219c-2.13644,1.498 -3.65997,2.41934 -4.97336,2.80157z" fill="#ffab19" stroke="#001026" stroke-width="1.2" stroke-linecap="round" stroke-linejoin="round"/><path d="M238.58426,203.77679c0,0 -0.82745,-1.61124 -1.63302,-3.52757c-1.03323,-2.32803 -2.17152,-4.3865 0.57784,-6.46117c2.33783,-1.51678 4.87265,-3.78791 7.60018,0.41686c2.63121,3.954 0.17517,5.5251 0.17517,5.5251c-3.40604,3.26152 -6.72016,4.04678 -6.72016,4.04678z" fill="#ffffff" stroke="none" stroke-width="1" stroke-linecap="butt" stroke-linejoin="miter"/></g><g fill-rule="evenodd"><path d="M253.70001,131c0.3,-0.2 0.8,-0.1 0.9,0.3l2.6,10.7c0,0 6.4,4.7 8.3,8c3.2,5.5 3.3,10 3.3,10c0,0 7.1,2.1 8.3,7.8c1.2,5.7 -3.2,16.5 -22,20.2c-18.8,3.7 -33.9,-1.4 -41,-12.8c-7.1,-11.4 4.1,-25 3.5,-24.2l-2.1,-17.9c-0.1,-0.4 0.4,-0.7 0.8,-0.5l12.1,7.9c0,0 4.5,-1.7 9.2,-1.9c2.8,-0.2 5.2,0 7.5,0.4z" fill="#ffab19" stroke="#001026" stroke-width="1.2" stroke-linecap="butt" stroke-linejoin="miter"/><path d="M268.50001,160.4c0,0 6.9,1.8 8.1,7.5c1.2,5.7 -3.6,16 -22.2,19.6c-24.2,5 -35.7,-9.4 -29,-20c6.7,-10.7 18.2,-1.6 26.6,-2.2c7.2,-0.5 8,-6.8 16.5,-4.9z" fill="#ffffff" stroke="none" stroke-width="1" stroke-linecap="butt" stroke-linejoin="miter"/><path d="M237.00001,171.1c0,-0.4 0.4,-0.7 0.8,-0.6c1.9,0.7 7.3,2.3 13.3,2.7c5.4,0.3 8.6,0 10.1,-0.3c0.5,-0.1 0.9,0.4 0.7,0.9c-0.9,2.7 -4.7,10.2 -15.2,9.6c-9.1,-1 -10,-7.4 -9.7,-12.3z" fill="#ffffff" stroke="#001026" stroke-width="1.2" stroke-linecap="round" stroke-linejoin="round"/><path d="M286.90001,161.5c-4.7,3.8 -11.9,3.9 -11.9,3.9" fill="none" stroke="#001026" stroke-width="1.2" stroke-linecap="round" stroke-linejoin="round"/><path d="M285.60001,172.7c-6.3,0.5 -10.2,-1.4 -10.2,-1.4" fill="none" stroke="#001026" stroke-width="1.2" stroke-linecap="round" stroke-linejoin="round"/><path d="M251.60001,162.7c2.1,0 4.3,0.2 4.4,0.9c0.1,1.4 -1.4,4.2 -3,4.3c-1.8,0.2 -6,-2.3 -6,-3.9c-0.1,-1.2 2.6,-1.3 4.6,-1.3z" fill="#001026" stroke="#001026" stroke-width="1.2" stroke-linecap="round" stroke-linejoin="round"/><path d="M206.60001,161.2c0,0 8.6,2.8 12.1,5.9" fill="none" stroke="#001026" stroke-width="1.2" stroke-linecap="round" stroke-linejoin="round"/><path d="M219.00001,170.6c-4.3,1.7 -11.7,0.6 -11.7,0.6" fill="none" stroke="#001026" stroke-width="1.2" stroke-linecap="round" stroke-linejoin="round"/><g><path d="M263.40001,151c2.9,4.5 3,9.6 0.2,11.4c-2.8,1.8 -7.4,-0.3 -10.4,-4.8c-2.9,-4.5 -3,-9.6 -0.2,-11.4c2.8,-1.9 7.5,0.3 10.4,4.8z" fill="#ffffff" stroke="#001026" stroke-width="1.2" stroke-linecap="round" stroke-linejoin="round"/><path d="M263.00001,156.7c0,1.1 -0.8,2 -1.8,2c-1,0 -1.8,-0.9 -1.8,-2c0,-1.1 0.8,-2 1.8,-2c1,0 1.8,0.9 1.8,2" fill="#001026" stroke="none" stroke-width="1" stroke-linecap="butt" stroke-linejoin="miter"/></g><g><path d="M238.60001,153.8c3,4.4 2.8,9.8 0.1,11.7c-3.3,1.9 -7.7,0.5 -10.7,-3.9c-3.1,-4.4 -3.3,-10.1 -0.2,-12.3c3.1,-2.3 7.8,0.1 10.8,4.5z" fill="#ffffff" stroke="#001026" stroke-width="1.2" stroke-linecap="round" stroke-linejoin="round"/><path d="M238.00001,159.6c0,1.1 -0.8,2 -1.8,2c-1,0 -1.8,-0.9 -1.8,-2c0,-1.1 0.8,-2 1.8,-2c1,0.1 1.8,0.9 1.8,2" fill="#001026" stroke="none" stroke-width="1" stroke-linecap="butt" stroke-linejoin="miter"/></g></g><path d="M234.41965,201.45303c4.40991,0.42006 10.36939,0.35859 10.41188,6.73033c-0.64423,8.15925 -14.35991,3.99039 -18.66859,1.88607c-3.8261,-1.85096 -4.10682,-5.9154 -4.3523,-9.36118c-0.24939,-6.54356 -0.66991,-12.19769 3.63321,-14.51877c5.30131,-2.9658 6.96326,3.71922 7.10583,7.52162c0.10625,2.29862 0.31592,4.68315 0.2835,6.27718c0.31092,0.70027 0.86286,1.30597 1.58647,1.46475z" fill="#ffab19" fill-rule="evenodd" stroke="#001026" stroke-width="1.2" stroke-linecap="round" stroke-linejoin="round"/><path d="M299.33914,212.87781l-57.6499,-8.8455" fill="none" fill-rule="nonzero" stroke="url(#color-4)" stroke-width="2" stroke-linecap="round" stroke-linejoin="miter"/><path d="M242.43728,205.07485l58.07049,18.60333" fill="none" fill-rule="nonzero" stroke="url(#color-5)" stroke-width="2" stroke-linecap="round" stroke-linejoin="miter"/><path d="M303.06144,230.42052l-61.34919,-18.88155" fill="none" fill-rule="nonzero" stroke="url(#color-6)" stroke-width="2" stroke-linecap="round" stroke-linejoin="miter"/></g></g></svg>