<svg version="1.1" xmlns="http://www.w3.org/2000/svg" xmlns:xlink="http://www.w3.org/1999/xlink" width="88.26736" height="108.57641" viewBox="0,0,88.26736,108.57641"><g transform="translate(-196.36907,-129.05349)"><g data-paper-data="{&quot;isPaintingLayer&quot;:true}" stroke-miterlimit="10" stroke-dasharray="" stroke-dashoffset="0" style="mix-blend-mode: normal"><g fill-rule="evenodd"><path d="M226.25513,195.70943c0.65516,0.6089 2.03332,1.9508 -1.22625,4.53832c-3.25957,2.58751 -10.07782,1.31812 -10.84552,1.09307c-3.00293,-0.77614 -6.64947,-1.84516 -10.28599,-4.37017c-10.582,-7.27058 -6.99264,-19.86965 -2.65938,-20.78768c4.23731,-0.94617 3.58994,7.30495 7.48934,13.55433c1.68416,2.78632 4.24199,4.36985 6.4044,5.52482c3.09389,1.53226 10.4004,-0.28568 11.12339,0.44732z" fill="#ffab19" stroke="#001026" stroke-width="1.2" stroke-linecap="round" stroke-linejoin="round"/><path d="M204.73543,180.95978c0.77581,3.04107 2.68159,7.5597 2.68159,7.5597c0,0 -3.29738,-1.90454 -5.79082,-0.86398c-1.99706,0.76925 -2.23212,2.99293 -2.23713,3.72092c-0.88178,-1.61322 -1.91078,-3.79063 -1.88577,-7.4306c0.02501,-3.63997 2.16618,-7.38902 4.2542,-7.40215c2.03176,0.1788 2.08958,1.75888 2.97792,4.41611z" fill="#ffffff" stroke="none" stroke-width="1" stroke-linecap="butt" stroke-linejoin="miter"/></g><path d="M233.26227,207.29925c-1.74046,1.16031 -7.73538,5.41476 -15.37406,7.83207l-0.38677,0.09669c-0.38677,0.09669 -0.58015,0.58015 -0.38677,0.96692c1.64377,2.32061 4.64123,6.96184 -0.67685,8.60561c-5.12469,1.64377 -14.69722,-11.98984 -10.63614,-15.56745c1.83715,-1.35369 3.48092,-0.67685 4.35115,-0.29008c0.48346,0.19338 0.96692,0.19338 1.45038,0.09669c1.16031,-0.38677 3.28754,-1.16031 4.9313,-2.03054c4.15777,-2.12723 5.12469,-2.99746 7.05853,-4.44784c1.93384,-1.45038 6.38169,-5.028 9.9593,-1.93384c3.09415,2.61069 1.35369,5.51146 -0.29008,6.67176z" fill="#ffab19" fill-rule="evenodd" stroke="#001026" stroke-width="1.2" stroke-linecap="round" stroke-linejoin="round"/><path d="M240.02181,188.49253c0.38715,0.56145 4.54363,9.88772 6.92273,8.50403c2.84026,-1.59638 7.0418,-5.08575 9.72666,-0.59497c2.68487,4.49078 -5.27705,8.64024 -8.45561,9.46167c-7.44822,1.45382 -11.4374,-6.35025 -12.21022,-8.38092c-0.77282,-2.03068 -2.14968,-5.47761 -1.51458,-8.2531c0.78092,-2.9621 4.24891,-2.79508 5.53101,-0.73671z" fill="#ffab19" fill-rule="evenodd" stroke="#001026" stroke-width="1.2" stroke-linecap="round" stroke-linejoin="round"/><g fill-rule="evenodd"><path d="M236.24396,217.73333c1.17821,2.50277 3.83797,7.70903 3.83797,7.70903c0,0 12.675,0.7747 10.50543,8.36172c-1.29571,4.53113 -7.59956,3.86842 -15.4151,0.60759c-0.47007,-0.24841 -0.91002,-0.60221 -1.20634,-1.14291c-1.26158,-2.52661 -4.82635,-9.92953 -6.98591,-14.99276c-3.17104,-7.51832 -6.11103,-12.69072 -6.11103,-12.69072c-4.58528,-10.77253 2.22177,-12.81572 5.9191,-17.23005c3.31965,-3.7244 3.99564,-2.61915 8.63616,0.07574c2.68386,1.33743 4.26083,2.13035 6.12506,2.54945c2.7813,0.68134 0.8347,5.59631 -0.66894,8.01614c0,0 -2.28208,3.56513 -3.93838,5.25735c-2.02694,2.0422 -3.47936,3.33674 -4.75099,3.99905z" fill="#ffab19" stroke="#001026" stroke-width="1.2" stroke-linecap="round" stroke-linejoin="round"/><path d="M231.47084,207.93302c0,0 -0.88894,-1.6221 -1.77083,-3.58416c-1.12497,-2.37355 -2.34035,-4.43098 0.26114,-7.22081c2.22382,-2.09989 4.60534,-5.06662 7.48306,-0.93794c2.77125,3.87025 0.43394,6.05167 0.43394,6.05167c-3.19009,4.21741 -6.40729,5.69126 -6.40729,5.69126z" fill="#ffffff" stroke="none" stroke-width="1" stroke-linecap="butt" stroke-linejoin="miter"/></g><path d="M227.87761,198.4c2.2,2.8 5.6,6.3 1.3,9.2c-5.9,3.3 -10.8,-6.7 -11.8,-10.2c-0.9,-3.1 1.7,-5.1 3.9,-6.8c4.3,-3.1 7.9,-5.9 11.9,-4.4c5,1.8 1.4,5.8 -1.1,7.6c-1.5,1.1 -3,2.3 -4.1,3c-0.3,0.5 -0.4,1.1 -0.1,1.6z" fill="#ffab19" fill-rule="evenodd" stroke="#001026" stroke-width="1.2" stroke-linecap="round" stroke-linejoin="round"/><g fill-rule="evenodd"><path d="M255.65554,133.65115c0.32604,-0.15397 0.80602,0.01811 0.84643,0.42844l1.0067,10.96524c0,0 5.64356,5.58571 7.04036,9.12816c2.36096,5.90896 1.80158,10.37518 1.80158,10.37518c0,0 6.7164,3.11608 7.06962,8.93031c0.35322,5.81422 -5.5794,15.85434 -24.71842,16.76424c-19.13902,0.90989 -33.33047,-6.34426 -38.68634,-18.66029c-5.35588,-12.31603 7.7132,-24.13123 7.00263,-23.42762l0.54123,-18.01463c-0.04041,-0.41033 0.4981,-0.63395 0.86454,-0.37759l10.81411,9.58516c0,0 4.70028,-1.0234 9.37897,-0.53367c2.79913,0.21177 5.14406,0.76073 7.3608,1.49289z" fill="#ffab19" stroke="#001026" stroke-width="1.2" stroke-linecap="butt" stroke-linejoin="miter"/><path d="M265.99531,164.89999c0,0 6.56244,2.79006 6.91566,8.60429c0.35322,5.81422 -5.90195,15.30121 -24.8285,16.14143c-24.6711,1.40592 -33.94076,-14.52152 -25.76215,-24.02732c8.19324,-9.60472 18.23826,1.07975 26.63567,1.71506c7.19568,0.55869 8.90873,-5.5565 17.03932,-2.43345z" fill="#ffffff" stroke="none" stroke-width="1" stroke-linecap="butt" stroke-linejoin="miter"/><path d="M233.26887,170.87665c0.05851,-0.3957 0.4981,-0.63395 0.87916,-0.47651c1.77715,0.97042 6.88499,3.34319 12.76192,4.61664c5.29801,1.08675 8.50747,1.25812 10.03523,1.18079c0.50926,-0.02578 0.8318,0.52736 0.56081,0.99271c-1.2853,2.53929 -6.14162,9.40269 -16.44088,7.27307c-8.8558,-2.3205 -8.80985,-8.78331 -7.79624,-13.58671z" fill="#ffffff" stroke="#001026" stroke-width="1.2" stroke-linecap="round" stroke-linejoin="round"/><path d="M284.03643,168.67994c-5.20535,3.07154 -12.34251,2.11716 -12.34251,2.11716" fill="none" stroke="#001026" stroke-width="1.2" stroke-linecap="round" stroke-linejoin="round"/><path d="M281.11193,179.56926c-6.30537,-0.42703 -9.88545,-2.87713 -9.88545,-2.87713" fill="none" stroke="#001026" stroke-width="1.2" stroke-linecap="round" stroke-linejoin="round"/><path d="M248.94066,164.70289c2.0774,0.30722 4.22448,0.8269 4.221,1.53401c-0.10589,1.39957 -1.99937,3.95001 -3.59679,3.81486c-1.80989,-0.06548 -5.59898,-3.15301 -5.3649,-4.73579c0.07662,-1.20172 2.76221,-0.90566 4.74069,-0.61307z" fill="#001026" stroke="#001026" stroke-width="1.2" stroke-linecap="round" stroke-linejoin="round"/><path d="M204.64423,156.63586c0,0 8.09786,4.02799 11.1067,7.60667" fill="none" stroke="#001026" stroke-width="1.2" stroke-linecap="round" stroke-linejoin="round"/><path d="M215.53568,167.74876c-4.50244,1.05265 -11.6619,-1.11808 -11.6619,-1.11808" fill="none" stroke="#001026" stroke-width="1.2" stroke-linecap="round" stroke-linejoin="round"/><g><path d="M262.32533,154.85503c2.21049,4.87584 1.56331,9.9356 -1.46989,11.30661c-3.03321,1.37101 -7.2765,-1.37934 -9.58591,-6.2698c-2.21049,-4.87584 -1.56331,-9.9356 1.46989,-11.30661c3.04783,-1.46993 7.37543,1.39397 9.58591,6.26981z" fill="#ffffff" stroke="#001026" stroke-width="1.2" stroke-linecap="round" stroke-linejoin="round"/><path d="M261.09577,160.43518c-0.16092,1.08817 -1.08398,1.86146 -2.07322,1.71517c-0.98924,-0.14629 -1.64897,-1.15365 -1.48806,-2.24181c0.16092,-1.08817 1.08398,-1.86145 2.07322,-1.71516c0.98924,0.14629 1.64897,1.15364 1.48806,2.24181" fill="#001026" stroke="none" stroke-width="1" stroke-linecap="butt" stroke-linejoin="miter"/></g><g><path d="M237.38253,153.99684c2.32404,4.79154 1.33621,10.10419 -1.6127,11.58875c-3.54246,1.39679 -7.6903,-0.63184 -10.01435,-5.42338c-2.42296,-4.80617 -1.78694,-10.47411 1.60155,-12.19693c3.40312,-1.82175 7.70145,1.24001 10.02549,6.03155z" fill="#ffffff" stroke="#001026" stroke-width="1.2" stroke-linecap="round" stroke-linejoin="round"/><path d="M235.94048,159.64666c-0.16092,1.08817 -1.08398,1.86145 -2.07322,1.71516c-0.98924,-0.14629 -1.64897,-1.15365 -1.48805,-2.24181c0.16092,-1.08817 1.08398,-1.86145 2.07322,-1.71516c0.97461,0.24522 1.64897,1.15365 1.48805,2.24181" fill="#001026" stroke="none" stroke-width="1" stroke-linecap="butt" stroke-linejoin="miter"/></g></g><path d="M223.27613,221.99932c1.04006,-0.69338 1.73344,0.34669 1.73344,0.34669l0.76874,1.17433c2.16547,1.82093 3.87563,3.89015 6.51675,4.90954c0,0 1.1606,0.46424 0.69636,1.62483c-0.46424,1.1606 -1.62483,0.69636 -1.62483,0.69636c-3.01836,-1.24181 -5.0069,-3.44271 -7.45892,-5.57221l-0.97822,-1.44611c0,0 -0.69338,-1.04006 0.34669,-1.73344z" fill="#19fff5" fill-rule="nonzero" stroke="none" stroke-width="0.5" stroke-linecap="butt" stroke-linejoin="miter"/><path d="M246.24323,226.59352c1.25,0 1.25,1.25 1.25,1.25c0,0.83333 0,2.22384 0,3.05718c0,0 0,1.25 -1.25,1.25c-1.25,0 -1.25,-1.25 -1.25,-1.25c0,-0.83333 0,-1.66667 0,-2.5v-0.55718c0,0 0,-1.25 1.25,-1.25z" fill="#19fff5" fill-rule="nonzero" stroke="none" stroke-width="0.5" stroke-linecap="butt" stroke-linejoin="miter"/><path d="M221.83333,220.02083c0.87088,0 1.13501,0.60674 1.21512,0.97479c1.72548,1.5961 3.39679,4.63745 5.26323,5.45369c1.72668,0.75512 2.91222,-1.17892 4.58496,1.16435c0.38719,0.54239 0.12446,1.327 0.18669,1.9905c0,0 0,1.25 -1.25,1.25c-1.25,0 -1.25,-1.25 -1.25,-1.25c0.43772,-1.58539 -2.24446,-0.42736 -3.22835,-0.84515c-2.43614,-1.03445 -4.12379,-4.55064 -6.27165,-6.15485l-0.5,-1.33333c0,0 0,-1.25 1.25,-1.25z" fill="#0048ff" fill-rule="nonzero" stroke="none" stroke-width="0.5" stroke-linecap="butt" stroke-linejoin="miter"/><path d="M246.5,223.6875c1.25,0 1.25,1.25 1.25,1.25c0,1.77778 0,4.88889 0,6.66667c0,0 0,1.25 -1.25,1.25c-1.25,0 -1.25,-1.25 -1.25,-1.25c0,-1.77778 0,-3.55556 0,-5.33333v-1.33333c0,0 0,-1.25 1.25,-1.25z" fill="#0048ff" fill-rule="nonzero" stroke="none" stroke-width="0.5" stroke-linecap="butt" stroke-linejoin="miter"/></g></g></svg>