<svg version="1.1" xmlns="http://www.w3.org/2000/svg" xmlns:xlink="http://www.w3.org/1999/xlink" width="96.90993" height="103.06784" viewBox="0,0,96.90993,103.06784"><g transform="translate(-191.28922,-127.90838)"><g data-paper-data="{&quot;isPaintingLayer&quot;:true}" fill-rule="evenodd" stroke-miterlimit="10" stroke-dasharray="" stroke-dashoffset="0" style="mix-blend-mode: normal"><g><path d="M223.15473,199.9148c0.76788,0.45864 2.3959,1.48313 -0.25139,4.69434c-2.64729,3.21121 -9.5803,3.3938 -10.37806,3.33404c-3.09881,-0.13186 -6.88819,-0.41573 -10.97187,-2.12557c-11.8671,-4.9002 -10.9882,-17.97107 -6.94222,-19.77386c3.94626,-1.81026 5.03641,6.3941 10.155,11.69128c2.22895,2.37314 5.06108,3.38755 7.41702,4.06544c3.34568,0.85231 10.11139,-2.4515 10.97152,-1.88566z" fill="#ffab19" stroke="#001026" stroke-width="1.2" stroke-linecap="round" stroke-linejoin="round"/><path d="M199.02912,189.98479c1.39383,2.81198 4.2013,6.83294 4.2013,6.83294c0,0 -3.62243,-1.17389 -5.84356,0.36449c-1.79236,1.16937 -1.55783,3.39311 -1.41068,4.10609c-1.19925,-1.39348 -2.66032,-3.30798 -3.39606,-6.8729c-0.73574,-3.56492 0.57522,-7.67848 2.61445,-8.1274c2.02429,-0.24948 2.41084,1.28368 3.83455,3.69678z" fill="#ffffff" stroke="none" stroke-width="1" stroke-linecap="butt" stroke-linejoin="miter"/></g><path d="M232.16798,210.22252c-1.88461,1.06218 -8.39599,4.98673 -16.46067,6.88958l-0.40635,0.06984c-0.40635,0.06984 -0.64315,0.5535 -0.47359,0.96732c1.51596,2.52029 4.24872,7.53846 -1.3629,8.82284c-5.41219,1.29932 -14.23121,-13.50084 -9.76654,-16.87675c1.99928,-1.25415 3.64223,-0.42911 4.50984,0.037c0.48366,0.23679 0.98227,0.27414 1.48834,0.21178c1.22653,-0.30924 3.48014,-0.94266 5.24263,-1.71315c4.45233,-1.87263 5.51677,-2.69541 7.62324,-4.04181c2.10647,-1.3464 6.97002,-4.69243 10.42063,-1.22497c2.98936,2.93151 0.97028,5.78866 -0.81461,6.85831z" fill="#ffab19" stroke="#001026" stroke-width="1.2" stroke-linecap="round" stroke-linejoin="round"/><path d="M244.04266,190.23168c0.44297,0.43623 5.68342,8.07181 7.69534,6.42624c2.41007,-1.91484 5.80951,-5.75687 8.96925,-2.19716c3.15974,3.55971 -3.64408,8.63608 -6.483,9.91525c-6.72156,2.57588 -11.58258,-3.72597 -12.60052,-5.41114c-1.01794,-1.68517 -2.80641,-4.53451 -2.62286,-7.12724c0.29192,-2.78471 3.54557,-3.22876 5.04179,-1.60595z" fill="#ffab19" stroke="#001026" stroke-width="1.2" stroke-linecap="round" stroke-linejoin="round"/><g><path d="M242.62179,214.34752c1.87481,2.05157 6.00032,6.28431 6.00032,6.28431c0,0 13.87411,-1.42476 13.35757,5.75513c-0.30849,4.28798 -7.27549,4.74733 -16.50037,3.12522c-0.56743,-0.14454 -1.12769,-0.38881 -1.57783,-0.82504c-1.97058,-2.05904 -7.60217,-8.11402 -11.15308,-12.30194c-5.23418,-6.22454 -9.65417,-10.37997 -9.65417,-10.37997c-7.54478,-8.91179 -0.68572,-11.88655 2.24436,-16.47144c2.68833,-3.90179 3.68438,-3.02185 9.34434,-1.37698c3.22023,0.75259 5.11405,1.20116 7.22811,1.26579c3.1675,0.1468 2.24854,4.88857 1.20728,7.31435c0,0 -1.60619,3.58508 -2.98747,5.38265c-1.69729,2.17405 -2.95411,3.58021 -4.16789,4.38805z" fill="#ffab19" stroke="#001026" stroke-width="1.2" stroke-linecap="round" stroke-linejoin="round"/><path d="M235.10822,206.34069c0,0 -1.35042,-1.3087 -2.77509,-2.92404c-1.78622,-1.94438 -3.59395,-3.58959 -1.4562,-6.53152c1.896,-2.25883 3.75362,-5.32289 7.85511,-2.09483c3.9243,3.01368 1.92537,5.36476 1.92537,5.36476c-2.42973,4.32308 -5.54917,6.18563 -5.54917,6.18563z" fill="#ffffff" stroke="none" stroke-width="1" stroke-linecap="butt" stroke-linejoin="miter"/></g><path d="M222.00646,198.62187c3.08568,2.60067 7.61873,5.68915 3.97359,10.02595c-5.195,5.18649 -13.14018,-4.84029 -15.17747,-8.52825c-1.81931,-3.26292 0.31449,-6.16251 2.11781,-8.62467c3.58816,-4.56181 6.53387,-8.61126 11.12091,-7.9228c5.71243,0.7762 3.10868,6.17572 1.02188,8.82532c-1.24638,1.61226 -2.46427,3.33703 -3.40867,4.39934c-0.16948,0.63747 -0.1025,1.3375 0.35196,1.8251z" fill="#ffab19" stroke="#001026" stroke-width="1.2" stroke-linecap="round" stroke-linejoin="round"/><g><path d="M259.75587,133.07885c0.32835,-0.14897 0.80565,0.0304 0.8398,0.4413l0.83932,10.97932c0,0 5.55772,5.67114 6.9003,9.23449c2.27056,5.94429 1.64311,10.40145 1.64311,10.40145c0,0 6.66808,3.21817 6.93258,9.03711c0.26449,5.81894 -5.82058,15.7674 -24.97126,16.38525c-19.15068,0.61785 -33.22982,-6.85192 -38.39721,-19.24821c-5.16739,-12.39629 8.08039,-24.01078 7.35916,-23.31808l0.81595,-18.00428c-0.03414,-0.4109 0.50771,-0.62628 0.8702,-0.36435l10.66664,9.74898c0,0 4.71535,-0.95158 9.38602,-0.39054c2.79557,0.25444 5.13186,0.8391 7.33716,1.605z" fill="#ffab19" stroke="#001026" stroke-width="1.2" stroke-linecap="butt" stroke-linejoin="miter"/><path d="M269.61779,164.48176c0,0 6.51912,2.88982 6.78361,8.70876c0.26449,5.81894 -6.13466,15.20941 -25.07181,15.76084c-24.68968,1.02944 -33.71531,-15.03753 -25.39266,-24.41747c8.3388,-9.47863 18.21967,1.3578 26.60641,2.12113c7.18633,0.66838 8.99244,-5.41997 17.07445,-2.17326z" fill="#ffffff" stroke="none" stroke-width="1" stroke-linecap="butt" stroke-linejoin="miter"/><path d="M236.804,169.95854c0.06455,-0.39476 0.50771,-0.62628 0.88634,-0.46304c1.76214,0.99741 6.83319,3.44783 12.69002,4.81077c5.28082,1.16744 8.4873,1.38774 10.01604,1.33372c0.50958,-0.018 0.82366,0.53999 0.54559,1.00117c-1.32389,2.51939 -6.28433,9.30791 -16.5499,7.02145c-8.81938,-2.45532 -8.67484,-8.91667 -7.58809,-13.70405z" fill="#ffffff" stroke="#001026" stroke-width="1.2" stroke-linecap="round" stroke-linejoin="round"/><path d="M287.59915,168.53645c-5.25159,2.99179 -12.37337,1.92865 -12.37337,1.92865" fill="none" stroke="#001026" stroke-width="1.2" stroke-linecap="round" stroke-linejoin="round"/><path d="M284.5089,179.37991c-6.29812,-0.52315 -9.84042,-3.02757 -9.84042,-3.02757" fill="none" stroke="#001026" stroke-width="1.2" stroke-linecap="round" stroke-linejoin="round"/><path d="M252.56813,164.02455c2.07248,0.33887 4.21138,0.89124 4.19711,1.59821c-0.12723,1.39779 -2.05938,3.91905 -3.65455,3.75956c-1.80868,-0.09307 -5.55023,-3.23805 -5.29204,-4.81708c0.09495,-1.20041 2.77571,-0.86342 4.74949,-0.54069z" fill="#001026" stroke="#001026" stroke-width="1.2" stroke-linecap="round" stroke-linejoin="round"/><path d="M208.39991,155.28279c0,0 8.03548,4.15105 10.98937,7.7752" fill="none" stroke="#001026" stroke-width="1.2" stroke-linecap="round" stroke-linejoin="round"/><path d="M219.12057,166.56052c-4.51797,0.98385 -11.64349,-1.29583 -11.64349,-1.29583" fill="none" stroke="#001026" stroke-width="1.2" stroke-linecap="round" stroke-linejoin="round"/><g><path d="M266.10146,154.38199c2.13585,4.90898 1.41158,9.95828 -1.64218,11.28287c-3.05376,1.32458 -7.25461,-1.49017 -9.48915,-6.41529c-2.13585,-4.90898 -1.41158,-9.95828 1.64218,-11.28287c3.0699,-1.42328 7.3533,1.50631 9.48915,6.41529z" fill="#ffffff" stroke="#001026" stroke-width="1.2" stroke-linecap="round" stroke-linejoin="round"/><path d="M264.78692,159.94274c-0.1775,1.08558 -1.11224,1.8447 -2.09914,1.68333c-0.98689,-0.16137 -1.63118,-1.17866 -1.45369,-2.26424c0.1775,-1.08558 1.11224,-1.8447 2.09914,-1.68333c0.98689,0.16137 1.63118,1.17866 1.45369,2.26424" fill="#001026" stroke="none" stroke-width="1" stroke-linecap="butt" stroke-linejoin="miter"/></g><g><path d="M241.17464,153.14345c2.25068,4.82643 1.18193,10.12339 -1.78928,11.5628c-3.56334,1.3426 -7.67977,-0.74906 -9.93045,-5.5755c-2.34937,-4.84257 -1.62697,-10.50014 1.78741,-12.17108c3.43051,-1.76962 7.68165,1.35734 9.93232,6.18377z" fill="#ffffff" stroke="#001026" stroke-width="1.2" stroke-linecap="round" stroke-linejoin="round"/><path d="M239.64659,158.77062c-0.1775,1.08558 -1.11224,1.8447 -2.09914,1.68333c-0.98689,-0.16137 -1.63118,-1.17866 -1.45369,-2.26424c0.1775,-1.08558 1.11224,-1.8447 2.09914,-1.68333c0.97076,0.26006 1.63118,1.17866 1.45369,2.26424" fill="#001026" stroke="none" stroke-width="1" stroke-linecap="butt" stroke-linejoin="miter"/></g></g></g></g></svg>