<svg version="1.1" xmlns="http://www.w3.org/2000/svg" xmlns:xlink="http://www.w3.org/1999/xlink" width="81.24437" height="98.67466" viewBox="0,0,81.24437,98.67466"><g transform="translate(-210.13649,-130.81291)"><g data-paper-data="{&quot;isPaintingLayer&quot;:true}" fill-rule="evenodd" stroke-miterlimit="10" stroke-dasharray="" stroke-dashoffset="0" style="mix-blend-mode: normal"><g><path d="M229.02621,191.29728c-0.70357,-0.77586 -2.17746,-2.47917 1.88404,-5.17249c4.0615,-2.69332 11.88976,-0.53119 12.76297,-0.19193c3.42608,1.20551 7.57381,2.81703 11.56442,6.12627c11.62004,9.53984 6.17371,23.881 1.02625,24.51924c-5.03831,0.68063 -3.45879,-8.88151 -7.38407,-16.56235c-1.68664,-3.41912 -4.51274,-5.52217 -6.92031,-7.08572c-3.45667,-2.09678 -12.16299,-0.70562 -12.93329,-1.63305z" fill="#ffab19" stroke="#001026" stroke-width="1.2" stroke-linecap="round" stroke-linejoin="round"/><path d="M252.66052,210.65577c-0.60138,-3.62558 -2.37355,-9.08797 -2.37355,-9.08797c0,0 3.6569,2.55146 6.67002,1.58649c2.40687,-0.69802 2.90325,-3.26898 2.9818,-4.11784c0.86765,1.97027 1.8507,4.61352 1.45794,8.85786c-0.39278,4.24436 -3.26544,8.40459 -5.7029,8.21132c-2.35264,-0.41157 -2.26227,-2.26087 -3.03329,-5.44987z" fill="#ffffff" stroke="none" stroke-width="1" stroke-linecap="butt" stroke-linejoin="miter"/></g><path d="M236.61344,200.498c-0.34299,2.13597 -1.3288,9.67441 -4.86373,17.1687l-0.19848,0.3614c-0.19848,0.3614 0.03238,0.8479 0.46174,0.97303c2.91592,0.38396 8.54388,1.37198 6.05313,6.56199c-2.35482,5.0433 -19.42636,2.7233 -19.28627,-2.87228c0.26425,-2.34524 1.93307,-3.11661 2.83814,-3.50499c0.48652,-0.23087 0.82631,-0.59766 1.09276,-1.03241c0.5221,-1.15213 1.43036,-3.3097 1.92547,-5.16842c1.30842,-4.64952 1.32782,-5.99474 1.58666,-8.4813c0.25885,-2.48657 0.67078,-8.37557 5.53278,-8.91506c4.15539,-0.51252 5.13284,2.84673 4.85782,4.90934z" fill="#ffab19" stroke="#001026" stroke-width="1.2" stroke-linecap="round" stroke-linejoin="round"/><path d="M247.48707,191.00642c0.35814,0.53079 4.03619,9.22113 6.48161,8.09868c2.91665,-1.28966 7.28823,-4.22039 9.74166,0.00225c2.45344,4.22264 -5.7061,7.54257 -8.9213,8.11052c-7.51022,0.90365 -11.09827,-6.39676 -11.76712,-8.28159c-0.66885,-1.88485 -1.86915,-5.08786 -1.09457,-7.5698c0.92961,-2.64306 4.38376,-2.29839 5.5597,-0.36005z" fill="#ffab19" stroke="#001026" stroke-width="1.2" stroke-linecap="round" stroke-linejoin="round"/><g><path d="M244.92179,213.13151c1.25367,2.0428 4.0527,6.298 4.0527,6.298c0,0 11.65378,0.97171 10.20014,7.00609c-0.86814,3.60387 -6.68354,2.89775 -14.06448,0.06306c-0.44761,-0.2125 -0.87501,-0.5088 -1.1841,-0.95128c-1.33164,-2.06425 -5.11284,-8.10884 -7.44408,-12.23535c-3.42897,-6.12642 -6.48207,-10.36216 -6.48207,-10.36216c-4.95133,-8.77933 1.13491,-10.23284 4.20906,-13.67667c2.7769,-2.90005 3.473,-1.99365 7.90864,0.29893c2.54988,1.14826 4.04862,1.82865 5.78404,2.21668c2.59305,0.62395 1.15616,4.51819 -0.05026,6.42043c0,0 -1.83853,2.80074 -3.23567,4.11432c-1.7118,1.58449 -2.95023,2.58428 -4.06752,3.08121z" fill="#ffab19" stroke="#001026" stroke-width="1.2" stroke-linecap="round" stroke-linejoin="round"/><path d="M239.86672,205.12793c0,0 -0.92721,-1.32744 -1.87182,-2.92776c-1.19591,-1.93754 -2.45237,-3.62365 -0.26718,-5.79285c1.88792,-1.62541 3.85939,-3.94275 6.78234,-0.5471c2.8074,3.18513 0.82131,4.8729 0.82131,4.8729c-2.62376,3.29965 -5.46466,4.3948 -5.46466,4.3948z" fill="#ffffff" stroke="none" stroke-width="1" stroke-linecap="butt" stroke-linejoin="miter"/></g><path d="M234.38664,201.51416c3.27315,1.40235 7.93497,2.84363 5.55191,7.45026c-3.59538,5.7248 -12.69007,-0.70144 -15.24576,-3.29343c-2.27615,-2.28892 -0.95342,-5.29065 0.16212,-7.83733c2.28717,-4.78214 4.10389,-8.96538 8.33333,-9.5669c5.25084,-0.81772 4.00949,4.4186 2.67862,7.19687c-0.78893,1.68452 -1.52992,3.45679 -2.1596,4.5985c-0.02354,0.58262 0.17638,1.1571 0.67938,1.45205z" fill="#ffab19" stroke="#001026" stroke-width="1.2" stroke-linecap="round" stroke-linejoin="round"/><g><path d="M263.62415,136.70383c0.33115,-0.14263 0.80492,0.04588 0.83116,0.45736l0.62815,10.99342c0,0 5.44769,5.77691 6.72156,9.3654c2.15589,5.98683 1.4429,10.43111 1.4429,10.43111c0,0 6.60501,3.34573 6.75762,9.16868c0.15261,5.82295 -6.12254,15.65262 -25.28155,15.9023c-19.15901,0.24968 -33.092,-7.4893 -38.0202,-19.98261c-4.9282,-12.49331 8.54036,-23.85104 7.80595,-23.17233l1.16182,-17.98528c-0.02624,-0.41148 0.51966,-0.61641 0.87704,-0.34757l10.47731,9.95218c0,0 4.73276,-0.86078 9.3918,-0.21008c2.79018,0.30813 5.11478,0.93757 7.30496,1.74571z" fill="#ffab19" stroke="#001026" stroke-width="1.2" stroke-linecap="butt" stroke-linejoin="miter"/><path d="M272.88076,168.29047c0,0 6.46238,3.01458 6.61499,8.83753c0.15261,5.82295 -6.42584,15.08869 -25.37009,15.27607c-24.7049,0.55474 -33.42008,-15.68273 -24.91868,-24.90099c8.51943,-9.31662 18.1902,1.70772 26.56072,2.63209c7.17215,0.80637 9.09495,-5.24614 17.11307,-1.84471z" fill="#ffffff" stroke="none" stroke-width="1" stroke-linecap="butt" stroke-linejoin="miter"/><path d="M239.96778,173.1356c0.07212,-0.39345 0.51966,-0.61641 0.89508,-0.44593c1.74265,1.0311 6.76567,3.57851 12.59522,5.05377c5.25741,1.26871 8.45906,1.5506 9.98857,1.52597c0.50984,-0.00821 0.81313,0.55572 0.52626,1.01146c-1.37206,2.49348 -6.46205,9.18541 -16.68179,6.70207c-8.77056,-2.62436 -8.50188,-9.08175 -7.32331,-13.84735z" fill="#ffffff" stroke="#001026" stroke-width="1.2" stroke-linecap="round" stroke-linejoin="round"/><path d="M290.78085,172.69001c-5.30812,2.89031 -12.40815,1.69049 -12.40815,1.69049" fill="none" stroke="#001026" stroke-width="1.2" stroke-linecap="round" stroke-linejoin="round"/><path d="M287.48276,183.47206c-6.28691,-0.64409 -9.78041,-3.21614 -9.78041,-3.21614" fill="none" stroke="#001026" stroke-width="1.2" stroke-linecap="round" stroke-linejoin="round"/><path d="M255.84304,167.50567c2.06558,0.37864 4.19347,0.97202 4.16562,1.67858c-0.15406,1.39508 -2.13433,3.87874 -3.72613,3.68862c-1.80656,-0.12782 -5.48697,-3.34412 -5.19849,-4.9179c0.118,-1.19836 2.79178,-0.80991 4.759,-0.4493z" fill="#001026" stroke="#001026" stroke-width="1.2" stroke-linecap="round" stroke-linejoin="round"/><path d="M211.85098,157.91667c0,0 7.95421,4.30471 10.83792,7.98496" fill="none" stroke="#001026" stroke-width="1.2" stroke-linecap="round" stroke-linejoin="round"/><path d="M222.35292,169.39835c-4.53605,0.89684 -11.61643,-1.51937 -11.61643,-1.51937" fill="none" stroke="#001026" stroke-width="1.2" stroke-linecap="round" stroke-linejoin="round"/><g><path d="M269.55918,158.12499c2.04111,4.94912 1.21993,9.98358 -1.85872,11.24923c-3.07865,1.26565 -7.22463,-1.62932 -9.3641,-6.59648c-2.04111,-4.94912 -1.21993,-9.98358 1.85872,-11.24923c3.09668,-1.36401 7.32299,1.64735 9.3641,6.59648z" fill="#ffffff" stroke="#001026" stroke-width="1.2" stroke-linecap="round" stroke-linejoin="round"/><path d="M268.13801,163.65945c-0.19833,1.08197 -1.14749,1.82298 -2.13111,1.64268c-0.98361,-0.1803 -1.60823,-1.20979 -1.40989,-2.29177c0.19833,-1.08197 1.14749,-1.82298 2.13111,-1.64268c0.98361,0.1803 1.60823,1.20979 1.40989,2.29177" fill="#001026" stroke="none" stroke-width="1" stroke-linecap="butt" stroke-linejoin="miter"/></g><g><path d="M244.66078,156.4076c2.1575,4.86879 0.98715,10.14424 -2.01117,11.52628c-3.58849,1.27387 -7.66396,-0.89652 -9.82146,-5.76531c-2.25587,-4.88682 -1.42487,-10.52947 2.02099,-12.13448c3.46389,-1.70337 7.65414,1.50472 9.81164,6.37351z" fill="#ffffff" stroke="#001026" stroke-width="1.2" stroke-linecap="round" stroke-linejoin="round"/><path d="M243.02486,162.00437c-0.19833,1.08197 -1.14749,1.82298 -2.13111,1.64268c-0.98361,-0.1803 -1.60823,-1.20979 -1.40989,-2.29177c0.19833,-1.08197 1.14749,-1.82298 2.13111,-1.64268c0.96559,0.27867 1.60823,1.20979 1.40989,2.29177" fill="#001026" stroke="none" stroke-width="1" stroke-linecap="butt" stroke-linejoin="miter"/></g></g></g></g></svg>