<svg version="1.1" xmlns="http://www.w3.org/2000/svg" xmlns:xlink="http://www.w3.org/1999/xlink" width="435.46846" height="73.865" viewBox="0,0,435.46846,73.865"><g transform="translate(-21.23428,-211.66276)"><g data-paper-data="{&quot;isPaintingLayer&quot;:true}" fill-rule="nonzero" stroke-linecap="butt" stroke-linejoin="miter" stroke-miterlimit="10" stroke-dasharray="" stroke-dashoffset="0" style="mix-blend-mode: normal"><path d="M427.61261,238.39344c-0.36569,0.05263 -0.61828,0.05263 -0.61828,0.05263l0.07769,-0.03124c-0.06607,0.00229 -0.13208,0.00445 -0.19802,0.00648c-2.53233,0.64605 -5.26793,0.77474 -7.89718,1.16559c-3.31808,0.49326 -6.41028,1.64753 -9.69274,2.2617c-6.00353,2.04903 -7.31655,6.53002 -11.03489,10.3835c-2.90981,3.01557 -7.82322,4.50053 -11.47964,6.92372c-1.28927,0.85442 -2.18815,2.10188 -3.72049,2.68456c-0.31809,0.12095 -0.64362,0.22726 -0.97499,0.32205c-0.66912,0.08903 -1.34052,0.22281 -1.9721,0.30589c-5.18086,0.68154 -10.69111,2.15619 -16.03603,3.48426c-3.89634,0.48435 -7.93537,0.32463 -11.81748,0.90077c-3.9673,0.58879 -7.75581,1.71921 -11.61318,2.66548c-5.17253,0.49135 -10.34228,0.93273 -15.50796,1.42804c-2.86289,-0.19189 -5.68181,-0.48892 -8.66047,-0.48892c-2.72125,0.31685 -5.15998,1.4522 -7.72261,2.2122c-0.46298,0.13731 -0.93547,0.25483 -1.41536,0.35676c-1.01781,0.1494 -2.03541,0.30557 -3.05277,0.46929c-2.78303,0.30728 -5.66074,0.40135 -8.27513,0.99851c-7.04892,1.61007 -14.18208,3.4373 -21.35778,4.97337c-1.67845,0.3593 -3.29098,0.82925 -4.88532,1.32459c-19.67482,0.18428 -40.49834,-0.64521 -60.039,0.05178c-15.54812,0.55458 -31.02795,1.44066 -46.56446,1.43331c-4.39217,-0.65081 -8.8412,-1.12063 -13.30375,-1.41133c-0.84516,-1.5293 -2.06458,-2.91424 -2.91586,-4.44543c-0.36167,-0.65054 -0.58591,-1.79106 -1.25221,-2.19137c-0.98705,-0.59302 -2.24723,-0.51089 -3.35133,-0.83783c-8.85856,-2.62317 -17.77162,-5.07281 -26.73996,-7.29185c-10.8745,-2.69069 -21.28667,-5.67817 -32.30215,-8.37463c-1.91558,-0.46891 -4.11841,-0.43665 -6.02326,-1.09656c-8.14415,-2.82143 -14.03712,-9.10123 -21.83936,-12.5028c-5.41055,-2.35886 -11.64102,-2.23108 -17.03793,-4.04667c-0.74728,-0.25139 -1.47473,-0.52835 -2.1999,-0.78863c-1.17922,-0.57485 -2.48832,-0.92463 -3.8714,-0.99341c-0.60448,-1.16352 -1.43093,-2.19322 -2.42326,-3.033c-0.26141,-0.27798 -0.54676,-0.53149 -0.86613,-0.74847c-0.9285,-0.63082 -1.95259,-1.05159 -3.01891,-1.28108c-0.37817,-0.08139 -0.76166,-0.13872 -1.14807,-0.17283c-0.08586,-0.46216 -0.16871,-0.92528 -0.31233,-1.36925l-0.0625,-1.62841c-0.00183,-0.03096 -0.00183,-0.04782 -0.00183,-0.04782c0,-1.3836 0,-2.76719 0,-4.15079v-0.59297c0,0 0,-2.5 3.31307,-2.5c0.2966,0 0.56664,0.02004 0.81251,0.05652c12.44254,-3.08001 27.02485,-4.7972 40.05017,-4.80029h4.71493c0,0 3.31307,0 3.31307,2.5c0,0.55929 -0.16582,0.99346 -0.42326,1.3305c6.75307,-0.46316 13.46092,-1.19913 20.26851,-1.34814c19.10871,-0.41826 38.06165,0.15104 57.12886,-1.15248c43.09503,-0.57632 86.29036,-1.32988 129.4203,-1.32988c8.32218,0 16.64811,-0.01021 24.93581,-0.58149c3.45834,-0.23839 6.833,-1.01573 10.29795,-1.19114c13.56587,-0.68677 27.50409,-0.00629 41.09754,-0.00629c14.81637,0 30.02895,-0.74855 44.73885,0.6549c4.55379,1.16681 8.52903,1.11829 13.22336,1.75794c8.34526,1.13712 16.06171,2.33092 24.54899,2.33092h3.9291c0,0 3.31307,0 3.31307,2.5c0,0.26952 -0.03851,0.50999 -0.10722,0.72452c1.17687,0.04954 2.21061,0.15584 2.98796,0.34765c-0.16241,0.33945 -0.32253,0.68404 -0.47995,1.03285c-2.41331,2.2757 -4.07956,5.97129 -5.8042,8.53866c-0.21151,0.31486 -0.42718,0.64522 -0.6467,0.98701c-5.527,1.83844 -11.74892,3.01307 -17.50439,3.26906z" fill="#737373" stroke="#060000" stroke-width="6.5"/><path d="M454.74615,217.67116h-432.60444" fill="none" stroke="#000000" stroke-width="10"/><path d="M356.42738,269.45595c-4.02069,0.54122 -8.69113,0.9027 -12.7571,1.21445c-2.97411,0.22803 -6.32567,-0.54316 -9.25236,-0.03569c-1.24255,0.21546 -2.34052,1.01941 -3.58913,1.19637c-6.11323,0.8664 -12.66369,0.82531 -18.83403,1.23016c-7.73842,0.50774 -15.33731,2.01386 -22.92235,3.5342c-6.21107,1.23964 -12.55557,1.46815 -18.73043,2.42445c-1.43453,0.22217 -2.74954,0.99635 -4.18732,1.19637c-7.01832,0.97638 -14.90846,0.03141 -21.98555,0.03141c-13.55893,0 -27.11785,0 -40.67678,0c-18.38315,0 -36.92168,0.63143 -55.23524,-0.60447c-8.16548,-0.55105 -16.59539,0.40382 -24.64401,-1.20591c-4.53582,0.02686 -8.89133,0.11287 -13.3886,-0.62903c-1.59876,-0.26374 -3.18827,-0.69429 -4.77324,-1.12935c0.17986,0.03142 0.36137,0.05804 0.5444,0.07971c1.80267,0.36136 3.71065,0.21364 6.1884,-1.18012c0.38744,-0.21794 0.73069,-0.48034 1.03856,-0.77838c0.81803,-0.62063 1.5376,-1.36429 2.13115,-2.20341c5.85746,1.78404 12.21013,2.53802 17.16037,3.03541c2.52561,0.25377 5.04053,1.1918 7.57027,1.19638c37.08759,0.06708 74.17545,0.09847 111.26298,0c6.61723,-0.01757 14.03351,-2.10415 20.93658,-2.39275c5.7582,-0.24074 11.29669,-2.83748 17.14127,-2.99094c12.98242,-0.34087 25.23955,-1.32454 37.92463,-3.28951c4.68824,-0.72623 9.10903,-2.66163 13.6911,-3.42386c2.56083,-0.03246 5.11237,-0.08917 7.65915,-0.19071c1.15964,0.98267 2.24246,2.07467 3.56971,2.80178c1.92764,1.05603 4.03074,1.54625 6.22278,1.72572c-0.68285,0.15934 -1.37023,0.29418 -2.0652,0.38773z" fill="#730000" stroke="none" stroke-width="0.5"/><path d="" fill="#730000" stroke="none" stroke-width="0.5"/><path d="M171.78837,279.6495l-1.39146,-0.0251c-6.66111,0.82419 -13.44111,1.06793 -20.07942,-0.01912c0,0 -1.70883,-0.2848 -2.42332,-1.68615c-0.31846,-0.02197 -0.63577,-0.04844 -0.95176,-0.08001c-2.02337,-0.20214 -3.95895,-0.9898 -5.98188,-1.19637c-1.13348,-0.11575 -2.31763,0.22673 -3.41739,-0.07112c-0.77076,-0.20875 -1.47358,-0.57549 -2.13001,-1.03555c-3.95995,-0.3352 -7.90865,-0.81936 -11.85067,-1.41809l-2.87716,-1.39166c0,0 -2.90689,-1.45344 -1.45344,-4.36033c0.14879,-0.29759 0.31282,-0.54948 0.4874,-0.76191c-1.33768,-0.32817 -2.68661,-0.61984 -4.0336,-0.91001c-1.78601,-0.18451 -3.56617,-0.44041 -5.31933,-0.9622c-0.36568,-0.10884 -0.68873,-0.32574 -1.01085,-0.54343c-0.00738,-0.0021 -0.01477,-0.00421 -0.02215,-0.00633c-0.78991,-0.22579 -1.57494,-0.4628 -2.3559,-0.70891c-1.49059,-0.0025 -3.02887,0.43642 -4.50129,0.17964c-5.54841,-0.96763 -11.16432,-2.57721 -16.74926,-3.58913c-4.00974,-0.72652 -8.37035,-0.74985 -12.20911,-2.65093c-2.33587,-1.15679 -4.76534,-2.58032 -7.13246,-4.12333c-1.31549,1.32859 -3.29853,0.66757 -3.29853,0.66757l-2.04706,-0.69419c-1.57637,-0.69685 -3.27211,-1.16987 -4.72912,-2.09056c-1.7736,-1.12075 -2.99782,-3.08435 -4.91969,-3.92587c-4.0384,-1.76827 -8.3035,-3.07966 -12.41093,-4.72062c0,0 -2.99745,-1.19898 -1.82247,-4.19442c-0.91907,-0.33179 -2.01507,-1.12312 -2.01507,-3.01044c0,-0.69896 0.15032,-1.2476 0.38631,-1.67825c-0.53466,-0.86113 -1.19649,-1.63505 -1.95927,-2.29551l0.00001,-0.00001c-0.53178,-1.31636 -0.58411,-2.74627 0.37281,-4.09265c1.13215,-1.59292 3.67249,-1.4886 5.61756,-1.67791c1.32441,-0.1289 2.65133,-0.00438 3.96501,0.28737c0.47348,-0.06373 0.95674,-0.09664 1.44768,-0.09664c1.76451,-1.66917 8.12799,3.19662 9.55216,4.19821c0.05774,0.04061 0.11556,0.081 0.17346,0.12119c2.87913,0.98624 5.7471,2.27438 8.14176,3.53007c1.02382,0.53686 2.21261,0.85985 3.04249,1.66468c0.20641,0.20018 0.39138,0.42024 0.56217,0.6533c4.48865,1.73895 9.02024,3.29047 13.20256,5.59474c2.2498,1.23954 4.92394,1.37769 7.22061,2.72015c2.28379,1.33494 4.70871,2.94962 7.19908,4.64209c0.32162,-0.01697 0.64131,-0.01341 0.95585,0.04628c1.39161,0.26411 2.64512,0.99922 3.93516,1.61402c-1.386,-1.44426 -2.39853,-3.66868 -1.5656,-7.00038l-0.00002,-0.00002c1.87965,-7.5186 9.39826,-5.63895 9.39826,-5.63895l3.96463,1.18139c3.98469,2.03859 8.43093,2.87734 12.58093,4.52849c4.67881,1.86154 9.29781,3.60713 14.10736,5.08269c2.03438,0.62414 4.23022,0.62586 6.25275,1.28738c1.81621,0.59404 3.43967,1.74621 5.29892,2.18742c5.36327,1.27273 10.29843,2.94032 15.04587,5.83183c2.62801,0.82989 5.32032,2.11653 8.1035,2.29035c8.23356,0.5142 16.67574,-0.02641 24.92826,-0.02641c12.94325,0 25.8865,0 38.82975,0c-0.13183,-0.5665 -0.20152,-1.15685 -0.20152,-1.76348c0,-4.28021 3.46979,-7.75 7.75,-7.75h4.16215c1.19686,-1.04 3.17116,0 4.75674,0c2.77477,0 5.54953,0 8.3243,0c11.09906,0 22.19813,0 33.29719,0c4.75931,0 9.49433,0.33551 14.18532,-0.48915l0.60711,-0.30234c0,0 3.89653,-1.29884 6.96185,0.83122c0.06706,-0.00468 0.13407,-0.00913 0.20103,-0.01333c1.77791,-0.11174 3.57612,0.29494 5.34374,0.07367c1.2438,-0.1557 2.33041,-0.98726 3.56756,-1.18919c3.38804,-0.55298 6.88344,-0.37861 10.23976,-1.09954c8.84565,-1.90001 17.10329,-5.4554 26.15204,-6.53825c3.73365,-1.26066 8.18344,-1.62203 11.45308,-4.08045c3.57701,-2.68953 7.64594,-5.83654 11.79036,-7.7908c1.59425,-0.75176 3.23162,-1.46941 4.95119,-1.85653c1.92994,-0.43448 4.02274,0.11978 5.91782,-0.44778c6.86775,-2.05683 13.31945,-2.66502 20.52065,-2.66502c0,0 2.00586,0 3.97665,1.02047c2.07038,-0.95957 4.62364,-1.80196 5.74439,-2.22356l3.02419,-1.20714c0.3008,-0.12822 0.63185,-0.19917 0.97949,-0.19917c1.38071,0 2.5,1.11929 2.5,2.5c0,0.91602 -0.49266,1.71697 -1.22746,2.15235l-3.0796,1.89514c0.05776,0.01166 0.11373,0.02413 0.16784,0.03741c0.05069,0.01245 0.10128,0.02521 0.15177,0.03829l0.00298,-0.02381l0.91362,0.1142c0.30885,-0.30867 0.69807,-0.53692 1.13357,-0.65069l4.07865,-1.16533c0.23453,-0.07283 0.48384,-0.11205 0.74232,-0.11205c0.25417,0 0.49948,0.03793 0.73058,0.10844l1.16423,-0.04492c0.18729,-0.17271 0.40103,-0.31716 0.63446,-0.42658l2.44777,-1.21116l0.02541,0.05135l0.08878,-0.10431c0.05261,0.02084 0.10522,0.04167 0.15783,0.06251l-0.04112,-0.10966l1.07108,-0.40166c0.30848,-0.18893 0.61258,-0.38277 0.90561,-0.589l0.47461,0.06433l-0.05926,-0.21792l2.45618,-0.66792c0.22543,-0.06678 0.46415,-0.10262 0.71124,-0.10262c0.64425,0 1.23158,0.24369 1.67484,0.64392c0.70961,0.13753 1.31214,0.57517 1.6702,1.17552c0.93653,0.13278 1.70607,0.78454 2.00823,1.65487c-0.6004,1.02668 -1.17641,2.02285 -1.75908,2.89024c-1.82033,2.70981 -3.94956,6.56854 -6.17917,8.96966c-1.81259,1.95201 -3.9349,3.68153 -6.28494,4.93577c-1.38948,0.74158 -3.3542,1.64428 -5.46893,2.72084l-0.71066,1.01552c-1.82768,1.73343 -4.19003,2.90204 -6.56392,3.74455c-0.24257,0.09706 -0.48489,0.19223 -0.72699,0.28561c-2.20808,1.89858 -3.81651,4.08444 -4.0362,6.58119c-6.28689,0.93315 -12.70889,3.04366 -19.08541,3.452c-2.29375,0.14689 -4.59581,0.16658 -6.89558,0.21359c-0.40098,-0.41704 -0.83464,-0.81299 -1.28781,-1.1895c-6.5838,1.8292 -13.21067,3.56173 -19.83585,5.13691c-2.95783,0.70324 -6.05373,0.64077 -9.04018,1.21035c-8.7382,1.66658 -16.31426,5.91961 -25.15254,6.04291c0,0 -1.28803,0 -2.24236,-0.81086c-2.48525,0.89456 -5.3353,1.62085 -7.40624,1.96527c-5.5009,0.91486 -11.53221,0.90875 -17.10796,1.23431c-3.59175,0.20972 -7.13734,0.95628 -10.72733,1.19413c-4.79457,0.31766 -9.75568,0.00628 -14.55846,0.00628c-24.25846,0 -48.51694,0 -72.7754,0c-13.30515,0.47508 -26.56036,1.19212 -39.84396,1.38352c-0.81567,0.41105 -1.63455,0.41105 -1.63455,0.41105z" fill="#737373" stroke="none" stroke-width="0.5"/><path d="M388.67099,259.4016c1.82212,-0.13957 3.61296,-0.45389 5.38548,-0.85842c-0.0008,-0.02966 -0.0012,-0.05943 -0.0012,-0.08928c0,-0.25353 0.02903,-0.50029 0.08395,-0.73712c3.25878,-0.87279 6.44411,-2.01283 9.71146,-2.55635c2.56083,-0.03246 5.11237,-0.08917 7.65915,-0.19071c1.15964,0.98267 2.24246,2.07467 3.56971,2.80178c0.68123,0.3732 1.38437,0.67574 2.10562,0.91887c-0.69971,0.30689 -1.40012,0.61127 -2.10145,0.91402c-0.88161,1.50132 -2.82373,1.50132 -2.82373,1.50132c-0.24002,-0.00416 -0.47929,0.00094 -0.71788,0.01419c-2.11176,0.89794 -4.23524,1.79467 -6.37652,2.71397l-2.47661,0.26278c0,0 -0.73448,0 -1.50512,-0.34917c-3.93451,0.99724 -8.11995,1.82523 -11.99356,2.13334c-7.11403,0.56586 -14.41037,-0.0473 -21.46429,-0.59887c-4.53367,-0.35451 -9.14926,-0.41387 -13.76732,-0.23177c0.06849,1.92712 -1.85863,2.89067 -1.85863,2.89067c-6.53641,3.06322 -14.30171,1.11596 -21.37487,1.52932c-8.23498,0.48127 -16.50027,1.8133 -24.74073,2.39664c-6.87889,0.48696 -14.06129,0.00715 -20.89709,-0.61543l-6.25664,-1.2348c0,0 -2.41181,-0.47775 -2.62441,-2.69993c12.65028,-0.00711 25.30056,-0.02558 37.9508,-0.05917c6.61723,-0.01757 14.03351,-2.10415 20.93658,-2.39275c5.7582,-0.24074 11.29669,-2.83748 17.14127,-2.99094c10.51795,-0.27617 20.55984,-0.97424 30.73894,-2.27425c1.90487,0.00399 3.80634,-0.05312 5.69711,-0.19795z" fill="#737373" stroke="none" stroke-width="0.5"/><path d="M42.6744,243.98511c2.2981,-1.83256 4.59619,0 4.59619,0c1.32526,1.0568 3.72909,2.97367 5.16332,4.11737c0.35089,0.07907 0.5721,0.16728 0.5721,0.16728l0.94995,0.38877c6.55267,2.09011 12.90235,5.4758 19.62057,7.11916c1.73639,0.42475 3.41738,0.66823 5.07207,0.92355c1.65415,1.28657 4.85773,1.84751 8.01618,2.10271c0.31963,0.11914 0.64175,0.23801 0.96492,0.35736c0.13123,1.82256 1.03004,3.48111 2.44257,4.77322c0.53723,2.14199 7.28869,3.08455 9.57038,3.37982c3.36817,0.43586 7.65954,0.65656 11.15461,-0.24441c0.06878,0.0046 0.13755,0.009 0.20632,0.01318c1.57134,0.09562 3.1542,0.08297 4.74018,0.04185c5.22389,1.32805 10.69017,2.37784 16.15898,3.52699c0.93667,0.19682 1.79422,0.44248 2.61052,0.68903c1.13937,0.52179 2.41984,0.86979 3.78453,0.99864c1.80267,0.28816 3.71065,0.17036 6.18839,-0.94106c0.38744,-0.17379 0.7307,-0.38303 1.03857,-0.6207c0.07801,-0.0472 0.15512,-0.09528 0.23132,-0.14425c0.85049,0.06584 1.70397,0.18099 2.56133,0.39934c4.17236,1.06257 7.79586,2.37087 11.76427,3.94941c0,0 0.665,0.26514 1.19983,0.79543c1.30936,-0.04556 2.62078,-0.11502 3.92679,-0.11502c8.86577,0 17.04379,-0.71091 25.78598,-1.87278c8.20476,-1.09045 16.15498,-0.98929 24.46182,-0.98929c6.77462,0 13.81988,-0.42609 20.56878,0.00652c2.74822,0.17616 5.35811,1.0472 8.06665,1.45797c1.78843,0.27123 3.6408,-0.03347 5.46129,-0.03347c4.7855,0 9.57101,0 14.35651,0c7.60591,0 15.52165,0.5092 23.09894,0.00652c2.38755,-0.15839 4.70474,-0.75585 7.0884,-0.94793c4.07357,-0.32826 8.9071,0.2263 12.86578,-0.44286c1.05044,-0.17756 1.93608,-0.79398 2.99094,-0.95402c2.054,-0.31162 4.21194,0.13517 6.27623,-0.03415c5.20963,-0.42732 10.70337,-0.55038 15.83395,-1.39332c4.26591,-0.68035 8.577,-2.09561 12.87908,-2.42277c2.18345,-0.16605 4.39762,0.17424 6.58007,0c2.02333,-0.16153 3.9585,-0.79282 5.98188,-0.95402c3.17972,-0.25332 6.44141,0.21375 9.62202,-0.00371c5.64842,-0.38618 11.13174,-1.89831 16.71975,-2.61028c0.23462,0.12722 0.47577,0.24665 0.72557,0.35578c5.82998,2.54687 13.2648,0.96664 19.91155,0.88623c7.53947,-0.09123 16.66636,-3.6038 21.11099,-9.08426c0.63622,-0.04941 1.30631,-0.01376 1.8812,-0.22096c2.00449,-0.72249 3.11438,-3.19667 4.28069,-4.47749c3.07537,-3.37733 8.70094,-6.03098 13.39328,-7.56907c0,0 3.01755,-0.96251 4.22457,1.44376c1.20702,2.40627 -1.81053,3.36878 -1.81053,3.36878c-3.46299,1.06383 -8.30263,3.24485 -10.53424,5.78723c-1.80719,2.05885 -3.4906,4.74619 -6.48669,6.01674c-0.96343,0.40856 -2.18975,0.22506 -3.19793,0.55795c-0.86212,0.28466 -3.12603,2.31934 -3.61356,2.59859c-2.25554,1.29193 -5.37232,3.30358 -7.90663,4.13091c-4.20823,1.3738 -9.29415,1.12838 -13.73389,1.12838c-4.98189,0 -10.27643,-0.4083 -15.23264,-0.01261c-6.44441,0.51449 -12.71025,2.42188 -19.19303,2.86576c-3.14442,0.2153 -6.38325,-0.25413 -9.51999,-0.00371c-2.02333,0.16153 -3.9585,0.79282 -5.98188,0.95402c-3.04261,0.24239 -3.54831,-0.20588 -6.58007,0c-4.03579,0.27406 -8.22761,1.70665 -12.24482,2.34733c-5.36689,0.83507 -11.03519,1.04665 -16.46821,1.46875c-1.88696,0.1466 -3.83284,-0.34765 -5.68753,-0.03415c-1.05044,0.17756 -1.93608,0.79398 -2.99094,0.95402c-4.23845,0.64304 -9.14439,0.17149 -13.45449,0.51116c-2.44382,0.19259 -4.8209,0.79726 -7.26811,0.96012c-7.73229,0.51457 -15.79918,0.00652 -23.55972,0.00652c-6.63702,0 -14.30887,0.88141 -20.85899,-0.03347c-2.52507,-0.35268 -4.92949,-1.25581 -7.48624,-1.40408c-5.23869,-0.30381 -10.66326,0.00652 -15.92069,0.00652c-9.2916,0 -18.4103,-0.30001 -27.58054,0.91876c-9.08835,1.20788 -17.63546,1.9433 -26.85457,1.9433c-0.87098,0 -9.12152,0.00667 -9.4236,-0.02505c-5.32491,-0.55927 -9.49801,-2.17828 -14.15354,-4.06096c-3.29729,-1.33342 -7.1453,-1.71573 -10.64032,-2.65634l-4.46969,-0.43282c0,0 -1.85652,-0.18506 -2.57626,-1.39762c-0.11023,-0.00924 -0.22082,-0.01792 -0.33181,-0.02602c-4.31738,-0.31482 -8.7442,0.2733 -13.07028,0.00609c-3.55688,-0.2197 -7.08559,-0.91814 -10.57618,-1.47484c-7.34085,-1.30136 -12.06872,-6.92128 -19.50968,-8.6629c-2.95429,-0.69147 -6.11304,-0.72964 -9.05516,-1.45336c-6.81363,-1.67605 -13.21528,-5.07174 -19.85984,-7.19117l-1.4428,-0.56526c0,0 -0.20334,-0.08108 -0.47557,-0.24322c-0.93306,-0.21496 -1.56545,-0.71926 -1.56545,-0.71926c-1.39577,-1.11303 -2.79154,-2.22605 -4.18732,-3.33908l-1.19638,-0.95402c0,0 -2.2981,-1.83256 0,-3.66512z" fill="#730000" stroke="none" stroke-width="0.5"/><path d="M436.78563,231.00895h-0.59819c-3.8206,-0.05921 -5.55335,1.56258 -9.12355,2.63556c-0.47733,0.14346 -8.07189,1.47428 -8.82229,1.52705c-16.31365,1.14709 -32.64111,1.29318 -49.05142,1.19638c-15.99804,2.66634 -32.89881,-0.43416 -49.05142,0.59819c-7.09919,0.45372 -14.43709,0.00591 -21.53477,0.59819c-3.83695,0.32018 -7.5938,1.50443 -11.44961,1.80103c-4.11643,0.31664 -8.34783,0.01824 -12.47771,0.01824c-35.69189,0 -71.38377,0 -107.07566,0c-14.55591,0 -29.11182,0 -43.66773,0c-6.51068,0 -13.15879,0.40393 -19.65596,-0.01824c-7.33949,-0.4769 -14.89153,0.05215 -22.217,-0.60465c-6.59551,-0.59135 -12.31224,-2.56167 -19.01901,-1.80584c0,0 -4.8685,0.48685 -7.00648,-3.33883c-6.91137,0.59522 -14.4104,-0.21432 -21.23158,-0.21432c0,0 -7.25,0 -7.25,-7.25c0,-7.25 7.25,-7.25 7.25,-7.25c4.38671,0 8.77343,0 13.16014,0c2.8034,0 5.64279,0.54457 8.40968,0.09361c3.52114,-0.57388 6.96654,-2.09209 10.61612,-2.45108c9.33371,-0.91812 18.88878,0.73578 28.23125,-0.01058c6.56361,-0.52436 13.10985,-1.21315 19.74,-1.22108c13.95772,0 27.91544,0 41.87316,0c7.38863,0 14.90671,0.40866 22.28065,0.01401c17.46488,-0.93472 34.97775,-1.21039 52.49285,-1.21039c13.17266,0 26.59138,0.75211 39.75006,0.00745c4.32194,-0.24458 8.60408,-0.91655 12.89069,-1.17912c15.22127,-0.93237 30.80208,-0.02471 46.06027,-0.02471c3.92109,0 7.56098,-0.31025 11.44982,-0.57995c10.38626,-0.72029 20.89362,0.51711 31.2912,-0.01079c12.27414,-0.62318 24.51152,-0.60563 36.81799,-0.60563c7.57705,0 15.1541,0 22.73115,0c6.3324,0 11.25261,-0.59823 17.00062,1.96178l2.57384,1.64861c0,0 6.03236,4.02158 2.01079,10.05394c-4.02157,6.03236 -10.05394,2.01078 -10.05394,2.01078l-0.66965,-0.49082c-1.71543,4.1012 -6.67435,4.1012 -6.67435,4.1012z" fill="#000000" stroke="none" stroke-width="0.5"/></g></g></svg>