<svg version="1.1" xmlns="http://www.w3.org/2000/svg" xmlns:xlink="http://www.w3.org/1999/xlink" width="160.98371" height="100.45135" viewBox="0,0,160.98371,100.45135"><g transform="translate(-192.32103,-129.89021)"><g data-paper-data="{&quot;isPaintingLayer&quot;:true}" fill-rule="evenodd" stroke-miterlimit="10" stroke-dasharray="" stroke-dashoffset="0" style="mix-blend-mode: normal"><g><path d="M224.70001,201.1c0.8,0.4 2.5,1.3 0.1,4.7c-2.4,3.4 -9.3,4.1 -10.1,4.1c-3.1,0.1 -6.9,0.1 -11.1,-1.3c-12.2,-4 -12.3,-17.1 -8.4,-19.2c3.8,-2.1 5.5,6 11,10.9c2.4,2.2 5.3,3 7.7,3.5c3.4,0.6 9.9,-3.2 10.8,-2.7z" fill="#ffab19" stroke="#001026" stroke-width="1.2" stroke-linecap="round" stroke-linejoin="round"/><path d="M199.90001,193c1.6,2.7 4.7,6.5 4.7,6.5c0,0 -3.7,-0.9 -5.8,0.8c-1.7,1.3 -1.3,3.5 -1.1,4.2c-1.3,-1.3 -2.9,-3.1 -3.9,-6.6c-1,-3.5 0,-7.7 2,-8.3c2,-0.4 2.5,1.1 4.1,3.4z" fill="#ffffff" stroke="none" stroke-width="1" stroke-linecap="butt" stroke-linejoin="miter"/></g><path d="M229.70001,211.5c-1.8,1.2 -8,5.6 -15.9,8.1l-0.4,0.1c-0.4,0.1 -0.6,0.6 -0.4,1c1.7,2.4 4.8,7.2 -0.7,8.9c-5.3,1.7 -15.2,-12.4 -11,-16.1c1.9,-1.4 3.6,-0.7 4.5,-0.3c0.5,0.2 1,0.2 1.5,0.1c1.2,-0.4 3.4,-1.2 5.1,-2.1c4.3,-2.2 5.3,-3.1 7.3,-4.6c2,-1.5 6.6,-5.2 10.3,-2c3.2,2.7 1.4,5.7 -0.3,6.9z" fill="#ffab19" stroke="#001026" stroke-width="1.2" stroke-linecap="round" stroke-linejoin="round"/><path d="M245.60001,190.7c0.5,0.4 6.6,7.6 8.6,5.8c2.4,-2.1 5.7,-6.2 9.3,-2.9c3.6,3.3 -3.2,8.9 -6.1,10.4c-6.9,3.1 -12.5,-2.8 -13.7,-4.4c-1.2,-1.6 -3.3,-4.3 -3.3,-6.9c0.1,-2.8 3.5,-3.5 5.2,-2z" fill="#ffab19" stroke="#001026" stroke-width="1.2" stroke-linecap="round" stroke-linejoin="round"/><g><path d="M245.70001,214c2.1,1.9 6.7,5.8 6.7,5.8c0,0 14.3,-2.5 14.3,4.7c0,4.3 -7.2,5.3 -16.9,4.4c-0.6,-0.1 -1.2,-0.3 -1.7,-0.7c-2.2,-1.9 -8.5,-7.5 -12.5,-11.4c-5.9,-5.8 -10.8,-9.6 -10.8,-9.6c-8.5,-8.3 -1.6,-11.8 1.1,-16.6c2.5,-4.1 3.6,-3.3 9.6,-2.1c3.4,0.5 5.4,0.8 7.6,0.7c3.3,-0.1 2.7,4.7 1.8,7.2c0,0 -1.4,3.7 -2.7,5.6c-1.6,2.3 -2.8,3.8 -4,4.7z" fill="#ffab19" stroke="#001026" stroke-width="1.2" stroke-linecap="round" stroke-linejoin="round"/><path d="M237.30001,206.6c0,0 -1.5,-1.2 -3.1,-2.7c-2,-1.8 -4,-3.3 -2,-6.4c1.8,-2.4 3.5,-5.6 8,-2.7c4.3,2.7 2.4,5.2 2.4,5.2c-2.2,4.5 -5.3,6.6 -5.3,6.6z" fill="#ffffff" stroke="none" stroke-width="1" stroke-linecap="butt" stroke-linejoin="miter"/></g><path d="M222.20001,198.4c2.2,2.8 5.6,6.3 1.3,9.2c-5.9,3.3 -10.8,-6.7 -11.8,-10.2c-0.9,-3.1 1.7,-5.1 3.9,-6.8c4.3,-3.1 7.9,-5.9 11.9,-4.4c5,1.8 1.4,5.8 -1.1,7.6c-1.5,1.1 -3,2.3 -4.1,3c-0.3,0.5 -0.4,1.1 -0.1,1.6z" fill="#ffab19" stroke="#001026" stroke-width="1.2" stroke-linecap="round" stroke-linejoin="round"/><g><path d="M258.47283,135.77471c0.33112,-0.14269 0.80493,0.04574 0.83124,0.45721l0.63004,10.99332c0,0 5.44868,5.77597 6.72316,9.36425c2.15692,5.98646 1.44468,10.43086 1.44468,10.43086c0,0 6.60558,3.34459 6.75919,9.16751c0.15361,5.82292 -6.11986,15.65367 -25.27882,15.90663c-19.15896,0.25297 -33.09329,-7.48362 -38.02363,-19.97609c-4.93034,-12.49246 8.53626,-23.85251 7.80197,-23.17367l1.15874,-17.98547c-0.02631,-0.41147 0.51955,-0.6165 0.87698,-0.34771l10.47902,9.95038c0,0 4.73262,-0.86159 9.39176,-0.2117c2.79023,0.30765 5.11494,0.93669 7.30526,1.74446z" fill="#ffab19" stroke="#001026" stroke-width="1.2" stroke-linecap="butt" stroke-linejoin="miter"/><path d="M267.73481,167.35978c0,0 6.46289,3.01347 6.6165,8.83639c0.15361,5.82292 -6.42324,15.08979 -25.36747,15.28043c-24.70481,0.55898 -33.42277,-15.677 -24.92296,-24.89671c8.51783,-9.31808 18.1905,1.7046 26.56118,2.62753c7.17229,0.80514 9.09404,-5.2477 17.11275,-1.84764z" fill="#ffffff" stroke="none" stroke-width="1" stroke-linecap="butt" stroke-linejoin="miter"/><path d="M234.82266,172.21055c0.07205,-0.39345 0.51955,-0.6165 0.89499,-0.44608c1.74282,1.0308 6.76629,3.57735 12.59609,5.05161c5.25763,1.26781 8.45932,1.54915 9.98883,1.52426c0.50983,-0.0083 0.81323,0.55557 0.52643,1.01137c-1.37163,2.49371 -6.46048,9.18652 -16.68065,6.70494c-8.77101,-2.62285 -8.50344,-9.08029 -7.32569,-13.8461z" fill="#ffffff" stroke="#001026" stroke-width="1.2" stroke-linecap="round" stroke-linejoin="round"/><path d="M343.20769,177.4153c-5.30762,2.89121 -69.12068,-3.8091 -69.12068,-3.8091" fill="none" stroke="#001026" stroke-width="1.2" stroke-linecap="round" stroke-linejoin="round"/><path d="M272.55849,179.3244c0,0 55.17272,4.04329 61.45974,4.6863" fill="none" stroke="#001026" stroke-width="1.2" stroke-linecap="round" stroke-linejoin="round"/><path d="M250.69695,166.5779c2.06564,0.37828 4.19363,0.9713 4.16591,1.67786c-0.15382,1.39511 -2.13366,3.87911 -3.7255,3.68926c-1.80658,-0.12751 -5.48755,-3.34317 -5.19933,-4.91701c0.1178,-1.19838 2.79164,-0.81039 4.75893,-0.45012z" fill="#001026" stroke="#001026" stroke-width="1.2" stroke-linecap="round" stroke-linejoin="round"/><path d="M217.54254,164.97954c-2.88433,-3.67975 135.1622,36.07009 135.1622,36.07009" fill="none" stroke="#001026" stroke-width="1.2" stroke-linecap="round" stroke-linejoin="round"/><path d="M339.55709,213.69224c0,0 -126.88581,-44.31829 -122.34992,-45.21591" fill="none" stroke="#001026" stroke-width="1.2" stroke-linecap="round" stroke-linejoin="round"/><g><path d="M264.41149,157.19485c2.04196,4.94878 1.22165,9.98336 -1.85679,11.24955c-3.07844,1.26618 -7.22491,-1.62808 -9.36524,-6.59487c-2.04196,-4.94878 -1.22165,-9.98336 1.85679,-11.24955c3.09645,-1.36455 7.32328,1.64609 9.36524,6.59487z" fill="#ffffff" stroke="#001026" stroke-width="1.2" stroke-linecap="round" stroke-linejoin="round"/><path d="M262.99127,162.72957c-0.19814,1.082 -1.14718,1.82318 -2.13082,1.64305c-0.98364,-0.18013 -1.60844,-1.20951 -1.41029,-2.29153c0.19814,-1.082 1.14718,-1.82318 2.13082,-1.64305c0.98364,0.18013 1.60844,1.20951 1.41029,2.29153" fill="#001026" stroke="none" stroke-width="1" stroke-linecap="butt" stroke-linejoin="miter"/></g><g><path d="M239.51279,155.48176c2.15834,4.86842 0.98889,10.14407 -2.0092,11.52662c-3.58828,1.27449 -7.66411,-0.89521 -9.82245,-5.76363c-2.2567,-4.88643 -1.42667,-10.52922 2.01891,-12.13483c3.4636,-1.70396 7.6544,1.5034 9.81274,6.37183z" fill="#ffffff" stroke="#001026" stroke-width="1.2" stroke-linecap="round" stroke-linejoin="round"/><path d="M237.87783,161.07879c-0.19814,1.082 -1.14718,1.82318 -2.13082,1.64305c-0.98364,-0.18013 -1.60844,-1.20951 -1.41029,-2.29153c0.19814,-1.082 1.14718,-1.82318 2.13082,-1.64305c0.96563,0.2785 1.60844,1.20951 1.41029,2.29153" fill="#001026" stroke="none" stroke-width="1" stroke-linecap="butt" stroke-linejoin="miter"/></g></g></g></g></svg>