<svg version="1.1" xmlns="http://www.w3.org/2000/svg" xmlns:xlink="http://www.w3.org/1999/xlink" width="122.09645" height="105.65785" viewBox="0,0,122.09645,105.65785"><g transform="translate(-192.22887,-132.0224)"><g data-paper-data="{&quot;isPaintingLayer&quot;:true}" stroke-miterlimit="10" stroke-dasharray="" stroke-dashoffset="0" style="mix-blend-mode: normal"><g fill-rule="evenodd"><path d="M222.27434,201.13431c0.6639,0.54802 2.06133,1.75663 -1.16046,4.1654c-3.22179,2.40877 -10.0577,1.33844 -10.82856,1.14284c-3.01385,-0.66985 -6.67547,-1.59896 -10.34815,-3.85934c-10.6861,-6.50714 -7.27943,-18.07337 -2.9599,-18.97002c4.22317,-0.9211 3.69527,6.63107 7.6847,12.29299c1.72431,2.52512 4.30478,3.93902 6.48367,4.96635c3.11574,1.35994 10.39518,-0.3988 11.1287,0.26179z" fill="#ffab19" stroke="#001026" stroke-width="1.2" stroke-linecap="round" stroke-linejoin="round"/><path d="M200.54344,187.93413c0.81974,2.77004 2.79071,6.876 2.79071,6.876c0,0 -3.3246,-1.69761 -5.80272,-0.71327c-1.98572,0.72971 -2.18858,2.76583 -2.18305,3.43147c-0.90503,-1.46322 -1.96544,-3.44032 -1.9931,-6.7685c-0.02766,-3.32818 2.05903,-6.7841 4.14664,-6.82373c2.03413,0.13658 2.11481,1.58041 3.04151,3.99803z" fill="#ffffff" stroke="none" stroke-width="1" stroke-linecap="butt" stroke-linejoin="miter"/></g><path d="M233.58302,207.27799c-1.61028,1.2861 -7.13504,5.96911 -14.42862,8.98779l-0.37147,0.12761c-0.37147,0.12761 -0.52042,0.61852 -0.29789,0.98182c1.80972,2.13888 5.14441,6.44116 0.06329,8.50433c-4.8913,2.04681 -15.44033,-10.52624 -11.75657,-14.38135c1.68886,-1.4841 3.35957,-0.95871 4.24648,-0.65265c0.49091,0.14894 0.96547,0.10806 1.43185,-0.02772c1.10623,-0.47776 3.12887,-1.41692 4.66878,-2.41012c3.9013,-2.43961 4.77683,-3.37558 6.55243,-4.96276c1.77559,-1.58719 5.83899,-5.47501 9.61234,-2.74036c3.25791,2.30098 1.79479,5.29547 0.27942,6.5734z" fill="#ffab19" fill-rule="evenodd" stroke="#001026" stroke-width="1.2" stroke-linecap="round" stroke-linejoin="round"/><path d="M243.45496,190.23168c0.39146,0.43623 5.02263,8.07181 6.80064,6.42624c2.12987,-1.91484 5.13407,-5.75687 7.92644,-2.19716c2.79237,3.55971 -3.2204,8.63608 -5.72926,9.91525c-5.94009,2.57588 -10.23594,-3.72597 -11.13552,-5.41114c-0.89959,-1.68517 -2.48012,-4.53451 -2.31791,-7.12724c0.25798,-2.78471 3.13335,-3.22876 4.45561,-1.60595z" fill="#ffab19" fill-rule="evenodd" stroke="#001026" stroke-width="1.2" stroke-linecap="round" stroke-linejoin="round"/><g fill-rule="evenodd"><path d="M244.90142,213.91078c2.13239,2.05157 6.8247,6.28431 6.8247,6.28431c0,0 18.26398,-1.8615 17.67648,5.31839c-0.35087,4.28798 -10.75878,5.18407 -21.25106,3.56196c-0.64539,-0.14454 -1.28262,-0.38881 -1.7946,-0.82504c-2.24132,-2.05904 -8.64662,-8.11402 -12.6854,-12.30194c-0.75721,-0.79171 -1.49942,-1.54994 -2.21822,-2.2704c-4.93258,-4.94398 -8.76232,-8.10957 -8.76232,-8.10957c-8.58136,-8.91179 -0.77993,-11.88655 2.55271,-16.47144c3.05768,-3.90179 4.19057,-3.02185 10.62816,-1.37698c3.66265,0.75259 5.81666,1.20116 8.22118,1.26579c3.60268,0.1468 2.55747,4.88857 1.37315,7.31435c0,0 -1.82686,3.58508 -3.39792,5.38265c-1.93048,2.17405 -3.35997,3.58021 -4.74051,4.38805z" fill="#ffab19" stroke="#001026" stroke-width="1.2" stroke-linecap="round" stroke-linejoin="round"/><path d="M236.35556,205.90395c0,0 -1.53595,-1.3087 -3.15636,-2.92404c-2.03162,-1.94438 -4.08772,-3.58959 -1.65626,-6.53152c2.15649,-2.25883 4.26933,-5.32289 8.93432,-2.09483c4.46346,3.01368 2.1899,5.36476 2.1899,5.36476c-2.76355,4.32308 -6.31157,6.18563 -6.31157,6.18563z" fill="#ffffff" stroke="none" stroke-width="1" stroke-linecap="butt" stroke-linejoin="miter"/></g><path d="M272.80494,215.09446c10.85179,-2.7885 24.55223,-7.67755 34.41844,3.63787c11.01684,15.05012 -27.12234,18.6244 -40.3218,18.33169c-11.69396,-0.22843 -18.57448,-7.24301 -24.42502,-13.18375c-10.60848,-11.45553 -20.24961,-21.18958 -13.84723,-28.77504c7.72468,-9.53437 21.81972,1.04027 27.9788,7.69882c3.76968,4.00914 7.91051,8.08835 10.27905,10.95366c1.79319,0.99798 3.99933,1.6342 5.91775,1.33673z" fill="#ffab19" fill-rule="evenodd" stroke="#001026" stroke-width="1.2" stroke-linecap="round" stroke-linejoin="round"/><g fill-rule="evenodd"><path d="M267.44481,140.49269c0.34119,-0.11661 0.79896,0.10796 0.79332,0.52024l-0.22356,11.00908c0,0 4.98482,6.18075 5.97745,9.85698c1.68664,6.13557 0.63222,10.51144 0.63222,10.51144c0,0 6.3266,3.84631 6.02862,9.66363c-0.29799,5.81732 -7.31423,15.13249 -26.43521,13.90035c-19.12099,-1.23213 -32.41402,-10.02503 -36.36168,-22.86192c-3.94766,-12.8369 10.35858,-23.11947 9.5739,-22.49957l2.54868,-17.84164c0.00565,-0.41228 0.56575,-0.57439 0.90128,-0.27872l9.67661,10.73234c0,0 4.78515,-0.49234 9.37993,0.51657c2.758,0.52289 5.027,1.33016 7.14815,2.30519z" fill="#ffab19" stroke="#001026" stroke-width="1.2" stroke-linecap="butt" stroke-linejoin="miter"/><path d="M274.23192,172.7004c0,0 6.21,3.50512 5.91201,9.32244c-0.29799,5.81732 -7.57302,14.54681 -26.47507,13.26916c-24.67386,-1.35671 -32.10773,-18.2193 -22.91918,-26.75278c9.21415,-8.63015 18.00376,3.10878 26.27778,4.67746c7.08836,1.35839 9.47328,-4.52737 17.20446,-0.51628z" fill="#ffffff" stroke="none" stroke-width="1" stroke-linecap="butt" stroke-linejoin="miter"/><path d="M241.04288,174.98672c0.10232,-0.38669 0.56575,-0.57439 0.92687,-0.37539c1.65772,1.16272 6.46878,4.09082 12.16685,6.01231c5.1436,1.67134 8.31388,2.19988 9.8407,2.29356c0.50894,0.03123 0.76774,0.61692 0.44648,1.04913c-1.56072,2.37995 -7.15279,8.65838 -17.14997,5.39246c-8.54144,-3.29451 -7.77437,-9.7118 -6.23094,-14.37204z" fill="#ffffff" stroke="#001026" stroke-width="1.2" stroke-linecap="round" stroke-linejoin="round"/><path d="M291.73837,178.4705c-5.51567,2.47132 -12.5017,0.72623 -12.5017,0.72623" fill="none" stroke="#001026" stroke-width="1.2" stroke-linecap="round" stroke-linejoin="round"/><path d="M287.61666,188.96535c-6.2183,-1.12817 -9.50253,-3.96257 -9.50253,-3.96257" fill="none" stroke="#001026" stroke-width="1.2" stroke-linecap="round" stroke-linejoin="round"/><path d="M257.30585,170.60086c2.03013,0.53718 4.10578,1.29328 4.02339,1.99557c-0.26146,1.379 -2.42778,3.70215 -4.00013,3.38955c-1.79127,-0.26709 -5.21204,-3.75828 -4.80275,-5.30504c0.21029,-1.18566 2.84605,-0.59167 4.7795,-0.08008z" fill="#001026" stroke="#001026" stroke-width="1.2" stroke-linecap="round" stroke-linejoin="round"/><path d="M214.18671,157.63979c0,0 7.59764,4.90673 10.18821,8.79889" fill="none" stroke="#001026" stroke-width="1.2" stroke-linecap="round" stroke-linejoin="round"/><path d="M223.76963,169.89895c-4.5918,0.5435 -11.46422,-2.41282 -11.46422,-2.41282" fill="none" stroke="#001026" stroke-width="1.2" stroke-linecap="round" stroke-linejoin="round"/><g><path d="M271.70611,162.30856c1.65242,5.0921 0.44451,10.048 -2.72277,11.07188c-3.16728,1.02387 -7.07706,-2.18294 -8.82615,-7.30062c-1.65242,-5.0921 -0.44451,-10.048 2.72277,-11.07188c3.19286,-1.12055 7.17373,2.20852 8.82615,7.30062z" fill="#ffffff" stroke="#001026" stroke-width="1.2" stroke-linecap="round" stroke-linejoin="round"/><path d="M269.86137,167.71659c-0.28138,1.0634 -1.28498,1.72882 -2.25171,1.47302c-0.96672,-0.2558 -1.50989,-1.33049 -1.22852,-2.39389c0.28138,-1.0634 1.28498,-1.72882 2.25171,-1.47302c0.96672,0.2558 1.50989,1.33049 1.22852,2.39389" fill="#001026" stroke="none" stroke-width="1" stroke-linecap="butt" stroke-linejoin="miter"/></g><g><path d="M247.01497,158.67158c1.77467,5.02101 0.20001,10.19019 -2.89618,11.33631c-3.67622,0.99265 -7.57172,-1.48629 -9.34639,-6.50731c-1.87135,-5.04659 -0.60664,-10.60811 2.95299,-11.94194c3.5852,-1.43049 7.51492,2.09191 9.28958,7.11292z" fill="#ffffff" stroke="#001026" stroke-width="1.2" stroke-linecap="round" stroke-linejoin="round"/><path d="M244.9513,164.12513c-0.28138,1.0634 -1.28498,1.72882 -2.25171,1.47302c-0.96672,-0.2558 -1.50989,-1.33049 -1.22852,-2.39389c0.28138,-1.0634 1.28498,-1.72882 2.25171,-1.47302c0.94115,0.35248 1.50989,1.33049 1.22852,2.39389" fill="#001026" stroke="none" stroke-width="1" stroke-linecap="butt" stroke-linejoin="miter"/></g></g><path d="M311.25723,224.78634c0,1.25 -1.25,1.25 -1.25,1.25c-3.74493,0 -8.04704,0 -11.79197,0c0,0 -1.25,0 -1.25,-1.25c0,-1.25 1.25,-1.25 1.25,-1.25c3.74493,0 7.48986,0 11.23479,0h0.55718c0,0 1.25,0 1.25,1.25z" fill="#b3b3b3" fill-rule="nonzero" stroke="none" stroke-width="0.5" stroke-linecap="butt" stroke-linejoin="miter"/><path d="M270.26392,215.99133c-0.38098,0 -0.72215,-0.17044 -0.95142,-0.43923c-4.5477,-0.00477 -9.42151,0.07213 -13.87613,-0.63679c-1.17816,-0.1875 -2.32258,-0.68361 -3.5155,-0.67094c0,0 -0.49863,0 -0.86604,-0.31493c-2.97435,-0.1979 -5.95164,-0.51304 -8.94774,-1.01229c0,0 -1.23299,-0.2055 -1.02749,-1.43849c0.2055,-1.23299 1.43849,-1.02749 1.43849,-1.02749c7.78612,1.29794 15.44404,1.32244 23.26094,1.30169c0.07267,-0.00849 0.1175,-0.00849 0.1175,-0.00849c0.11557,0.00057 0.23013,0.00304 0.34379,0.00722c1.19147,-0.00336 2.38675,-0.00721 3.58687,-0.00721h0.43674c0,0 0.9279,0 1.18478,0.79946c0.16932,0.0204 0.34046,0.0382 0.51379,0.05277c2.9116,0.24488 5.91452,0.13133 8.87784,0.06157c0.20117,-0.91381 1.21557,-0.91381 1.21557,-0.91381c4.51298,0 9.02595,0 13.53893,0h0.87348c0,0 1.25,0 1.25,1.25h-0.00001c0,0.74039 -0.43855,1.04224 -0.79612,1.1653c1.87178,-0.26706 3.6863,-0.63325 5.63991,-0.66817l0.89405,-0.00017c0,0 1.25,0 1.25,1.25c0,1.25 -1.25,1.25 -1.25,1.25l-0.85291,-0.00017c-0.97499,0.01455 -1.91221,0.11708 -2.83925,0.24935c-0.06391,0.12272 -0.14566,0.22131 -0.23577,0.30052c3.82606,-0.03074 7.56095,-0.17797 11.38415,-0.81488l1.85662,-0.45245c0,0 1.21459,-0.29543 1.51001,0.91916c0.29543,1.21459 -0.91916,1.51001 -0.91916,1.51001l-1.94621,0.47251c-1.77641,0.29619 -3.53421,0.49313 -5.29031,0.62356c0.23197,0.09038 0.46039,0.27593 0.63455,0.62425c0.26114,0.52227 0.15632,0.92256 -0.02954,1.20086c0.09817,0.16896 0.16151,0.387 0.16151,0.66839c0,1.25 -1.25,1.25 -1.25,1.25c-2.62874,-0.00118 -5.25867,-0.14536 -7.88666,-0.37548c-1.59563,-0.01178 -3.19311,-0.06127 -4.77879,-0.06127c0,0 -0.24508,0 -0.5182,-0.10852c-0.1645,0.982 -1.22875,0.982 -1.22875,0.982h-0.87348c-1.24241,0 -2.40836,0.05503 -3.54161,0.03004c0.00255,0.03184 0.00393,0.0643 0.00392,0.09726c2.19835,-0.00308 4.39667,-0.00688 6.59485,-0.00688h0.43674c0,0 1.25,0 1.25,1.25c0,1.25 -1.25,1.25 -1.25,1.25h-0.43674c-0.41153,0 -0.82306,0.00013 -1.2346,0.00037c5.11808,0.7254 10.62869,0.55681 15.64701,0.55681h1.74696c0,0 1.25,0 1.25,1.25c0,1.25 -1.25,1.25 -1.25,1.25h-1.74696c-3.82025,0 -7.8859,0.07317 -11.87001,-0.18633c0.01159,0.07624 0.01782,0.15828 0.01782,0.24655l0.00002,0.00001c0,0.16687 -0.02228,0.31145 -0.06088,0.43674c0.00604,0.0196 0.01168,0.03967 0.01689,0.06022c1.84698,0 3.69396,0 5.54094,0h1.98784c0,0 1.25,0 1.25,1.25c0,1.25 -1.25,1.25 -1.25,1.25c-3.05348,0 -6.59229,0 -10.13681,0c-0.18731,0.69201 -0.97327,0.8492 -0.97327,0.8492l-2.24247,0.44704c-1.33265,0.13721 -2.64849,0.26892 -3.95793,0.38694c-0.30855,0.3972 -0.82735,0.48355 -0.82735,0.48355l-1.05064,0.17487c-1.33097,0.22153 -2.67266,0.47803 -4.01961,0.73458c0.00044,0.01368 0.00067,0.02742 0.00067,0.04121c0,0.69036 -0.55964,1.25 -1.25,1.25c-0.54557,0 -1.0095,-0.34951 -1.18011,-0.83683c-2.00013,0.36121 -4.00462,0.67662 -5.99575,0.83299c-4.96281,0.38976 -10.11782,0.00384 -15.09787,0.00384c0,0 -1.25,0 -1.25,-1.25c0,-0.14421 0.01664,-0.27179 0.04607,-0.38464c-2.0907,-0.04444 -4.17411,-0.11232 -6.22065,-0.11232c0,0 -1.25,0 -1.25,-1.25c0,-1.25 1.25,-1.25 1.25,-1.25c2.36207,0 4.7843,0.10117 7.21023,0.14665c-0.12135,-0.06415 -0.2414,-0.15255 -0.34178,-0.27439c-2.25756,-0.13803 -4.49761,-0.40589 -6.70287,-0.89595c0,0 -0.85999,-0.19111 -0.97559,-0.97441c-0.89714,-0.21954 -1.7921,-0.48961 -2.68608,-0.82237c0,0 -1.17041,-0.4389 -0.73151,-1.60932c0.1247,-0.33253 0.30844,-0.53515 0.50762,-0.65485c-0.11797,-0.19768 -0.18432,-0.46025 -0.14082,-0.80825c0.15504,-1.24035 1.39539,-1.0853 1.39539,-1.0853c6.16205,0.77073 12.18294,0.86383 18.38389,0.86383h0.67762c0,0 0.62009,0 0.98678,0.43674c2.00017,0 4.00035,0 6.00052,0c0.00035,0 0.00053,0 0.00053,0c2.0378,0 4.07656,0 6.11437,0h1.31022c0,0 1.16079,0 1.24517,1.11861c0.40447,0.06155 0.80922,0.12211 1.21417,0.18118c0.78155,0.00687 1.56314,0.01043 2.34479,0.01043c0,0 0.00012,0 0.00036,0c1.14015,0 2.2803,0 3.42044,0c-0.22331,-0.05046 -0.4456,-0.10302 -0.66679,-0.15776c0,0 -1.21268,-0.30317 -0.90951,-1.51585c0.01673,-0.06692 0.03623,-0.12922 0.05814,-0.18722c-4.87962,0.00689 -9.75944,0.01085 -14.63846,-0.03754c-4.01191,-0.03979 -8.11106,0.08834 -12.02478,-0.87984c0,0 -1.21268,-0.30317 -0.90951,-1.51585c0.30317,-1.21268 1.51585,-0.90951 1.51585,-0.90951c0.44391,0.11229 0.89117,0.20869 1.34114,0.29146c-0.15953,-0.18396 -0.27388,-0.44768 -0.27388,-0.82575c0,-1.25 1.25,-1.25 1.25,-1.25c0.30111,0 0.61056,0 0.92698,0c-3.85395,-0.28474 -7.70768,-0.575 -11.54677,-1.00156l-0.2987,0.00765c0,0 -1.25,0 -1.25,-1.25c0,-1.25 1.25,-1.25 1.25,-1.25l0.57478,0.00765c8.58439,0.95382 17.24052,1.2301 25.8107,2.27918c-0.09908,-0.19092 -0.15091,-0.43742 -0.1112,-0.75511c0.01604,-0.12834 0.0437,-0.24174 0.08041,-0.34192c-0.66805,0 -1.34644,0 -1.89723,0c0,0 -1.25,0 -1.25,-1.25c0,-1.25 1.25,-1.25 1.25,-1.25c1.01906,0 2.03812,0 3.05718,0h0.43674c0,0 1.25,0 1.25,1.25h-0.00001c0,0.28805 -0.06638,0.50972 -0.16854,0.68031c1.43727,0.1869 2.8775,0.38511 4.32004,0.58456c-0.36274,-0.23274 -0.71168,-0.50337 -1.04451,-0.81773c0,0 -0.19586,-0.19586 -0.31098,-0.49537c-0.47703,-0.00747 -0.95239,-0.01199 -1.42556,-0.01199c0,0 -1.25,0 -1.25,-1.25c0,-0.1849 0.02735,-0.34246 0.07396,-0.4767c-2.92385,0.05496 -5.89991,0.19242 -8.80401,0.03337c-0.37028,0.38319 -0.93864,0.38311 -0.93864,0.38311l-0.79739,-0.00012c-0.22925,0.26742 -0.56954,0.43686 -0.9494,0.43686zM296.45081,216.86469c-0.28527,-0.00796 -0.57013,-0.01719 -0.85463,-0.02744c-0.08577,0.0082 -0.17179,0.01594 -0.25808,0.02319c-1.97081,0.16546 -3.98404,0.17172 -6.00054,0.13415c2.12788,0.35688 4.68672,-0.00929 6.57356,-0.00934h0.44388c0.03743,-0.04458 0.0775,-0.08461 0.11929,-0.12056zM296.90504,219.48525h-0.99392c-0.00339,0 -0.00678,0 -0.01017,0c0.69389,0.07172 1.38795,0.13832 2.08212,0.1987c2.20361,0.01686 4.40285,-0.05724 6.53814,-0.49072l0.55081,-0.32387c-2.37626,0.14234 -4.75559,0.17487 -7.17985,0.17874c-0.36665,0.43716 -0.98713,0.43716 -0.98713,0.43716zM275.12827,232.64766c0,-1.25 1.25,-1.25 1.25,-1.25c1.86964,0 3.69839,-0.06803 5.51789,-0.18005c-0.12903,-0.17895 -0.2168,-0.42241 -0.2168,-0.75364c0,-0.20413 0.03334,-0.37492 0.08912,-0.51783c-2.45882,-0.03016 -4.91717,-0.09186 -7.37507,-0.17745c0.10733,0.17253 0.17768,0.39873 0.17768,0.69528c0,1.25 -1.25,1.25 -1.25,1.25l-1.30561,-0.00006c-0.00303,0.00006 -0.00461,0.00006 -0.00461,0.00006h-0.87263c-0.00056,0 -0.00085,0 -0.00085,0c-0.23118,0 -0.46787,0 -0.70919,0c-0.91646,0.00024 -1.83601,0.011 -2.75748,0.02607c0.15154,0.15326 0.27427,0.37383 0.33018,0.68995c0.13824,0.78168 -0.30772,1.15474 -0.65163,1.32293c1.43622,-0.01016 2.86515,-0.05677 4.27785,-0.16772c1.19142,-0.09357 2.38806,-0.24589 3.58579,-0.43138c-0.05308,-0.14051 -0.08464,-0.30756 -0.08464,-0.50616zM263.28729,231.8194c-0.00594,0.00534 -0.01192,0.01059 -0.01794,0.01575c0.07389,-0.00605 0.14774,-0.0123 0.22153,-0.01874c-0.06786,0.00103 -0.13573,0.00202 -0.20359,0.00299zM281.77,222.66286h1.62938c-0.18137,-0.11345 -0.37151,-0.21604 -0.56537,-0.30947c-0.26694,-0.09707 -0.53499,-0.20786 -0.80474,-0.33424l0.02662,0.08653c0,0 -0.19061,0 -0.42296,-0.07443c-0.3263,0.10487 -0.6273,0.06187 -0.6273,0.06187c-1.41721,-0.20246 -2.83726,-0.3795 -4.25944,-0.53779c0.00564,0.05508 0.0086,0.11297 0.0086,0.17383c0,0.45937 -0.16882,0.74992 -0.38237,0.9337c1.7992,0 3.59839,0 5.39759,0zM296.29633,214.24437c-0.90552,0 -1.84499,0 -2.80449,0c0.67424,0.03313 1.34951,0.0638 2.02666,0.08889c0.26108,-0.02616 0.52019,-0.05616 0.77783,-0.08889z" fill="#b3b3b3" fill-rule="nonzero" stroke="none" stroke-width="0.5" stroke-linecap="butt" stroke-linejoin="miter"/><path d="M244.43606,218.23525c0,1.25 -1.25,1.25 -1.25,1.25c-3.33333,0 -7.14842,0 -10.48175,0c0,0 -1.25,0 -1.25,-1.25c0,-1.25 1.25,-1.25 1.25,-1.25c3.33333,0 6.66667,0 10,0h0.48175c0,0 1.25,0 1.25,1.25z" fill="#b3b3b3" fill-rule="nonzero" stroke="none" stroke-width="0.5" stroke-linecap="butt" stroke-linejoin="miter"/></g></g></svg>