<svg version="1.1" xmlns="http://www.w3.org/2000/svg" xmlns:xlink="http://www.w3.org/1999/xlink" width="120.49899" height="104.15438" viewBox="0,0,120.49899,104.15438"><g transform="translate(-192.32101,-126.18718)"><g data-paper-data="{&quot;isPaintingLayer&quot;:true}" fill-rule="evenodd" stroke-miterlimit="10" stroke-dasharray="" stroke-dashoffset="0" style="mix-blend-mode: normal"><g><path d="M224.7,201.1c0.8,0.4 2.5,1.3 0.1,4.7c-2.4,3.4 -9.3,4.1 -10.1,4.1c-3.1,0.1 -6.9,0.1 -11.1,-1.3c-12.2,-4 -12.3,-17.1 -8.4,-19.2c3.8,-2.1 5.5,6 11,10.9c2.4,2.2 5.3,3 7.7,3.5c3.4,0.6 9.9,-3.2 10.8,-2.7z" fill="#ffab19" stroke="#001026" stroke-width="1.2" stroke-linecap="round" stroke-linejoin="round"/><path d="M199.9,193c1.6,2.7 4.7,6.5 4.7,6.5c0,0 -3.7,-0.9 -5.8,0.8c-1.7,1.3 -1.3,3.5 -1.1,4.2c-1.3,-1.3 -2.9,-3.1 -3.9,-6.6c-1,-3.5 0,-7.7 2,-8.3c2,-0.4 2.5,1.1 4.1,3.4z" fill="#ffffff" stroke="none" stroke-width="1" stroke-linecap="butt" stroke-linejoin="miter"/></g><path d="M229.7,211.5c-1.8,1.2 -8,5.6 -15.9,8.1l-0.4,0.1c-0.4,0.1 -0.6,0.6 -0.4,1c1.7,2.4 4.8,7.2 -0.7,8.9c-5.3,1.7 -15.2,-12.4 -11,-16.1c1.9,-1.4 3.6,-0.7 4.5,-0.3c0.5,0.2 1,0.2 1.5,0.1c1.2,-0.4 3.4,-1.2 5.1,-2.1c4.3,-2.2 5.3,-3.1 7.3,-4.6c2,-1.5 6.6,-5.2 10.3,-2c3.2,2.7 1.4,5.7 -0.3,6.9z" fill="#ffab19" stroke="#001026" stroke-width="1.2" stroke-linecap="round" stroke-linejoin="round"/><path d="M245.6,190.7c0.5,0.4 6.6,7.6 8.6,5.8c2.4,-2.1 5.7,-6.2 9.3,-2.9c3.6,3.3 -3.2,8.9 -6.1,10.4c-6.9,3.1 -12.5,-2.8 -13.7,-4.4c-1.2,-1.6 -3.3,-4.3 -3.3,-6.9c0.1,-2.8 3.5,-3.5 5.2,-2z" fill="#ffab19" stroke="#001026" stroke-width="1.2" stroke-linecap="round" stroke-linejoin="round"/><g><path d="M245.7,214c2.1,1.9 6.7,5.8 6.7,5.8c0,0 14.3,-2.5 14.3,4.7c0,4.3 -7.2,5.3 -16.9,4.4c-0.6,-0.1 -1.2,-0.3 -1.7,-0.7c-2.2,-1.9 -8.5,-7.5 -12.5,-11.4c-5.9,-5.8 -10.8,-9.6 -10.8,-9.6c-8.5,-8.3 -1.6,-11.8 1.1,-16.6c2.5,-4.1 3.6,-3.3 9.6,-2.1c3.4,0.5 5.4,0.8 7.6,0.7c3.3,-0.1 2.7,4.7 1.8,7.2c0,0 -1.4,3.7 -2.7,5.6c-1.6,2.3 -2.8,3.8 -4,4.7z" fill="#ffab19" stroke="#001026" stroke-width="1.2" stroke-linecap="round" stroke-linejoin="round"/><path d="M237.3,206.6c0,0 -1.5,-1.2 -3.1,-2.7c-2,-1.8 -4,-3.3 -2,-6.4c1.8,-2.4 3.5,-5.6 8,-2.7c4.3,2.7 2.4,5.2 2.4,5.2c-2.2,4.5 -5.3,6.6 -5.3,6.6z" fill="#ffffff" stroke="none" stroke-width="1" stroke-linecap="butt" stroke-linejoin="miter"/></g><path d="M222.2,198.4c2.2,2.8 5.6,6.3 1.3,9.2c-5.9,3.3 -10.8,-6.7 -11.8,-10.2c-0.9,-3.1 1.7,-5.1 3.9,-6.8c4.3,-3.1 7.9,-5.9 11.9,-4.4c5,1.8 1.4,5.8 -1.1,7.6c-1.5,1.1 -3,2.3 -4.1,3c-0.3,0.5 -0.4,1.1 -0.1,1.6z" fill="#ffab19" stroke="#001026" stroke-width="1.2" stroke-linecap="round" stroke-linejoin="round"/><g><path d="M262.36061,136.88031c0.34774,-0.09526 0.79075,0.15722 0.75959,0.56835l-0.90466,10.97413c0,0 4.59262,6.47748 5.35579,10.20811c1.30357,6.22822 -0.01972,10.53041 -0.01972,10.53041c0,0 6.07636,4.23059 5.41882,10.0183c-0.65754,5.78771 -8.237,14.65066 -27.24502,12.23718c-19.00803,-2.41348 -31.73124,-12.01243 -34.87665,-25.0691c-3.14541,-13.05666 11.76996,-22.43386 10.94841,-21.86372l3.6483,-17.64964c0.03116,-0.41113 0.60022,-0.53827 0.91681,-0.2224l8.99365,11.3108c0,0 4.80644,-0.19517 9.32996,1.09626c2.72034,0.69263 4.93501,1.63881 6.99174,2.74328z" fill="#ffab19" stroke="#001026" stroke-width="1.2" stroke-linecap="butt" stroke-linejoin="miter"/><path d="M267.14083,169.44639c0,0 5.9811,3.88285 5.32356,9.67056c-0.65754,5.78771 -8.45903,14.05008 -27.24574,11.60473c-24.54255,-2.88157 -30.91826,-20.17203 -21.21905,-28.12031c9.73073,-8.04318 17.77678,4.21737 25.93781,6.29525c6.99067,1.7946 9.73538,-3.93223 17.20342,0.54977z" fill="#ffffff" stroke="none" stroke-width="1" stroke-linecap="butt" stroke-linejoin="miter"/><path d="M233.8739,169.67372c0.12606,-0.37962 0.60022,-0.53827 0.94833,-0.3173c1.58257,1.26312 6.20313,4.48343 11.77131,6.75398c5.03027,1.98655 8.16174,2.71034 9.67985,2.89836c0.50604,0.06267 0.72807,0.66326 0.38069,1.07474c-1.70506,2.27877 -7.67508,8.19898 -17.4509,4.32042c-8.32111,-3.81696 -7.15825,-10.17445 -5.32927,-14.7302z" fill="#ffffff" stroke="#001026" stroke-width="1.2" stroke-linecap="round" stroke-linejoin="round"/><path d="M271.73381,176.24011c0,0 34.6069,-13.46349 40.26498,-15.58861" fill="none" stroke="#001026" stroke-width="1.2" stroke-linecap="round" stroke-linejoin="round"/><path d="M270.254,181.9655c0,0 35.82948,-1.28607 41.96601,0.22489" fill="none" stroke="#001026" stroke-width="1.2" stroke-linecap="round" stroke-linejoin="round"/><path d="M250.37719,166.30306c1.99298,0.66183 4.01784,1.54498 3.89214,2.24082c-0.34631,1.36017 -2.65231,3.54475 -4.20229,3.1354c-1.7713,-0.37747 -4.96938,-4.07373 -4.46513,-5.59219c0.28328,-1.17036 2.87721,-0.41435 4.77529,0.21596z" fill="#001026" stroke="#001026" stroke-width="1.2" stroke-linecap="round" stroke-linejoin="round"/><path d="M217.76709,160.11021c-2.34466,-4.04507 94.14858,37.01287 94.14858,37.01287" fill="none" stroke="#001026" stroke-width="1.2" stroke-linecap="round" stroke-linejoin="round"/><path d="M216.94876,163.5264c-4.61664,0.2582 88.1301,-17.04117 88.1301,-17.04117" fill="none" stroke="#001026" stroke-width="1.2" stroke-linecap="round" stroke-linejoin="round"/><g><path d="M265.26319,158.91812c1.33402,5.18463 -0.17837,10.05625 -3.40297,10.88209c-3.22459,0.82584 -6.92835,-2.61686 -8.35727,-7.83301c-1.33402,-5.18463 0.17837,-10.05625 3.40297,-10.88209c3.25611,-0.92074 7.02325,2.64838 8.35727,7.83301z" fill="#ffffff" stroke="#001026" stroke-width="1.2" stroke-linecap="round" stroke-linejoin="round"/><path d="M263.08718,164.20159c-0.34667,1.04394 -1.38954,1.64596 -2.33858,1.3308c-0.94904,-0.31516 -1.42463,-1.42142 -1.07796,-2.46536c0.34667,-1.04394 1.38954,-1.64596 2.33858,-1.3308c0.94904,0.31516 1.42463,1.42142 1.07796,2.46536" fill="#001026" stroke="none" stroke-width="1" stroke-linecap="butt" stroke-linejoin="miter"/></g><g><path d="M240.84456,153.75958c1.46043,5.12124 -0.43121,10.18303 -3.59242,11.13528c-3.73063,0.76316 -7.46519,-1.95218 -8.92562,-7.07342c-1.55534,-5.15276 0.05124,-10.62532 3.68661,-11.73622c3.66688,-1.20581 7.371,2.55312 8.83143,7.67436z" fill="#ffffff" stroke="#001026" stroke-width="1.2" stroke-linecap="round" stroke-linejoin="round"/><path d="M238.44723,159.07491c-0.34667,1.04394 -1.38954,1.64596 -2.33858,1.3308c-0.94904,-0.31516 -1.42463,-1.42142 -1.07796,-2.46536c0.34667,-1.04394 1.38954,-1.64596 2.33858,-1.3308c0.91752,0.41006 1.42463,1.42142 1.07796,2.46536" fill="#001026" stroke="none" stroke-width="1" stroke-linecap="butt" stroke-linejoin="miter"/></g></g></g></g></svg>