<svg version="1.1" xmlns="http://www.w3.org/2000/svg" xmlns:xlink="http://www.w3.org/1999/xlink" width="107.20118" height="118.98402" viewBox="0,0,107.20118,118.98402"><g transform="translate(-178.57554,-125.20873)"><g data-paper-data="{&quot;isPaintingLayer&quot;:true}" stroke-miterlimit="10" stroke-dasharray="" stroke-dashoffset="0" style="mix-blend-mode: normal"><g fill-rule="evenodd"><path d="M226.25513,195.70944c0.65516,0.6089 2.03332,1.9508 -1.22625,4.53832c-3.25957,2.58751 -10.07782,1.31812 -10.84552,1.09307c-3.00293,-0.77614 -6.64947,-1.84516 -10.28599,-4.37017c-10.582,-7.27058 -6.99264,-19.86965 -2.65938,-20.78768c4.23731,-0.94617 3.58994,7.30495 7.48934,13.55433c1.68416,2.78632 4.24199,4.36985 6.4044,5.52482c3.09389,1.53226 10.4004,-0.28568 11.12339,0.44732z" fill="#ffab19" stroke="#001026" stroke-width="1.2" stroke-linecap="round" stroke-linejoin="round"/><path d="M204.73543,180.95979c0.77581,3.04107 2.68159,7.5597 2.68159,7.5597c0,0 -3.29738,-1.90454 -5.79082,-0.86398c-1.99706,0.76925 -2.23212,2.99293 -2.23713,3.72092c-0.88178,-1.61322 -1.91078,-3.79063 -1.88577,-7.4306c0.02501,-3.63997 2.16618,-7.38902 4.2542,-7.40215c2.03176,0.1788 2.08958,1.75888 2.97792,4.41611z" fill="#ffffff" stroke="none" stroke-width="1" stroke-linecap="butt" stroke-linejoin="miter"/></g><path d="M234.13575,204.67882c-1.74046,1.16031 -7.73538,5.41476 -15.37406,7.83207l-0.38677,0.09669c-0.38677,0.09669 -0.58015,0.58015 -0.38677,0.96692c1.64377,2.32061 4.64123,6.96184 -0.67685,8.60561c-5.12469,1.64377 -14.69722,-11.98984 -10.63614,-15.56745c1.83715,-1.35369 3.48092,-0.67685 4.35115,-0.29008c0.48346,0.19338 0.96692,0.19338 1.45038,0.09669c1.16031,-0.38677 3.28754,-1.16031 4.9313,-2.03054c4.15777,-2.12723 5.12469,-2.99746 7.05853,-4.44784c1.93384,-1.45038 6.38169,-5.028 9.9593,-1.93384c3.09415,2.61069 1.35369,5.51146 -0.29008,6.67176z" fill="#ffab19" fill-rule="evenodd" stroke="#001026" stroke-width="1.2" stroke-linecap="round" stroke-linejoin="round"/><path d="M242.55719,186.16909c0.17983,0.65786 1.02028,10.83377 3.72301,10.31416c3.20826,-0.56793 8.32696,-2.47254 9.37669,2.65324c1.04973,5.12579 -7.83619,6.41055 -11.10761,6.13527c-7.51015,-1.0896 -8.69581,-9.77357 -8.75404,-11.94555c-0.05823,-2.17199 -0.21846,-5.88027 1.29828,-8.28988c1.71604,-2.53753 4.93394,-1.23369 5.46367,1.13275z" fill="#ffab19" fill-rule="evenodd" stroke="#001026" stroke-width="1.2" stroke-linecap="round" stroke-linejoin="round"/><g fill-rule="evenodd"><path d="M235.03003,221.07424c1.27622,2.90362 4.15723,8.9437 4.15723,8.9437c0,0 13.72936,0.89878 11.37931,9.70093c-1.40349,5.25683 -8.23172,4.48799 -16.69739,0.7049c-0.50917,-0.2882 -0.98572,-0.69865 -1.30669,-1.32596c-1.36652,-2.93127 -5.22783,-11.51983 -7.56703,-17.39399c-3.43482,-8.72245 -6.61937,-14.72326 -6.61937,-14.72326c-4.9667,-12.49785 2.40659,-14.86827 6.41147,-19.9896c3.59579,-4.32089 4.32801,-3.03863 9.35455,0.08787c2.90711,1.55163 4.61526,2.47154 6.63457,2.95777c3.01266,0.79046 0.90413,6.49261 -0.72459,9.29999c0,0 -2.47191,4.13611 -4.26599,6.09936c-2.19555,2.36927 -3.76879,3.87115 -5.1462,4.63953z" fill="#ffab19" stroke="#001026" stroke-width="1.2" stroke-linecap="round" stroke-linejoin="round"/><path d="M229.85987,209.70432c0,0 -0.96289,-1.8819 -1.91813,-4.1582c-1.21855,-2.75369 -2.53503,-5.14064 0.28286,-8.37728c2.40881,-2.43621 4.98843,-5.87809 8.10553,-1.08816c3.00177,4.4901 0.47004,7.0209 0.47004,7.0209c-3.45545,4.89286 -6.94027,6.60277 -6.94027,6.60277z" fill="#ffffff" stroke="none" stroke-width="1" stroke-linecap="butt" stroke-linejoin="miter"/></g><path d="M227.87761,198.40001c2.2,2.8 5.6,6.3 1.3,9.2c-5.9,3.3 -10.8,-6.7 -11.8,-10.2c-0.9,-3.1 1.7,-5.1 3.9,-6.8c4.3,-3.1 7.9,-5.9 11.9,-4.4c5,1.8 1.4,5.8 -1.1,7.6c-1.5,1.1 -3,2.3 -4.1,3c-0.3,0.5 -0.4,1.1 -0.1,1.6z" fill="#ffab19" fill-rule="evenodd" stroke="#001026" stroke-width="1.2" stroke-linecap="round" stroke-linejoin="round"/><g fill-rule="evenodd"><path d="M260.24217,136.21296c0.34857,-0.09222 0.78934,0.16414 0.75458,0.57499l-1.00073,10.96579c0,0 4.53571,6.51746 5.26618,10.25462c1.24898,6.23939 -0.11193,10.52984 -0.11193,10.52984c0,0 6.03908,4.28364 5.33088,10.06537c-0.7082,5.78173 -8.36498,14.57796 -27.35114,11.99812c-18.98616,-2.57985 -31.62482,-12.28986 -34.65576,-25.37356c-3.03095,-13.08371 11.96596,-22.32992 11.13946,-21.76701l3.80273,-17.61701c0.03476,-0.41085 0.60491,-0.53299 0.91872,-0.21436l8.89426,11.38914c0,0 4.80797,-0.15308 9.32,1.17792c2.71417,0.71642 4.92047,1.68197 6.96745,2.80441z" fill="#ffab19" stroke="#001026" stroke-width="1.2" stroke-linecap="butt" stroke-linejoin="miter"/><path d="M264.73701,168.81966c0,0 5.94686,3.93508 5.23866,9.71682c-0.7082,5.78173 -8.58175,13.97546 -27.34633,11.36568c-24.51637,-3.09639 -30.74042,-20.44203 -20.97197,-28.30507c9.80079,-7.95766 17.73916,4.3729 25.88169,6.52217c6.97468,1.85576 9.76945,-3.84682 17.19795,0.70041z" fill="#ffffff" stroke="none" stroke-width="1" stroke-linecap="butt" stroke-linejoin="miter"/><path d="M231.46936,168.75564c0.12938,-0.3785 0.60491,-0.53299 0.95106,-0.30898c1.57144,1.27693 6.16363,4.53758 11.71171,6.8568c5.01267,2.03052 8.13769,2.78171 9.6541,2.98303c0.50548,0.0671 0.72224,0.66961 0.37127,1.07803c-1.72494,2.26375 -7.74658,8.13145 -17.48807,4.16743c-8.28736,-3.88968 -7.06887,-10.23675 -5.20007,-14.77631z" fill="#ffffff" stroke="#001026" stroke-width="1.2" stroke-linecap="round" stroke-linejoin="round"/><path d="M281.79209,175.8121c-5.67648,2.07549 -12.52177,-0.15876 -12.52177,-0.15876" fill="none" stroke="#001026" stroke-width="1.2" stroke-linecap="round" stroke-linejoin="round"/><path d="M276.93927,185.98953c-6.12306,-1.56465 -9.19885,-4.62399 -9.19885,-4.62399" fill="none" stroke="#001026" stroke-width="1.2" stroke-linecap="round" stroke-linejoin="round"/><path d="M248.00155,165.52963c1.9871,0.67926 4.00416,1.5801 3.87236,2.27483c-0.35822,1.35709 -2.68325,3.52139 -4.22959,3.09848c-1.76793,-0.39297 -4.93352,-4.11709 -4.41598,-5.63107c0.29351,-1.16784 2.88073,-0.38914 4.77321,0.25777z" fill="#001026" stroke="#001026" stroke-width="1.2" stroke-linecap="round" stroke-linejoin="round"/><path d="M205.90576,149.5548c0,0 7.23203,5.43119 9.54117,9.49665" fill="none" stroke="#001026" stroke-width="1.2" stroke-linecap="round" stroke-linejoin="round"/><path d="M214.59871,162.46033c-4.61872,0.21776 -11.26512,-3.21668 -11.26512,-3.21668" fill="none" stroke="#001026" stroke-width="1.2" stroke-linecap="round" stroke-linejoin="round"/><g><path d="M262.95164,158.27534c1.28857,5.19612 -0.26644,10.05431 -3.49814,10.85187c-3.23171,0.79756 -6.90517,-2.67744 -8.28836,-7.9059c-1.28857,-5.19612 0.26644,-10.05431 3.49814,-10.85187c3.26404,-0.89218 6.9998,2.70979 8.28835,7.90591z" fill="#ffffff" stroke="#001026" stroke-width="1.2" stroke-linecap="round" stroke-linejoin="round"/><path d="M260.72946,163.53955c-0.3558,1.04087 -1.40391,1.63373 -2.35015,1.31028c-0.94624,-0.32345 -1.41213,-1.43384 -1.05634,-2.47471c0.3558,-1.04087 1.40391,-1.63372 2.35015,-1.31027c0.94624,0.32345 1.41213,1.43383 1.05634,2.47471" fill="#001026" stroke="none" stroke-width="1" stroke-linecap="butt" stroke-linejoin="miter"/></g><g><path d="M238.57913,152.90315c1.41553,5.13384 -0.52037,10.17887 -3.6898,11.10339c-3.73717,0.73046 -7.4478,-2.01749 -8.86334,-7.15132c-1.51015,-5.16618 0.14429,-10.62447 3.78924,-11.70349c3.6773,-1.17365 7.34835,2.61757 8.76388,7.75141z" fill="#ffffff" stroke="#001026" stroke-width="1.2" stroke-linecap="round" stroke-linejoin="round"/><path d="M236.13534,158.19729c-0.3558,1.04087 -1.40391,1.63372 -2.35015,1.31027c-0.94624,-0.32345 -1.41213,-1.43384 -1.05633,-2.47471c0.3558,-1.04087 1.40391,-1.63372 2.35015,-1.31027c0.9139,0.41808 1.41213,1.43384 1.05633,2.47471" fill="#001026" stroke="none" stroke-width="1" stroke-linecap="butt" stroke-linejoin="miter"/></g></g><path d="M210.12741,207.4143c1.21268,-0.30317 1.51585,0.90951 1.51585,0.90951l0.33605,1.47919c2.56107,2.91467 4.28121,6.63475 6.1764,10.00789c1.99759,3.5554 4.34368,6.93797 6.44893,10.4467c0,0 0.64312,1.07187 -0.42874,1.71499c-1.07187,0.64312 -1.71499,-0.42875 -1.71499,-0.42875c-4.04227,-6.73712 -7.71641,-14.54881 -12.70558,-20.59894l-0.53743,-2.01473c0,0 -0.30317,-1.21268 0.90951,-1.51585z" fill="#19fff5" fill-rule="nonzero" stroke="none" stroke-width="0.5" stroke-linecap="butt" stroke-linejoin="miter"/><path d="M236.32079,205.63604c1.24398,0.12256 1.12142,1.36654 1.12142,1.36654l-0.2224,2.25726c-0.32363,3.28422 -0.64646,6.54764 -0.64507,9.84888c0,0 0,1.25 -1.25,1.25c-1.25,0 -1.25,-1.25 -1.25,-1.25c0.00137,-3.38389 0.3255,-6.72761 0.65711,-10.094l0.22239,-2.25727c0,0 0.12257,-1.24398 1.36654,-1.12142z" fill="#19fff5" fill-rule="nonzero" stroke="none" stroke-width="0.5" stroke-linecap="butt" stroke-linejoin="miter"/><path d="M209.85036,187.86651c1.10718,-0.58021 1.6874,0.52697 1.6874,0.52697l0.21966,0.41917c1.74035,3.32167 3.43567,6.66808 6.10814,9.32218c0,0 0.88388,0.88388 0,1.76777c-0.88388,0.88388 -1.76777,0 -1.76777,0c-2.8496,-2.86717 -4.68607,-6.36439 -6.55473,-9.92952l-0.21966,-0.41917c0,0 -0.58021,-1.10718 0.52697,-1.6874z" fill="#19fff5" fill-rule="nonzero" stroke="none" stroke-width="0.5" stroke-linecap="butt" stroke-linejoin="miter"/><path d="M241.31562,202.3861c1,0.75 0.25,1.75 0.25,1.75l-1.28791,1.71625c-1.6934,2.42794 -1.08253,5.10219 -1.08253,8.01551c0,0 0,1.25 -1.25,1.25c-1.25,0 -1.25,-1.25 -1.25,-1.25c0,-3.20197 -0.34727,-5.7042 0.95883,-8.41394c-0.1918,0.18601 -0.38248,0.37361 -0.5719,0.56303c0,0 -0.88388,0.88388 -1.76777,0c-0.88388,-0.88388 0,-1.76777 0,-1.76777c2.96816,-2.96816 6.25109,-5.49168 9.24855,-8.40948l1.24573,-1.21114c0,0 0.89624,-0.87135 1.76759,0.02488c0.87135,0.89624 -0.02488,1.76759 -0.02488,1.76759l-1.24573,1.21114c-1.66845,1.62023 -3.42229,3.11917 -5.16047,4.64107c0.05593,0.03215 0.1128,0.06959 0.17049,0.11287z" fill="#19fff5" fill-rule="nonzero" stroke="none" stroke-width="0.5" stroke-linecap="butt" stroke-linejoin="miter"/><path d="M251.44266,213.11874c1.18585,0.39528 0.79057,1.58114 0.79057,1.58114l-0.46774,1.39329c-0.73922,1.48316 -1.4794,2.96584 -2.22051,4.44806c0,0 -0.55902,1.11803 -1.67705,0.55902c-1.11803,-0.55902 -0.55902,-1.67705 -0.55902,-1.67705c0.71469,-1.42938 1.43023,-2.85833 2.14688,-4.28673l0.40573,-1.22715c0,0 0.39528,-1.18585 1.58114,-0.79057z" fill="#19fff5" fill-rule="nonzero" stroke="none" stroke-width="0.5" stroke-linecap="butt" stroke-linejoin="miter"/><path d="M246.05902,188.48614c1.11803,0.55901 0.55902,1.67705 0.55902,1.67705l-0.20137,0.10765c-0.08276,5.66081 -4.59462,9.97605 -7.18717,14.65795c-2.0557,3.71241 -1.7888,8.0852 -4.42007,11.45624c0,0 -0.78087,0.97609 -1.75695,0.19522c-0.97609,-0.78087 -0.19522,-1.75696 -0.19522,-1.75696c2.51753,-3.04949 2.30763,-7.71263 4.2466,-11.21042c2.2661,-4.08791 6.90947,-8.39151 6.81282,-13.34204l0.4653,-1.22568c0,0 0.55901,-1.11803 1.67705,-0.55902z" fill="#0048ff" fill-rule="nonzero" stroke="none" stroke-width="0.5" stroke-linecap="butt" stroke-linejoin="miter"/><path d="M264.39235,216.48614c1.11804,0.55901 0.55901,1.67705 0.55901,1.67705l-0.29802,0.58962c-3.05978,7.27032 -2.89148,15.83648 -11.35577,19.34529c0,0 -1.1606,0.46424 -1.62484,-0.69636c-0.46424,-1.1606 0.69636,-1.62483 0.69636,-1.62483c7.49908,-2.85673 7.36368,-11.69299 9.97756,-17.98804l0.36865,-0.74371c0,0 0.55901,-1.11803 1.67705,-0.55902z" fill="#0048ff" fill-rule="nonzero" stroke="none" stroke-width="0.5" stroke-linecap="butt" stroke-linejoin="miter"/><path d="M212.80663,212.89744c1.04006,-0.69338 1.73344,0.34669 1.73344,0.34669l0.83928,1.39021c1.26457,5.10651 5.25933,9.12743 7.57202,13.74416c0,0 0.55902,1.11803 -0.55902,1.67705c-1.11803,0.55901 -1.67705,-0.55902 -1.67705,-0.55902c-2.40914,-4.82674 -6.41325,-8.90831 -7.76131,-14.25584l-0.49406,-0.60979c0,0 -0.69338,-1.04006 0.34669,-1.73344z" fill="#0048ff" fill-rule="nonzero" stroke="none" stroke-width="0.5" stroke-linecap="butt" stroke-linejoin="miter"/><path d="M203.61612,180.72029c0.88388,-0.88388 1.76777,0 1.76777,0l0.70658,0.70847c2.74576,3.02193 5.05442,6.47128 7.61165,9.61908c1.86846,2.29996 4.5377,4.69072 5.3439,7.5865c0,0 0.30318,1.21268 -0.9095,1.51585c-1.21268,0.30317 -1.51585,-0.90951 -1.51585,-0.90951c-0.48547,-2.37749 -3.33999,-4.74991 -4.8583,-6.6157c-2.52783,-3.10636 -4.79778,-6.53693 -7.51949,-9.51206l-0.62675,-0.62486c0,0 -0.88388,-0.88388 0,-1.76776z" fill="#0048ff" fill-rule="nonzero" stroke="none" stroke-width="0.5" stroke-linecap="butt" stroke-linejoin="miter"/><path d="M269.19338,230.89744c1.04007,0.69338 0.34669,1.73344 0.34669,1.73344l-0.95673,1.30662c-5.03339,3.77505 -9.47254,7.51968 -15.23275,10.13796c0,0 -1.13795,0.51726 -1.65521,-0.6207c-0.51726,-1.13796 0.6207,-1.65521 0.6207,-1.65521c5.59337,-2.54244 9.87291,-6.19128 14.76725,-9.86204l0.3766,-0.69338c0,0 0.69338,-1.04006 1.73344,-0.34669z" fill="#0048ff" fill-rule="nonzero" stroke="none" stroke-width="0.5" stroke-linecap="butt" stroke-linejoin="miter"/><path d="M285.38389,210.72029c0.88389,0.88388 0,1.76776 0,1.76776l-0.83387,0.80693c-2.95114,2.02289 -4.37223,4.70332 -7.91911,6.13646c0,0 -1.16059,0.46424 -1.62483,-0.69636c-0.46424,-1.1606 0.69636,-1.62484 0.69636,-1.62484c3.32063,-1.31273 4.64236,-3.89272 7.41422,-5.86354l0.49946,-0.52641c0,0 0.88389,-0.88388 1.76777,0z" fill="#0048ff" fill-rule="nonzero" stroke="none" stroke-width="0.5" stroke-linecap="butt" stroke-linejoin="miter"/><path d="M179.27432,213.81947c1.11803,-0.55901 1.67705,0.55902 1.67705,0.55902l0.92108,1.8642c4.60563,5.25514 9.24362,10.82304 13.01236,16.68553c0,0 0.67595,1.05147 -0.37553,1.72742c-1.05148,0.67595 -1.72742,-0.37553 -1.72742,-0.37553c-3.76932,-5.86338 -8.4258,-11.35305 -12.98763,-16.64781l-1.07893,-2.1358c0,0 -0.55902,-1.11803 0.55901,-1.67705z" fill="#0048ff" fill-rule="nonzero" stroke="none" stroke-width="0.5" stroke-linecap="butt" stroke-linejoin="miter"/></g></g></svg>