<svg version="1.1" xmlns="http://www.w3.org/2000/svg" xmlns:xlink="http://www.w3.org/1999/xlink" width="118.52779" height="120.76905" viewBox="0,0,118.52779,120.76905"><g transform="translate(-184.56333,-122.72828)"><g data-paper-data="{&quot;isPaintingLayer&quot;:true}" stroke-miterlimit="10" stroke-dasharray="" stroke-dashoffset="0" style="mix-blend-mode: normal"><g fill-rule="evenodd"><path d="M226.25513,195.70943c0.65516,0.6089 2.03332,1.9508 -1.22625,4.53832c-3.25957,2.58751 -10.07782,1.31812 -10.84552,1.09307c-3.00293,-0.77614 -6.64947,-1.84516 -10.28599,-4.37017c-10.582,-7.27058 -6.99264,-19.86965 -2.65938,-20.78768c4.23731,-0.94617 3.58994,7.30495 7.48934,13.55433c1.68416,2.78632 4.24199,4.36985 6.4044,5.52482c3.09389,1.53226 10.4004,-0.28568 11.12339,0.44732z" fill="#ffab19" stroke="#001026" stroke-width="1.2" stroke-linecap="round" stroke-linejoin="round"/><path d="M204.73543,180.95978c0.77581,3.04107 2.68159,7.5597 2.68159,7.5597c0,0 -3.29738,-1.90454 -5.79082,-0.86398c-1.99706,0.76925 -2.23212,2.99293 -2.23713,3.72092c-0.88178,-1.61322 -1.91078,-3.79063 -1.88577,-7.4306c0.02501,-3.63997 2.16618,-7.38902 4.2542,-7.40215c2.03176,0.1788 2.08958,1.75888 2.97792,4.41611z" fill="#ffffff" stroke="none" stroke-width="1" stroke-linecap="butt" stroke-linejoin="miter"/></g><path d="M229.44347,204.3947c-1.44004,0.96466 -6.4219,4.5437 -12.51693,6.11812l-0.30645,0.05416c-0.30645,0.05416 -0.49629,0.51379 -0.37969,0.91926c1.0725,2.48523 2.99378,7.42422 -1.24632,8.48141c-4.09093,1.07816 -10.32662,-13.5134 -6.89328,-16.62936c1.53089,-1.14641 2.74174,-0.29526 3.38039,0.18363c0.35661,0.24468 0.72949,0.29713 1.11052,0.25345c0.92748,-0.25862 2.63328,-0.79684 3.97433,-1.48363c3.38585,-1.66366 4.20487,-2.42386 5.81847,-3.65591c1.61361,-1.23204 5.34527,-4.30606 7.8442,-0.84207c2.16674,2.93093 0.58022,5.62578 -0.78525,6.60092z" fill="#ffab19" fill-rule="evenodd" stroke="#001026" stroke-width="1.2" stroke-linecap="round" stroke-linejoin="round"/><path d="M247.64913,185.78104c-0.21118,0.64848 -5.09977,9.6127 -2.55602,10.66346c2.99269,1.28814 8.31603,2.50905 6.37694,7.36862c-1.9391,4.85958 -10.06958,1.05099 -12.65177,-0.9764c-5.67645,-5.03662 -1.896,-12.94392 -0.75133,-14.7907c1.14467,-1.84679 3.04819,-5.03327 5.63938,-6.2133c2.828,-1.17741 4.80035,1.67998 3.94281,3.9483z" fill="#ffab19" fill-rule="evenodd" stroke="#001026" stroke-width="1.2" stroke-linecap="round" stroke-linejoin="round"/><g fill-rule="evenodd"><path d="M236.57028,220.23356c1.19294,2.93882 3.90062,9.05856 3.90062,9.05856c0,0 13.69816,1.28975 11.09818,10.02134c-1.55276,5.21469 -8.3563,4.25154 -16.7107,0.22868c-0.50075,-0.3026 -0.96541,-0.72646 -1.26836,-1.36267c-1.28241,-2.96903 -4.89735,-11.66416 -7.06817,-17.60261c-3.18481,-8.81681 -6.19702,-14.90595 -6.19702,-14.90595c-4.60845,-12.63434 2.82941,-14.79363 6.97863,-19.79873c3.71749,-4.21664 4.41286,-2.91403 9.34824,0.35447c2.8617,1.63386 4.54294,2.60209 6.54757,3.14568c2.98891,0.87601 0.7187,6.51574 -0.98938,9.27556c0,0 -2.5888,4.06397 -4.43811,5.97529c-2.26219,2.30573 -3.8776,3.76215 -5.27635,4.49096z" fill="#ffab19" stroke="#001026" stroke-width="1.2" stroke-linecap="round" stroke-linejoin="round"/><path d="M231.7263,208.72089c0,0 -0.90886,-1.90858 -1.79883,-4.21118c-1.13957,-2.7873 -2.38748,-5.21081 0.52152,-8.36581c2.47727,-2.36656 5.15395,-5.73352 8.13325,-0.85668c2.87257,4.57384 0.26973,7.03145 0.26973,7.03145c-3.59351,4.79238 -7.12565,6.40227 -7.12565,6.40227z" fill="#ffffff" stroke="none" stroke-width="1" stroke-linecap="butt" stroke-linejoin="miter"/></g><path d="M221.67337,190.27723c-0.43148,3.53466 -0.51216,8.41354 -5.60129,7.4132c-6.50161,-1.85176 -2.87386,-12.38026 -1.0996,-15.55863c1.56141,-2.82524 4.81323,-2.39434 7.57021,-2.03516c5.23085,0.85921 9.75517,1.43414 11.51499,5.32682c2.25292,4.81294 -3.12166,5.08481 -6.1612,4.58362c-1.8379,-0.2866 -3.74665,-0.50263 -5.01886,-0.78807c-0.56597,0.14027 -1.06167,0.49281 -1.20424,1.0582z" fill="#ffab19" fill-rule="evenodd" stroke="#001026" stroke-width="1.2" stroke-linecap="round" stroke-linejoin="round"/><g fill-rule="evenodd"><path d="M267.34007,138.27709c0.35764,-0.04585 0.7611,0.26594 0.67292,0.66872l-2.42595,10.7408c0,0 3.64459,7.05457 3.88014,10.85515c0.42244,6.34913 -1.48778,10.42481 -1.48778,10.42481c0,0 5.42713,5.03649 3.96903,10.67599c-1.4581,5.63949 -10.19928,13.35906 -28.68512,8.31886c-18.48584,-5.04021 -29.74638,-16.3194 -31.04056,-29.68708c-1.29419,-13.36769 14.78294,-20.57363 13.88994,-20.12362l6.07357,-16.96855c0.08818,-0.40278 0.66941,-0.44932 0.93886,-0.09239l7.32873,12.45432c0,0 4.78671,0.47689 9.08597,2.38643c2.59719,1.06516 4.6583,2.3109 6.54095,3.69135z" fill="#ffab19" stroke="#001026" stroke-width="1.2" stroke-linecap="butt" stroke-linejoin="miter"/><path d="M267.53288,171.19158c0,0 5.38128,4.67887 3.92318,10.31837c-1.4581,5.63949 -10.33541,12.73339 -28.59766,7.69248c-23.90103,-6.27541 -27.80365,-24.28595 -17.09094,-30.80422c10.75714,-6.60786 17.0151,6.65481 24.8067,9.8503c6.67215,2.75179 10.18856,-2.53641 16.95872,2.94309z" fill="#ffffff" stroke="none" stroke-width="1" stroke-linecap="butt" stroke-linejoin="miter"/><path d="M234.55921,166.77825c0.17776,-0.35833 0.66941,-0.44932 0.9833,-0.18197c1.39099,1.47144 5.51741,5.30454 10.71461,8.32928c4.70414,2.66851 7.70411,3.82186 9.18118,4.21973c0.49237,0.13262 0.62849,0.7583 0.22713,1.11732c-2.00612,2.01877 -8.74329,7.04875 -17.88284,1.84503c-7.70762,-4.93989 -5.66969,-11.07315 -3.22337,-15.32938z" fill="#ffffff" stroke="#001026" stroke-width="1.2" stroke-linecap="round" stroke-linejoin="round"/><path d="M283.52726,180.35399c-5.89912,1.31545 -12.39351,-1.79466 -12.39351,-1.79466" fill="none" stroke="#001026" stroke-width="1.2" stroke-linecap="round" stroke-linejoin="round"/><path d="M277.38536,189.80953c-5.86591,-2.35183 -8.51527,-5.78707 -8.51527,-5.78707" fill="none" stroke="#001026" stroke-width="1.2" stroke-linecap="round" stroke-linejoin="round"/><path d="M251.37128,165.74157c1.88123,0.93325 3.76318,2.09009 3.54167,2.76162c-0.53259,1.2986 -3.12065,3.14031 -4.59842,2.51885c-1.70137,-0.62076 -4.35284,-4.72682 -3.64179,-6.16013c0.44369,-1.11944 2.90688,-0.00913 4.69853,0.87967z" fill="#001026" stroke="#001026" stroke-width="1.2" stroke-linecap="round" stroke-linejoin="round"/><path d="M211.72565,144.39972c0,0 6.4598,6.33018 8.21754,10.66266" fill="none" stroke="#001026" stroke-width="1.2" stroke-linecap="round" stroke-linejoin="round"/><path d="M218.65653,158.33109c-4.60754,-0.38802 -10.74782,-4.66202 -10.74782,-4.66202" fill="none" stroke="#001026" stroke-width="1.2" stroke-linecap="round" stroke-linejoin="round"/><g><path d="M267.14154,160.50435c0.5981,5.32 -1.57879,9.93316 -4.88703,10.30131c-3.30825,0.36816 -6.4958,-3.55733 -7.18348,-8.92176c-0.5981,-5.32 1.57879,-9.93316 4.88703,-10.30131c3.35267,-0.45774 6.58539,3.60177 7.18347,8.92177z" fill="#ffffff" stroke="#001026" stroke-width="1.2" stroke-linecap="round" stroke-linejoin="round"/><path d="M264.25013,165.4328c-0.48884,0.98541 -1.60547,1.43614 -2.5013,0.99174c-0.89582,-0.4444 -1.21253,-1.60617 -0.72369,-2.59158c0.48884,-0.98541 1.60547,-1.43613 2.5013,-0.99173c0.89582,0.4444 1.21253,1.60616 0.72369,2.59158" fill="#001026" stroke="none" stroke-width="1" stroke-linecap="butt" stroke-linejoin="miter"/></g><g><path d="M243.68071,151.99148c0.73211,5.27485 -1.84682,10.02344 -5.10993,10.52561c-3.8006,0.23554 -7.12007,-2.97399 -7.85219,-8.24884c-0.82169,-5.31929 1.53224,-10.51439 5.28698,-11.10756c3.79919,-0.68275 6.94301,3.55592 7.67512,8.83077z" fill="#ffffff" stroke="#001026" stroke-width="1.2" stroke-linecap="round" stroke-linejoin="round"/><path d="M240.56567,156.92063c-0.48884,0.98541 -1.60547,1.43613 -2.5013,0.99173c-0.89582,-0.4444 -1.21253,-1.60617 -0.72368,-2.59158c0.48884,-0.98541 1.60547,-1.43613 2.5013,-0.99173c0.85139,0.53399 1.21253,1.60617 0.72368,2.59158" fill="#001026" stroke="none" stroke-width="1" stroke-linecap="butt" stroke-linejoin="miter"/></g></g><path d="M208.40875,211.09322c1.02767,-0.71161 1.73928,0.31607 1.73928,0.31607l1.23332,1.78111c3.12229,4.50907 6.54954,8.40949 10.76402,11.94264c3.51403,2.94594 7.30713,5.11551 10.56933,8.3777c0,0 0.88388,0.88388 0,1.76777c-0.88388,0.88388 -1.76777,0 -1.76777,0c-3.202,-3.202 -6.93851,-5.32357 -10.39417,-8.2184c-4.389,-3.67669 -7.97541,-7.75103 -11.22676,-12.44649l-1.23332,-1.78111c0,0 -0.71161,-1.02767 0.31607,-1.73928z" fill="#19fff5" fill-rule="nonzero" stroke="none" stroke-width="0.5" stroke-linecap="butt" stroke-linejoin="miter"/><path d="M259.81898,168.94442c1.24946,0.03681 1.21265,1.28627 1.21265,1.28627l-0.02953,0.98949c-0.36804,6.80166 -2.38659,13.16162 -4.03545,19.75706c-3.49499,13.97997 -11.24807,27.88556 -11.22037,42.5439c0,0 0,1.25 -1.25,1.25c-1.25,0 -1.25,-1.25 -1.25,-1.25c0.02591,-14.92884 7.73637,-28.91567 11.29501,-43.15024c1.60904,-6.43615 3.60551,-12.65224 3.96446,-19.2858l0.02696,-0.92803c0,0 0.03681,-1.24946 1.28627,-1.21265z" fill="#19fff5" fill-rule="nonzero" stroke="none" stroke-width="0.5" stroke-linecap="butt" stroke-linejoin="miter"/><path d="M261.21466,210.12938c1.11803,0.55902 0.55902,1.67705 0.55902,1.67705l-0.38437,0.76874c-2.24528,4.49056 -4.50295,8.98382 -7.08637,13.29103c0,0 -0.64312,1.07187 -1.71499,0.42875c-1.07187,-0.64312 -0.42875,-1.71499 -0.42875,-1.71499c2.5517,-4.2513 4.77751,-8.68977 6.99404,-13.12283l0.38437,-0.76874c0,0 0.55902,-1.11803 1.67705,-0.55902z" fill="#19fff5" fill-rule="nonzero" stroke="none" stroke-width="0.5" stroke-linecap="butt" stroke-linejoin="miter"/><path d="M234.56759,184.70827c1.20824,-0.32041 1.52865,0.88783 1.52865,0.88783l0.10052,0.37906c1.71075,6.45107 2.53644,13.04183 4.42232,19.44441c0.7804,2.64945 1.17274,5.91741 2.73356,8.19165c0,0 0.69338,1.04006 -0.34669,1.73344c-1.04006,0.69338 -1.73344,-0.34669 -1.73344,-0.34669c-1.69078,-2.59342 -2.17722,-5.90364 -3.05156,-8.87203c-1.89283,-6.42616 -2.72412,-13.03702 -4.44066,-19.50996l-0.10052,-0.37906c0,0 -0.32041,-1.20824 0.88783,-1.52865z" fill="#19fff5" fill-rule="nonzero" stroke="none" stroke-width="0.5" stroke-linecap="butt" stroke-linejoin="miter"/><path d="M220.35331,204.8885c0.78219,-0.3911 1.29077,0.03866 1.52573,0.33213c0.7619,-0.25534 1.31959,0.44178 1.31959,0.44178l0.18522,0.23153c2.56671,3.20847 5.11562,6.39238 7.61059,9.61068c-0.73201,-2.28985 -1.68764,-4.50654 -2.76257,-6.88157l-0.16028,-0.35414c0,0 -0.51541,-1.13879 0.62338,-1.65421c1.13879,-0.51541 1.65421,0.62338 1.65421,0.62338l0.16028,0.35414c1.94979,4.30798 3.51512,8.16568 4.15929,12.74186c2.08133,2.79542 4.11003,5.63746 6.06346,8.56302c0,0 0.69338,1.04006 -0.34669,1.73344c-1.04006,0.69338 -1.73344,-0.34669 -1.73344,-0.34669c-1.65656,-2.489 -3.37007,-4.91502 -5.12543,-7.30216c-1.08022,-0.00369 -1.19266,-1.12815 -1.19266,-1.12815c-0.01888,-0.18876 -0.03942,-0.37606 -0.06158,-0.56199c-2.04717,-2.73452 -4.14529,-5.42491 -6.27115,-8.10818c1.68309,3.26625 3.32574,6.55166 4.75053,9.9464c1.25505,2.99031 1.98373,6.93798 5.13197,8.39984c0,0 1.11803,0.55902 0.55902,1.67705c-0.55902,1.11803 -1.67705,0.55902 -1.67705,0.55902c-3.85779,-2.02822 -4.72498,-5.87014 -6.31913,-9.66841c-2.47135,-5.88828 -5.60824,-11.44392 -8.46011,-17.14736l-0.19219,-0.38437c0,0 -0.55902,-1.11803 0.55902,-1.67705z" fill="#19fff5" fill-rule="nonzero" stroke="none" stroke-width="0.5" stroke-linecap="butt" stroke-linejoin="miter"/><path d="M259.29105,175.02704c1.2438,0.12438 1.11942,1.36818 1.11942,1.36818l-0.08457,0.84574c-0.41997,4.14641 -1.20702,8.29421 -1.9802,12.39652c-0.89989,8.09651 -3.64103,16.55315 -6.68797,24.10472c-1.86704,4.6273 -4.60884,9.8019 -4.57439,14.86197c0,0 0,1.25 -1.25,1.25c-1.25,0 -1.25,-1.25 -1.25,-1.25c0.03154,-5.4555 2.74148,-10.8105 4.75895,-15.8047c2.97815,-7.37236 5.65278,-15.62627 6.53085,-23.53137c0.7625,-4.06149 1.56031,-8.17063 1.96517,-12.27591l0.08457,-0.84574c0,0 0.12438,-1.2438 1.36818,-1.11942z" fill="#0048ff" fill-rule="nonzero" stroke="none" stroke-width="0.5" stroke-linecap="butt" stroke-linejoin="miter"/><path d="M236.51126,202.39637c1.20779,-0.32208 1.52987,0.88572 1.52987,0.88572l0.04502,0.16883c0.70287,2.63576 1.30737,5.14979 2.53189,7.59424c0,0 0.55902,1.11803 -0.55902,1.67705c-1.11803,0.55902 -1.67705,-0.55902 -1.67705,-0.55902c-1.29833,-2.6012 -1.96433,-5.26657 -2.71141,-8.06811l-0.04502,-0.16883c0,0 -0.32208,-1.20779 0.88572,-1.52987z" fill="#0048ff" fill-rule="nonzero" stroke="none" stroke-width="0.5" stroke-linecap="butt" stroke-linejoin="miter"/><path d="M234.48776,215.5546c1.04956,-0.67891 1.72847,0.37065 1.72847,0.37065l0.49379,0.76338c1.49803,2.31588 2.75632,4.22783 3.6425,6.85358c0,0 0.39528,1.18585 -0.79057,1.58114c-1.18585,0.39528 -1.58114,-0.79057 -1.58114,-0.79057c-0.79769,-2.42735 -1.98604,-4.14692 -3.36992,-6.28633l-0.49379,-0.76338c0,0 -0.67891,-1.04956 0.37065,-1.72847z" fill="#0048ff" fill-rule="nonzero" stroke="none" stroke-width="0.5" stroke-linecap="butt" stroke-linejoin="miter"/><path d="M224.94945,215.38695c0.88388,-0.88388 1.76777,0 1.76777,0l0.88473,0.96046c1.9483,3.67455 5.13526,6.66699 7.30325,10.2803c0,0 0.64312,1.07187 -0.42875,1.71499c-1.07187,0.64312 -1.71499,-0.42875 -1.71499,-0.42875c-2.19606,-3.66011 -5.35518,-6.66779 -7.36342,-10.38637l-0.4486,-0.37287c0,0 -0.88388,-0.88388 0,-1.76777z" fill="#0048ff" fill-rule="nonzero" stroke="none" stroke-width="0.5" stroke-linecap="butt" stroke-linejoin="miter"/><path d="M189.61612,197.38695c0.88388,-0.88388 1.76777,0 1.76777,0l1.4635,1.48633c1.20355,2.40617 3.443,4.40591 5.16718,6.4893c4.45746,5.3861 8.92789,10.70279 13.52726,15.96746c2.33503,2.6728 4.57381,6.56015 7.37484,8.60746c0,0 1,0.75 0.25,1.75c-0.75,1 -1.75,0.25 -1.75,0.25c-1.97111,-1.50797 -2.81323,-3.43799 -4.38378,-5.31026c-1.58751,-1.89248 -3.38788,-3.66849 -5.0186,-5.53479c-4.06431,-4.65145 -7.98613,-9.37564 -11.9257,-14.13595c-1.75607,-2.12191 -4.04401,-4.16991 -5.2693,-6.62145l-1.20316,-1.18034c0,0 -0.88388,-0.88388 0,-1.76777z" fill="#0048ff" fill-rule="nonzero" stroke="none" stroke-width="0.5" stroke-linecap="butt" stroke-linejoin="miter"/><path d="M294.86339,215.56267c0.70816,1.03005 -0.32189,1.73821 -0.32189,1.73821l-1.21312,0.83402c-6.75783,4.64601 -13.46804,9.21003 -19.27782,15.01981c0,0 -0.88388,0.88388 -1.76777,0c-0.88388,-0.88388 0,-1.76777 0,-1.76777c5.91939,-5.91939 12.74464,-10.57897 19.62927,-15.31215l1.21312,-0.83402c0,0 1.03005,-0.70816 1.73821,0.32189z" fill="#0048ff" fill-rule="nonzero" stroke="none" stroke-width="0.5" stroke-linecap="butt" stroke-linejoin="miter"/><path d="M302.39235,200.48613c1.11803,0.55902 0.55902,1.67705 0.55902,1.67705l-0.47083,0.88292c-1.50682,1.89273 -3.38649,3.06284 -5.07431,4.75235c-2.81961,2.82244 -5.29989,6.29674 -7.97197,9.30284c0,0 -0.83045,0.93426 -1.76472,0.10381c-0.93426,-0.83045 -0.10381,-1.76472 -0.10381,-1.76472c2.69433,-3.03112 5.19201,-6.50623 8.02803,-9.36383c1.63484,-1.64729 3.48128,-2.7396 4.92569,-4.58098l0.19584,-0.45042c0,0 0.55902,-1.11803 1.67705,-0.55902z" fill="#0048ff" fill-rule="nonzero" stroke="none" stroke-width="0.5" stroke-linecap="butt" stroke-linejoin="miter"/><path d="M185.08333,203.60417c1,-0.75 1.75,0.25 1.75,0.25l1.03731,1.38585c0.9341,1.55896 1.89328,2.86397 3.17991,4.14694c0,0 0.88388,0.88388 0,1.76777c-0.88388,0.88388 -1.76777,0 -1.76777,0c-1.39204,-1.39563 -2.47208,-2.83086 -3.48676,-4.51973l-0.96269,-1.28082c0,0 -0.75,-1 0.25,-1.75z" fill="#0048ff" fill-rule="nonzero" stroke="none" stroke-width="0.5" stroke-linecap="butt" stroke-linejoin="miter"/></g></g></svg>