<svg version="1.1" xmlns="http://www.w3.org/2000/svg" xmlns:xlink="http://www.w3.org/1999/xlink" width="203.01371" height="117.08711" viewBox="0,0,203.01371,117.08711"><g transform="translate(-192.32101,-113.25446)"><g data-paper-data="{&quot;isPaintingLayer&quot;:true}" stroke-miterlimit="10" stroke-dasharray="" stroke-dashoffset="0" style="mix-blend-mode: normal"><g fill-rule="evenodd"><path d="M224.7,201.10001c0.8,0.4 2.5,1.3 0.1,4.7c-2.4,3.4 -9.3,4.1 -10.1,4.1c-3.1,0.1 -6.9,0.1 -11.1,-1.3c-12.2,-4 -12.3,-17.1 -8.4,-19.2c3.8,-2.1 5.5,6 11,10.9c2.4,2.2 5.3,3 7.7,3.5c3.4,0.6 9.9,-3.2 10.8,-2.7z" fill="#ffab19" stroke="#001026" stroke-width="1.2" stroke-linecap="round" stroke-linejoin="round"/><path d="M199.9,193.00001c1.6,2.7 4.7,6.5 4.7,6.5c0,0 -3.7,-0.9 -5.8,0.8c-1.7,1.3 -1.3,3.5 -1.1,4.2c-1.3,-1.3 -2.9,-3.1 -3.9,-6.6c-1,-3.5 0,-7.7 2,-8.3c2,-0.4 2.5,1.1 4.1,3.4z" fill="#ffffff" stroke="none" stroke-width="1" stroke-linecap="butt" stroke-linejoin="miter"/></g><path d="M229.7,211.50001c-1.8,1.2 -8,5.6 -15.9,8.1l-0.4,0.1c-0.4,0.1 -0.6,0.6 -0.4,1c1.7,2.4 4.8,7.2 -0.7,8.9c-5.3,1.7 -15.2,-12.4 -11,-16.1c1.9,-1.4 3.6,-0.7 4.5,-0.3c0.5,0.2 1,0.2 1.5,0.1c1.2,-0.4 3.4,-1.2 5.1,-2.1c4.3,-2.2 5.3,-3.1 7.3,-4.6c2,-1.5 6.6,-5.2 10.3,-2c3.2,2.7 1.4,5.7 -0.3,6.9z" fill="#ffab19" fill-rule="evenodd" stroke="#001026" stroke-width="1.2" stroke-linecap="round" stroke-linejoin="round"/><path d="M245.6,190.7c0.5,0.4 6.6,7.6 8.6,5.8c2.4,-2.1 5.7,-6.2 9.3,-2.9c3.6,3.3 -3.2,8.9 -6.1,10.4c-6.9,3.1 -12.5,-2.8 -13.7,-4.4c-1.2,-1.6 -3.3,-4.3 -3.3,-6.9c0.1,-2.8 3.5,-3.5 5.2,-2z" fill="#ffab19" fill-rule="evenodd" stroke="#001026" stroke-width="1.2" stroke-linecap="round" stroke-linejoin="round"/><g fill-rule="evenodd"><path d="M245.7,214.00001c2.1,1.9 6.7,5.8 6.7,5.8c0,0 14.3,-2.5 14.3,4.7c0,4.3 -7.2,5.3 -16.9,4.4c-0.6,-0.1 -1.2,-0.3 -1.7,-0.7c-2.2,-1.9 -8.5,-7.5 -12.5,-11.4c-5.9,-5.8 -10.8,-9.6 -10.8,-9.6c-8.5,-8.3 -1.6,-11.8 1.1,-16.6c2.5,-4.1 3.6,-3.3 9.6,-2.1c3.4,0.5 5.4,0.8 7.6,0.7c3.3,-0.1 2.7,4.7 1.8,7.2c0,0 -1.4,3.7 -2.7,5.6c-1.6,2.3 -2.8,3.8 -4,4.7z" fill="#ffab19" stroke="#001026" stroke-width="1.2" stroke-linecap="round" stroke-linejoin="round"/><path d="M237.3,206.60001c0,0 -1.5,-1.2 -3.1,-2.7c-2,-1.8 -4,-3.3 -2,-6.4c1.8,-2.4 3.5,-5.6 8,-2.7c4.3,2.7 2.4,5.2 2.4,5.2c-2.2,4.5 -5.3,6.6 -5.3,6.6z" fill="#ffffff" stroke="none" stroke-width="1" stroke-linecap="butt" stroke-linejoin="miter"/></g><path d="M222.2,198.40001c2.2,2.8 5.6,6.3 1.3,9.2c-5.9,3.3 -10.8,-6.7 -11.8,-10.2c-0.9,-3.1 1.7,-5.1 3.9,-6.8c4.3,-3.1 7.9,-5.9 11.9,-4.4c5,1.8 1.4,5.8 -1.1,7.6c-1.5,1.1 -3,2.3 -4.1,3c-0.3,0.5 -0.4,1.1 -0.1,1.6z" fill="#ffab19" fill-rule="evenodd" stroke="#001026" stroke-width="1.2" stroke-linecap="round" stroke-linejoin="round"/><g fill-rule="evenodd"><path d="M253.1956,132.82324c0.30643,-0.19 0.80286,-0.07357 0.88962,0.32951l2.24577,10.77991c0,0 6.24154,4.90848 8.0317,8.26933c3.0169,5.60253 2.96847,10.10338 2.96847,10.10338c0,0 7.02689,2.33297 8.03829,8.06944c1.0114,5.73647 -3.74233,16.38551 -22.65411,19.46359c-18.91178,3.07808 -33.8354,-2.51705 -40.55564,-14.14497c-6.72024,-11.62791 4.92212,-24.85121 4.29606,-24.07143l-1.50863,-17.95951c-0.08676,-0.40308 0.42286,-0.68643 0.81605,-0.47335l11.83293,8.29469c0,0 4.55361,-1.55069 9.25765,-1.59561c2.80507,-0.10756 5.19717,0.17146 7.48273,0.64709z" fill="#ffab19" stroke="#001026" stroke-width="1.2" stroke-linecap="butt" stroke-linejoin="miter"/><path d="M267.01812,162.69527c0,0 6.8369,2.02654 7.84829,7.76301c1.0114,5.73647 -4.12562,15.87259 -22.83421,18.85732c-24.35171,4.19931 -35.37063,-10.57205 -28.32475,-20.94536c7.04918,-10.47326 18.24286,-0.99901 26.65808,-1.3217c7.21257,-0.26232 8.21987,-6.53251 16.6526,-4.35327z" fill="#ffffff" stroke="none" stroke-width="1" stroke-linecap="butt" stroke-linejoin="miter"/><path d="M235.18243,172.35078c0.01319,-0.39978 0.42286,-0.68643 0.81935,-0.57329c1.87589,0.76227 7.22019,2.53946 13.20374,3.13708c5.38717,0.4779 8.59532,0.28357 10.1044,0.0332c0.50303,-0.08346 0.88632,0.42946 0.66994,0.92259c-0.98854,2.66886 -5.03378,10.03948 -15.50828,9.09358c-9.06208,-1.29952 -9.75056,-7.72571 -9.28915,-12.61316z" fill="#ffffff" stroke="#001026" stroke-width="1.2" stroke-linecap="round" stroke-linejoin="round"/><path d="M356.68011,161.94722c-4.82274,3.64296 -82.45739,5.98846 -82.45739,5.98846" fill="none" stroke="#001026" stroke-width="1.2" stroke-linecap="round" stroke-linejoin="round"/><path d="M358.41714,175.8325c-6.31307,0.29199 -84.86218,-2.01564 -84.86218,-2.01564" fill="none" stroke="#001026" stroke-width="1.2" stroke-linecap="round" stroke-linejoin="round"/><path d="M250.05147,164.43675c2.09886,0.06924 4.29107,0.34168 4.36793,1.0446c0.05378,1.40254 -1.53773,4.15155 -3.14016,4.19874c-1.80562,0.14054 -5.9209,-2.49659 -5.86814,-4.09572c-0.06038,-1.20264 2.64145,-1.21356 4.64036,-1.14761z" fill="#001026" stroke="#001026" stroke-width="1.2" stroke-linecap="round" stroke-linejoin="round"/><path d="M217.02428,167.74952c-3.39588,-3.21372 139.00575,15.72495 139.00575,15.72495" fill="none" stroke="#001026" stroke-width="1.2" stroke-linecap="round" stroke-linejoin="round"/><path d="M344.89244,197.91922c0,0 14.35549,3.84263 12.86995,3.55906c-17.51761,-3.34407 -144.56707,-28.7852 -140.55369,-30.22075" fill="none" stroke="#001026" stroke-width="1.2" stroke-linecap="round" stroke-linejoin="round"/><g><path d="M262.23085,153.13221c2.75004,4.59318 2.68182,9.6937 -0.17601,11.4004c-2.85783,1.70669 -7.38608,-0.54384 -10.23607,-5.14032c-2.75004,-4.59318 -2.68182,-9.6937 0.17601,-11.4004c2.86113,-1.80664 7.48603,0.54714 10.23607,5.14032z" fill="#ffffff" stroke="#001026" stroke-width="1.2" stroke-linecap="round" stroke-linejoin="round"/><path d="M261.64311,158.81592c-0.03627,1.0994 -0.86551,1.97253 -1.86497,1.93956c-0.99946,-0.03297 -1.76934,-0.95886 -1.73307,-2.05827c0.03627,-1.0994 0.86551,-1.97253 1.86497,-1.93956c0.99946,0.03297 1.76934,0.95886 1.73307,2.05827" fill="#001026" stroke="none" stroke-width="1" stroke-linecap="butt" stroke-linejoin="miter"/></g><g><path d="M237.35201,155.11294c2.85328,4.49653 2.47533,9.887 -0.28585,11.69694c-3.36086,1.79015 -7.7123,0.24583 -10.56558,-4.2507c-2.95323,-4.49983 -2.96517,-10.20332 0.20569,-12.29991c3.17415,-2.19653 7.79246,0.35714 10.64574,4.85367z" fill="#ffffff" stroke="#001026" stroke-width="1.2" stroke-linecap="round" stroke-linejoin="round"/><path d="M236.56108,160.89c-0.03627,1.0994 -0.86551,1.97253 -1.86497,1.93956c-0.99946,-0.03297 -1.76934,-0.95886 -1.73307,-2.05827c0.03627,-1.0994 0.86551,-1.97253 1.86497,-1.93956c0.99616,0.13292 1.76934,0.95886 1.73307,2.05827" fill="#001026" stroke="none" stroke-width="1" stroke-linecap="butt" stroke-linejoin="miter"/></g></g><path d="M285.98654,178.49194l82.10706,-29.26155" fill="none" fill-rule="nonzero" stroke="#001026" stroke-width="1.2" stroke-linecap="round" stroke-linejoin="miter"/><path d="M366.34665,183.29608l-29.6983,-8.29806l14.41241,-44.98419" fill="none" fill-rule="nonzero" stroke="#001026" stroke-width="1.2" stroke-linecap="round" stroke-linejoin="miter"/><path d="M324.85638,190.72066l-30.13504,-48.04137" fill="none" fill-rule="nonzero" stroke="#001026" stroke-width="1.2" stroke-linecap="round" stroke-linejoin="miter"/><path d="M311.31745,198.14523l25.3309,-31.44526" fill="none" fill-rule="nonzero" stroke="#001026" stroke-width="1.2" stroke-linecap="round" stroke-linejoin="miter"/><path d="M377.70188,144.86298l-38.86984,10.48176" fill="none" fill-rule="nonzero" stroke="#001026" stroke-width="1.2" stroke-linecap="round" stroke-linejoin="miter"/><path d="M325.29311,173.25107l-11.35523,-23.58395" fill="none" fill-rule="nonzero" stroke="#001026" stroke-width="1.2" stroke-linecap="round" stroke-linejoin="miter"/><path d="M277.25175,190.72066l40.18005,-24.02068" fill="none" fill-rule="nonzero" stroke="#001026" stroke-width="1.2" stroke-linecap="round" stroke-linejoin="miter"/><path d="M343.19944,171.50411l18.34307,30.57178" fill="none" fill-rule="nonzero" stroke="#001026" stroke-width="1.2" stroke-linecap="round" stroke-linejoin="miter"/><path d="M268.51695,150.5406l47.60463,1.31022" fill="none" fill-rule="nonzero" stroke="#001026" stroke-width="1.2" stroke-linecap="round" stroke-linejoin="miter"/><path d="M334.90139,156.65496l30.57178,-19.65329" fill="none" fill-rule="nonzero" stroke="#001026" stroke-width="1.2" stroke-linecap="round" stroke-linejoin="miter"/><path d="M303.45613,140.93233l24.89416,50.22506" fill="none" fill-rule="nonzero" stroke="#001026" stroke-width="1.2" stroke-linecap="round" stroke-linejoin="miter"/><path d="M296.4683,205.13307l34.93918,-33.19222" fill="none" fill-rule="nonzero" stroke="#001026" stroke-width="1.2" stroke-linecap="round" stroke-linejoin="miter"/><path d="M342.7627,174.12454l15.72263,35.81266" fill="none" fill-rule="nonzero" stroke="#001026" stroke-width="1.2" stroke-linecap="round" stroke-linejoin="miter"/><path d="M337.08509,136.12819l17.90633,50.66181" fill="none" fill-rule="nonzero" stroke="#001026" stroke-width="1.2" stroke-linecap="round" stroke-linejoin="miter"/><path d="M260.65564,178.92868l125.34429,-33.19222" fill="none" fill-rule="nonzero" stroke="#001026" stroke-width="1.2" stroke-linecap="round" stroke-linejoin="miter"/><path d="M375.08144,184.6063l-82.98055,-18.77981" fill="none" fill-rule="nonzero" stroke="#001026" stroke-width="1.2" stroke-linecap="round" stroke-linejoin="miter"/><path d="M318.30528,207.31677l-18.34307,-75.55597" fill="none" fill-rule="nonzero" stroke="#001026" stroke-width="1.2" stroke-linecap="round" stroke-linejoin="miter"/><path d="M281.61915,128.26687l71.62531,49.78833" fill="none" fill-rule="nonzero" stroke="#001026" stroke-width="1.2" stroke-linecap="round" stroke-linejoin="miter"/><path d="M379.88558,121.27903l-45.42093,50.6618" fill="none" fill-rule="nonzero" stroke="#001026" stroke-width="1.2" stroke-linecap="round" stroke-linejoin="miter"/><path d="M288.60698,208.62697l22.71046,-45.42093" fill="none" fill-rule="nonzero" stroke="#001026" stroke-width="1.2" stroke-linecap="round" stroke-linejoin="miter"/><path d="M299.52547,113.85446l29.6983,65.07421l-9.60827,47.16789" fill="none" fill-rule="nonzero" stroke="#001026" stroke-width="1.2" stroke-linecap="round" stroke-linejoin="miter"/><path d="M315.68484,164.51626l6.11436,-41.49027" fill="none" fill-rule="nonzero" stroke="#001026" stroke-width="1.2" stroke-linecap="round" stroke-linejoin="miter"/><path d="M316.99507,160.14887l51.53528,-5.67762" fill="none" fill-rule="nonzero" stroke="#001026" stroke-width="1.2" stroke-linecap="round" stroke-linejoin="miter"/><path d="M385.99994,172.37758l-47.60463,-12.22871" fill="none" fill-rule="nonzero" stroke="#001026" stroke-width="1.2" stroke-linecap="round" stroke-linejoin="miter"/><path d="M361.54251,217.36177l-31.882,-58.52312l47.16789,58.52312" fill="none" fill-rule="nonzero" stroke="#001026" stroke-width="1.2" stroke-linecap="round" stroke-linejoin="miter"/><path d="M341.88923,202.94936l-11.79197,-14.84915l-4.80414,-58.95986" fill="none" fill-rule="nonzero" stroke="#001026" stroke-width="1.2" stroke-linecap="round" stroke-linejoin="miter"/><path d="M329.22378,226.5333l-0.43674,-80.3601" fill="none" fill-rule="nonzero" stroke="#001026" stroke-width="1.2" stroke-linecap="round" stroke-linejoin="miter"/><path d="M320.48898,154.03451l-56.33942,41.92701" fill="none" fill-rule="nonzero" stroke="#001026" stroke-width="1.2" stroke-linecap="round" stroke-linejoin="miter"/><path d="M309.13375,151.85081l85.60098,-11.35523" fill="none" fill-rule="nonzero" stroke="#001026" stroke-width="1.2" stroke-linecap="round" stroke-linejoin="miter"/></g></g></svg>