<svg version="1.1" xmlns="http://www.w3.org/2000/svg" xmlns:xlink="http://www.w3.org/1999/xlink" width="144.95285" height="93.5" viewBox="0,0,144.95285,93.5"><g transform="translate(-187.75,-133.25)"><g data-paper-data="{&quot;isPaintingLayer&quot;:true}" stroke-miterlimit="10" stroke-dasharray="" stroke-dashoffset="0" style="mix-blend-mode: normal"><path d="M292.25,180c0,25.81931 -23.39312,46.75 -52.25,46.75c-28.85688,0 -52.25,-20.93069 -52.25,-46.75c0,-25.81931 23.39312,-46.75 52.25,-46.75c28.85688,0 52.25,20.93069 52.25,46.75z" fill="none" fill-rule="nonzero" stroke="none" stroke-width="NaN" stroke-linecap="butt" stroke-linejoin="miter"/><text transform="translate(283.87249,203.74413) scale(1.55017,1.55017)" font-size="40" xml:space="preserve" fill="#ff0000" fill-rule="nonzero" stroke="#ffffff" stroke-width="1" stroke-linecap="butt" stroke-linejoin="miter" stroke-miterlimit="10" stroke-dasharray="" stroke-dashoffset="0" font-family="Marker" font-weight="normal" text-anchor="start" style="mix-blend-mode: normal"><tspan x="0" dy="0">4</tspan></text><g fill-rule="evenodd"><path d="M236.281,153.0803c0.27941,-0.18628 0.7451,-0.09314 0.83824,0.27941l2.42159,9.96575c0,0 5.96082,4.37748 7.73044,7.45103c2.98041,5.12258 3.07355,9.31379 3.07355,9.31379c0,0 6.61279,1.9559 7.73044,7.26476c1.11765,5.30886 -2.98041,15.36775 -20.49034,18.81385c-17.50992,3.4461 -31.57374,-1.30393 -38.18653,-11.92165c-6.61279,-10.61772 3.81865,-23.28447 3.25983,-22.53937l-1.9559,-16.67168c-0.09314,-0.37255 0.37255,-0.65197 0.7451,-0.46569l11.26968,7.35789c0,0 4.1912,-1.58334 8.56869,-1.76962c2.60786,-0.18628 4.84317,0 6.98534,0.37255z" fill="#ffab19" stroke="#001026" stroke-width="1.2" stroke-linecap="butt" stroke-linejoin="miter"/><path d="M250.0654,180.46284c0,0 6.42651,1.67648 7.54417,6.98534c1.11765,5.30886 -3.35296,14.90206 -20.67661,18.25503c-22.53937,4.65689 -33.25023,-8.75496 -27.00999,-18.62758c6.24024,-9.96575 16.9511,-1.49021 24.77468,-2.04903c6.70593,-0.46569 7.45103,-6.33338 15.36775,-4.56376z" fill="#ffffff" stroke="none" stroke-width="1" stroke-linecap="butt" stroke-linejoin="miter"/><path d="M220.72697,190.42859c0,-0.37255 0.37255,-0.65197 0.7451,-0.55883c1.76962,0.65197 6.79907,2.14217 12.38734,2.51472c5.02945,0.27941 8.00986,0 9.40693,-0.27941c0.46569,-0.09314 0.83824,0.37255 0.65197,0.83824c-0.83824,2.51472 -4.37748,9.50006 -14.15696,8.94124c-8.47555,-0.93138 -9.31379,-6.8922 -9.03438,-11.45596z" fill="#ffffff" stroke="#001026" stroke-width="1.2" stroke-linecap="round" stroke-linejoin="round"/><path d="M267.20277,181.48735c-4.37748,3.53924 -11.08341,3.63238 -11.08341,3.63238" fill="none" stroke="#001026" stroke-width="1.2" stroke-linecap="round" stroke-linejoin="round"/><path d="M265.99198,191.9188c-5.86769,0.46569 -9.50006,-1.30393 -9.50006,-1.30393" fill="none" stroke="#001026" stroke-width="1.2" stroke-linecap="round" stroke-linejoin="round"/><path d="M234.3251,182.60501c1.9559,0 4.00493,0.18628 4.09807,0.83824c0.09314,1.30393 -1.30393,3.91179 -2.79414,4.00493c-1.67648,0.18628 -5.58827,-2.14217 -5.58827,-3.63238c-0.09314,-1.11765 2.42159,-1.21079 4.28434,-1.21079z" fill="#001026" stroke="#001026" stroke-width="1.2" stroke-linecap="round" stroke-linejoin="round"/><path d="M192.41305,181.20794c0,0 8.00986,2.60786 11.26968,5.49514" fill="none" stroke="#001026" stroke-width="1.2" stroke-linecap="round" stroke-linejoin="round"/><path d="M203.96215,189.9629c-4.00493,1.58334 -10.89713,0.55883 -10.89713,0.55883" fill="none" stroke="#001026" stroke-width="1.2" stroke-linecap="round" stroke-linejoin="round"/><g><path d="M245.31537,171.70788c2.701,4.1912 2.79414,8.94124 0.18628,10.61772c-2.60786,1.67648 -6.8922,-0.27941 -9.68634,-4.47062c-2.701,-4.1912 -2.79414,-8.94124 -0.18628,-10.61772c2.60786,-1.76962 6.98534,0.27941 9.68634,4.47062z" fill="#ffffff" stroke="#001026" stroke-width="1.2" stroke-linecap="round" stroke-linejoin="round"/><path d="M244.94282,177.01674c0,1.02452 -0.7451,1.86276 -1.67648,1.86276c-0.93138,0 -1.67648,-0.83824 -1.67648,-1.86276c0,-1.02452 0.7451,-1.86276 1.67648,-1.86276c0.93138,0 1.67648,0.83824 1.67648,1.86276" fill="#001026" stroke="none" stroke-width="1" stroke-linecap="butt" stroke-linejoin="miter"/></g><g><path d="M222.21717,174.31574c2.79414,4.09807 2.60786,9.12751 0.09314,10.89713c-3.07355,1.76962 -7.17162,0.46569 -9.96575,-3.63238c-2.88727,-4.09807 -3.07355,-9.40693 -0.18628,-11.45596c2.88727,-2.14217 7.26476,0.09314 10.05889,4.1912z" fill="#ffffff" stroke="#001026" stroke-width="1.2" stroke-linecap="round" stroke-linejoin="round"/><path d="M221.65835,179.71773c0,1.02452 -0.7451,1.86276 -1.67648,1.86276c-0.93138,0 -1.67648,-0.83824 -1.67648,-1.86276c0,-1.02452 0.7451,-1.86276 1.67648,-1.86276c0.93138,0.09314 1.67648,0.83824 1.67648,1.86276" fill="#001026" stroke="none" stroke-width="1" stroke-linecap="butt" stroke-linejoin="miter"/></g></g><path d="M254.6572,170.82737l22.73628,22.06265" fill="none" fill-rule="nonzero" stroke="#000000" stroke-width="3.5" stroke-linecap="round" stroke-linejoin="miter"/><path d="M276.79211,170.91135l-20.4908,23.70413" fill="none" fill-rule="nonzero" stroke="#000000" stroke-width="3.5" stroke-linecap="round" stroke-linejoin="miter"/></g></g></svg>