<svg version="1.1" xmlns="http://www.w3.org/2000/svg" xmlns:xlink="http://www.w3.org/1999/xlink" width="49.4" height="48.11392" viewBox="0,0,49.4,48.11392"><g transform="translate(-216,-156.44304)"><g data-paper-data="{&quot;isPaintingLayer&quot;:true}" fill-rule="nonzero" stroke-linecap="butt" stroke-linejoin="miter" stroke-miterlimit="10" stroke-dasharray="" stroke-dashoffset="0" style="mix-blend-mode: normal"><path d="M264.4,181c0,12.45786 -10.29745,22.55696 -23,22.55696c-12.70255,0 -23,-10.0991 -23,-22.55696c0,-12.45786 10.29745,-22.55696 23,-22.55696c12.70255,0 23,10.0991 23,22.55696z" fill="#ff0000" stroke="#000000" stroke-width="2"/><path d="M263,180c0,12.45787 -10.29745,22.55696 -23,22.55696c-12.70255,0 -23,-10.0991 -23,-22.55696c0,-12.45787 10.29745,-22.55696 23,-22.55696c12.70255,0 23,10.0991 23,22.55696z" fill="#ff0000" stroke="#000000" stroke-width="2"/><text transform="translate(225.83,185.76875) scale(0.5,0.5)" font-size="40" xml:space="preserve" fill="#000000" fill-rule="nonzero" stroke="none" stroke-width="1" stroke-linecap="butt" stroke-linejoin="miter" stroke-miterlimit="10" stroke-dasharray="" stroke-dashoffset="0" font-family="Sans Serif" font-weight="normal" text-anchor="start" style="mix-blend-mode: normal"><tspan x="0" dy="0">OK</tspan></text></g></g></svg>