<svg version="1.1" xmlns="http://www.w3.org/2000/svg" xmlns:xlink="http://www.w3.org/1999/xlink" width="94.89927" height="100.98127" viewBox="0,0,94.89927,100.98127"><g transform="translate(-192.32102,-129.36029)"><g data-paper-data="{&quot;isPaintingLayer&quot;:true}" fill-rule="evenodd" stroke-miterlimit="10" stroke-dasharray="" stroke-dashoffset="0" style="mix-blend-mode: normal"><g><path d="M224.7,201.1c0.8,0.4 2.5,1.3 0.1,4.7c-2.4,3.4 -9.3,4.1 -10.1,4.1c-3.1,0.1 -6.9,0.1 -11.1,-1.3c-12.2,-4 -12.3,-17.1 -8.4,-19.2c3.8,-2.1 5.5,6 11,10.9c2.4,2.2 5.3,3 7.7,3.5c3.4,0.6 9.9,-3.2 10.8,-2.7z" fill="#ffab19" stroke="#001026" stroke-width="1.2" stroke-linecap="round" stroke-linejoin="round"/><path d="M199.9,193c1.6,2.7 4.7,6.5 4.7,6.5c0,0 -3.7,-0.9 -5.8,0.8c-1.7,1.3 -1.3,3.5 -1.1,4.2c-1.3,-1.3 -2.9,-3.1 -3.9,-6.6c-1,-3.5 0,-7.7 2,-8.3c2,-0.4 2.5,1.1 4.1,3.4z" fill="#ffffff" stroke="none" stroke-width="1" stroke-linecap="butt" stroke-linejoin="miter"/></g><path d="M229.7,211.5c-1.8,1.2 -8,5.6 -15.9,8.1l-0.4,0.1c-0.4,0.1 -0.6,0.6 -0.4,1c1.7,2.4 4.8,7.2 -0.7,8.9c-5.3,1.7 -15.2,-12.4 -11,-16.1c1.9,-1.4 3.6,-0.7 4.5,-0.3c0.5,0.2 1,0.2 1.5,0.1c1.2,-0.4 3.4,-1.2 5.1,-2.1c4.3,-2.2 5.3,-3.1 7.3,-4.6c2,-1.5 6.6,-5.2 10.3,-2c3.2,2.7 1.4,5.7 -0.3,6.9z" fill="#ffab19" stroke="#001026" stroke-width="1.2" stroke-linecap="round" stroke-linejoin="round"/><path d="M245.6,190.7c0.5,0.4 6.6,7.6 8.6,5.8c2.4,-2.1 5.7,-6.2 9.3,-2.9c3.6,3.3 -3.2,8.9 -6.1,10.4c-6.9,3.1 -12.5,-2.8 -13.7,-4.4c-1.2,-1.6 -3.3,-4.3 -3.3,-6.9c0.1,-2.8 3.5,-3.5 5.2,-2z" fill="#ffab19" stroke="#001026" stroke-width="1.2" stroke-linecap="round" stroke-linejoin="round"/><g><path d="M245.7,214c2.1,1.9 6.7,5.8 6.7,5.8c0,0 14.3,-2.5 14.3,4.7c0,4.3 -7.2,5.3 -16.9,4.4c-0.6,-0.1 -1.2,-0.3 -1.7,-0.7c-2.2,-1.9 -8.5,-7.5 -12.5,-11.4c-5.9,-5.8 -10.8,-9.6 -10.8,-9.6c-8.5,-8.3 -1.6,-11.8 1.1,-16.6c2.5,-4.1 3.6,-3.3 9.6,-2.1c3.4,0.5 5.4,0.8 7.6,0.7c3.3,-0.1 2.7,4.7 1.8,7.2c0,0 -1.4,3.7 -2.7,5.6c-1.6,2.3 -2.8,3.8 -4,4.7z" fill="#ffab19" stroke="#001026" stroke-width="1.2" stroke-linecap="round" stroke-linejoin="round"/><path d="M237.3,206.6c0,0 -1.5,-1.2 -3.1,-2.7c-2,-1.8 -4,-3.3 -2,-6.4c1.8,-2.4 3.5,-5.6 8,-2.7c4.3,2.7 2.4,5.2 2.4,5.2c-2.2,4.5 -5.3,6.6 -5.3,6.6z" fill="#ffffff" stroke="none" stroke-width="1" stroke-linecap="butt" stroke-linejoin="miter"/></g><path d="M222.2,198.4c2.2,2.8 5.6,6.3 1.3,9.2c-5.9,3.3 -10.8,-6.7 -11.8,-10.2c-0.9,-3.1 1.7,-5.1 3.9,-6.8c4.3,-3.1 7.9,-5.9 11.9,-4.4c5,1.8 1.4,5.8 -1.1,7.6c-1.5,1.1 -3,2.3 -4.1,3c-0.3,0.5 -0.4,1.1 -0.1,1.6z" fill="#ffab19" stroke="#001026" stroke-width="1.2" stroke-linecap="round" stroke-linejoin="round"/><g><path d="M256.206,131.71658c0.3163,-0.17308 0.80567,-0.02987 0.87042,0.37733l1.65717,10.88594c0,0 5.96584,5.24011 7.57087,8.69321c2.70827,5.75806 2.41554,10.24964 2.41554,10.24964c0,0 6.88986,2.71105 7.58831,8.49397c0.69845,5.78292 -4.62644,16.15816 -23.67745,18.2049c-19.05101,2.04674 -33.64883,-4.3504 -39.72783,-16.32603c-6.079,-11.97563 6.26413,-24.54732 5.59666,-23.80268l-0.53131,-18.01493c-0.06474,-0.4072 0.45951,-0.66246 0.84055,-0.42834l11.36512,8.92491c0,0 4.63109,-1.30117 9.33062,-1.09062c2.80677,0.04489 5.1802,0.45339 7.43656,1.0524z" fill="#ffab19" stroke="#001026" stroke-width="1.2" stroke-linecap="butt" stroke-linejoin="miter"/><path d="M268.38627,162.29502c0,0 6.71678,2.39475 7.41523,8.17767c0.69845,5.78292 -4.98132,15.62519 -23.82437,17.58975c-24.54379,2.87097 -34.74446,-12.47687 -27.14577,-22.45233c7.60741,-10.07508 18.27019,-0.00706 26.69052,0.12762c7.21618,0.12967 8.56242,-6.07659 16.86439,-3.44271z" fill="#ffffff" stroke="none" stroke-width="1" stroke-linecap="butt" stroke-linejoin="miter"/><path d="M236.0733,170.2078c0.03488,-0.39848 0.45951,-0.66246 0.84927,-0.52796c1.83173,0.86299 7.07166,2.92773 13.01394,3.84934c5.35328,0.76968 8.56725,0.74983 10.08769,0.58176c0.50681,-0.05602 0.8617,0.47695 0.61886,0.95761c-1.13198,2.61125 -5.57144,9.75136 -15.97913,8.23816c-8.97816,-1.78962 -9.31671,-8.24372 -8.59063,-13.0989z" fill="#ffffff" stroke="#001026" stroke-width="1.2" stroke-linecap="round" stroke-linejoin="round"/><path d="M286.62028,164.99512c-5.01342,3.37574 -12.19472,2.84759 -12.19472,2.84759" fill="none" stroke="#001026" stroke-width="1.2" stroke-linecap="round" stroke-linejoin="round"/><path d="M284.34871,176.03913c-6.3196,-0.0512 -10.03909,-2.284 -10.03909,-2.284" fill="none" stroke="#001026" stroke-width="1.2" stroke-linecap="round" stroke-linejoin="round"/><path d="M251.35009,163.11276c2.092,0.1831 4.26619,0.57415 4.30477,1.28021c-0.02245,1.40339 -1.76086,4.06194 -3.36349,4.02206c-1.81058,0.0423 -5.77661,-2.81438 -5.63711,-4.40829c0.00501,-1.20415 2.70345,-1.06836 4.69583,-0.89398z" fill="#001026" stroke="#001026" stroke-width="1.2" stroke-linecap="round" stroke-linejoin="round"/><path d="M206.65225,157.69494c0,0 8.32312,3.53917 11.5395,6.93253" fill="none" stroke="#001026" stroke-width="1.2" stroke-linecap="round" stroke-linejoin="round"/><path d="M218.18544,168.14029c-4.43185,1.31861 -11.70776,-0.4224 -11.70776,-0.4224" fill="none" stroke="#001026" stroke-width="1.2" stroke-linecap="round" stroke-linejoin="round"/><g><path d="M264.12527,152.48616c2.4966,4.73571 2.15155,9.82501 -0.79472,11.37402c-2.94628,1.54901 -7.34566,-0.94406 -9.94188,-5.68849c-2.4966,-4.73571 -2.15155,-9.82501 0.79472,-11.37402c2.955,-1.64863 7.44528,0.95278 9.94188,5.68849z" fill="#ffffff" stroke="#001026" stroke-width="1.2" stroke-linecap="round" stroke-linejoin="round"/><path d="M263.22981,158.12957c-0.09591,1.09581 -0.97133,1.92263 -1.96752,1.83544c-0.99619,-0.08719 -1.71467,-1.05351 -1.61877,-2.14932c0.09591,-1.09581 0.97133,-1.92263 1.96752,-1.83544c0.99619,0.08719 1.71467,1.05351 1.61877,2.14932" fill="#001026" stroke="none" stroke-width="1" stroke-linecap="butt" stroke-linejoin="miter"/></g><g><path d="M239.17558,153.11319c2.60494,4.64481 1.93488,10.00681 -0.9205,11.66416c-3.45309,1.60504 -7.71427,-0.17326 -10.31921,-4.81808c-2.70456,-4.65353 -2.40682,-10.34926 0.87319,-12.2706c3.28873,-2.02095 7.76158,0.7797 10.36652,5.42451z" fill="#ffffff" stroke="#001026" stroke-width="1.2" stroke-linecap="round" stroke-linejoin="round"/><path d="M238.07217,158.83879c-0.09591,1.09581 -0.97133,1.92263 -1.96752,1.83544c-0.99619,-0.08719 -1.71467,-1.05351 -1.61877,-2.14932c0.09591,-1.09581 0.97133,-1.92263 1.96752,-1.83544c0.98747,0.18681 1.71467,1.05351 1.61877,2.14932" fill="#001026" stroke="none" stroke-width="1" stroke-linecap="butt" stroke-linejoin="miter"/></g></g></g></g></svg>