<svg version="1.1" xmlns="http://www.w3.org/2000/svg" xmlns:xlink="http://www.w3.org/1999/xlink" width="168.79497" height="116.12781" viewBox="0,0,168.79497,116.12781"><defs><linearGradient x1="357.34307" y1="209.91883" x2="260.84706" y2="215.41719" gradientUnits="userSpaceOnUse" id="color-1"><stop offset="0" stop-color="#abb4c9"/><stop offset="1" stop-color="#d9e2ff"/></linearGradient><radialGradient cx="305.79834" cy="225.25487" r="50.0654" gradientUnits="userSpaceOnUse" id="color-2"><stop offset="0" stop-color="#dae9ff"/><stop offset="1" stop-color="#9ea5ba"/></radialGradient><linearGradient x1="342.68254" y1="191.38313" x2="259.02923" y2="212.93843" gradientUnits="userSpaceOnUse" id="color-3"><stop offset="0" stop-color="#abb4c9"/><stop offset="1" stop-color="#d9e2ff"/></linearGradient><linearGradient x1="307.92253" y1="120.63119" x2="254.90962" y2="191.70993" gradientUnits="userSpaceOnUse" id="color-4"><stop offset="0" stop-color="#abb4c9"/><stop offset="1" stop-color="#d9e2ff"/></linearGradient><linearGradient x1="340.28731" y1="122.64397" x2="258.00508" y2="196.06836" gradientUnits="userSpaceOnUse" id="color-5"><stop offset="0" stop-color="#abb4c9"/><stop offset="1" stop-color="#d9e2ff"/></linearGradient><linearGradient x1="352.43138" y1="142.31363" x2="260.11851" y2="200.54851" gradientUnits="userSpaceOnUse" id="color-6"><stop offset="0" stop-color="#abb4c9"/><stop offset="1" stop-color="#d9e2ff"/></linearGradient></defs><g transform="translate(-195.60538,-122.20167)"><g data-paper-data="{&quot;isPaintingLayer&quot;:true}" stroke-miterlimit="10" stroke-dasharray="" stroke-dashoffset="0" style="mix-blend-mode: normal"><path d="M260.59504,211.18037l97.00005,2.97526" fill="none" fill-rule="nonzero" stroke="url(#color-1)" stroke-width="2" stroke-linecap="round" stroke-linejoin="miter"/><path d="M354.61503,237.32948l-97.63339,-24.14925" fill="none" fill-rule="nonzero" stroke="url(#color-2)" stroke-width="2" stroke-linecap="round" stroke-linejoin="miter"/><path d="M343.72771,195.43922l-85.74366,13.44307" fill="none" fill-rule="nonzero" stroke="url(#color-3)" stroke-width="2" stroke-linecap="round" stroke-linejoin="miter"/><g fill-rule="evenodd"><path d="M228.15504,198.08372c0.89351,-0.04052 2.81658,-0.08295 2.3775,4.05555c-0.43908,4.1385 -6.12342,8.11195 -6.82202,8.50177c-2.65835,1.59787 -5.9767,3.4495 -10.32653,4.27349c-12.60274,2.45171 -19.07333,-8.93914 -16.69092,-12.67333c2.29508,-3.68546 7.72651,2.55951 14.91702,4.15844c3.1678,0.7517 6.09004,0.03721 8.42948,-0.69561c3.26141,-1.13277 7.08591,-7.61839 8.11547,-7.62031z" fill="#ffab19" stroke="#001026" stroke-width="1.2" stroke-linecap="round" stroke-linejoin="round"/><path d="M202.55152,203.09473c2.71283,1.57814 7.27154,3.38595 7.27154,3.38595c0,0 -3.66957,1.01698 -4.67504,3.52478c-0.85107,1.96359 0.57023,3.68983 1.08597,4.20365c-1.76868,-0.50177 -4.04297,-1.29399 -6.62167,-3.86309c-2.5787,-2.56911 -3.75199,-6.72403 -2.29785,-8.22252c1.55159,-1.32384 2.71912,-0.2576 5.23705,0.97124z" fill="#ffffff" stroke="none" stroke-width="1" stroke-linecap="butt" stroke-linejoin="miter"/></g><path d="M234.69891,205.58601c-2.09716,0.92091 -9.36967,4.37095 -18.06609,5.52781l-0.43545,0.03086c-0.43545,0.03086 -0.73575,0.51552 -0.60063,0.96932c1.33215,2.81457 3.68361,8.38866 -2.36343,9.15182c-5.83849,0.79987 -13.57359,-15.71968 -8.51501,-18.80691c2.23815,-1.11109 3.88231,-0.06916 4.74734,0.51311c0.48466,0.30032 1.00602,0.39209 1.54574,0.37958c1.32469,-0.19684 3.76553,-0.62724 5.70336,-1.25367c4.88753,-1.50478 6.09546,-2.25969 8.45623,-3.4567c2.36077,-1.19701 7.83643,-4.21082 11.1072,-0.19498c2.84118,3.4027 0.41364,6.20051 -1.57925,7.13978z" fill="#ffab19" fill-rule="evenodd" stroke="#001026" stroke-width="1.2" stroke-linecap="round" stroke-linejoin="round"/><path d="M246.76134,195.26227c0.00555,0.78946 -2.32554,12.53338 1.21208,12.59578c4.18313,0.12955 11.18862,-0.79623 10.79432,5.2704c-0.3943,6.06665 -11.88467,5.38097 -15.86656,4.27983c-8.98929,-3.04685 -7.5832,-13.18187 -6.9348,-15.65931c0.64844,-2.47743 1.67972,-6.7219 4.36804,-9.08904c2.97892,-2.46417 6.55277,-0.20941 6.42688,2.60228z" fill="#ffab19" fill-rule="evenodd" stroke="#001026" stroke-width="1.2" stroke-linecap="round" stroke-linejoin="round"/><g fill-rule="evenodd"><path d="M244.18642,215.0374c1.41446,2.58786 4.59135,7.99005 4.59135,7.99005c0,0 14.26143,1.91405 12.10227,9.23997c-1.2895,4.3752 -8.39248,3.14821 -17.28789,-0.79133c-0.53694,-0.28879 -1.04388,-0.67933 -1.39638,-1.24219c-1.50895,-2.61904 -5.78231,-10.2809 -8.39228,-15.49603c-3.83544,-7.74066 -7.32577,-13.1346 -7.32577,-13.1346c-5.54241,-11.09489 2.02684,-12.50515 6.01744,-16.54741c3.59172,-3.39237 4.39117,-2.23547 9.70056,0.85591c3.06264,1.56864 4.86243,2.49734 6.97114,3.08141c3.14809,0.92697 1.14171,5.62387 -0.45838,7.88703c0,0 -2.4324,3.32829 -4.23051,4.85626c-2.20154,1.84145 -3.78522,2.9936 -5.18896,3.53526z" fill="#ffab19" stroke="#001026" stroke-width="1.2" stroke-linecap="round" stroke-linejoin="round"/><path d="M238.46861,204.88943c0,0 -1.05746,-1.68859 -2.11944,-3.71359c-1.34997,-2.45495 -2.78989,-4.60464 0.02951,-7.13539c2.4205,-1.88085 4.98641,-4.60688 8.36871,-0.25337c3.25329,4.08767 0.7083,6.0391 0.7083,6.0391c-3.4282,3.8929 -6.98708,5.06325 -6.98708,5.06325z" fill="#ffffff" stroke="none" stroke-width="1" stroke-linecap="butt" stroke-linejoin="miter"/></g><g fill-rule="evenodd"><path d="M262.76277,134.90163c0.33141,-0.142 0.80483,0.04741 0.83028,0.45895l0.6071,10.99461c0,0 5.43662,5.78733 6.7036,9.37825c2.14442,5.99095 1.42291,10.43386 1.42291,10.43386c0,0 6.59859,3.35838 6.74004,9.1816c0.14145,5.82322 -6.15251,15.64086 -25.31196,15.85385c-19.15945,0.21298 -33.0776,-7.55267 -37.98185,-20.0554c-4.90425,-12.50273 8.58603,-23.83465 7.85033,-23.15734l1.19627,-17.98302c-0.02545,-0.41152 0.52084,-0.61541 0.8777,-0.34589l10.45822,9.97224c0,0 4.73441,-0.85171 9.39219,-0.19209c2.78958,0.31347 5.11298,0.94737 7.30161,1.75971z" fill="#ffab19" stroke="#001026" stroke-width="1.2" stroke-linecap="butt" stroke-linejoin="miter"/><path d="M271.95882,166.50593c0,0 6.45659,3.02696 6.59805,8.85018c0.14145,5.82322 -6.45473,15.07635 -25.3993,15.22744c-24.70592,0.50743 -33.38998,-15.74671 -24.87093,-24.94867c8.53725,-9.30027 18.1869,1.74255 26.55563,2.68296c7.1706,0.82011 9.10497,-5.22871 17.11656,-1.81192z" fill="#ffffff" stroke="none" stroke-width="1" stroke-linecap="butt" stroke-linejoin="miter"/><path d="M239.03662,171.288c0.07288,-0.39331 0.52084,-0.61541 0.89592,-0.44421c1.74066,1.03444 6.7588,3.59146 12.58551,5.07788c5.25497,1.27878 8.45607,1.56679 9.98562,1.54509c0.50986,-0.00723 0.81206,0.55728 0.52431,1.01247c-1.37685,2.49085 -6.47964,9.17303 -16.69459,6.67011c-8.76551,-2.64115 -8.48446,-9.09801 -7.29677,-13.86135z" fill="#ffffff" stroke="#001026" stroke-width="1.2" stroke-linecap="round" stroke-linejoin="round"/><path d="M289.85047,170.93975c-5.31365,2.88013 -12.41137,1.66672 -12.41137,1.66672" fill="none" stroke="#001026" stroke-width="1.2" stroke-linecap="round" stroke-linejoin="round"/><path d="M286.53174,181.71547c-6.28565,-0.65614 -9.77423,-3.23487 -9.77423,-3.23487" fill="none" stroke="#001026" stroke-width="1.2" stroke-linecap="round" stroke-linejoin="round"/><path d="M254.92263,165.68852c2.06486,0.38259 4.1916,0.98005 4.1624,1.68656c-0.15674,1.39479 -2.14175,3.87465 -3.73318,3.68148c-1.80631,-0.13128 -5.48056,-3.35462 -5.18906,-4.92784c0.1203,-1.19813 2.79333,-0.80456 4.75985,-0.44019z" fill="#001026" stroke="#001026" stroke-width="1.2" stroke-linecap="round" stroke-linejoin="round"/><path d="M210.94902,156.01524c0,0 7.94596,4.31994 10.8226,8.00571" fill="none" stroke="#001026" stroke-width="1.2" stroke-linecap="round" stroke-linejoin="round"/><path d="M221.42894,167.51704c-4.53776,0.88815 -11.61349,-1.54162 -11.61349,-1.54162" fill="none" stroke="#001026" stroke-width="1.2" stroke-linecap="round" stroke-linejoin="round"/><g><path d="M268.65672,156.33412c2.03162,4.95302 1.20082,9.98589 -1.88027,11.24565c-3.08108,1.25976 -7.22151,-1.64316 -9.35145,-6.61441c-2.03163,-4.95302 -1.20081,-9.98589 1.88027,-11.24565c3.09929,-1.35809 7.31983,1.66138 9.35145,6.61441z" fill="#ffffff" stroke="#001026" stroke-width="1.2" stroke-linecap="round" stroke-linejoin="round"/><path d="M267.22496,161.86583c-0.20041,1.08159 -1.15099,1.82078 -2.13424,1.63859c-0.98326,-0.18218 -1.60592,-1.21287 -1.40551,-2.29446c0.20041,-1.08159 1.15099,-1.82078 2.13425,-1.63859c0.98326,0.18218 1.6059,1.21288 1.4055,2.29447" fill="#001026" stroke="none" stroke-width="1" stroke-linecap="butt" stroke-linejoin="miter"/></g><g><path d="M243.76165,154.56904c2.14817,4.87292 0.96771,10.1461 -2.03325,11.5224c-3.59092,1.26699 -7.66222,-0.9112 -9.8104,-5.78412c-2.24649,-4.89114 -1.4047,-10.53217 2.04423,-12.13058c3.46715,-1.69673 7.65124,1.51938 9.79942,6.3923z" fill="#ffffff" stroke="#001026" stroke-width="1.2" stroke-linecap="round" stroke-linejoin="round"/><path d="M242.11501,160.16266c-0.20041,1.08159 -1.15099,1.82078 -2.13424,1.63859c-0.98327,-0.18218 -1.60591,-1.21287 -1.4055,-2.29446c0.20041,-1.08159 1.15099,-1.82078 2.13424,-1.63859c0.96505,0.28051 1.6059,1.21288 1.4055,2.29447" fill="#001026" stroke="none" stroke-width="1" stroke-linecap="butt" stroke-linejoin="miter"/></g></g><path d="M311.36898,123.20167l-59.90571,65.93779" fill="none" fill-rule="nonzero" stroke="url(#color-4)" stroke-width="2" stroke-linecap="round" stroke-linejoin="miter"/><path d="M244.1158,195.95189c2.86015,-3.38279 6.20853,-8.31306 11.46661,-4.71395c6.3347,5.18266 -4.91214,14.07129 -9.09803,16.41034c-3.70255,2.08715 -7.20125,-0.00033 -10.17167,-1.76393c-5.51722,-3.52715 -10.40143,-6.40644 -9.8538,-11.26487c0.58735,-6.04606 7.02639,-3.59853 10.23104,-1.54702c1.94872,1.22369 4.02699,2.41144 5.31786,3.3472c0.75253,0.14399 1.56486,0.03607 2.10798,-0.46776z" fill="#ffab19" fill-rule="evenodd" stroke="#001026" stroke-width="1.2" stroke-linecap="round" stroke-linejoin="round"/><path d="M254.44491,192.07872l89.4025,-65.44503" fill="none" fill-rule="nonzero" stroke="url(#color-5)" stroke-width="2" stroke-linecap="round" stroke-linejoin="miter"/><path d="M257.29488,196.07255l97.9602,-49.28296" fill="none" fill-rule="nonzero" stroke="url(#color-6)" stroke-width="2" stroke-linecap="round" stroke-linejoin="miter"/><path d="M323.87998,154.70005c-0.88388,0.88388 -1.76777,0 -1.76777,0l-0.18835,-0.18835c-0.0702,0.09494 -0.16043,0.18908 -0.27476,0.28055c-0.97609,0.78087 -1.75695,-0.19522 -1.75695,-0.19522l-1.1098,-1.40319c-0.80453,-0.59541 -1.65021,-1.13547 -2.50897,-1.64959c0,0 -1.07187,-0.64312 -0.42875,-1.71499c0.3345,-0.5575 0.78498,-0.65105 1.14031,-0.61246c-1.8105,-2.07861 -3.58247,-4.18557 -5.50696,-6.19244c-1.45207,-1.51422 -3.07723,-3.88365 -5.05771,-4.76676c-1.21865,-0.5434 -2.64669,-0.34215 -3.9676,-0.53086c0,0 -1.23744,-0.17678 -1.06066,-1.41421c0.17678,-1.23744 1.41421,-1.06066 1.41421,-1.06066c1.51633,0.21662 3.14635,0.05797 4.54384,0.68506c2.39259,1.07363 4.16922,3.5185 5.93233,5.35708c3.31865,3.46071 6.18012,7.2208 9.57342,10.61409l1.02416,1.02416c0,0 0.88388,0.88388 0,1.76777z" fill="#0048ff" fill-rule="nonzero" stroke="none" stroke-width="0.5" stroke-linecap="butt" stroke-linejoin="miter"/><path d="M357.34871,178.0092c-1.09057,0.61086 -1.70144,-0.47971 -1.70144,-0.47971l-0.81193,-1.45724c-1.28838,-1.63447 -2.56168,-3.28048 -3.88355,-4.88805c-5.62399,-6.84027 -11.23533,-13.65878 -17.26198,-20.14901c-3.56837,-3.84286 -7.29523,-8.48534 -11.90873,-11.02133c0,0 -1.0927,-0.60705 -0.48564,-1.69975c0.60705,-1.0927 1.69975,-0.48564 1.69975,-0.48564c4.85711,2.72354 8.75203,7.44067 12.5266,11.50559c6.06087,6.5271 11.70519,13.38333 17.36109,20.26241c1.37457,1.67203 2.69743,3.38457 4.0322,5.08845l0.91333,1.62284c0,0 0.61086,1.09057 -0.47971,1.70144z" fill="#0048ff" fill-rule="nonzero" stroke="none" stroke-width="0.5" stroke-linecap="butt" stroke-linejoin="miter"/><path d="M309.16105,178.18915c-0.66256,1.05996 -1.72252,0.3974 -1.72252,0.3974l-0.89632,-0.7093c-2.60889,-4.17467 -5.21954,-8.46698 -8.24322,-12.35038c0,0 -0.76743,-0.98669 0.21926,-1.75412c0.98669,-0.76743 1.75412,0.21926 1.75412,0.21926c3.07285,3.95489 5.73461,8.3123 8.38984,12.56023l0.10144,-0.08562c0,0 1.05996,0.66256 0.3974,1.72252z" fill="#0048ff" fill-rule="nonzero" stroke="none" stroke-width="0.5" stroke-linecap="butt" stroke-linejoin="miter"/><path d="M330.44187,190.85032c-1.16454,0.45424 -1.61879,-0.7103 -1.61879,-0.7103l-0.55629,-1.44294c-3.54119,-5.52487 -5.85362,-11.87578 -9.3705,-17.49953c0,0 -0.6625,-1.06 0.3975,-1.7225c1.06,-0.6625 1.7225,0.3975 1.7225,0.3975c3.55296,5.68793 5.90302,12.10083 9.47861,17.69071l0.65727,1.66827c0,0 0.45424,1.16454 -0.7103,1.61879z" fill="#0048ff" fill-rule="nonzero" stroke="none" stroke-width="0.5" stroke-linecap="butt" stroke-linejoin="miter"/><path d="M295.14855,155.4413c-1.01717,0.72655 -1.74371,-0.29062 -1.74371,-0.29062l-0.0668,-0.09352c-1.29165,-1.8098 -2.40277,-3.59977 -3.82804,-5.30443c0,0 -0.80023,-0.96028 0.16005,-1.76051c0.96028,-0.80023 1.76051,0.16005 1.76051,0.16005c1.46213,1.75994 2.61234,3.59211 3.94182,5.45179l0.0668,0.09352c0,0 0.72655,1.01717 -0.29062,1.74371z" fill="#0048ff" fill-rule="nonzero" stroke="none" stroke-width="0.5" stroke-linecap="butt" stroke-linejoin="miter"/><path d="M300.20167,182.75562l0.54948,0.59175c5.20044,5.60047 8.01907,12.23301 10.93562,19.23275c0,0 0.48077,1.15385 -0.67308,1.63462c-1.15385,0.48077 -1.63462,-0.67308 -1.63462,-0.67308c-2.32862,-5.58869 -4.56843,-10.95739 -8.12687,-15.69725c0.23052,0.55136 0.45855,1.09232 0.6864,1.61634l0.01338,0.03079c0,0 0.49822,1.14642 -0.6482,1.64464c-1.14642,0.49822 -1.64464,-0.6482 -1.64464,-0.6482l-0.01338,-0.03079c-1.41545,-3.2586 -2.8492,-7.59212 -5.00786,-10.35672c0,0 -0.75,-1 0.25,-1.75c1,-0.75 1.75,0.25 1.75,0.25c0.82773,1.13643 1.55962,2.43813 2.23072,3.80529c0.73401,-0.29524 1.33303,0.34986 1.33303,0.34986z" fill="#0048ff" fill-rule="nonzero" stroke="none" stroke-width="0.5" stroke-linecap="butt" stroke-linejoin="miter"/><path d="M337.0356,174.32968c-1.05881,0.6644 -1.72321,-0.39441 -1.72321,-0.39441l-0.6765,-1.0781c-0.94857,-1.51533 -1.77189,-4.49101 -3.07953,-5.67365c-1.02775,-0.9295 -2.46116,-1.27448 -3.68125,-1.93145c0,0 -1.10059,-0.59262 -0.50796,-1.69321c0.59262,-1.10059 1.69321,-0.50796 1.69321,-0.50796c0.10753,0.0579 4.04985,2.16245 4.22222,2.32426c1.54791,1.45308 2.34094,4.35701 3.47094,6.15322l0.6765,1.0781c0,0 0.6644,1.05881 -0.39441,1.72321z" fill="#0048ff" fill-rule="nonzero" stroke="none" stroke-width="0.5" stroke-linecap="butt" stroke-linejoin="miter"/><path d="M295.03468,168.76321c0.8599,-0.90723 1.76713,-0.04733 1.76713,-0.04733l0.69545,0.65917c3.65581,3.46511 7.19433,6.97912 10.65826,10.56006c4.27616,3.01433 8.33928,6.51641 10.25943,10.69344c0.10393,0.22609 0.2067,0.44745 0.30764,0.66487c0.47826,0.53294 0.9559,1.06762 1.43305,1.60409c8.18006,12.10042 17.76841,24.96151 19.88485,39.7766c0,0 0.17678,1.23744 -1.06066,1.41421c-1.23744,0.17678 -1.41421,-1.06066 -1.41421,-1.06066c-1.85194,-12.96361 -9.70782,-24.38976 -17.03045,-35.12815c-0.03244,0.57124 -0.12159,1.17246 -0.27811,1.81677c0,0 -0.30317,1.21268 -1.51585,0.90951c-1.21268,-0.30317 -0.90951,-1.51585 -0.90951,-1.51585c0.66995,-2.58607 -0.18921,-4.27504 -1.21372,-6.42075c-2.79989,-3.10591 -5.61726,-6.15491 -8.47999,-9.15614c-3.11272,-2.44927 -6.26969,-4.72873 -9.6136,-6.9383l-0.23178,-0.15315c0,0 -1.04289,-0.68911 -0.35378,-1.732c0.27488,-0.416 0.60606,-0.55642 0.90488,-0.57491c-1.01312,-0.98598 -2.03483,-1.96759 -3.06624,-2.94519l-0.69545,-0.65917c0,0 -0.90723,-0.8599 -0.04733,-1.76713z" fill="#0048ff" fill-rule="nonzero" stroke="none" stroke-width="0.5" stroke-linecap="butt" stroke-linejoin="miter"/><path d="M336.27332,183.04716l0.29564,0.59158c1.41412,2.72723 3.19495,5.47701 4.31289,8.3346c3.28616,8.39984 3.12293,18.05147 3.12293,26.89448c0,0 0,1.25 -1.25,1.25c-1.25,0 -1.25,-1.25 -1.25,-1.25c0,-7.50952 0.17024,-15.67777 -1.9604,-23.05381c-0.6985,-0.07158 -0.99,-0.80033 -0.99,-0.80033c-2.06347,-5.15896 -3.86546,-10.60246 -7.07271,-15.1706l-0.6942,-0.99172c0,0 -0.71683,-1.02404 0.30721,-1.74087c1.02404,-0.71683 1.74087,0.30721 1.74087,0.30721l0.6942,0.99172c1.00139,1.43453 1.87311,2.94549 2.66116,4.50336c0.05494,0.07943 0.08241,0.13437 0.08241,0.13437z" fill="#0048ff" fill-rule="nonzero" stroke="none" stroke-width="0.5" stroke-linecap="butt" stroke-linejoin="miter"/><path d="M312.40575,192.2155c1.11803,-0.55902 1.67705,0.55902 1.67705,0.55902l0.40186,0.80373c2.64468,5.30091 5.77619,12.3145 5.8097,18.29805c0,0 0,1.25 -1.25,1.25c-1.25,0 -1.25,-1.25 -1.25,-1.25c0.03789,-5.53119 -3.09778,-12.29536 -5.54576,-17.18002l-0.40186,-0.80373c0,0 -0.55902,-1.11803 0.55902,-1.67705z" fill="#0048ff" fill-rule="nonzero" stroke="none" stroke-width="0.5" stroke-linecap="butt" stroke-linejoin="miter"/><path d="M284.98192,192.85877c1.08272,-0.62467 1.70739,0.45805 1.70739,0.45805l0.80416,1.39382c3.77085,6.53588 7.1856,13.21682 10.45147,20.02059c1.60049,3.3343 4.12261,6.99894 2.80531,10.68042c0,0 -0.46424,1.1606 -1.62483,0.69636c-1.1606,-0.46424 -0.69636,-1.62483 -0.69636,-1.62483c1.15259,-2.42549 -1.66992,-6.44508 -2.73792,-8.67012c-3.2385,-6.74699 -6.62382,-13.37189 -10.36311,-19.85308l-0.80416,-1.39382c0,0 -0.62467,-1.08272 0.45805,-1.70739z" fill="#0048ff" fill-rule="nonzero" stroke="none" stroke-width="0.5" stroke-linecap="butt" stroke-linejoin="miter"/><path d="M364.1122,161.87382c-0.76214,0.99078 -1.75292,0.22864 -1.75292,0.22864l-1.97018,-1.51552c-3.80946,-2.93344 -8.0174,-5.35684 -12.0733,-7.93633c-12.91181,-7.88269 -24.68037,-16.31216 -36.16453,-26.15549c0,0 -0.94907,-0.81349 -0.13558,-1.76256c0.81349,-0.94907 1.76256,-0.13558 1.76256,-0.13558c11.38901,9.76224 23.05491,18.11377 35.85975,25.93189c4.12648,2.62413 8.39674,5.09595 12.27537,8.07651l1.97018,1.51552c0,0 0.99078,0.76214 0.22864,1.75292z" fill="#0048ff" fill-rule="nonzero" stroke="none" stroke-width="0.5" stroke-linecap="butt" stroke-linejoin="miter"/><path d="M362.83222,229.23713c-1.24991,0.01478 -1.2647,-1.23513 -1.2647,-1.23513l-0.00038,-0.03179c-0.06827,-5.78163 -0.55141,-11.38052 -2.08352,-16.98094c0,0 -0.3289,-1.20595 0.87706,-1.53485c1.20595,-0.3289 1.53485,0.87706 1.53485,0.87706c1.57927,5.80766 2.10041,11.61372 2.17144,17.60917l0.00038,0.03179c0,0 0.01478,1.24991 -1.23513,1.2647z" fill="#0048ff" fill-rule="nonzero" stroke="none" stroke-width="0.5" stroke-linecap="butt" stroke-linejoin="miter"/><path d="M336.58977,161.59152c1.04006,-0.69338 1.73344,0.34669 1.73344,0.34669l0.64414,0.96956c1.62237,2.74644 3.24474,5.49287 4.86711,8.23931c7.53664,12.75844 10.93229,27.92365 14.12362,42.28194c0,0 0.27116,1.22023 -0.94907,1.4914c-1.22023,0.27116 -1.4914,-0.94907 -1.4914,-0.94907c-3.1314,-14.09396 -6.43735,-29.0285 -13.83565,-41.55275c-1.62237,-2.74644 -3.24474,-5.49287 -4.86711,-8.23931l-0.57177,-0.85432c0,0 -0.69338,-1.04006 0.34669,-1.73344z" fill="#0048ff" fill-rule="nonzero" stroke="none" stroke-width="0.5" stroke-linecap="butt" stroke-linejoin="miter"/></g></g></svg>