<svg version="1.1" xmlns="http://www.w3.org/2000/svg" xmlns:xlink="http://www.w3.org/1999/xlink" width="122.47151" height="128.50453" viewBox="0,0,122.47151,128.50453"><g transform="translate(-184.58334,-122.72829)"><g data-paper-data="{&quot;isPaintingLayer&quot;:true}" stroke-miterlimit="10" stroke-dasharray="" stroke-dashoffset="0" style="mix-blend-mode: normal"><g fill-rule="evenodd"><path d="M226.25513,195.70944c0.65516,0.6089 2.03332,1.9508 -1.22625,4.53832c-3.25957,2.58751 -10.07782,1.31812 -10.84552,1.09307c-3.00293,-0.77614 -6.64947,-1.84516 -10.28599,-4.37017c-10.582,-7.27058 -6.99264,-19.86965 -2.65938,-20.78768c4.23731,-0.94617 3.58994,7.30495 7.48934,13.55433c1.68416,2.78632 4.24199,4.36985 6.4044,5.52482c3.09389,1.53226 10.4004,-0.28568 11.12339,0.44732z" fill="#ffab19" stroke="#001026" stroke-width="1.2" stroke-linecap="round" stroke-linejoin="round"/><path d="M204.73543,180.95979c0.77581,3.04107 2.68159,7.5597 2.68159,7.5597c0,0 -3.29738,-1.90454 -5.79082,-0.86398c-1.99706,0.76925 -2.23212,2.99293 -2.23713,3.72092c-0.88178,-1.61322 -1.91078,-3.79063 -1.88577,-7.4306c0.02501,-3.63997 2.16618,-7.38902 4.2542,-7.40215c2.03176,0.1788 2.08958,1.75888 2.97792,4.41611z" fill="#ffffff" stroke="none" stroke-width="1" stroke-linecap="butt" stroke-linejoin="miter"/></g><path d="M229.44347,204.39471c-1.44004,0.96466 -6.4219,4.5437 -12.51693,6.11812l-0.30645,0.05416c-0.30645,0.05416 -0.49629,0.51379 -0.37969,0.91926c1.0725,2.48523 2.99378,7.42422 -1.24632,8.48141c-4.09093,1.07816 -10.32662,-13.5134 -6.89328,-16.62936c1.53089,-1.14641 2.74174,-0.29526 3.38039,0.18363c0.35661,0.24468 0.72949,0.29713 1.11052,0.25345c0.92748,-0.25862 2.63328,-0.79684 3.97433,-1.48363c3.38585,-1.66366 4.20487,-2.42386 5.81847,-3.65591c1.61361,-1.23204 5.34527,-4.30606 7.8442,-0.84207c2.16674,2.93093 0.58022,5.62578 -0.78525,6.60092z" fill="#ffab19" fill-rule="evenodd" stroke="#001026" stroke-width="1.2" stroke-linecap="round" stroke-linejoin="round"/><path d="M247.64913,185.78105c-0.21118,0.64848 -5.09977,9.6127 -2.55602,10.66346c2.99269,1.28814 8.31603,2.50905 6.37694,7.36862c-1.9391,4.85958 -10.06958,1.05099 -12.65177,-0.9764c-5.67645,-5.03662 -1.896,-12.94392 -0.75133,-14.7907c1.14467,-1.84679 3.04819,-5.03327 5.63938,-6.2133c2.828,-1.17741 4.80035,1.67998 3.94281,3.9483z" fill="#ffab19" fill-rule="evenodd" stroke="#001026" stroke-width="1.2" stroke-linecap="round" stroke-linejoin="round"/><g fill-rule="evenodd"><path d="M236.57028,220.23357c1.19294,2.93882 3.90062,9.05856 3.90062,9.05856c0,0 13.69816,1.28975 11.09818,10.02134c-1.55276,5.21469 -8.3563,4.25154 -16.7107,0.22868c-0.50075,-0.3026 -0.96541,-0.72646 -1.26836,-1.36267c-1.28241,-2.96903 -4.89735,-11.66416 -7.06817,-17.60261c-3.18481,-8.81681 -6.19702,-14.90595 -6.19702,-14.90595c-4.60845,-12.63434 2.82941,-14.79363 6.97863,-19.79873c3.71749,-4.21664 4.41286,-2.91403 9.34824,0.35447c2.8617,1.63386 4.54294,2.60209 6.54757,3.14568c2.98891,0.87601 0.7187,6.51574 -0.98938,9.27556c0,0 -2.5888,4.06397 -4.43811,5.97529c-2.26219,2.30573 -3.8776,3.76215 -5.27635,4.49096z" fill="#ffab19" stroke="#001026" stroke-width="1.2" stroke-linecap="round" stroke-linejoin="round"/><path d="M231.7263,208.7209c0,0 -0.90886,-1.90858 -1.79883,-4.21118c-1.13957,-2.7873 -2.38748,-5.21081 0.52152,-8.36581c2.47727,-2.36656 5.15395,-5.73352 8.13325,-0.85668c2.87257,4.57384 0.26973,7.03145 0.26973,7.03145c-3.59351,4.79238 -7.12565,6.40227 -7.12565,6.40227z" fill="#ffffff" stroke="none" stroke-width="1" stroke-linecap="butt" stroke-linejoin="miter"/></g><path d="M221.67337,190.27724c-0.43148,3.53466 -0.51216,8.41354 -5.60129,7.4132c-6.50161,-1.85176 -2.87386,-12.38026 -1.0996,-15.55863c1.56141,-2.82524 4.81323,-2.39434 7.57021,-2.03516c5.23085,0.85921 9.75517,1.43414 11.51499,5.32682c2.25292,4.81294 -3.12166,5.08481 -6.1612,4.58362c-1.8379,-0.2866 -3.74665,-0.50263 -5.01886,-0.78807c-0.56597,0.14027 -1.06167,0.49281 -1.20424,1.0582z" fill="#ffab19" fill-rule="evenodd" stroke="#001026" stroke-width="1.2" stroke-linecap="round" stroke-linejoin="round"/><g fill-rule="evenodd"><path d="M267.34007,138.2771c0.35764,-0.04585 0.7611,0.26594 0.67292,0.66872l-2.42595,10.7408c0,0 3.64459,7.05457 3.88014,10.85515c0.42244,6.34913 -1.48778,10.42481 -1.48778,10.42481c0,0 5.42713,5.03649 3.96903,10.67599c-1.4581,5.63949 -10.19928,13.35906 -28.68512,8.31886c-18.48584,-5.04021 -29.74638,-16.3194 -31.04056,-29.68708c-1.29419,-13.36769 14.78294,-20.57363 13.88994,-20.12362l6.07357,-16.96855c0.08818,-0.40278 0.66941,-0.44932 0.93886,-0.09239l7.32873,12.45432c0,0 4.78671,0.47689 9.08597,2.38643c2.59719,1.06516 4.6583,2.3109 6.54095,3.69135z" fill="#ffab19" stroke="#001026" stroke-width="1.2" stroke-linecap="butt" stroke-linejoin="miter"/><path d="M267.53288,171.19159c0,0 5.38128,4.67887 3.92318,10.31837c-1.4581,5.63949 -10.33541,12.73339 -28.59766,7.69248c-23.90103,-6.27541 -27.80365,-24.28595 -17.09094,-30.80422c10.75714,-6.60786 17.0151,6.65481 24.8067,9.8503c6.67215,2.75179 10.18856,-2.53641 16.95872,2.94309z" fill="#ffffff" stroke="none" stroke-width="1" stroke-linecap="butt" stroke-linejoin="miter"/><path d="M234.55921,166.77826c0.17776,-0.35833 0.66941,-0.44932 0.9833,-0.18197c1.39099,1.47144 5.51741,5.30454 10.71461,8.32928c4.70414,2.66851 7.70411,3.82186 9.18118,4.21973c0.49237,0.13262 0.62849,0.7583 0.22713,1.11732c-2.00612,2.01877 -8.74329,7.04875 -17.88284,1.84503c-7.70762,-4.93989 -5.66969,-11.07315 -3.22337,-15.32938z" fill="#ffffff" stroke="#001026" stroke-width="1.2" stroke-linecap="round" stroke-linejoin="round"/><path d="M283.52726,180.354c-5.89912,1.31545 -12.39351,-1.79466 -12.39351,-1.79466" fill="none" stroke="#001026" stroke-width="1.2" stroke-linecap="round" stroke-linejoin="round"/><path d="M277.38536,189.80954c-5.86591,-2.35183 -8.51527,-5.78707 -8.51527,-5.78707" fill="none" stroke="#001026" stroke-width="1.2" stroke-linecap="round" stroke-linejoin="round"/><path d="M251.37128,165.74158c1.88123,0.93325 3.76318,2.09009 3.54167,2.76162c-0.53259,1.2986 -3.12065,3.14031 -4.59842,2.51885c-1.70137,-0.62076 -4.35284,-4.72682 -3.64179,-6.16013c0.44369,-1.11944 2.90688,-0.00913 4.69853,0.87967z" fill="#001026" stroke="#001026" stroke-width="1.2" stroke-linecap="round" stroke-linejoin="round"/><path d="M211.72565,144.39972c0,0 6.4598,6.33018 8.21754,10.66266" fill="none" stroke="#001026" stroke-width="1.2" stroke-linecap="round" stroke-linejoin="round"/><path d="M218.65653,158.3311c-4.60754,-0.38802 -10.74782,-4.66202 -10.74782,-4.66202" fill="none" stroke="#001026" stroke-width="1.2" stroke-linecap="round" stroke-linejoin="round"/><g><path d="M267.14154,160.50436c0.5981,5.32 -1.57879,9.93316 -4.88703,10.30131c-3.30825,0.36816 -6.4958,-3.55733 -7.18348,-8.92176c-0.5981,-5.32 1.57879,-9.93316 4.88703,-10.30131c3.35267,-0.45774 6.58539,3.60177 7.18347,8.92177z" fill="#ffffff" stroke="#001026" stroke-width="1.2" stroke-linecap="round" stroke-linejoin="round"/><path d="M264.25013,165.43281c-0.48884,0.98541 -1.60547,1.43614 -2.5013,0.99174c-0.89582,-0.4444 -1.21253,-1.60617 -0.72369,-2.59158c0.48884,-0.98541 1.60547,-1.43613 2.5013,-0.99173c0.89582,0.4444 1.21253,1.60616 0.72369,2.59158" fill="#001026" stroke="none" stroke-width="1" stroke-linecap="butt" stroke-linejoin="miter"/></g><g><path d="M243.68071,151.99149c0.73211,5.27485 -1.84682,10.02344 -5.10993,10.52561c-3.8006,0.23554 -7.12007,-2.97399 -7.85219,-8.24884c-0.82169,-5.31929 1.53224,-10.51439 5.28698,-11.10756c3.79919,-0.68275 6.94301,3.55592 7.67512,8.83077z" fill="#ffffff" stroke="#001026" stroke-width="1.2" stroke-linecap="round" stroke-linejoin="round"/><path d="M240.56567,156.92064c-0.48884,0.98541 -1.60547,1.43613 -2.5013,0.99173c-0.89582,-0.4444 -1.21253,-1.60617 -0.72368,-2.59158c0.48884,-0.98541 1.60547,-1.43613 2.5013,-0.99173c0.85139,0.53399 1.21253,1.60617 0.72368,2.59158" fill="#001026" stroke="none" stroke-width="1" stroke-linecap="butt" stroke-linejoin="miter"/></g></g><path d="M259.14474,154.11722c1.22751,0.23606 0.99145,1.46357 0.99145,1.46357l-0.29522,1.53517c-1.86492,9.69758 -4.13561,19.27945 -6.27754,28.91812c-1.17249,5.27621 -2.45561,10.52752 -3.72918,15.7802c-0.14594,4.90945 -0.15732,9.82271 -0.15732,14.79445c0,4.48078 -0.47904,9.21861 0.41247,13.61009c0,0 0.24515,1.22573 -0.98058,1.47087c-1.22573,0.24515 -1.47087,-0.98058 -1.47087,-0.98058c-0.90288,-4.57599 -0.46101,-9.43835 -0.46101,-14.10038c0,-1.20402 0.00072,-2.40468 0.00387,-3.60274c-1.20154,5.27665 -2.30797,10.57336 -3.19849,15.91651c0,0 -0.2055,1.23299 -1.43849,1.02749c-1.23299,-0.2055 -1.02749,-1.43849 -1.02749,-1.43849c1.51671,-9.10024 3.65618,-18.06586 5.82736,-27.02676c0.13677,-4.46062 0.38494,-8.91878 0.83449,-13.41427c0.63341,-6.3213 0.63736,-12.69758 1.16526,-19.03247l0.02151,-0.25815c0,0 0.10381,-1.24568 1.34949,-1.14188c1.24568,0.10381 1.14188,1.34949 1.14188,1.34949l-0.02151,0.25815c-0.49159,5.89905 -0.533,11.83254 -1.04361,17.72597c0.11149,-0.49308 0.22211,-0.98635 0.33178,-1.47984c2.13675,-9.61536 4.40259,-19.17383 6.26299,-28.84791l0.29522,-1.53517c0,0 0.23606,-1.22751 1.46357,-0.99145z" fill="#19fff5" fill-rule="nonzero" stroke="none" stroke-width="0.5" stroke-linecap="butt" stroke-linejoin="miter"/><path d="M224.59181,166.34894c1.2245,-0.25118 1.47568,0.97332 1.47568,0.97332c0.83727,4.08168 2.15429,10.50216 2.99156,14.58384c2.12771,10.37335 3.99796,20.79255 5.60023,31.25828c0.59099,3.86023 2.32042,7.78702 2.3522,11.62196c0,0 0,1.25 -1.25,1.25c-1.25,0 -1.25,-1.25 -1.25,-1.25c0.03782,-3.6244 -1.7611,-7.57071 -2.32341,-11.24362c-1.59591,-10.42421 -3.45846,-20.8021 -5.57803,-31.13426c-0.83727,-4.08168 -1.67453,-8.16336 -2.5118,-12.24503l-0.47976,-2.33881c0,0 -0.25118,-1.2245 0.97332,-1.47568z" fill="#19fff5" fill-rule="nonzero" stroke="none" stroke-width="0.5" stroke-linecap="butt" stroke-linejoin="miter"/><path d="M283.72456,176.17031c0.75757,0.51258 0.24499,1.27015 0.24499,1.27015l-0.64447,0.9525c-3.28649,4.85547 -7.00416,9.42384 -10.37531,14.22518c-6.23627,8.88196 -11.61577,18.03346 -16.99405,27.44899c0,0 -0.45381,0.79417 -1.24799,0.34036c-0.79418,-0.45381 -0.34036,-1.24799 -0.34036,-1.24799c5.40935,-9.46272 10.81625,-18.66407 17.08521,-27.59258c3.36494,-4.79249 7.07872,-9.3516 10.35736,-14.19913l0.64447,-0.95249c0,0 0.51258,-0.75757 1.27015,-0.24499z" fill="#0048ff" fill-rule="nonzero" stroke="none" stroke-width="0.5" stroke-linecap="butt" stroke-linejoin="miter"/><path d="M290.64397,194.77718c0.68837,0.60233 0.08605,1.29071 0.08605,1.29071l-0.50276,0.57459c-0.39792,0.4547 -0.79585,0.90939 -1.19377,1.36408c-3.20162,3.94136 -6.5451,7.91223 -10.33496,11.31317c-3.53124,3.16884 -8.15097,5.40667 -11.42611,8.74513c0,0 -0.64678,0.64678 -1.29356,0c-0.64679,-0.64678 0,-1.29356 0,-1.29356c3.38316,-3.3312 7.92502,-5.60567 11.50207,-8.81687c3.72536,-3.34434 7.00563,-7.25307 10.15405,-11.12718c0.40518,-0.46313 0.81035,-0.92627 1.21554,-1.38941l0.50276,-0.57459c0,0 0.60233,-0.68838 1.2907,-0.08605z" fill="#0048ff" fill-rule="nonzero" stroke="none" stroke-width="0.5" stroke-linecap="butt" stroke-linejoin="miter"/><path d="M307.05484,179.85488c0,0.91469 -0.91469,0.91469 -0.91469,0.91469l0.08637,-0.50563c-0.68948,1.37756 -1.436,2.6425 -2.22903,3.96421c0,0 -0.4706,0.78434 -1.25494,0.31374c-0.78434,-0.4706 -0.31373,-1.25494 -0.31373,-1.25494c0.76989,-1.28315 1.49357,-2.50392 2.16147,-3.84113l1.54987,-0.50563c0,0 0.91469,0 0.91469,0.91469z" fill="#0048ff" fill-rule="nonzero" stroke="none" stroke-width="0.5" stroke-linecap="butt" stroke-linejoin="miter"/><path d="M185.36838,181.43228c-0.35549,-0.12546 -0.78504,-0.42867 -0.78504,-1.16144c0,-1.25 1.25,-1.25 1.25,-1.25l1.45136,0.69098c1.5673,3.17959 4.40526,5.9707 6.51659,8.83637c6.7769,8.14588 13.86535,16.89344 18.78378,26.32461c2.07622,3.98118 4.46353,7.47736 4.49826,12.06471c0,0 0,1.25 -1.25,1.25c-1.25,0 -1.25,-1.25 -1.25,-1.25c0.037,-4.07575 -2.36986,-7.36729 -4.21516,-10.90913c-4.84529,-9.30001 -11.85755,-17.90526 -18.53503,-25.93862c-2.09189,-2.83675 -4.75045,-5.5699 -6.46476,-8.65747z" fill="#0048ff" fill-rule="nonzero" stroke="none" stroke-width="0.5" stroke-linecap="butt" stroke-linejoin="miter"/><path d="M206.18196,164.87375c0.70401,-0.35201 1.05602,0.35201 1.05602,0.35201l0.28913,0.57979c1.25168,2.78952 2.66223,5.48272 4.06942,8.19667c2.34289,5.29052 4.7933,10.59855 6.68331,16.07385c1.67029,4.83878 2.83499,9.92601 4.20686,14.85774c1.68337,6.0515 3.07758,12.19603 4.4087,18.33329c0.01939,0.0894 0.03837,0.17889 0.05697,0.26846c0.77968,0.86049 1.58311,1.70683 2.4139,2.53762c0,0 0.55657,0.55657 0,1.11314c-0.55657,0.55657 -1.11314,0 -1.11314,0c-0.2707,-0.2707 -0.53857,-0.54302 -0.80372,-0.81692c0.32164,2.04652 0.62365,4.09598 1.28198,6.06164c0,0 0.2489,0.74671 -0.49781,0.99562c-0.74671,0.2489 -0.99562,-0.49781 -0.99562,-0.49781c-0.93211,-2.80868 -1.17391,-5.76408 -1.74294,-8.65902c-5.44422,-6.07706 -9.76239,-12.83356 -14.14671,-19.80461c-1.58685,-3.16903 -3.30607,-6.21738 -5.09191,-9.27882l-0.67732,-1.16112c0,0 -0.3966,-0.67988 0.28328,-1.07649c0.67988,-0.3966 1.07649,0.28328 1.07649,0.28328l0.67732,1.16112c1.78961,3.06789 3.51739,6.12182 5.10383,9.29963c3.81817,6.05399 7.56993,11.94906 12.08124,17.36499c-1.15949,-5.26019 -2.38839,-10.51546 -3.83118,-15.70211c-1.36398,-4.90335 -2.51903,-9.96435 -4.18124,-14.77463c-1.87116,-5.41494 -4.2966,-10.66358 -6.61142,-15.8975c-1.41476,-2.72534 -2.82927,-5.43158 -4.08654,-8.23355l-0.26089,-0.52024c0,0 -0.35201,-0.70401 0.35201,-1.05602z" fill="#19fff5" fill-rule="nonzero" stroke="none" stroke-width="0.5" stroke-linecap="butt" stroke-linejoin="miter"/><path d="M206.42145,185.89625c0.64444,-0.45193 1.09637,0.19251 1.09637,0.19251l0.12599,0.17965c3.6122,5.15224 6.89542,10.58304 10.27176,15.89336c2.46215,3.87249 4.35063,7.91298 5.864,12.24866c1.39851,4.00664 3.821,7.67186 3.821,12.0104c0,0 0,0.78711 -0.78711,0.78711c-0.78711,0 -0.78711,-0.78711 -0.78711,-0.78711c0,-3.63881 -1.84585,-7.22951 -3.30981,-10.53343c-1.96287,-4.42985 -3.51046,-8.76189 -6.1294,-12.88099c-3.3635,-5.29014 -6.63243,-10.7024 -10.23219,-15.83412l-0.12599,-0.17966c0,0 -0.45193,-0.64444 0.19251,-1.09637z" fill="#0048ff" fill-rule="nonzero" stroke="none" stroke-width="0.5" stroke-linecap="butt" stroke-linejoin="miter"/><path d="M200.65104,164.57337c0.55798,-0.55516 1.11313,0.00282 1.11313,0.00282l0.61374,0.61685c2.76925,2.78585 4.64389,5.10961 4.65288,9.1737c0,0 0,0.78711 -0.78711,0.78711c-0.78711,0 -0.78711,-0.78711 -0.78711,-0.78711c0.00917,-3.62877 -1.71547,-5.57399 -4.19462,-8.06338l-0.61374,-0.61686c0,0 -0.55516,-0.55798 0.00282,-1.11313z" fill="#0048ff" fill-rule="nonzero" stroke="none" stroke-width="0.5" stroke-linecap="butt" stroke-linejoin="miter"/><path d="M262.41046,249.47979c0.12438,1.2438 -1.11942,1.36818 -1.11942,1.36818l-0.84574,0.08457c-4.62189,0.45936 -9.30209,0.25496 -13.94531,0.25496c-0.15799,0 -0.30913,-0.02931 -0.44828,-0.08279c-0.35858,-0.12183 -0.80172,-0.42295 -0.80172,-1.16721c0,-0.74426 0.44314,-1.04538 0.80172,-1.16721c0.13916,-0.05348 0.2903,-0.08279 0.44828,-0.08279c1.00376,0 2.00965,0.01038 3.01652,0.02169c-0.00552,-0.00714 -0.01102,-0.01437 -0.01652,-0.02169c-0.75,-1 0.25,-1.75 0.25,-1.75c2.11168,-1.5792 4.61655,-2.55851 6.60194,-4.28134l0.26418,-0.26921c0,0 0.88388,-0.88388 1.76777,0c0.88388,0.88388 0,1.76777 0,1.76777l-0.40249,0.39746c-1.96711,1.67699 -4.35656,2.67305 -6.44956,4.17808c2.896,0.024 5.79351,0.00365 8.66471,-0.28531l0.84574,-0.08457c0,0 1.2438,-0.12438 1.36818,1.11942z" fill="#0048ff" fill-rule="nonzero" stroke="none" stroke-width="0.5" stroke-linecap="butt" stroke-linejoin="miter"/><path d="M227.35252,246.66612c-0.11306,0.33919 -0.29081,0.54903 -0.48698,0.67575c2.75668,0.36833 5.48704,0.34564 8.30113,0.34563h0.66667c0,0 1.25,0 1.25,1.25c0,1.25 -1.25,1.25 -1.25,1.25h-0.66667c-3.58678,-0.00001 -7.04254,0.01449 -10.57848,-0.69094c0,0 -1.22573,-0.24515 -0.98058,-1.47087c0.13843,-0.69215 0.58954,-0.91528 0.95605,-0.97839c-1.41904,-0.53272 -2.77218,-1.25008 -4.05949,-2.0498c0,0 -1.06,-0.6625 -0.3975,-1.7225c0.6625,-1.06 1.7225,-0.3975 1.7225,-0.3975c1.18645,0.74652 2.43879,1.4149 3.7599,1.88353l0.97288,0.32395c0,0 1.18585,0.39528 0.79057,1.58114z" fill="#0048ff" fill-rule="nonzero" stroke="none" stroke-width="0.5" stroke-linecap="butt" stroke-linejoin="miter"/><path d="M272.58333,244.27083c0,-0.69036 0.55964,-1.25 1.25,-1.25c0.69036,0 1.25,0.55964 1.25,1.25c0,0.69036 -0.55964,1.25 -1.25,1.25c-0.69036,0 -1.25,-0.55964 -1.25,-1.25z" fill="#0048ff" fill-rule="nonzero" stroke="none" stroke-width="0.5" stroke-linecap="butt" stroke-linejoin="miter"/><path d="M267.77138,247.79002c-1.18585,-0.39528 -0.79057,-1.58114 -0.79057,-1.58114l0.47912,-1.29809c1.346,-2.01691 4.04697,-4.05683 3.47374,-6.43446c0,0 -0.2055,-1.23299 1.02749,-1.43849c1.23299,-0.2055 1.43849,1.02749 1.43849,1.02749c0.45269,3.68093 -1.91227,5.30805 -3.8596,8.23221l-0.18754,0.70191c0,0 -0.39528,1.18585 -1.58114,0.79057z" fill="#0048ff" fill-rule="nonzero" stroke="none" stroke-width="0.5" stroke-linecap="butt" stroke-linejoin="miter"/></g></g></svg>