<svg version="1.1" xmlns="http://www.w3.org/2000/svg" xmlns:xlink="http://www.w3.org/1999/xlink" width="121.21263" height="97.0995" viewBox="0,0,121.21263,97.0995"><g transform="translate(-192.22886,-133.33262)"><g data-paper-data="{&quot;isPaintingLayer&quot;:true}" stroke-miterlimit="10" stroke-dasharray="" stroke-dashoffset="0" style="mix-blend-mode: normal"><g fill-rule="evenodd"><path d="M222.27434,201.13431c0.6639,0.54802 2.06133,1.75663 -1.16046,4.1654c-3.22179,2.40877 -10.0577,1.33844 -10.82856,1.14284c-3.01385,-0.66985 -6.67547,-1.59896 -10.34815,-3.85934c-10.6861,-6.50714 -7.27943,-18.07337 -2.9599,-18.97002c4.22317,-0.9211 3.69527,6.63107 7.6847,12.29299c1.72431,2.52512 4.30478,3.93902 6.48367,4.96635c3.11574,1.35994 10.39518,-0.3988 11.1287,0.26179z" fill="#ffab19" stroke="#001026" stroke-width="1.2" stroke-linecap="round" stroke-linejoin="round"/><path d="M200.54344,187.93413c0.81974,2.77004 2.79071,6.876 2.79071,6.876c0,0 -3.3246,-1.69761 -5.80272,-0.71327c-1.98572,0.72971 -2.18858,2.76583 -2.18305,3.43147c-0.90503,-1.46322 -1.96544,-3.44032 -1.9931,-6.7685c-0.02766,-3.32818 2.05903,-6.7841 4.14664,-6.82373c2.03413,0.13658 2.11481,1.58041 3.04151,3.99803z" fill="#ffffff" stroke="none" stroke-width="1" stroke-linecap="butt" stroke-linejoin="miter"/></g><path d="M233.58302,207.27799c-1.61028,1.2861 -7.13504,5.96911 -14.42862,8.98779l-0.37147,0.12761c-0.37147,0.12761 -0.52042,0.61852 -0.29789,0.98182c1.80972,2.13888 5.14441,6.44116 0.06329,8.50433c-4.8913,2.04681 -15.44033,-10.52624 -11.75657,-14.38135c1.68886,-1.4841 3.35957,-0.95871 4.24648,-0.65265c0.49091,0.14894 0.96547,0.10806 1.43185,-0.02772c1.10623,-0.47776 3.12887,-1.41692 4.66878,-2.41012c3.9013,-2.43961 4.77683,-3.37558 6.55243,-4.96276c1.77559,-1.58719 5.83899,-5.47501 9.61234,-2.74036c3.25791,2.30098 1.79479,5.29547 0.27942,6.5734z" fill="#ffab19" fill-rule="evenodd" stroke="#001026" stroke-width="1.2" stroke-linecap="round" stroke-linejoin="round"/><path d="M243.45496,190.23168c0.39146,0.43623 5.02263,8.07181 6.80064,6.42624c2.12987,-1.91484 5.13407,-5.75687 7.92644,-2.19716c2.79237,3.55971 -3.2204,8.63608 -5.72926,9.91525c-5.94009,2.57588 -10.23594,-3.72597 -11.13552,-5.41114c-0.89959,-1.68517 -2.48012,-4.53451 -2.31791,-7.12724c0.25798,-2.78471 3.13335,-3.22876 4.45561,-1.60595z" fill="#ffab19" fill-rule="evenodd" stroke="#001026" stroke-width="1.2" stroke-linecap="round" stroke-linejoin="round"/><g fill-rule="evenodd"><path d="M244.90142,213.91078c2.13239,2.05157 6.8247,6.28431 6.8247,6.28431c0,0 18.26398,-1.8615 17.67648,5.31839c-0.35087,4.28798 -10.75878,5.18407 -21.25106,3.56196c-0.64539,-0.14454 -1.28262,-0.38881 -1.7946,-0.82504c-2.24132,-2.05904 -8.64662,-8.11402 -12.6854,-12.30194c-0.75721,-0.79171 -1.49942,-1.54994 -2.21822,-2.2704c-4.93258,-4.94398 -8.76232,-8.10957 -8.76232,-8.10957c-8.58136,-8.91179 -0.77993,-11.88655 2.55271,-16.47144c3.05768,-3.90179 4.19057,-3.02185 10.62816,-1.37698c3.66265,0.75259 5.81666,1.20116 8.22118,1.26579c3.60268,0.1468 2.55747,4.88857 1.37315,7.31435c0,0 -1.82686,3.58508 -3.39792,5.38265c-1.93048,2.17405 -3.35997,3.58021 -4.74051,4.38805z" fill="#ffab19" stroke="#001026" stroke-width="1.2" stroke-linecap="round" stroke-linejoin="round"/><path d="M236.35556,205.90395c0,0 -1.53595,-1.3087 -3.15636,-2.92404c-2.03162,-1.94438 -4.08772,-3.58959 -1.65626,-6.53152c2.15649,-2.25883 4.26933,-5.32289 8.93432,-2.09483c4.46346,3.01368 2.1899,5.36476 2.1899,5.36476c-2.76355,4.32308 -6.31157,6.18563 -6.31157,6.18563z" fill="#ffffff" stroke="none" stroke-width="1" stroke-linecap="butt" stroke-linejoin="miter"/></g><path d="M266.2765,202.2513c6.68996,-5.31545 14.78321,-13.22125 24.43679,-5.95955c11.40211,10.2174 -13.71542,23.46224 -22.80268,26.71035c-8.04282,2.90461 -14.54904,-1.39412 -20.07517,-5.02858c-10.19648,-7.18701 -19.28865,-13.1276 -16.87331,-21.45068c2.81563,-10.37587 15.16539,-4.88352 21.08726,-0.70418c3.60741,2.50015 7.48629,4.96295 9.84216,6.83622c1.4816,0.39544 3.15186,0.36539 4.38493,-0.4036z" fill="#ffab19" fill-rule="evenodd" stroke="#001026" stroke-width="1.2" stroke-linecap="round" stroke-linejoin="round"/><g fill-rule="evenodd"><path d="M268.75503,141.80291c0.34119,-0.11661 0.79896,0.10796 0.79332,0.52024l-0.22356,11.00908c0,0 4.98482,6.18075 5.97745,9.85698c1.68664,6.13557 0.63222,10.51144 0.63222,10.51144c0,0 6.3266,3.84631 6.02862,9.66363c-0.29799,5.81732 -7.31423,15.13249 -26.43521,13.90035c-19.12099,-1.23213 -32.41402,-10.02503 -36.36168,-22.86192c-3.94766,-12.8369 10.35858,-23.11947 9.5739,-22.49957l2.54868,-17.84164c0.00565,-0.41228 0.56575,-0.57439 0.90128,-0.27872l9.67661,10.73234c0,0 4.78515,-0.49234 9.37993,0.51657c2.758,0.52289 5.027,1.33016 7.14815,2.30519z" fill="#ffab19" stroke="#001026" stroke-width="1.2" stroke-linecap="butt" stroke-linejoin="miter"/><path d="M275.54214,174.01062c0,0 6.21,3.50512 5.91201,9.32244c-0.29799,5.81732 -7.57302,14.54681 -26.47507,13.26916c-24.67386,-1.35671 -32.10773,-18.2193 -22.91918,-26.75278c9.21415,-8.63015 18.00376,3.10878 26.27778,4.67746c7.08836,1.35839 9.47328,-4.52737 17.20446,-0.51628z" fill="#ffffff" stroke="none" stroke-width="1" stroke-linecap="butt" stroke-linejoin="miter"/><path d="M242.3531,176.29694c0.10232,-0.38669 0.56575,-0.57439 0.92687,-0.37539c1.65772,1.16272 6.46878,4.09082 12.16685,6.01231c5.1436,1.67134 8.31388,2.19988 9.8407,2.29356c0.50894,0.03123 0.76774,0.61692 0.44648,1.04913c-1.56072,2.37995 -7.15279,8.65838 -17.14997,5.39246c-8.54144,-3.29451 -7.77437,-9.7118 -6.23094,-14.37204z" fill="#ffffff" stroke="#001026" stroke-width="1.2" stroke-linecap="round" stroke-linejoin="round"/><path d="M293.04859,179.78072c-5.51567,2.47132 -12.5017,0.72623 -12.5017,0.72623" fill="none" stroke="#001026" stroke-width="1.2" stroke-linecap="round" stroke-linejoin="round"/><path d="M288.92688,190.27557c-6.2183,-1.12817 -9.50253,-3.96257 -9.50253,-3.96257" fill="none" stroke="#001026" stroke-width="1.2" stroke-linecap="round" stroke-linejoin="round"/><path d="M258.61607,171.91108c2.03013,0.53718 4.10578,1.29328 4.02339,1.99557c-0.26146,1.379 -2.42778,3.70215 -4.00013,3.38955c-1.79127,-0.26709 -5.21204,-3.75828 -4.80275,-5.30504c0.21029,-1.18566 2.84605,-0.59167 4.7795,-0.08008z" fill="#001026" stroke="#001026" stroke-width="1.2" stroke-linecap="round" stroke-linejoin="round"/><path d="M215.49693,158.95001c0,0 7.59764,4.90673 10.18821,8.79889" fill="none" stroke="#001026" stroke-width="1.2" stroke-linecap="round" stroke-linejoin="round"/><path d="M225.07985,171.20917c-4.5918,0.5435 -11.46422,-2.41282 -11.46422,-2.41282" fill="none" stroke="#001026" stroke-width="1.2" stroke-linecap="round" stroke-linejoin="round"/><g><path d="M273.01633,163.61878c1.65242,5.0921 0.44451,10.048 -2.72277,11.07188c-3.16728,1.02387 -7.07706,-2.18294 -8.82615,-7.30062c-1.65242,-5.0921 -0.44451,-10.048 2.72277,-11.07188c3.19286,-1.12055 7.17373,2.20852 8.82615,7.30062z" fill="#ffffff" stroke="#001026" stroke-width="1.2" stroke-linecap="round" stroke-linejoin="round"/><path d="M271.17159,169.02681c-0.28138,1.0634 -1.28498,1.72882 -2.25171,1.47302c-0.96672,-0.2558 -1.50989,-1.33049 -1.22852,-2.39389c0.28138,-1.0634 1.28498,-1.72882 2.25171,-1.47302c0.96672,0.2558 1.50989,1.33049 1.22852,2.39389" fill="#001026" stroke="none" stroke-width="1" stroke-linecap="butt" stroke-linejoin="miter"/></g><g><path d="M248.32519,159.9818c1.77467,5.02101 0.20001,10.19019 -2.89618,11.33631c-3.67622,0.99265 -7.57172,-1.48629 -9.34639,-6.50731c-1.87135,-5.04659 -0.60664,-10.60811 2.95299,-11.94194c3.5852,-1.43049 7.51492,2.09191 9.28958,7.11292z" fill="#ffffff" stroke="#001026" stroke-width="1.2" stroke-linecap="round" stroke-linejoin="round"/><path d="M246.26152,165.43535c-0.28138,1.0634 -1.28498,1.72882 -2.25171,1.47302c-0.96672,-0.2558 -1.50989,-1.33049 -1.22852,-2.39389c0.28138,-1.0634 1.28498,-1.72882 2.25171,-1.47302c0.94115,0.35248 1.50989,1.33049 1.22852,2.39389" fill="#001026" stroke="none" stroke-width="1" stroke-linecap="butt" stroke-linejoin="miter"/></g></g><path d="M311.25723,224.78634c0,1.25 -1.25,1.25 -1.25,1.25c-3.74493,0 -8.04704,0 -11.79197,0c0,0 -1.25,0 -1.25,-1.25c0,-1.25 1.25,-1.25 1.25,-1.25c3.74493,0 7.48986,0 11.23479,0h0.55718c0,0 1.25,0 1.25,1.25z" fill="#b3b3b3" fill-rule="nonzero" stroke="none" stroke-width="0.5" stroke-linecap="butt" stroke-linejoin="miter"/><path d="M244.43606,218.23525c0,1.25 -1.25,1.25 -1.25,1.25c-3.33333,0 -7.14842,0 -10.48175,0c0,0 -1.25,0 -1.25,-1.25c0,-1.25 1.25,-1.25 1.25,-1.25c3.33333,0 6.66667,0 10,0h0.48175c0,0 1.25,0 1.25,1.25z" fill="#b3b3b3" fill-rule="nonzero" stroke="none" stroke-width="0.5" stroke-linecap="butt" stroke-linejoin="miter"/><path d="M257.10151,201.2024c0,1.25 -1.25,1.25 -1.25,1.25h-0.43674c-3.99074,0 -7.60277,0.55026 -11.12487,-1.48835c0,0 -1.07187,-0.64312 -0.42875,-1.71499c0.64312,-1.07187 1.71499,-0.42875 1.71499,-0.42875c2.89948,1.82165 6.45504,1.13209 9.83863,1.13209h0.43674c0,0 1.25,0 1.25,1.25z" fill="#b3b3b3" fill-rule="nonzero" stroke="none" stroke-width="0.5" stroke-linecap="butt" stroke-linejoin="miter"/><path d="M313.43961,216.10884c-0.0573,1.24869 -1.30598,1.19139 -1.30598,1.19139l-0.26281,-0.01206c-1.3858,-0.06411 -2.76995,-0.17222 -4.15254,-0.30703c0.02879,0.11186 0.04503,0.23812 0.04503,0.38062c0,1.25 -1.25,1.25 -1.25,1.25c-1.34726,0 -3.06857,0 -4.4716,0c-0.22169,0.87348 -1.20602,0.87348 -1.20602,0.87348h-1.23479c-2.43691,0 -5.06447,0.15172 -7.74254,0.2673c0.26999,0.13752 0.52129,0.40189 0.60279,0.90214c0.201,1.23373 -1.03273,1.43474 -1.03273,1.43474l-0.42638,0.06947c-2.60025,0.42364 -4.99638,0.81614 -7.63594,0.82028c0,0 -1.25,0 -1.25,-1.25c0,-1.25 1.25,-1.25 1.25,-1.25c2.01647,0.00342 3.87629,-0.24882 5.81304,-0.55718c-1.84091,0 -4.79873,0 -6.24978,0c0,0 -0.41821,0 -0.77083,-0.2419c-2.00571,-0.19111 -3.94022,-0.53968 -5.73881,-1.13247c0,0 -0.24965,-0.08322 -0.48168,-0.28784c-0.72993,0.01449 -1.4607,0.02869 -2.19182,0.0406c-0.36699,0.31138 -0.86187,0.31138 -0.86187,0.31138c-1.11734,0 -2.29824,0 -3.49977,0c0.21355,0.18378 0.38237,0.47433 0.38237,0.9337c0,1.25 -1.25,1.25 -1.25,1.25h-1.23479c-0.28677,0 -0.57578,0.00387 -0.8665,0.0101c1.45137,0.06325 2.9045,0.11034 4.36041,0.11034h2.10827c0,0 1.25,0 1.25,1.25c0,0.10262 -0.00842,0.19681 -0.02389,0.28327c0.51744,-0.06508 1.03584,-0.13008 1.55583,-0.19237l1.19017,-0.40327c0,0 1.18585,-0.39528 1.58114,0.79057c0.39528,1.18585 -0.79057,1.58114 -0.79057,1.58114l-1.43027,0.47021c-3.30423,0.41515 -6.55012,0.90114 -9.88351,0.90416c0,0 -1.25,0 -1.25,-1.25c0,-0.60734 0.29509,-0.91959 0.59851,-1.08012c-2.69879,-0.1282 -5.39273,-0.29366 -8.08331,-0.29031c0,0 -1.25,0 -1.25,-1.25c0,-1.25 1.25,-1.25 1.25,-1.25c0.38913,0.00044 0.77825,0.00424 1.16736,0.0108c-0.23187,-0.05729 -0.46169,-0.12213 -0.68916,-0.19538c0,0 -1.18585,-0.39528 -0.79057,-1.58114c0.39528,-1.18585 1.58114,-0.79057 1.58114,-0.79057c0.88488,0.30846 1.84953,0.44723 2.84418,0.49709c-0.18124,-0.10442 -0.35498,-0.26568 -0.45932,-0.51473c-2.07064,-0.2296 -4.12131,-0.57296 -6.1405,-1.07775c0,0 -1.21268,-0.30317 -0.90951,-1.51585c0.30317,-1.21268 1.51585,-0.90951 1.51585,-0.90951c5.75768,1.43942 11.80202,1.51416 17.82063,1.41166c-3.94753,-0.14636 -7.82681,-0.5826 -11.47937,-1.61752c0,0 -0.89449,-0.25557 -0.91967,-1.09742c-4.81156,0.20384 -9.62074,0.0548 -14.62477,-0.61241c0,0 -1.23903,-0.1652 -1.07383,-1.40424c0.01655,-0.12416 0.04389,-0.23422 0.07968,-0.33175c-1.0875,0 -2.16046,0 -3.20805,0c0,0 -1.25,0 -1.25,-1.25c0,-1.25 1.25,-1.25 1.25,-1.25c0.25494,0 0.50988,0 0.76482,0c0.43862,-0.5702 1.22728,-0.41247 1.22728,-0.41247c0.79572,0.1601 1.59765,0.29654 2.40467,0.41247c3.44398,0 6.88796,0 10.33194,0h0.55718c0,0 0.76417,0 1.09753,0.59749c3.37617,-0.03733 6.74612,-0.16151 10.03419,-0.1608l0.22378,0.00005c0,0 1.17553,0.00026 1.24639,1.14024c1.30984,-0.15807 2.62948,-0.33406 3.96305,-0.52457l0.29278,-0.04183c0.3925,-0.19091 0.81737,-0.1201 0.81737,-0.1201c0.00359,0.0006 0.00719,0.0012 0.01078,0.0018l0.04368,-0.00624c0,0 0.43259,-0.0618 0.82277,0.14345c6.94844,1.04507 14.03554,0.80314 21.07545,0.73293c0.17894,-0.24539 0.48057,-0.45221 0.98903,-0.45221c0.49877,0 0.79852,0.19902 0.97867,0.43823c0.26874,-0.00098 0.53739,-0.0015 0.80593,-0.0015l0.39912,0.00001c0,0 1.25,0.00003 1.24997,1.25003c-0.00003,1.25 -1.25003,1.24997 -1.25003,1.24997l-0.39912,-0.00001c-0.42319,-0.00001 -0.8466,0.00123 -1.27019,0.00342c-0.31357,0.31357 -0.62713,0.62713 -0.9407,0.9407c0,0 -0.65698,0.65698 -1.40453,0.27171c-0.17229,0.96788 -1.22632,0.96788 -1.22632,0.96788c-0.03463,0 -0.06937,0 -0.1042,0c-0.13377,0.52706 -0.54521,0.73609 -0.85052,0.81899c-0.04498,0.14289 -0.12308,0.29333 -0.24518,0.4491c-0.04755,0.06066 -0.09591,0.11465 -0.14479,0.16256c0.88497,0 1.76995,0 2.65492,0h0.43674c0,0 0.98433,0 1.20602,0.87349c0.12512,-0.00001 0.25028,-0.00001 0.37549,-0.00001h0.60219c0,0 0.01734,0 0.04794,0.00204c0.15567,-0.00134 0.31042,-0.00204 0.46423,-0.00204h0.90226c0.11312,-0.4457 0.4248,-0.66398 0.70296,-0.77088c-0.61218,-0.07817 -1.22407,-0.15624 -1.83569,-0.23269c0,0 -1.24035,-0.15504 -1.0853,-1.39539c0.15504,-1.24035 1.39539,-1.0853 1.39539,-1.0853c4.08757,0.51098 8.18991,1.10262 12.3049,1.28982l0.26281,0.01206c0,0 1.24869,0.0573 1.19139,1.30598zM292.4172,215.99133c-0.83333,0 -1.66667,0 -2.5,0c0,0 -0.58352,0 -0.95319,-0.39868c-1.96789,0.04329 -3.97176,0.11585 -5.99055,0.17665c0.17191,0.06288 0.35921,0.16771 0.50594,0.34247c2.9289,0 5.85779,0 8.78669,0zM283.89556,212.48172c-2.89316,-0.11642 -5.77559,-0.3541 -8.63596,-0.81007l-0.74263,0.10609c-2.6026,0.3718 -5.15525,0.68859 -7.68608,0.92679c5.68678,0.94144 11.80536,0.74075 17.71994,0.53258c-0.25711,-0.1177 -0.55441,-0.34044 -0.65527,-0.75539z" fill="#b3b3b3" fill-rule="nonzero" stroke="none" stroke-width="0.5" stroke-linecap="butt" stroke-linejoin="miter"/><path d="M293.90808,206.00653c0,-0.69036 0.55964,-1.25 1.25,-1.25c0.69036,0 1.25,0.55964 1.25,1.25c0,0.12344 -0.01789,0.2427 -0.05122,0.35533c1.95693,-0.25346 3.92342,-0.78024 5.86089,-1.02149l2.25404,-0.54864c0,0 1.2148,-0.29457 1.50936,0.92023c0.29457,1.2148 -0.92023,1.50936 -0.92023,1.50936l-2.39284,0.57815c-2.78984,0.35005 -5.57783,1.19211 -8.38348,1.20401c0,0 -0.98944,0 -1.20772,-0.88029c-0.06379,0.00681 -0.10249,0.00681 -0.10249,0.00681c-3.30969,0 -6.71345,0 -10.04501,0c-0.42895,0 -0.86649,0 -1.31022,0c-2.71881,0 -5.66982,0 -8.29805,0c0,0 -1.25,0 -1.25,-1.25c0,-1.25 1.25,-1.25 1.25,-1.25c2.76602,0 5.53204,0 8.29805,0c0.29116,0 0.58232,0 0.87348,0c3.30819,0 7.05312,0 10.36131,0h0.12044c0,0 0.56338,0 0.9337,0.37823c0,-0.00057 0,-0.00114 0,-0.00171z" fill="#b3b3b3" fill-rule="nonzero" stroke="none" stroke-width="0.5" stroke-linecap="butt" stroke-linejoin="miter"/><path d="M278.62219,227.84352c0,-0.69036 0.55964,-1.25 1.25,-1.25c0.69036,0 1.25,0.55964 1.25,1.25c0,0.69036 -0.55964,1.25 -1.25,1.25c-0.69036,0 -1.25,-0.55964 -1.25,-1.25z" fill="#b3b3b3" fill-rule="nonzero" stroke="none" stroke-width="0.5" stroke-linecap="butt" stroke-linejoin="miter"/></g></g></svg>