<svg version="1.1" xmlns="http://www.w3.org/2000/svg" xmlns:xlink="http://www.w3.org/1999/xlink" width="120.60272" height="99.63029" viewBox="0,0,120.60272,99.63029"><g transform="translate(-168.83955,-129.85729)"><g data-paper-data="{&quot;isPaintingLayer&quot;:true}" fill-rule="evenodd" stroke-miterlimit="10" stroke-dasharray="" stroke-dashoffset="0" style="mix-blend-mode: normal"><g><path d="M238.88531,195.5559c1.49015,1.59373 4.61425,5.09482 -3.76007,10.83385c-8.37433,5.73902 -24.74882,1.48406 -26.57845,0.80512c-7.17462,-2.40219 -15.86528,-5.62716 -24.2826,-12.39343c-24.50689,-19.50193 -13.61793,-49.54671 -2.91633,-51.0396c10.47288,-1.57776 7.48654,18.38983 15.90661,34.26393c3.62175,7.06826 9.57515,11.35903 14.63965,14.53937c7.26663,4.2577 25.35723,1.08346 26.99119,2.99077z" fill="#ffab19" stroke="#001026" stroke-width="1.2" stroke-linecap="round" stroke-linejoin="round"/><path d="M189.04157,155.98386c1.36779,7.5328 5.23258,18.85437 5.23258,18.85437c0,0 -7.69815,-5.19842 -13.94366,-3.09271c-4.9912,1.53038 -5.94349,6.90129 -6.08014,8.67194c-1.86985,-4.0764 -4.00144,-9.55092 -3.3181,-18.40414c0.68336,-8.85324 6.53482,-17.61001 11.61805,-17.28486c4.91349,0.78255 4.78399,4.63741 6.49126,11.25543z" fill="#ffffff" stroke="none" stroke-width="1" stroke-linecap="butt" stroke-linejoin="miter"/></g><path d="M236.6134,200.498c-0.34299,2.13597 -1.3288,9.67441 -4.86373,17.1687l-0.19848,0.3614c-0.19848,0.3614 0.03238,0.8479 0.46174,0.97303c2.91592,0.38396 8.54388,1.37198 6.05313,6.56199c-2.35482,5.0433 -19.42636,2.7233 -19.28627,-2.87228c0.26425,-2.34524 1.93307,-3.11661 2.83814,-3.50499c0.48652,-0.23087 0.82631,-0.59766 1.09276,-1.03241c0.5221,-1.15213 1.43036,-3.3097 1.92547,-5.16842c1.30842,-4.64952 1.32782,-5.99474 1.58666,-8.4813c0.25885,-2.48657 0.67078,-8.37557 5.53278,-8.91506c4.15539,-0.51252 5.13284,2.84673 4.85782,4.90934z" fill="#ffab19" stroke="#001026" stroke-width="1.2" stroke-linecap="round" stroke-linejoin="round"/><path d="M247.48703,191.00642c0.35814,0.53079 4.03619,9.22113 6.48161,8.09868c2.91665,-1.28966 7.28823,-4.22039 9.74166,0.00225c2.45344,4.22264 -5.7061,7.54257 -8.9213,8.11052c-7.51022,0.90365 -11.09827,-6.39676 -11.76712,-8.28159c-0.66885,-1.88485 -1.86915,-5.08786 -1.09457,-7.5698c0.92961,-2.64306 4.38376,-2.29839 5.5597,-0.36005z" fill="#ffab19" stroke="#001026" stroke-width="1.2" stroke-linecap="round" stroke-linejoin="round"/><g><path d="M244.92175,213.13151c1.25367,2.0428 4.0527,6.298 4.0527,6.298c0,0 11.65378,0.97171 10.20014,7.00609c-0.86814,3.60387 -6.68354,2.89775 -14.06448,0.06306c-0.44761,-0.2125 -0.87501,-0.5088 -1.1841,-0.95128c-1.33164,-2.06425 -5.11284,-8.10884 -7.44408,-12.23535c-3.42897,-6.12642 -6.48207,-10.36216 -6.48207,-10.36216c-4.95133,-8.77933 1.13491,-10.23284 4.20906,-13.67667c2.7769,-2.90005 3.473,-1.99365 7.90864,0.29893c2.54988,1.14826 4.04862,1.82865 5.78404,2.21668c2.59305,0.62395 1.15616,4.51819 -0.05026,6.42043c0,0 -1.83853,2.80074 -3.23567,4.11432c-1.7118,1.58449 -2.95023,2.58428 -4.06752,3.08121z" fill="#ffab19" stroke="#001026" stroke-width="1.2" stroke-linecap="round" stroke-linejoin="round"/><path d="M239.86668,205.12793c0,0 -0.92721,-1.32744 -1.87182,-2.92776c-1.19591,-1.93754 -2.45237,-3.62365 -0.26718,-5.79285c1.88792,-1.62541 3.85939,-3.94275 6.78234,-0.5471c2.8074,3.18513 0.82131,4.8729 0.82131,4.8729c-2.62376,3.29965 -5.46466,4.3948 -5.46466,4.3948z" fill="#ffffff" stroke="none" stroke-width="1" stroke-linecap="butt" stroke-linejoin="miter"/></g><path d="M234.3866,201.51416c3.27315,1.40235 7.93497,2.84363 5.55191,7.45026c-3.59538,5.7248 -12.69007,-0.70144 -15.24576,-3.29343c-2.27615,-2.28892 -0.95342,-5.29065 0.16212,-7.83733c2.28717,-4.78214 4.10389,-8.96538 8.33333,-9.5669c5.25084,-0.81772 4.00949,4.4186 2.67862,7.19687c-0.78893,1.68452 -1.52992,3.45679 -2.1596,4.5985c-0.02354,0.58262 0.17638,1.1571 0.67938,1.45205z" fill="#ffab19" stroke="#001026" stroke-width="1.2" stroke-linecap="round" stroke-linejoin="round"/><g><path d="M259.67698,133.60479c0.32247,-0.16129 0.80623,-0.00011 0.8559,0.4092l1.25425,10.93969c0,0 5.76836,5.45674 7.24486,8.96672c2.4939,5.8541 2.03559,10.33181 2.03559,10.33181c0,0 6.78511,2.9635 7.26964,8.76826c0.48453,5.80476 -5.21967,15.97639 -24.33324,17.31859c-19.11357,1.3422 -33.46534,-5.58937 -39.09819,-17.78121c-5.63285,-12.19184 7.16587,-24.29939 6.47138,-23.57989l0.13396,-18.02227c-0.04967,-0.40931 0.48365,-0.64505 0.85579,-0.39703l11.02797,9.3383c0,0 4.67595,-1.12936 9.36452,-0.74549c2.80321,0.14846 5.15993,0.64427 7.39265,1.32616z" fill="#ffab19" stroke="#001026" stroke-width="1.2" stroke-linecap="butt" stroke-linejoin="miter"/><path d="M270.72033,164.61196c0,0 6.62382,2.64103 7.10835,8.44579c0.48453,5.80476 -5.55464,15.43068 -24.45736,16.69843c-24.63303,1.96313 -34.26028,-13.75075 -26.29858,-23.43896c7.97409,-9.78744 18.258,0.66728 26.66762,1.11265c7.20647,0.39592 8.78087,-5.75642 16.97997,-2.81792z" fill="#ffffff" stroke="none" stroke-width="1" stroke-linecap="butt" stroke-linejoin="miter"/><path d="M238.13733,171.32671c0.04956,-0.39692 0.48365,-0.64505 0.86818,-0.49626c1.79863,0.93001 6.95879,3.18674 12.863,4.32705c5.32122,0.96674 8.53374,1.06553 10.05935,0.95369c0.50854,-0.03728 0.84351,0.50843 0.5831,0.97979c-1.22759,2.56769 -5.92755,9.53908 -16.27231,7.64277c-8.90598,-2.11977 -9.0061,-8.58197 -8.10131,-13.40704z" fill="#ffffff" stroke="#001026" stroke-width="1.2" stroke-linecap="round" stroke-linejoin="round"/><path d="M288.84227,167.98322c-5.1346,3.1884 -12.29151,2.39556 -12.29151,2.39556" fill="none" stroke="#001026" stroke-width="1.2" stroke-linecap="round" stroke-linejoin="round"/><path d="M286.16462,178.93585c-6.31341,-0.28441 -9.94795,-2.65298 -9.94795,-2.65298" fill="none" stroke="#001026" stroke-width="1.2" stroke-linecap="round" stroke-linejoin="round"/><path d="M253.66558,164.80035c2.08382,0.26019 4.24209,0.73122 4.25459,1.43822c-0.07423,1.4016 -1.90959,3.99418 -3.50965,3.89517c-1.81091,-0.02456 -5.6688,-3.02567 -5.47057,-4.61334c0.04945,-1.20314 2.74103,-0.96785 4.72562,-0.72005z" fill="#001026" stroke="#001026" stroke-width="1.2" stroke-linecap="round" stroke-linejoin="round"/><path d="M209.19816,157.73648c0,0 8.18682,3.84395 11.27577,7.35371" fill="none" stroke="#001026" stroke-width="1.2" stroke-linecap="round" stroke-linejoin="round"/><path d="M220.33797,168.60039c-4.4775,1.15414 -11.68419,-0.85424 -11.68419,-0.85424" fill="none" stroke="#001026" stroke-width="1.2" stroke-linecap="round" stroke-linejoin="round"/><g><path d="M266.82427,154.65251c2.32011,4.82463 1.78746,9.89773 -1.21398,11.33694c-3.00144,1.43921 -7.30581,-1.21454 -9.72515,-6.05156c-2.32011,-4.82463 -1.78746,-9.89773 1.21398,-11.33694c3.01383,-1.53844 7.40504,1.22693 9.72515,6.05156z" fill="#ffffff" stroke="#001026" stroke-width="1.2" stroke-linecap="round" stroke-linejoin="round"/><path d="M265.72113,160.25903c-0.13629,1.09152 -1.04163,1.88547 -2.03393,1.76157c-0.99229,-0.1239 -1.67462,-1.11608 -1.53833,-2.20761c0.13629,-1.09152 1.04163,-1.88547 2.03393,-1.76157c0.99229,0.1239 1.67462,1.11608 1.53833,2.20761" fill="#001026" stroke="none" stroke-width="1" stroke-linecap="butt" stroke-linejoin="miter"/></g><g><path d="M241.86844,154.35825c2.43173,4.73779 1.56422,10.07141 -1.35038,11.62224c-3.50998,1.4765 -7.70262,-0.45787 -10.13435,-5.19566c-2.53096,-4.75018 -2.0232,-10.43104 1.32549,-12.23001c3.36108,-1.89819 7.72751,1.06564 10.15924,5.80343z" fill="#ffffff" stroke="#001026" stroke-width="1.2" stroke-linecap="round" stroke-linejoin="round"/><path d="M240.55446,160.03922c-0.13629,1.09152 -1.04163,1.88547 -2.03393,1.76157c-0.99229,-0.1239 -1.67462,-1.11608 -1.53833,-2.20761c0.13629,-1.09152 1.04163,-1.88547 2.03393,-1.76157c0.97991,0.22313 1.67462,1.11608 1.53833,2.20761" fill="#001026" stroke="none" stroke-width="1" stroke-linecap="butt" stroke-linejoin="miter"/></g></g></g></g></svg>