<svg version="1.1" xmlns="http://www.w3.org/2000/svg" xmlns:xlink="http://www.w3.org/1999/xlink" width="197.02504" height="113.59319" viewBox="0,0,197.02504,113.59319"><g transform="translate(-192.32102,-116.74838)"><g data-paper-data="{&quot;isPaintingLayer&quot;:true}" stroke-miterlimit="10" stroke-dasharray="" stroke-dashoffset="0" style="mix-blend-mode: normal"><g fill-rule="evenodd"><path d="M224.7,201.10001c0.8,0.4 2.5,1.3 0.1,4.7c-2.4,3.4 -9.3,4.1 -10.1,4.1c-3.1,0.1 -6.9,0.1 -11.1,-1.3c-12.2,-4 -12.3,-17.1 -8.4,-19.2c3.8,-2.1 5.5,6 11,10.9c2.4,2.2 5.3,3 7.7,3.5c3.4,0.6 9.9,-3.2 10.8,-2.7z" fill="#ffab19" stroke="#001026" stroke-width="1.2" stroke-linecap="round" stroke-linejoin="round"/><path d="M199.9,193.00001c1.6,2.7 4.7,6.5 4.7,6.5c0,0 -3.7,-0.9 -5.8,0.8c-1.7,1.3 -1.3,3.5 -1.1,4.2c-1.3,-1.3 -2.9,-3.1 -3.9,-6.6c-1,-3.5 0,-7.7 2,-8.3c2,-0.4 2.5,1.1 4.1,3.4z" fill="#ffffff" stroke="none" stroke-width="1" stroke-linecap="butt" stroke-linejoin="miter"/></g><path d="M229.7,211.50001c-1.8,1.2 -8,5.6 -15.9,8.1l-0.4,0.1c-0.4,0.1 -0.6,0.6 -0.4,1c1.7,2.4 4.8,7.2 -0.7,8.9c-5.3,1.7 -15.2,-12.4 -11,-16.1c1.9,-1.4 3.6,-0.7 4.5,-0.3c0.5,0.2 1,0.2 1.5,0.1c1.2,-0.4 3.4,-1.2 5.1,-2.1c4.3,-2.2 5.3,-3.1 7.3,-4.6c2,-1.5 6.6,-5.2 10.3,-2c3.2,2.7 1.4,5.7 -0.3,6.9z" fill="#ffab19" fill-rule="evenodd" stroke="#001026" stroke-width="1.2" stroke-linecap="round" stroke-linejoin="round"/><path d="M245.6,190.7c0.5,0.4 6.6,7.6 8.6,5.8c2.4,-2.1 5.7,-6.2 9.3,-2.9c3.6,3.3 -3.2,8.9 -6.1,10.4c-6.9,3.1 -12.5,-2.8 -13.7,-4.4c-1.2,-1.6 -3.3,-4.3 -3.3,-6.9c0.1,-2.8 3.5,-3.5 5.2,-2z" fill="#ffab19" fill-rule="evenodd" stroke="#001026" stroke-width="1.2" stroke-linecap="round" stroke-linejoin="round"/><g fill-rule="evenodd"><path d="M245.7,214.00001c2.1,1.9 6.7,5.8 6.7,5.8c0,0 14.3,-2.5 14.3,4.7c0,4.3 -7.2,5.3 -16.9,4.4c-0.6,-0.1 -1.2,-0.3 -1.7,-0.7c-2.2,-1.9 -8.5,-7.5 -12.5,-11.4c-5.9,-5.8 -10.8,-9.6 -10.8,-9.6c-8.5,-8.3 -1.6,-11.8 1.1,-16.6c2.5,-4.1 3.6,-3.3 9.6,-2.1c3.4,0.5 5.4,0.8 7.6,0.7c3.3,-0.1 2.7,4.7 1.8,7.2c0,0 -1.4,3.7 -2.7,5.6c-1.6,2.3 -2.8,3.8 -4,4.7z" fill="#ffab19" stroke="#001026" stroke-width="1.2" stroke-linecap="round" stroke-linejoin="round"/><path d="M237.3,206.60001c0,0 -1.5,-1.2 -3.1,-2.7c-2,-1.8 -4,-3.3 -2,-6.4c1.8,-2.4 3.5,-5.6 8,-2.7c4.3,2.7 2.4,5.2 2.4,5.2c-2.2,4.5 -5.3,6.6 -5.3,6.6z" fill="#ffffff" stroke="none" stroke-width="1" stroke-linecap="butt" stroke-linejoin="miter"/></g><path d="M222.2,198.40001c2.2,2.8 5.6,6.3 1.3,9.2c-5.9,3.3 -10.8,-6.7 -11.8,-10.2c-0.9,-3.1 1.7,-5.1 3.9,-6.8c4.3,-3.1 7.9,-5.9 11.9,-4.4c5,1.8 1.4,5.8 -1.1,7.6c-1.5,1.1 -3,2.3 -4.1,3c-0.3,0.5 -0.4,1.1 -0.1,1.6z" fill="#ffab19" fill-rule="evenodd" stroke="#001026" stroke-width="1.2" stroke-linecap="round" stroke-linejoin="round"/><g fill-rule="evenodd"><path d="M253.21768,131.86601c0.30777,-0.18782 0.80336,-0.06785 0.88726,0.33583l2.169,10.79562c0,0 6.20646,4.95276 7.97265,8.32627c2.97696,5.62385 2.89651,10.12424 2.89651,10.12424c0,0 7.01011,2.38291 7.98067,8.12643c0.97055,5.74352 -3.85883,16.35847 -22.79202,19.3019c-18.9332,2.94344 -33.81664,-2.75775 -40.45396,-14.43318c-6.63732,-11.67544 5.09883,-24.81556 4.46723,-24.04026l-1.3808,-17.96979c-0.08389,-0.40369 0.42773,-0.68341 0.8194,-0.46753l11.77361,8.37868c0,0 4.56453,-1.51825 9.26877,-1.52969c2.80577,-0.0876 5.19582,0.20844 7.47793,0.70031z" fill="#ffab19" stroke="#001026" stroke-width="1.2" stroke-linecap="butt" stroke-linejoin="miter"/><path d="M266.8273,161.83564c0,0 6.8223,2.07513 7.79285,7.81866c0.97055,5.74352 -4.23846,15.84284 -22.96782,18.69436c-24.38097,4.02594 -35.29452,-10.82347 -28.175,-21.14638c7.12352,-10.42284 18.24951,-0.86917 26.66681,-1.13198c7.21426,-0.21099 8.26615,-6.47386 16.68315,-4.23467z" fill="#ffffff" stroke="none" stroke-width="1" stroke-linecap="butt" stroke-linejoin="miter"/><path d="M234.9237,171.26438c0.01603,-0.39968 0.42773,-0.68341 0.82341,-0.56745c1.87041,0.7756 7.20194,2.59077 13.18108,3.23096c5.38364,0.51622 8.59308,0.34473 10.10391,0.10509c0.5036,-0.07988 0.88324,0.43575 0.66336,0.92733c-1.0075,2.66176 -5.10509,10.0034 -15.5726,8.983c-9.0526,-1.36397 -9.69533,-7.7949 -9.19916,-12.67893z" fill="#ffffff" stroke="#001026" stroke-width="1.2" stroke-linecap="round" stroke-linejoin="round"/><path d="M356.49234,161.7256c-4.84854,3.60855 -82.49792,5.40158 -82.49792,5.40158" fill="none" stroke="#001026" stroke-width="1.2" stroke-linecap="round" stroke-linejoin="round"/><path d="M358.13052,175.62289c-6.31499,0.24707 -84.84569,-2.61943 -84.84569,-2.61943" fill="none" stroke="#001026" stroke-width="1.2" stroke-linecap="round" stroke-linejoin="round"/><path d="M249.84868,163.45636c2.09831,0.08418 4.28853,0.3722 4.36039,1.07565c0.0438,1.40288 -1.56723,4.14051 -3.16995,4.17629c-1.80657,0.12768 -5.90299,-2.53866 -5.83885,-4.13738c-0.05181,-1.20304 2.65002,-1.19473 4.64842,-1.11457z" fill="#001026" stroke="#001026" stroke-width="1.2" stroke-linecap="round" stroke-linejoin="round"/><path d="M216.79875,166.53403c-3.37292,-3.2378 138.89034,16.71365 138.89034,16.71365" fill="none" stroke="#001026" stroke-width="1.2" stroke-linecap="round" stroke-linejoin="round"/><path d="M344.449,197.61282c0,0 14.32778,3.94469 12.84431,3.65054c-17.49337,-3.46863 -144.35858,-29.81314 -140.3351,-31.2201" fill="none" stroke="#001026" stroke-width="1.2" stroke-linecap="round" stroke-linejoin="round"/><g><path d="M262.10819,152.23876c2.71729,4.61263 2.61278,9.71254 -0.25713,11.39886c-2.8699,1.68631 -7.38203,-0.59639 -10.19923,-5.21302c-2.71729,-4.61263 -2.61278,-9.71254 0.25713,-11.39886c2.87391,-1.78624 7.48195,0.6004 10.19923,5.21302z" fill="#ffffff" stroke="#001026" stroke-width="1.2" stroke-linecap="round" stroke-linejoin="round"/><path d="M261.48003,157.91814c-0.04409,1.09912 -0.87953,1.96633 -1.87872,1.92624c-0.99919,-0.04009 -1.76248,-0.97143 -1.71838,-2.07054c0.04409,-1.09912 0.87953,-1.96633 1.87872,-1.92624c0.99919,0.04009 1.76248,0.97143 1.71838,2.07054" fill="#001026" stroke="none" stroke-width="1" stroke-linecap="butt" stroke-linejoin="miter"/></g><g><path d="M237.21588,154.04242c2.82122,4.51672 2.40492,9.90436 -0.36907,11.69461c-3.37351,1.76619 -7.71385,0.19095 -10.53507,-4.32578c-2.92113,-4.52072 -2.89249,-10.22417 0.29321,-12.29813c3.1897,-2.17389 7.78972,0.41258 10.61094,4.9293z" fill="#ffffff" stroke="#001026" stroke-width="1.2" stroke-linecap="round" stroke-linejoin="round"/><path d="M236.38387,159.8137c-0.04409,1.09912 -0.87953,1.96633 -1.87872,1.92624c-0.99919,-0.04009 -1.76248,-0.97143 -1.71838,-2.07054c0.04409,-1.09912 0.87953,-1.96633 1.87872,-1.92624c0.99519,0.14 1.76248,0.97143 1.71838,2.07054" fill="#001026" stroke="none" stroke-width="1" stroke-linecap="butt" stroke-linejoin="miter"/></g></g><path d="M288.52156,155.85461l83.67026,24.43552" fill="none" fill-rule="nonzero" stroke="#001026" stroke-width="1.2" stroke-linecap="round" stroke-linejoin="miter"/><path d="M350.80368,206.8621l-19.19305,-24.13449l38.04989,-27.99108" fill="none" fill-rule="nonzero" stroke="#001026" stroke-width="1.2" stroke-linecap="round" stroke-linejoin="miter"/><path d="M312.8398,188.55063l3.75495,-56.58617" fill="none" fill-rule="nonzero" stroke="#001026" stroke-width="1.2" stroke-linecap="round" stroke-linejoin="miter"/><path d="M336.47584,176.00545l-38.95686,10.62176" fill="none" fill-rule="nonzero" stroke="#001026" stroke-width="1.2" stroke-linecap="round" stroke-linejoin="miter"/><path d="M344.90248,168.08703l37.63355,14.29851" fill="none" fill-rule="nonzero" stroke="#001026" stroke-width="1.2" stroke-linecap="round" stroke-linejoin="miter"/><path d="M323.43613,174.65477l4.6287,-25.76275" fill="none" fill-rule="nonzero" stroke="#001026" stroke-width="1.2" stroke-linecap="round" stroke-linejoin="miter"/><path d="M274.27582,160.63968l46.63291,4.09897" fill="none" fill-rule="nonzero" stroke="#001026" stroke-width="1.2" stroke-linecap="round" stroke-linejoin="miter"/><path d="M335.90116,219.25871l3.06494,-35.52053" fill="none" fill-rule="nonzero" stroke="#001026" stroke-width="1.2" stroke-linecap="round" stroke-linejoin="miter"/><path d="M328.5535,151.94133l-37.79578,-28.97234" fill="none" fill-rule="nonzero" stroke="#001026" stroke-width="1.2" stroke-linecap="round" stroke-linejoin="miter"/><path d="M340.95012,166.84385l36.28872,2.00355" fill="none" fill-rule="nonzero" stroke="#001026" stroke-width="1.2" stroke-linecap="round" stroke-linejoin="miter"/><path d="M324.69495,135.67054l-9.28084,55.28238" fill="none" fill-rule="nonzero" stroke="#001026" stroke-width="1.2" stroke-linecap="round" stroke-linejoin="miter"/><path d="M281.39283,183.58182l47.76468,-6.40355" fill="none" fill-rule="nonzero" stroke="#001026" stroke-width="1.2" stroke-linecap="round" stroke-linejoin="miter"/><path d="M337.07593,185.6049l-8.2605,38.22973" fill="none" fill-rule="nonzero" stroke="#001026" stroke-width="1.2" stroke-linecap="round" stroke-linejoin="miter"/><path d="M339.55643,203.03484l15.19767,-51.53917" fill="none" fill-rule="nonzero" stroke="#001026" stroke-width="1.2" stroke-linecap="round" stroke-linejoin="miter"/><path d="M388.74606,187.95834l-121.00084,-46.60163" fill="none" fill-rule="nonzero" stroke="#001026" stroke-width="1.2" stroke-linecap="round" stroke-linejoin="miter"/><path d="M357.11145,213.04477l-56.21087,-63.86541" fill="none" fill-rule="nonzero" stroke="#001026" stroke-width="1.2" stroke-linecap="round" stroke-linejoin="miter"/><path d="M327.2419,126.19227l-29.4395,71.96172" fill="none" fill-rule="nonzero" stroke="#001026" stroke-width="1.2" stroke-linecap="round" stroke-linejoin="miter"/><path d="M316.55832,197.27174l31.44526,-62.89052" fill="none" fill-rule="nonzero" stroke="#001026" stroke-width="1.2" stroke-linecap="round" stroke-linejoin="miter"/><path d="M297.77852,216.48829l30.57178,-46.73115" fill="none" fill-rule="nonzero" stroke="#001026" stroke-width="1.2" stroke-linecap="round" stroke-linejoin="miter"/><path d="M362.85273,204.25958l-53.28224,-41.05353" fill="none" fill-rule="nonzero" stroke="#001026" stroke-width="1.2" stroke-linecap="round" stroke-linejoin="miter"/><path d="M260.2189,117.34838l55.0292,69.44161" fill="none" fill-rule="nonzero" stroke="#001026" stroke-width="1.2" stroke-linecap="round" stroke-linejoin="miter"/><path d="M273.3211,214.74133l39.74331,-45.85767" fill="none" fill-rule="nonzero" stroke="#001026" stroke-width="1.2" stroke-linecap="round" stroke-linejoin="miter"/><path d="M355.8649,136.12818l-47.16789,31.44526" fill="none" fill-rule="nonzero" stroke="#001026" stroke-width="1.2" stroke-linecap="round" stroke-linejoin="miter"/></g></g></svg>