<svg version="1.1" xmlns="http://www.w3.org/2000/svg" xmlns:xlink="http://www.w3.org/1999/xlink" width="99.09363" height="101.21352" viewBox="0,0,99.09363,101.21352"><g transform="translate(-191.28922,-129.65533)"><g data-paper-data="{&quot;isPaintingLayer&quot;:true}" stroke-miterlimit="10" stroke-dasharray="" stroke-dashoffset="0" style="mix-blend-mode: normal"><g fill-rule="evenodd"><path d="M223.15473,199.9148c0.76788,0.45864 2.3959,1.48313 -0.25139,4.69434c-2.64729,3.21121 -9.5803,3.3938 -10.37806,3.33404c-3.09881,-0.13186 -6.88819,-0.41573 -10.97187,-2.12557c-11.8671,-4.9002 -10.9882,-17.97107 -6.94222,-19.77386c3.94626,-1.81026 5.03641,6.3941 10.155,11.69128c2.22895,2.37314 5.06108,3.38755 7.41702,4.06544c3.34568,0.85231 10.11139,-2.4515 10.97152,-1.88566z" fill="#ffab19" stroke="#001026" stroke-width="1.2" stroke-linecap="round" stroke-linejoin="round"/><path d="M199.02912,189.98479c1.39383,2.81198 4.2013,6.83294 4.2013,6.83294c0,0 -3.62243,-1.17389 -5.84356,0.36449c-1.79236,1.16937 -1.55783,3.39311 -1.41068,4.10609c-1.19925,-1.39348 -2.66032,-3.30798 -3.39606,-6.8729c-0.73574,-3.56492 0.57522,-7.67848 2.61445,-8.1274c2.02429,-0.24948 2.41084,1.28368 3.83455,3.69678z" fill="#ffffff" stroke="none" stroke-width="1" stroke-linecap="butt" stroke-linejoin="miter"/></g><path d="M231.31593,208.0888c-1.69036,1.35006 -7.48986,6.26595 -15.14614,9.43474l-0.38994,0.13396c-0.38994,0.13396 -0.5463,0.64928 -0.3127,1.03064c1.89971,2.24524 5.40023,6.76147 0.06644,8.92724c-5.13454,2.1486 -16.20816,-11.04969 -12.34121,-15.09651c1.77284,-1.5579 3.52664,-1.00639 4.45765,-0.68511c0.51532,0.15635 1.01348,0.11343 1.50305,-0.0291c1.16124,-0.50152 3.28446,-1.48738 4.90095,-2.52997c4.09531,-2.56093 5.01438,-3.54344 6.87827,-5.20955c1.86389,-1.66612 6.12936,-5.74727 10.09035,-2.87663c3.41992,2.4154 1.88404,5.55881 0.29331,6.90029z" fill="#ffab19" fill-rule="evenodd" stroke="#001026" stroke-width="1.2" stroke-linecap="round" stroke-linejoin="round"/><path d="M243.94471,190.23168c0.43438,0.43623 5.57328,8.07181 7.54622,6.42624c2.36337,-1.91484 5.69694,-5.75687 8.79545,-2.19716c3.09851,3.55971 -3.57346,8.63608 -6.35738,9.91525c-6.59132,2.57588 -11.35814,-3.72597 -12.35635,-5.41114c-0.99821,-1.68517 -2.75203,-4.53451 -2.57203,-7.12724c0.28626,-2.78471 3.47687,-3.22876 4.94409,-1.60595z" fill="#ffab19" fill-rule="evenodd" stroke="#001026" stroke-width="1.2" stroke-linecap="round" stroke-linejoin="round"/><g fill-rule="evenodd"><path d="M244.42356,214.34752c2.022,2.05157 6.47139,6.28431 6.47139,6.28431c0,0 17.31848,-1.8615 16.76139,5.31839c-0.33271,4.28798 -10.20181,5.18407 -20.15092,3.56196c-0.61198,-0.14454 -1.21622,-0.38881 -1.7017,-0.82504c-2.12529,-2.05904 -8.199,-8.11402 -12.02869,-12.30194c-0.71801,-0.79171 -1.4218,-1.54994 -2.10339,-2.2704c-4.67723,-4.94398 -8.30871,-8.10957 -8.30871,-8.10957c-8.13711,-8.91179 -0.73955,-11.88655 2.42056,-16.47144c2.89939,-3.90179 3.97363,-3.02185 10.07795,-1.37698c3.47304,0.75259 5.51554,1.20116 7.79558,1.26579c3.41617,0.1468 2.42507,4.88857 1.30206,7.31435c0,0 -1.73229,3.58508 -3.22201,5.38265c-1.83054,2.17405 -3.18603,3.58021 -4.4951,4.38805z" fill="#ffab19" stroke="#001026" stroke-width="1.2" stroke-linecap="round" stroke-linejoin="round"/><path d="M236.32011,206.34069c0,0 -1.45644,-1.3087 -2.99296,-2.92404c-1.92645,-1.94438 -3.8761,-3.58959 -1.57052,-6.53152c2.04485,-2.25883 4.04831,-5.32289 8.4718,-2.09483c4.23239,3.01368 2.07653,5.36476 2.07653,5.36476c-2.62048,4.32308 -5.98483,6.18563 -5.98483,6.18563z" fill="#ffffff" stroke="none" stroke-width="1" stroke-linecap="butt" stroke-linejoin="miter"/></g><path d="M225.3319,201.68251c3.48438,2.50791 8.48181,5.36079 5.59367,10.8124c-4.28092,6.6404 -13.80468,-3.5994 -16.43187,-7.49352c-2.34105,-3.44289 -0.7102,-7.04403 0.66613,-10.10066c2.79446,-5.69891 5.03813,-10.72317 9.69119,-10.60373c5.7812,0.05657 4.09967,6.56469 2.4739,9.87513c-0.96609,2.011 -1.88535,4.14565 -2.64378,5.48848c-0.06205,0.74844 0.12026,1.53377 0.65077,2.02189z" fill="#ffab19" fill-rule="evenodd" stroke="#001026" stroke-width="1.2" stroke-linecap="round" stroke-linejoin="round"/><g fill-rule="evenodd"><path d="M261.93957,134.82581c0.32835,-0.14897 0.80565,0.0304 0.8398,0.4413l0.83932,10.97932c0,0 5.55772,5.67114 6.9003,9.23449c2.27056,5.94429 1.64311,10.40145 1.64311,10.40145c0,0 6.66808,3.21817 6.93258,9.03711c0.26449,5.81894 -5.82058,15.7674 -24.97126,16.38525c-19.15068,0.61785 -33.22982,-6.85192 -38.39721,-19.24821c-5.16739,-12.39629 8.08039,-24.01078 7.35916,-23.31808l0.81595,-18.00428c-0.03414,-0.4109 0.50771,-0.62628 0.8702,-0.36435l10.66664,9.74898c0,0 4.71535,-0.95158 9.38602,-0.39054c2.79557,0.25444 5.13186,0.8391 7.33716,1.605z" fill="#ffab19" stroke="#001026" stroke-width="1.2" stroke-linecap="butt" stroke-linejoin="miter"/><path d="M271.80149,166.22872c0,0 6.51912,2.88982 6.78361,8.70876c0.26449,5.81894 -6.13466,15.20941 -25.07181,15.76084c-24.68968,1.02944 -33.71531,-15.03753 -25.39266,-24.41747c8.3388,-9.47863 18.21967,1.3578 26.60641,2.12113c7.18633,0.66838 8.99244,-5.41997 17.07445,-2.17326z" fill="#ffffff" stroke="none" stroke-width="1" stroke-linecap="butt" stroke-linejoin="miter"/><path d="M238.9877,171.7055c0.06455,-0.39476 0.50771,-0.62628 0.88634,-0.46304c1.76214,0.99741 6.83319,3.44783 12.69002,4.81077c5.28082,1.16744 8.4873,1.38774 10.01604,1.33372c0.50958,-0.018 0.82366,0.53999 0.54559,1.00117c-1.32389,2.51939 -6.28433,9.30791 -16.5499,7.02145c-8.81938,-2.45532 -8.67484,-8.91667 -7.58809,-13.70405z" fill="#ffffff" stroke="#001026" stroke-width="1.2" stroke-linecap="round" stroke-linejoin="round"/><path d="M289.78285,170.28341c-5.25159,2.99179 -12.37337,1.92865 -12.37337,1.92865" fill="none" stroke="#001026" stroke-width="1.2" stroke-linecap="round" stroke-linejoin="round"/><path d="M286.6926,181.12687c-6.29812,-0.52315 -9.84042,-3.02757 -9.84042,-3.02757" fill="none" stroke="#001026" stroke-width="1.2" stroke-linecap="round" stroke-linejoin="round"/><path d="M254.75183,165.77151c2.07248,0.33887 4.21138,0.89124 4.19711,1.59821c-0.12723,1.39779 -2.05938,3.91905 -3.65455,3.75956c-1.80868,-0.09307 -5.55023,-3.23805 -5.29204,-4.81708c0.09495,-1.20041 2.77571,-0.86342 4.74949,-0.54069z" fill="#001026" stroke="#001026" stroke-width="1.2" stroke-linecap="round" stroke-linejoin="round"/><path d="M210.58361,157.02975c0,0 8.03548,4.15105 10.98937,7.7752" fill="none" stroke="#001026" stroke-width="1.2" stroke-linecap="round" stroke-linejoin="round"/><path d="M221.30427,168.30748c-4.51797,0.98385 -11.64349,-1.29583 -11.64349,-1.29583" fill="none" stroke="#001026" stroke-width="1.2" stroke-linecap="round" stroke-linejoin="round"/><g><path d="M268.28516,156.12895c2.13585,4.90898 1.41158,9.95828 -1.64218,11.28287c-3.05376,1.32458 -7.25461,-1.49017 -9.48915,-6.41529c-2.13585,-4.90898 -1.41158,-9.95828 1.64218,-11.28287c3.0699,-1.42328 7.3533,1.50631 9.48915,6.41529z" fill="#ffffff" stroke="#001026" stroke-width="1.2" stroke-linecap="round" stroke-linejoin="round"/><path d="M266.97062,161.6897c-0.1775,1.08558 -1.11224,1.8447 -2.09914,1.68333c-0.98689,-0.16137 -1.63118,-1.17866 -1.45369,-2.26424c0.1775,-1.08558 1.11224,-1.8447 2.09914,-1.68333c0.98689,0.16137 1.63118,1.17866 1.45369,2.26424" fill="#001026" stroke="none" stroke-width="1" stroke-linecap="butt" stroke-linejoin="miter"/></g><g><path d="M243.35834,154.89041c2.25068,4.82643 1.18193,10.12339 -1.78928,11.5628c-3.56334,1.3426 -7.67977,-0.74906 -9.93045,-5.5755c-2.34937,-4.84257 -1.62697,-10.50014 1.78741,-12.17108c3.43051,-1.76962 7.68165,1.35734 9.93232,6.18377z" fill="#ffffff" stroke="#001026" stroke-width="1.2" stroke-linecap="round" stroke-linejoin="round"/><path d="M241.83029,160.51758c-0.1775,1.08558 -1.11224,1.8447 -2.09914,1.68333c-0.98689,-0.16137 -1.63118,-1.17866 -1.45369,-2.26424c0.1775,-1.08558 1.11224,-1.8447 2.09914,-1.68333c0.97076,0.26006 1.63118,1.17866 1.45369,2.26424" fill="#001026" stroke="none" stroke-width="1" stroke-linecap="butt" stroke-linejoin="miter"/></g></g><path d="M220.97255,183.73281c0,-0.69036 0.55964,-1.25 1.25,-1.25c0.69036,0 1.25,0.55964 1.25,1.25c0,0.69036 -0.55964,1.25 -1.25,1.25c-0.69036,0 -1.25,-0.55964 -1.25,-1.25z" fill="#19ffea" fill-rule="nonzero" stroke="none" stroke-width="0.5" stroke-linecap="butt" stroke-linejoin="miter"/><path d="M215.73167,192.4676c0,-0.69036 0.55964,-1.25 1.25,-1.25c0.69036,0 1.25,0.55964 1.25,1.25c0,0.69036 -0.55964,1.25 -1.25,1.25c-0.69036,0 -1.25,-0.55964 -1.25,-1.25z" fill="#19ffea" fill-rule="nonzero" stroke="none" stroke-width="0.5" stroke-linecap="butt" stroke-linejoin="miter"/><path d="M207.363,194.20416c0.88388,-0.88388 1.76777,0 1.76777,0l0.01709,0.16003c3.09222,1.23897 5.99945,2.79099 8.89073,4.44269c0,0 1.0853,0.62017 0.46513,1.70548c-0.62017,1.0853 -1.70548,0.46513 -1.70548,0.46513c-2.7895,-1.59446 -5.59364,-3.10013 -8.57886,-4.29211l-0.85638,-0.71345c0,0 -0.88388,-0.88388 0,-1.76777z" fill="#19ffea" fill-rule="nonzero" stroke="none" stroke-width="0.5" stroke-linecap="butt" stroke-linejoin="miter"/><path d="M222.71951,210.37393c0,-1.25 1.25,-1.25 1.25,-1.25h1.31022c0,0 1.25,0 1.25,1.25c0,1.25 -1.25,1.25 -1.25,1.25h-1.31022c0,0 -1.25,0 -1.25,-1.25z" fill="#19ffea" fill-rule="nonzero" stroke="none" stroke-width="0.5" stroke-linecap="butt" stroke-linejoin="miter"/></g></g></svg>