<svg version="1.1" xmlns="http://www.w3.org/2000/svg" xmlns:xlink="http://www.w3.org/1999/xlink" width="30.64865" height="30.77429" viewBox="0,0,30.64865,30.77429"><g transform="translate(-224.57813,-164.68151)"><g data-paper-data="{&quot;isPaintingLayer&quot;:true}" fill-rule="nonzero" stroke="none" stroke-linecap="butt" stroke-linejoin="miter" stroke-miterlimit="10" stroke-dasharray="" stroke-dashoffset="0" style="mix-blend-mode: normal"><path d="M224.57813,195.4558v-30.77429h30.64865v30.77429z" fill="#c6c6c6" stroke-width="0"/><path d="M233.05062,184.56537l0.12218,-15.33443l18.8884,4.77721c0,0 1.42758,0.27027 1.41411,2.01572c-0.01347,1.74544 -1.4459,2.06084 -1.4459,2.06084z" fill="#4cb4e0" stroke-width="0"/><path d="M231.61781,170.90737l1.11333,-3.30399l19.35574,6.40404c0,0 1.48096,0.73574 1.38969,2.59514c-0.00772,0.11277 -1.38969,-0.27471 -1.38969,-0.27471z" fill="#50beed" stroke-width="0"/><path d="M233.45243,183.88733v11.50793h-4.09005v-27.11073c0.01363,-0.70041 0.21132,-1.30395 0.59307,-1.81063c0.39537,-0.52159 0.87935,-0.78238 1.45197,-0.78238c0.5726,0 1.05659,0.2608 1.45198,0.78238c0.38175,0.50669 0.57943,1.11023 0.59307,1.81063v0.08941z" fill="#429bc1" stroke-width="1"/></g></g></svg>