<svg version="1.1" xmlns="http://www.w3.org/2000/svg" xmlns:xlink="http://www.w3.org/1999/xlink" width="30.64865" height="30.77429" viewBox="0,0,30.64865,30.77429"><g transform="translate(-224.57812,-164.59814)"><g data-paper-data="{&quot;isPaintingLayer&quot;:true}" fill-rule="nonzero" stroke="none" stroke-linecap="butt" stroke-linejoin="miter" stroke-miterlimit="10" stroke-dasharray="" stroke-dashoffset="0" style="mix-blend-mode: normal"><path d="M224.57812,195.37243v-30.77429h30.64865v30.77429z" fill="#c6c6c6" stroke-width="0"/><path d="M234.29064,174.95482l11.63402,11.63402l-7.31785,7.31785c-1.11519,1.11526 -2.92343,1.11526 -4.0387,0l-7.59531,-7.59532c-1.11527,-1.11521 -1.11527,-2.92343 0,-4.03869z" data-paper-data="{&quot;index&quot;:null}" fill="#ffeceb" stroke-width="1"/><path d="M245.82346,187.3252l-11.63402,-11.63403l7.31786,-7.31784c1.1152,-1.11526 2.92343,-1.11526 4.0387,0l7.59531,7.59532c1.11526,1.11521 1.11526,2.92343 0,4.03869z" fill="#f4b2b0" stroke-width="1"/><g fill="#474747" stroke-width="1"><path d=""/><path d="M246.10809,187.92538l-5.07392,5.07393c0,0 -1.60383,1.3846 -2.19385,1.64247c-0.4834,0.21127 -1.9129,0.40078 -3.37237,0.3295c-0.90419,-0.04415 -2.05477,-0.01614 -2.5139,-0.4634c-1.52411,-1.17167 -7.10403,-6.85978 -7.10403,-6.85978c-1.47355,-1.47355 -1.47355,-3.87119 0,-5.34473l7.19368,-7.19369c0.36084,-0.36052 0.64499,-0.12015 1.00571,0.24037c0.36066,0.36077 0.36066,0.9455 0,1.30616l-6.89324,6.95332c-0.36501,0.36488 -0.56602,0.85017 -0.56602,1.36633c0,0.51612 0.20101,1.00138 0.56602,1.36626c0,0 6.35569,6.34803 6.40725,6.38445c0.76406,0.53964 1.25444,0.49432 1.85958,0.53757c1.27274,0.09097 2.68871,-0.06859 2.99886,-0.31593c1.12112,-0.89406 5.72704,-5.67581 5.72704,-5.67581l-10.98096,-10.98097c-0.17315,-0.17327 -0.27048,-0.40812 -0.27048,-0.65304c0,-0.24492 0.09733,-0.47978 0.27048,-0.65305l7.31791,-7.31786c0.71392,-0.7138 1.66291,-1.10693 2.6725,-1.10693c1.00947,0 1.95857,0.39314 2.67237,1.10693l7.59532,7.59531c0.7138,0.71386 1.10693,1.66291 1.10693,2.67238c0,1.0096 -0.39314,1.95869 -1.10693,2.67249zM234.79702,175.61162l10.32799,10.32799l6.66479,-6.66493c0.36501,-0.36488 0.56603,-0.85016 0.56603,-1.36632c0,-0.51612 -0.20102,-1.0014 -0.56603,-1.36628l-7.59526,-7.59525c-0.36488,-0.36501 -0.85022,-0.56603 -1.36626,-0.56603c-0.51618,0 -1.00146,0.20104 -1.36634,0.56603z"/></g></g></g></svg>