<svg version="1.1" xmlns="http://www.w3.org/2000/svg" xmlns:xlink="http://www.w3.org/1999/xlink" width="335.75901" height="214.735" viewBox="0,0,335.75901,214.735"><g transform="translate(-72.47297,-83.13365)"><g data-paper-data="{&quot;isPaintingLayer&quot;:true}" fill-rule="nonzero" stroke="none" stroke-width="1" stroke-linecap="butt" stroke-linejoin="miter" stroke-miterlimit="10" stroke-dasharray="" stroke-dashoffset="0" style="mix-blend-mode: normal"><path d="M255.11099,277.58164c0,-9.167 7.443,-16.61 16.61,-16.61c9.168,0 16.61,7.443 16.61,16.61c0,9.168 -7.442,16.611 -16.61,16.611c-9.167,0 -16.61,-7.443 -16.61,-16.611z" fill="#789cfd"/><path d="M240.47299,196.13365h160.332c3.864,0 7,3.137 7,7v22.897c0,3.863 -3.136,7 -7,7h-160.332c-3.863,0 -7,-3.137 -7,-7v-22.897c0,-3.863 3.137,-7 7,-7z" fill="#ebebeb"/><path d="M77.94397,259.13365h95.546c3.019,0 5.471,2.451 5.471,5.471v25.955c0,3.019 -2.452,5.471 -5.471,5.471h-95.546c-3.02,0 -5.471,-2.452 -5.471,-5.471v-25.955c0,-3.02 2.451,-5.471 5.471,-5.471z" fill="#ebebeb"/><path d="M301.31798,297.86866v-18.449c0,-10.182 8.266,-18.448 18.448,-18.448h69.591c10.182,0 18.448,8.266 18.448,18.448v0c0,10.182 -8.266,18.449 -18.448,18.449z" fill="#ebebeb"/><path d="M79.85198,133.51263h177.104v14.759h-177.104c-4.072,0 -7.379,-3.307 -7.379,-7.379v0c0,-4.073 3.307,-7.38 7.379,-7.38z" fill="#c8c8c8"/><path d="M256.95599,133.51263h143.896c4.073,0 7.38,3.307 7.38,7.38v0c0,4.072 -3.307,7.379 -7.38,7.379h-143.896z" fill="#ececec"/><path d="M79.85198,83.13366h122.047v14.759h-122.047c-4.072,0 -7.379,-3.307 -7.379,-7.38v0c0,-4.072 3.307,-7.379 7.379,-7.379z" fill="#65a9fb"/><path d="M201.89899,83.13366h198.953c4.073,0 7.38,3.307 7.38,7.379v0c0,4.073 -3.307,7.38 -7.38,7.38h-198.953v0z" fill="#ececec"/><path d="M240.35199,140.89265c0,-8.146 6.613,-14.759 14.759,-14.759c8.145,0 14.759,6.613 14.759,14.759c0,8.145 -6.614,14.758 -14.759,14.758c-8.146,0 -14.759,-6.613 -14.759,-14.758z" fill="#c6c6c6"/><path d="M79.85198,196.23666h22.138c4.073,0 7.38,3.307 7.38,7.38v22.138c0,4.072 -3.307,7.379 -7.38,7.379h-22.138c-4.072,0 -7.379,-3.307 -7.379,-7.379v-22.138c0,-4.073 3.307,-7.38 7.379,-7.38z" fill="#ebebeb"/><path d="M84.93498,214.41366l6.015,6.014c1.032,1.032 1.032,2.709 0,3.742v0c-1.033,1.033 -2.71,1.033 -3.742,0l-6.015,-6.014c-1.032,-1.033 -1.032,-2.71 0,-3.742v0c1.033,-1.033 2.71,-1.033 3.742,0z" fill="#ffffff"/><path d="M102.17598,212.94365l-11.226,11.226c-1.033,1.033 -2.71,1.033 -3.742,0v0c-1.033,-1.033 -1.033,-2.71 0,-3.742l11.226,-11.226c1.033,-1.033 2.709,-1.033 3.742,0v0c1.033,1.032 1.033,2.709 0,3.742z" fill="#ffffff"/><path d="M129.67098,196.23666h22.138c4.073,0 7.38,3.307 7.38,7.38v22.138c0,4.072 -3.307,7.379 -7.38,7.379h-22.138c-4.072,0 -7.379,-3.307 -7.379,-7.379v-22.138c0,-4.073 3.307,-7.38 7.379,-7.38z" fill="#ff6a6a"/><path d="M134.75498,214.41366l6.014,6.014c1.032,1.032 1.032,2.709 0,3.742v0c-1.033,1.033 -2.71,1.033 -3.742,0l-6.014,-6.014c-1.033,-1.033 -1.033,-2.71 0,-3.742v0c1.032,-1.033 2.709,-1.033 3.742,0z" fill="#ffffff"/><path d="M379.08599,209.85766l7.719,7.718c1.032,1.033 1.032,2.71 0,3.742v0c-1.033,1.033 -2.71,1.033 -3.742,0l-7.719,-7.718c-1.033,-1.033 -1.033,-2.709 0,-3.742v0c1.033,-1.033 2.709,-1.033 3.742,0z" fill="#bbbbbb"/><path d="M394.50899,209.84566v0c1.033,1.033 1.033,2.71 0,3.742l-7.719,7.719c-1.032,1.032 -2.709,1.032 -3.742,0v0c-1.032,-1.033 -1.032,-2.71 0,-3.742l7.719,-7.719c1.032,-1.033 2.709,-1.033 3.742,0z" fill="#bbbbbb"/><path d="M151.99498,212.94365l-11.226,11.226c-1.033,1.033 -2.71,1.033 -3.742,0v0c-1.033,-1.033 -1.033,-2.71 0,-3.742l11.226,-11.226c1.033,-1.033 2.709,-1.033 3.742,0v0c1.033,1.032 1.033,2.709 0,3.742z" fill="#ffffff"/><path d="M179.49099,196.23666h22.138c4.072,0 7.379,3.307 7.379,7.38v22.138c0,4.072 -3.307,7.379 -7.379,7.379h-22.138c-4.073,0 -7.38,-3.307 -7.38,-7.379v-22.138c0,-4.073 3.307,-7.38 7.38,-7.38z" fill="#84db76"/><path d="M184.57399,214.41366l6.014,6.014c1.033,1.032 1.033,2.709 0,3.742v0c-1.033,1.033 -2.709,1.033 -3.742,0l-6.014,-6.014c-1.033,-1.033 -1.033,-2.71 0,-3.742v0c1.032,-1.033 2.709,-1.033 3.742,0z" fill="#ffffff"/><path d="M201.81398,212.94365l-11.226,11.226c-1.033,1.033 -2.709,1.033 -3.742,0v0c-1.033,-1.033 -1.033,-2.71 0,-3.742l11.226,-11.226c1.033,-1.033 2.71,-1.033 3.742,0v0c1.033,1.032 1.033,2.709 0,3.742z" fill="#ffffff"/><path d="M226.92599,294.19264h-14.059h-14.06c-3.997,0 -5.62,-2.811 -3.621,-6.273l7.029,-12.176l7.03,-12.176c1.999,-3.461 5.244,-3.461 7.243,0l7.03,12.176l7.029,12.176c1.999,3.462 0.376,6.273 -3.621,6.273z" fill="#f9d772"/><path d="M215.68599,271.77964v8.844c0,1.46 -1.185,2.646 -2.646,2.646v0c-1.46,0 -2.646,-1.186 -2.646,-2.646v-8.844c0,-1.46 1.186,-2.646 2.646,-2.646v0c1.461,0 2.646,1.186 2.646,2.646z" fill="#ffffff"/><path d="M213.03999,285.14464v0c1.461,0 2.646,1.186 2.646,2.646v0c0,1.46 -1.185,2.646 -2.646,2.646v0c-1.46,0 -2.646,-1.186 -2.646,-2.646v0c0,-1.46 1.186,-2.646 2.646,-2.646z" fill="#ffffff"/><path d="M269.07498,285.28565v-7.66c0,-1.383 1.123,-2.506 2.505,-2.506h0.282c1.383,0 2.505,1.123 2.505,2.506v7.66c0,1.382 -1.122,2.505 -2.505,2.505h-0.282c-1.382,0 -2.505,-1.123 -2.505,-2.505z" fill="#ffffff"/><path d="M271.72099,273.23965v0c-1.46,0 -2.646,-1.188 -2.646,-2.651v-0.008c0,-1.463 1.186,-2.65 2.646,-2.65v0c1.461,0 2.646,1.187 2.646,2.65v0.008c0,1.463 -1.185,2.651 -2.646,2.651z" fill="#ffffff"/><text transform="translate(90.5,284.00001) scale(0.5,0.5)" font-size="40" xml:space="preserve" fill="#bbbbbb" fill-rule="nonzero" stroke="none" stroke-width="1" stroke-linecap="butt" stroke-linejoin="miter" stroke-miterlimit="10" stroke-dasharray="" stroke-dashoffset="0" font-family="Sans Serif" font-weight="normal" text-anchor="start" style="mix-blend-mode: normal"><tspan x="0" dy="0">ボタン</tspan></text><text transform="translate(325.50001,283.00001) scale(0.5,0.5)" font-size="40" xml:space="preserve" fill="#bbbbbb" fill-rule="nonzero" stroke="none" stroke-width="1" stroke-linecap="butt" stroke-linejoin="miter" stroke-miterlimit="10" stroke-dasharray="" stroke-dashoffset="0" font-family="Sans Serif" font-weight="normal" text-anchor="start" style="mix-blend-mode: normal"><tspan x="0" dy="0">情報</tspan></text></g></g></svg>