<svg version="1.1" xmlns="http://www.w3.org/2000/svg" xmlns:xlink="http://www.w3.org/1999/xlink" width="21.98802" height="27.08605" viewBox="0,0,21.98802,27.08605"><g transform="translate(-230.2306,-168.3092)"><g data-paper-data="{&quot;isPaintingLayer&quot;:true}" fill-rule="nonzero" stroke="none" stroke-linecap="butt" stroke-linejoin="miter" stroke-miterlimit="10" stroke-dasharray="" stroke-dashoffset="0" style="mix-blend-mode: normal"><path d="M233.5938,185.51976l0.11142,-13.98306l17.22383,4.35621c0,0 1.30177,0.24646 1.28949,1.83808c-0.01228,1.59162 -1.31848,1.87923 -1.31848,1.87923z" fill="#4aafda" stroke-width="0"/><path d="M232.77188,173.13705l0.98904,-2.93513l17.19484,5.68909c0,0 1.31562,0.6536 1.23454,2.30542c-0.00686,0.10018 -1.23454,-0.24404 -1.23454,-0.24404z" fill="#4fbae7" stroke-width="0"/><path d="M233.96022,184.90148v10.49378h-3.72961v-24.72155c0.01243,-0.63869 0.1927,-1.18904 0.5408,-1.65107c0.36053,-0.47562 0.80186,-0.71343 1.32401,-0.71343c0.52214,0 0.96348,0.23781 1.32402,0.71343c0.3481,0.46203 0.52837,1.01239 0.5408,1.65107v0.08153z" fill="#45a4cc" stroke-width="1"/></g></g></svg>