<svg version="1.1" xmlns="http://www.w3.org/2000/svg" xmlns:xlink="http://www.w3.org/1999/xlink" width="109.01875" height="95.34868" viewBox="0,0,109.01875,95.34868"><g transform="translate(-184.64314,-130.57004)"><g data-paper-data="{&quot;isPaintingLayer&quot;:true}" fill-rule="nonzero" stroke-linejoin="miter" stroke-miterlimit="10" stroke-dasharray="" stroke-dashoffset="0" style="mix-blend-mode: normal"><path d="M216.66822,179.95108c0,-12.93385 10.48495,-23.4188 23.4188,-23.4188c12.93385,0 23.4188,10.48495 23.4188,23.4188c0,12.93385 -10.48495,23.4188 -23.4188,23.4188c-12.93385,0 -23.4188,-10.48495 -23.4188,-23.4188z" fill="#ffffff" stroke="none" stroke-width="0" stroke-linecap="butt"/><path d="M184.64314,225.91872v-95.34868h109.01875v95.34868z" fill="none" stroke="none" stroke-width="0" stroke-linecap="butt"/><g><path d="M222.04992,158.6929c0.05207,-1.17113 0.76086,-1.9394 1.36891,-2.44388c9.93973,-7.87575 23.579,-7.50314 33.08773,-0.15676c0.56035,0.43293 1.34913,1.10271 1.41482,2.33172c0.06568,1.22901 -1.11934,2.30052 -1.11934,2.30052l-14.22277,14.32971c0,0 -1.29816,1.52246 -2.57305,1.51906c-1.27489,-0.0034 -2.66492,-1.53303 -2.66492,-1.53303l-14.13472,-14.01728c0,0 -1.20873,-1.15893 -1.15666,-2.33006z" data-paper-data="{&quot;index&quot;:null}" fill="#f6f6f6" stroke="none" stroke-width="0" stroke-linecap="butt"/><g fill="none" stroke="#6f6f6f" stroke-width="3" stroke-linecap="round"><path d="M239.74288,156.69276l-6.0751,6.31216"/><path d="M246.03682,162.81469l-6.0751,-6.31216" data-paper-data="{&quot;index&quot;:null}"/></g></g><g><path d="M258.80598,196.66385l-14.01727,-14.13473c0,0 -1.52963,-1.39003 -1.53303,-2.66492c-0.0034,-1.27489 1.51906,-2.57305 1.51906,-2.57305l14.32971,-14.22277c0,0 1.07151,-1.18502 2.30052,-1.11934c1.22901,0.06569 1.89879,0.85447 2.33172,1.41482c7.34639,9.50873 7.719,23.14801 -0.15675,33.08774c-0.50448,0.60805 -1.27275,1.31683 -2.44389,1.3689c-1.17113,0.05207 -2.33006,-1.15666 -2.33006,-1.15666z" data-paper-data="{&quot;index&quot;:null}" fill="#f6f6f6" stroke="none" stroke-width="0" stroke-linecap="butt"/><g fill="none" stroke="#6f6f6f" stroke-width="3" stroke-linecap="round"><path d="M257.01599,173.62839l6.31216,6.0751"/><path d="M263.5184,179.92233l-6.31216,6.0751" data-paper-data="{&quot;index&quot;:null}"/></g></g><g><path d="M221.19405,163.2243l14.01727,14.13473c0,0 1.52963,1.39003 1.53303,2.66492c0.0034,1.27489 -1.51906,2.57305 -1.51906,2.57305l-14.32971,14.22277c0,0 -1.07152,1.18502 -2.30053,1.11934c-1.22901,-0.06569 -1.89879,-0.85447 -2.33172,-1.41482c-7.34638,-9.50873 -7.719,-23.14801 0.15676,-33.08774c0.50448,-0.60805 1.27276,-1.31683 2.44389,-1.3689c1.17113,-0.05207 2.33006,1.15666 2.33006,1.15666z" data-paper-data="{&quot;index&quot;:null}" fill="#f6f6f6" stroke="none" stroke-width="0" stroke-linecap="butt"/><g data-paper-data="{&quot;index&quot;:null}" fill="none" stroke="#6f6f6f" stroke-width="3" stroke-linecap="round"><path d="M223.34086,174.00392l-6.31216,6.0751"/><path d="M216.83847,180.29785l6.31216,6.0751" data-paper-data="{&quot;index&quot;:null}"/></g></g><g><path d="M258.0263,201.3071c-0.05207,1.17113 -0.76085,1.93941 -1.3689,2.44389c-9.93973,7.87575 -23.57901,7.50314 -33.08774,0.15675c-0.56035,-0.43293 -1.34913,-1.10271 -1.41482,-2.33172c-0.06569,-1.22901 1.11934,-2.30052 1.11934,-2.30052l14.22277,-14.32971c0,0 1.29816,-1.52246 2.57305,-1.51906c1.27489,0.0034 2.66492,1.53304 2.66492,1.53304l14.13472,14.01728c0,0 1.20873,1.15893 1.15666,2.33006z" data-paper-data="{&quot;index&quot;:null}" fill="#dedede" stroke="none" stroke-width="0" stroke-linecap="butt"/><g data-paper-data="{&quot;index&quot;:null}" fill="none" stroke="#515151" stroke-width="3" stroke-linecap="round"><path d="M240.1184,203.1504l-6.0751,-6.31216"/><path d="M240.33724,203.34064l6.0751,-6.31216" data-paper-data="{&quot;index&quot;:null}"/></g></g></g></g></svg>