<svg version="1.1" xmlns="http://www.w3.org/2000/svg" xmlns:xlink="http://www.w3.org/1999/xlink" width="214.10439" height="215.98923" viewBox="0,0,214.10439,215.98923"><g transform="translate(-213.00868,-102.33291)"><g data-paper-data="{&quot;isPaintingLayer&quot;:true}" fill="#ffffff" fill-rule="nonzero" stroke="#000000" stroke-width="2" stroke-linecap="butt" stroke-linejoin="miter" stroke-miterlimit="10" stroke-dasharray="" stroke-dashoffset="0" style="mix-blend-mode: normal"><path d="M374.98067,150.8861c0,26.2629 -26.21992,47.55319 -58.56383,47.55319c-32.34391,0 -58.56383,-21.29029 -58.56383,-47.55319c0,-26.2629 26.21992,-47.55319 58.56383,-47.55319c32.34391,0 58.56383,21.29029 58.56383,47.55319z"/><path d="M279.55514,267.80099v-100.21277h70.53192v100.21277z"/><path d="M325.79409,249.51233l-24.75372,7.4519l-20.42374,-67.84353l24.75372,-7.4519z"/><path d="M335.13634,179.28624l22.09279,9.21134l-25.91456,62.1544l-22.09279,-9.21134z"/><path d="M230.32131,316.91538l-15.90587,-19.56239l68.09692,-55.36852l15.90587,19.56239z"/><path d="M326.75545,263.433l14.63723,-27.27847l84.36641,45.26978l-14.63723,27.27847z"/></g></g></svg>