<svg xmlns="http://www.w3.org/2000/svg" xmlns:xlink="http://www.w3.org/1999/xlink" version="1.1" width="118.74720001220703" height="257.9160461425781" viewBox="-0.4999993165674823 -0.49999324933287426 118.74720001220703 257.9160461425781"><g><g data-paper-data="{&quot;isPaintingLayer&quot;:true}" stroke-miterlimit="10" stroke-dasharray="" stroke-dashoffset="0" style="mix-blend-mode: normal"><g id="Group-13" fill-rule="evenodd" stroke-linecap="butt" stroke-linejoin="miter"><path d="M 54.7104 54.4368 C 54.6386 60.7151 53.068 60.7151 50.5565 60.7151 C 48.5234 60.6911 42.8307 57.6079 42.5197 55.603 L 42.3045 38.829 L 55.3961 38.829 Z " id="Path" fill="#b47d67" stroke-width="1" stroke="none"/><path d="M 42.448 50.0117 L 42.3045 38.829 L 55.3961 38.829 L 55.1728 44.6201 C 50.4898 45.1072 46.0588 46.9847 42.448 50.0117 Z " id="Path" fill="#966a57" stroke-width="1" stroke="none"/></g><g id="Group-15" fill-rule="evenodd" stroke-linecap="butt" stroke-linejoin="miter"><path d="M 72.227 133.7778 L 75.48 174.291 C 76.0461 179.4031 72.9047 181.5677 69.3169 182.047 C 69.3169 182.047 62.1093 183.6205 60.3871 177.3263 L 48.2284 137.3084 C 47.5028 134.1772 54.8858 130.455 59.3905 129.816 C 63.7836 129.1929 71.8682 130.6786 72.227 133.7778 Z " id="Path" fill="#b47d67" stroke-width="1" stroke="none"/><path d="M 47.8616 139.1056 C 48.9619 133.5382 54.9097 127.9708 59.4224 127.236 C 65.9523 126.1736 73.128 129.0971 74.7226 139.2733 C 75.2886 143.97 76.0062 150.5518 76.5643 155.2485 C 77.1145 159.7855 77.2101 166.3913 78.5974 174.3789 C 77.9118 175.3134 78.0314 182.7739 70.2816 184.1957 C 61.9658 185.7373 58.3222 178.7721 57.5249 178.2688 C 54.9576 164.8017 50.4608 152.5647 47.8616 139.1056 Z " id="Path" fill="#535f6a" stroke-width="1" stroke="none"/></g><g id="Group-14" stroke-linecap="butt" stroke-linejoin="miter"><path d="M 49.217 135.2795 L 41.3318 176.0163 C 40.4308 182.4783 33.7814 182.3106 33.7814 182.3106 C 30.1616 182.3026 27.4668 180.5852 27.2196 174.5147 L 24.9154 134.8881 C 24.8755 131.757 32.6891 129.2488 37.138 129.2968 C 41.6905 129.3527 49.4881 132.0924 49.217 135.2795 Z " id="Path" fill="#b47d67" fill-rule="evenodd" stroke-width="1" stroke="none"/><path d="M 52.0634 136.9729 C 51.2422 150.6557 47.8058 164.7698 44.9515 177.55 C 44.2339 178.181 41.6985 185.0184 33.2233 184.5711 C 25.3619 184.1557 24.5168 176.7512 23.7195 175.9045 C 24.0703 167.7891 23.273 161.2472 23.273 156.6703 C 23.2331 151.9497 23.0896 145.3279 23.0497 140.5992 C 23.3527 130.3032 30.0341 126.4851 36.6755 126.6928 C 41.2281 126.8366 50.2296 131.5892 52.0634 136.9729 Z M 44.0027 152.3091 L 41.8101 152.3091 L 36.1015 150.9672 L 34.2358 150.9672 L 35.2484 152.2931 L 36.5161 153.3635 L 34.2358 153.3635 L 36.1015 154.5616 L 38.613 154.6814 L 37.9432 155.7997 L 40.0641 155.7997 L 42.7828 154.7932 L 40.8534 154.3379 L 42.7828 153.7788 Z " id="Shape" fill="#535f6a" fill-rule="nonzero" stroke-width="1" stroke="none"/></g><g fill-rule="evenodd" stroke-linecap="butt" stroke-linejoin="miter"><path d="M 68.408 57.2644 C 72.222 57.0169 75.658 59.5615 76.5404 63.2871 L 83.7161 100.1499 C 84.2503 103.0974 81.5714 105.8371 78.6532 106.4841 C 78.6532 106.4841 73.4628 107.211 72.1393 102.6022 L 62.6355 66.3783 C 62.1258 64.3982 62.4571 62.295 63.5507 60.5684 C 64.6443 58.8418 66.4026 57.6457 68.408 57.2644 Z " id="Path" fill="#b47d67" stroke-width="1" stroke="none"/><g><path d="M 62.0137 65.915 C 61.8223 60.2279 62.0137 54.6046 66.7097 53.5183 C 66.7097 53.5183 73.5824 50.7785 77.2739 63.5986 L 85.5738 89.9578 L 64.0468 94.7503 Z " data-paper-data="{&quot;origPos&quot;:null}" id="Path" fill="#b72c27" stroke-width="1" stroke="none"/><path d="M 63.2814 83.967 L 82.3447 79.7176 L 83.4051 83.0964 L 63.5365 87.5215 Z " data-paper-data="{&quot;origPos&quot;:null}" id="Path" fill="#bd7657" stroke-width="1" stroke="none"/><path d="M 62.8269 77.4811 L 80.4073 73.5672 L 81.4677 76.9379 L 63.0741 81.0356 Z " data-paper-data="{&quot;origPos&quot;:null}" id="Path" fill="#bd7657" stroke-width="1" stroke="none"/></g></g><g id="Group-12" fill-rule="evenodd" stroke-linecap="butt" stroke-linejoin="miter"><path d="M 74.4196 139.7126 C 74.3 144.3454 53.4746 137.8675 48.9061 137.8275 C 44.1223 137.7796 28.0727 143.1074 23.3447 141.2223 C 23.1046 136.2432 23.5146 131.254 24.5646 126.3813 C 26.2868 118.3937 31.0068 108.1695 33.5581 104.016 L 65.45 104.016 C 71.0948 112.2192 74.5392 135.2316 74.4196 139.7126 Z " id="Path" fill="#535f6a" stroke-width="1" stroke="none"/><path d="M 39.5777 105.5975 L 39.5777 119.8394 C 39.5777 125.1331 35.2942 129.4245 30.0101 129.4245 L 23.9905 129.3607 L 24.1181 128.6817 L 29.3005 128.6817 C 34.5846 128.6817 38.8681 124.3903 38.8681 119.0966 L 38.8681 104.8067 C 38.8681 104.5671 38.8681 104.2875 38.8681 104.008 L 39.4342 104.008 C 39.5265 104.5328 39.5745 105.0645 39.5777 105.5975 Z " id="Path" fill="#354650" stroke-width="1" stroke="none"/><path d="M 65.5377 104.0079 L 66.1038 104.0079 C 66.1038 104.2875 66.1038 104.5671 66.1038 104.8067 L 66.1038 119.0966 C 66.1038 124.3684 70.3773 128.3942 73.112 128.3302 L 73.2715 129.2728 C 69.6836 129.2728 65.4341 124.6959 65.4341 119.8474 L 65.4341 105.5975 C 65.4241 105.0657 65.4587 104.5339 65.5377 104.0079 Z " id="Path" fill="#354650" stroke-width="1" stroke="none"/><path d="M 53.4188 133.3944 L 53.4188 134.0654 L 50.708 134.0654 C 49.8273 134.0654 49.1134 133.3501 49.1134 132.4679 L 49.1134 104.008 L 49.5678 104.008 L 50.0382 132.2682 C 50.0382 132.7093 50.3952 133.0669 50.8355 133.0669 Z " id="Path" fill="#354650" stroke-width="1" stroke="none"/><path d="M 53.3789 132.0205 L 52.8926 128.8255 L 52.8926 104.008 L 53.3789 104.008 Z " id="Path" fill="#354650" stroke-width="1" stroke="none"/></g><g id="Group-11" fill-rule="evenodd" stroke-linecap="butt" stroke-linejoin="miter"><path d="M 69.269 104.7748 L 70.162 114.0883 L 57.3415 119.6237 L 24.9712 120.718 L 28.1604 106.0528 L 27.9052 100.5094 L 28.87 93.2327 C 28.87 93.2327 22.2763 55.2036 29.8985 51.3696 L 42.3921 45.6424 L 42.5994 49.5244 C 42.9104 51.5213 50.2296 57.7996 52.2308 57.8156 C 54.7423 57.8475 54.8379 50.9063 54.9655 48.3742 L 55.0931 45.6265 L 62.8428 49.2049 C 69.1335 52.5038 73.399 54.9959 73.399 60.2917 L 68.9501 86.9464 L 67.507 96.5315 Z " id="Path" fill="#c62c1b" stroke-width="1" stroke="none"/><path d="M 70.9513 74.941 L 26.6376 75.2286 L 26.3585 70.8753 L 71.6769 70.5958 Z " id="Path" fill="#e1d2a2" stroke-width="1" stroke="none"/><path d="M 69.6677 82.6091 L 27.3711 82.6091 L 26.9007 78.2559 L 70.4012 78.2559 Z " id="Path" fill="#e1d2a2" stroke-width="1" stroke="none"/><path d="M 28.1524 106.0528 L 27.8973 100.5094 L 40.6541 106.0847 Z " id="Path" fill="#b72c27" stroke-width="1" stroke="none"/><path d="M 70.1381 114.0884 L 57.3096 119.6158 L 69.2372 104.7748 Z " id="Path" fill="#b72c27" stroke-width="1" stroke="none"/><path d="M 58.4736 101.1005 L 66.032 93.68 L 68.8066 87.865 L 67.507 96.5316 Z " id="Path" fill="#b72c27" stroke-width="1" stroke="none"/></g><path d="M 51.8242 43.35 L 49.241 43.35 C 46.2431 43.35 36.9626 38.214 35.8783 30.466 L 33.7096 16.5276 C 33.7096 9.4426 41.6427 3.6436 48.7147 3.6436 L 49.1453 3.6436 C 58.3082 3.4618 64.8441 9.4186 64.8441 16.5116 L 63.3611 23.5008 L 62.803 28.8685 C 61.3918 36.2091 55.3164 43.35 51.8242 43.35 Z " data-paper-data="{&quot;origPos&quot;:null}" id="Path" fill="#b47d67" fill-rule="evenodd" stroke="none" stroke-width="1" stroke-linecap="butt" stroke-linejoin="miter"/><path d="M 39.5982 24.5472 C 39.5982 23.9949 40.046 23.5472 40.5982 23.5472 C 41.1505 23.5472 41.5982 23.9949 41.5982 24.5472 C 41.5982 25.0994 41.1505 25.5472 40.5982 25.5472 C 40.046 25.5472 39.5982 25.0994 39.5982 24.5472 Z " id="Oval" fill="#825c4a" fill-rule="evenodd" stroke="none" stroke-width="1" stroke-linecap="butt" stroke-linejoin="miter"/><path d="M 48.4357 19.6508 C 48.4314 19.9798 48.1661 20.2455 47.8377 20.2498 L 41.6507 20.2498 C 41.3204 20.2498 41.0527 19.9816 41.0527 19.6508 C 41.0527 19.3199 41.3204 19.0517 41.6507 19.0517 L 47.8935 18.7721 C 48.2204 18.7721 48.4516 19.3233 48.4357 19.6508 Z " id="Path" fill="#231607" fill-rule="evenodd" stroke="none" stroke-width="1" stroke-linecap="butt" stroke-linejoin="miter"/><path d="M 61.1924 18.6922 C 61.4046 18.7208 61.5855 18.8606 61.667 19.0589 C 61.7484 19.2573 61.718 19.4842 61.5872 19.654 C 61.4565 19.8239 61.2452 19.9109 61.033 19.8824 L 54.7742 19.8424 C 54.4491 19.797 54.2214 19.4975 54.2639 19.1715 C 54.3038 18.844 54.6068 18.3248 54.9336 18.3727 L 61.1924 18.6763 Z " id="Path" fill="#231607" fill-rule="evenodd" stroke="none" stroke-width="1" stroke-linecap="butt" stroke-linejoin="miter"/><path d="M 53.7058 31.3446 L 52.5657 31.9038 C 51.9769 32.1913 51.2888 32.1913 50.7 31.9038 L 49.5519 31.3446 " id="Path" fill="none" fill-rule="evenodd" stroke="#6e4e41" stroke-width="0.8" stroke-linecap="round" stroke-linejoin="round"/><path d="M 55.723 35.1068 C 52.3265 38.5175 48.0609 35.8497 48.0609 35.8497 " id="Path" fill="none" fill-rule="evenodd" stroke="#6e4e41" stroke-width="0.8" stroke-linecap="round" stroke-linejoin="round"/><g id="Group-8" fill-rule="evenodd" stroke-linecap="butt" stroke-linejoin="miter"><path d="M 47.6985 21.8396 C 47.7751 21.9301 47.8084 22.0496 47.7899 22.1669 C 47.5133 23.6851 46.193 24.7883 44.6525 24.7883 C 43.112 24.7883 41.7917 23.6851 41.5151 22.1669 C 41.4967 22.051 41.5291 21.9328 41.6039 21.8425 C 41.6787 21.7523 41.7888 21.6987 41.9058 21.6956 L 47.3912 21.6956 C 47.5097 21.6964 47.6219 21.749 47.6985 21.8396 Z " id="Path" fill="#ffffff" stroke-width="1" stroke="none"/><path d="M 47.6885 21.8316 C 47.7643 21.9166 47.801 22.0295 47.7899 22.1429 C 47.6091 23.245 46.8461 24.1623 45.7966 24.5392 C 45.0523 24.3071 44.5267 23.6409 44.4731 22.8618 C 44.4439 22.4492 44.5534 22.0387 44.7841 21.6956 L 47.3912 21.6956 C 47.505 21.6973 47.6128 21.7466 47.6885 21.8316 Z " id="Path" fill="#4c392b" stroke-width="1" stroke="none"/></g><g id="Group-7" fill-rule="evenodd" stroke-linecap="butt" stroke-linejoin="miter"><path d="M 60.83 21.7118 C 60.9066 21.8023 60.9399 21.9218 60.9213 22.039 C 60.6448 23.5573 59.3245 24.6604 57.784 24.6604 C 56.2435 24.6604 54.9232 23.5573 54.6466 22.039 C 54.628 21.9218 54.6614 21.8023 54.738 21.7118 C 54.8146 21.6212 54.9268 21.5686 55.0453 21.5678 L 60.5227 21.5678 C 60.6412 21.5686 60.7534 21.6212 60.83 21.7118 Z " id="Path" fill="#ffffff" stroke-width="1" stroke="none"/><path d="M 60.82 21.7038 C 60.8958 21.7888 60.9325 21.9017 60.9213 22.0151 C 60.7389 23.1139 59.9804 24.0293 58.9361 24.4114 C 58.19 24.18 57.6616 23.5143 57.6046 22.734 C 57.5819 22.322 57.6908 21.9135 57.9155 21.5678 L 60.5227 21.5678 C 60.6364 21.5695 60.7442 21.6188 60.82 21.7038 Z " id="Path" fill="#4c392b" stroke-width="1" stroke="none"/></g><g><g id="Group-16" stroke-linecap="butt" stroke-linejoin="miter"><path d="M 83.9872 245.3888 C 84.3364 246.5479 84.1625 247.802 83.511 248.8217 C 82.8595 249.8415 81.7955 250.5249 80.5986 250.6926 L 80.5428 250.6926 C 78.5926 250.9706 76.7163 249.8354 76.0541 247.9768 L 60.9612 179.6028 C 60.3154 176.4716 65.6095 172.9092 68.6551 172.4778 C 71.7008 172.0465 76.8593 174.1712 77.2819 177.2704 Z " id="Path" fill="#b47d67" fill-rule="evenodd" stroke-width="1" stroke="none"/><path d="M 84.2582 227.3448 L 84.4336 230.3321 C 85.5818 232.1693 83.437 232.5367 83.437 232.5367 L 71.1268 235.4362 C 70.0345 235.3723 68.5515 231.9137 68.5515 231.9137 C 67.3715 229.5573 69.5401 229.9407 70.4491 230.1883 L 57.5249 179.0676 C 56.8631 174.93 59.2072 170.1375 67.4672 168.5958 C 74.1565 167.19 77.9676 171.0241 78.6293 175.1776 L 82.2012 225.7792 C 83.5646 225.7393 84.2582 227.3448 84.2582 227.3448 Z M 70.3693 191.1768 L 71.653 191.4404 L 71.1028 191.9436 L 73.9093 191.5203 L 72.243 193.0539 L 73.71 192.6545 L 71.8363 194.7074 L 74.4276 193.1098 L 75.5597 192.6546 L 76.054 191.8558 L 77.0427 191.4165 L 77.8878 190.3781 L 76.7876 190.5458 L 77.0985 189.7471 L 76.5723 189.5953 L 77.3696 188.1176 L 72.0038 190.5139 Z " id="Shape" fill="#535f6a" fill-rule="nonzero" stroke-width="1" stroke="none"/><path d="M 70.4331 230.2203 L 70.3215 229.789 C 71.4091 229.4049 72.5265 229.111 73.6622 228.9103 C 75.1896 228.7371 76.6333 228.1208 77.8161 227.1371 C 77.8161 227.1371 79.4426 224.2855 82.1215 224.7408 L 82.1853 225.7792 C 81.5345 225.831 80.9236 226.1143 80.4631 226.5779 C 79.3094 227.6241 77.9889 228.4692 76.5564 229.0781 C 76.5564 229.0781 74.8661 229.3417 70.8158 230.3002 Z " id="Path" fill="#354650" fill-rule="evenodd" stroke-width="1" stroke="none"/></g><g id="Group-2" fill-rule="evenodd"><path d="M 78.3582 256.3238 C 77.9277 256.2519 76.6042 256.827 75.9664 255.2455 C 75.9664 255.2455 74.3718 243.0085 73.7818 241.5707 C 76.6122 241.0195 78.8685 240.3326 79.4585 239.5738 C 79.7695 239.1664 80.4153 240.8199 80.4153 240.8199 C 81.9301 240.3566 94.2484 243.959 96.2576 245.1971 C 96.8071 245.1156 97.3681 245.2196 97.8522 245.4926 C 101.1928 245.0932 104.9003 243.1922 106.742 244.4223 L 107.1646 245.0453 C 107.3878 245.2769 107.3559 247.1381 106.5108 248.3362 C 106.0564 248.9912 100.1324 254.4068 96.4091 253.656 C 96.4091 253.656 93.6265 252.8971 92.0797 253.2166 C 91.3941 253.3604 80.2 256.0363 79.6419 256.1481 Z " id="Path" fill="#f2f3ca" stroke="none" stroke-width="1" stroke-linecap="butt" stroke-linejoin="miter"/><path d="M 107.2443 245.0773 C 108.0974 246.9703 106.0085 250.0855 103.9834 251.4674 C 101.5915 253.1128 100.0288 254.5745 93.3315 254.0953 C 92.6299 254.0394 78.9562 256.244 78.4061 256.3638 C 77.2261 256.5235 76.644 256.5794 76.0142 255.2854 L 75.7431 253.2087 L 93.2836 251.052 C 100.4593 252.5137 107.4357 247.4176 107.2443 245.0773 Z " id="Path" fill="#7faaa5" stroke="none" stroke-width="1" stroke-linecap="butt" stroke-linejoin="miter"/><path d="M 94.6231 246.3553 L 80.4472 240.8199 C 80.2718 238.5674 79.8811 236.5225 82.4803 235.6678 C 85.0795 234.8132 85.3346 239.5259 85.3346 239.5259 C 88.9464 241.3391 91.2665 242.7688 96.2895 245.1971 Z " id="Path" fill="#c0dec8" stroke="none" stroke-width="1" stroke-linecap="butt" stroke-linejoin="miter"/><path d="M 96.2895 245.1891 L 94.6231 246.3553 L 93.0285 243.5756 L 88.165 243.983 L 87.862 240.8279 L 81.3242 241.1633 L 85.3346 239.5259 L 85.4223 242.7609 L 90.3735 242.1778 L 91.0831 244.9734 Z " id="Path" fill="none" stroke="#00bcbd" stroke-width="0.576" stroke-linecap="round" stroke-linejoin="round"/><path d="M 86.4109 248.2324 L 75.3285 250.3091 L 74.4754 244.6379 L 86.5066 246.6748 L 95.8589 250.0216 Z " id="Path" fill="#00bcbd" stroke="none" stroke-width="1" stroke-linecap="butt" stroke-linejoin="miter"/></g></g><g fill-rule="evenodd"><g id="Group-17" stroke-linecap="butt" stroke-linejoin="miter"><path d="M 41.7145 175.9125 L 15.8103 242.4973 C 14.8447 244.2164 12.8071 245.0203 10.9308 244.4223 L 10.875 244.4223 C 9.7311 244.0596 8.8006 243.2173 8.3248 242.1138 C 7.8491 241.0103 7.8748 239.7542 8.3954 238.6712 L 28.3278 171.3356 C 29.2527 168.3163 33.877 167.1501 36.843 168.1406 C 39.8647 169.147 42.8785 172.9731 41.7145 175.9125 Z " id="Path" fill="#b47d67" stroke-width="1" stroke="none"/><path d="M 25.9918 227.1131 C 25.9918 227.1131 23.9427 230.2682 22.8584 230.1404 C 18.8467 229.9051 14.9951 228.4817 11.7919 226.0508 L 10.4764 225.0044 C 10.4764 225.0044 9.1528 224.4532 10.6039 222.8557 L 12.2065 219.1015 C 12.2065 219.1015 12.5972 218.798 13.4662 219.3731 L 24.5805 171.687 C 25.8961 167.7012 32.3143 163.6914 36.54 165.1212 C 44.8558 166.7587 45.8604 175.5051 44.513 179.4989 L 25.0669 223.5666 C 25.5057 223.6173 25.9293 223.7587 26.3107 223.982 C 26.3107 223.982 27.9053 224.4532 25.9917 227.1131 Z " id="Path" fill="#535f6a" stroke-width="1" stroke="none"/><path d="M 13.4024 219.4929 C 13.514 219.0536 13.5938 218.7661 13.5938 218.7661 C 13.5938 218.7661 17.8593 222.688 20.9449 222.1448 C 20.9449 222.1448 23.9826 221.3461 25.8403 221.9691 L 25.043 223.7184 C 22.8847 223.3909 20.7101 223.1829 18.529 223.0953 C 17.0222 223.1912 15.0847 221.1783 15.0847 221.1783 C 14.6168 220.5306 14.0489 219.9617 13.4024 219.4929 Z " id="Path" fill="#354650" stroke-width="1" stroke="none"/></g><g id="Group-3"><path d="M 5.4374 242.2257 C 5.2062 241.8582 5.1982 241.4269 5.4374 240.5003 C 5.4374 240.5003 9.6312 231.5542 9.9103 230.3481 C 11.3808 231.5383 13.2741 232.0724 15.1485 231.8258 C 15.6588 231.7858 15.6189 232.6245 15.6189 232.6245 C 16.9743 233.4233 23.1932 244.7737 23.5919 247.0901 C 24.0171 247.4509 24.3114 247.9423 24.429 248.4879 C 28.1843 249.8219 31.1822 251.4593 30.7038 254.0793 L 30.5204 254.8141 C 30.5204 255.1257 29.0853 256.3478 27.6262 256.5075 C 26.8289 256.5954 18.7044 256.6433 16.8228 253.3843 C 16.8228 253.3843 15.5392 250.7964 14.2715 249.8538 C 13.7054 249.4305 6.6732 243.296 6.2188 242.9525 C 5.934 242.7402 5.6793 242.4903 5.4613 242.2097 Z " id="Path" fill="#f2f3ca" stroke="none" stroke-width="1" stroke-linecap="butt" stroke-linejoin="miter"/><path d="M 19.9243 254.0713 C 23.3142 255.3291 26.9889 255.6059 30.5284 254.8701 C 29.3962 257.1705 27.0282 256.9069 23.257 256.9069 C 19.143 256.9069 15.6109 256.5714 14.4309 251.3156 C 14.2794 250.6206 6.6732 243.3519 6.2188 243.0084 C 5.3019 242.2576 4.8793 241.8662 5.4215 240.5323 L 6.3782 238.2878 L 16.6315 249.3027 C 16.169 252.5936 19.135 253.7837 19.9243 254.0713 Z " id="Path" fill="#7faaa5" stroke="none" stroke-width="1" stroke-linecap="butt" stroke-linejoin="miter"/><path d="M 21.5269 247.1141 L 15.595 232.6485 C 17.1896 231.051 20.7216 230.0605 22.1249 231.5782 C 23.847 233.4553 19.8127 235.4522 19.8127 235.4522 C 21.5428 238.8629 21.7342 241.9701 23.5839 247.1141 Z " id="Path" fill="#c0dec8" stroke="none" stroke-width="1" stroke-linecap="butt" stroke-linejoin="miter"/><path d="M 23.568 247.1141 L 21.5109 247.1141 L 22.2365 243.336 L 18.7284 240.3246 L 20.8412 237.7047 L 16.4561 234.5815 L 19.7968 235.4522 L 17.66 237.7207 L 21.9016 240.3965 L 19.8605 243.0883 Z " id="Path" fill="none" stroke="#00bcbd" stroke-width="0.576" stroke-linecap="round" stroke-linejoin="round"/><path d="M 16.0495 243.5277 L 7.2234 236.4666 L 9.1768 232.1852 L 17.2773 242.5612 L 19.2466 250.3251 Z " id="Path" fill="#00bcbd" stroke="none" stroke-width="1" stroke-linecap="butt" stroke-linejoin="miter"/></g></g><g fill-rule="evenodd" stroke-linecap="butt" stroke-linejoin="miter"><path d="M 32.8405 70.4121 L 20.0838 106.5161 C 18.3457 110.9891 13.243 109.799 13.243 109.799 C 10.3647 108.8964 7.9728 105.925 8.7701 103.0415 L 20.1476 66.2984 C 21.3442 62.669 24.9779 60.4322 28.7504 61.0026 C 33.008 62.3685 34.3793 66.6179 32.8405 70.4121 Z " id="Path" fill="#b47d67" stroke-width="1" stroke="none"/><g id="Group-5"><path d="M 28.7026 92.5937 L 8.6585 83.4079 L 22.2604 59.3732 C 28.5431 47.5914 34.6903 51.7131 34.6903 51.7131 C 38.5811 55.1158 37.2655 62.3046 36.4523 66.1547 Z " id="Path" fill="#b72c27" stroke-width="1" stroke="none"/><path d="M 30.7118 85.6285 L 12.1985 77.1456 L 13.9446 74.0624 L 31.7004 82.2018 Z " id="Path" fill="#bd7657" stroke-width="1" stroke="none"/><path d="M 32.5137 79.3821 L 15.3797 71.5303 L 17.1258 68.4471 L 33.4943 75.9554 Z " id="Path" fill="#bd7657" stroke-width="1" stroke="none"/></g></g><g fill-rule="evenodd" stroke-linecap="butt" stroke-linejoin="miter"><path d="M 15.3797 100.3017 C 18.3496 100.9534 20.3887 103.6943 20.1635 106.7317 L 10.8989 133.7938 C 10.4993 135.0416 9.2714 135.8293 7.9728 135.6709 C 6.3029 135.4833 5.0648 134.0297 5.1424 132.348 L 8.4911 104.9745 C 9.1608 102.051 12.4536 99.7266 15.3797 100.3017 Z " id="Path" stroke-width="1" fill="#b47d67" stroke="none"/><g id="Group"><path d="M 8.5668 130.7982 C 9.7855 131.1853 10.646 132.2768 10.7394 133.5542 C 11.1859 136.893 8.228 141.0625 8.228 141.0625 C 7.4785 142.2527 7.7496 142.6121 7.7496 142.6121 C 7.7655 143.7144 7.3748 147.6523 7.3748 147.6523 C 8.4831 148.4431 8.5548 149.122 8.5548 149.122 C 10.6836 150.3681 9.6153 151.6861 9.6153 151.6861 C 8.835 151.5076 8.0779 151.2395 7.3589 150.8873 C 6.7028 151.1447 5.9739 151.1447 5.3178 150.8873 C 3.9755 150.4139 2.7418 149.6751 1.6901 148.7147 C -2.0173 141.4619 1.5307 137.8915 1.5307 137.8915 L 5.2062 131.7969 C 6.0171 130.8068 7.3482 130.4112 8.5668 130.7982 Z " id="Path" stroke-width="1" fill="#b47d67" stroke="none"/><path d="M 9.5674 146.5261 C 8.0526 146.7257 7.7337 144.9685 7.6938 143.8742 L 7.2792 132.7394 C 7.8301 131.8255 8.9346 131.4093 9.9501 131.733 C 11.1132 133.0112 11.6786 134.7248 11.5049 136.4457 L 10.1256 143.4588 C 9.702 144.2828 9.6384 145.246 9.9501 146.1187 C 10.0458 146.3104 9.7907 146.5181 9.5674 146.526 Z " id="Path" stroke-width="1" fill="#b47d67" stroke="none"/></g></g><g fill-rule="evenodd" stroke-linecap="butt" stroke-linejoin="miter"><path d="M 82.5999 98.3368 L 103.8399 125.4947 C 104.9099 126.8002 104.7807 128.7146 103.5449 129.8639 C 102.5935 130.7687 101.1348 130.8693 100.0686 130.1035 L 74.2681 106.7557 C 72.2745 104.4526 72.2745 101.0313 74.2681 98.7282 C 76.2853 96.5156 80.3196 96.3958 82.5999 98.3368 Z " id="Path" stroke-width="1" fill="#b47d67" stroke="none"/><g id="Group-4"><path d="M 105.9846 132.9791 L 112.7218 140.7031 C 113.1137 141.1545 113.0711 141.8377 112.6261 142.2367 C 112.1791 142.6359 111.4938 142.5965 111.0953 142.1488 L 103.9196 134.96 C 103.5289 134.5127 103.8239 133.4583 104.2704 133.0589 C 104.7359 132.5937 105.478 132.5592 105.9846 132.9791 Z " id="Path" stroke-width="1" fill="#b47d67" stroke="none"/><path d="M 109.0462 131.9646 L 116.2219 139.6248 C 116.67 140.1046 116.6486 140.8565 116.1741 141.3101 C 115.695 141.759 114.9445 141.7377 114.4918 141.2622 L 106.8935 134.0734 C 106.4391 133.6021 106.8855 132.4998 107.3559 132.0445 C 107.8134 131.5826 108.5474 131.5479 109.0462 131.9646 Z " id="Path" stroke-width="1" fill="#b47d67" stroke="none"/><path d="M 101.9263 132.0285 L 107.7785 140.3995 C 108.088 140.7843 108.0311 141.3468 107.6509 141.6616 C 107.2669 141.9716 106.7054 141.9147 106.3912 141.5338 L 99.9251 133.5462 C 99.6157 133.1614 99.6725 132.5989 100.0527 132.2841 C 100.4593 131.9726 101.6154 131.6291 101.9263 132.0285 Z " id="Path" stroke-width="1" fill="#b47d67" stroke="none"/><path d="M 110.7126 130.1994 L 117.4577 137.0128 C 117.8437 137.4047 117.8437 138.0347 117.4577 138.4266 C 117.0692 138.8124 116.4429 138.8124 116.0545 138.4266 L 108.9984 131.9007 C 108.6077 131.5173 108.9266 130.5908 109.3093 130.1994 C 109.6978 129.8136 110.3241 129.8136 110.7126 130.1994 Z " id="Path" stroke-width="1" fill="#b47d67" stroke="none"/><path d="M 115.1296 129.6882 C 114.8904 130.447 113.0965 130.8304 112.0919 130.4869 L 103.0027 127.4356 C 102.3637 126.6256 102.3637 125.4819 103.0027 124.6719 C 103.4332 124.4003 104.4857 123.4578 106.6703 124.5122 L 112.5463 128.1386 C 113.1485 128.7997 113.9971 129.1815 114.8904 129.1929 C 115.0897 129.1849 115.1854 129.4885 115.1296 129.6882 Z " id="Path" stroke-width="1" fill="#b47d67" stroke="none"/><path d="M 100.6905 125.9979 C 102.7795 124.001 106.471 123.7534 108.4562 125.8541 L 109.3572 126.8046 C 111.3432 128.9153 111.2578 132.2358 109.1658 134.2411 L 108.4403 134.92 C 106.3352 136.9141 103.0172 136.8284 101.0174 134.7283 L 100.1245 133.7778 C 98.1392 131.6851 98.5937 127.9868 100.6906 125.9979 Z " id="Path" stroke-width="1" fill="#b47d67" stroke="none"/></g></g><path d="M 63.9954 20.485 C 63.9954 20.485 66.92 6.8934 47.9285 8.1987 C 47.9285 8.1987 34.704 9.0813 35.4772 20.4939 C 35.4873 20.6426 34.1428 20.7846 34.1428 20.7846 C 34.1428 20.7846 32.3312 13.7792 35.4345 9.5752 C 44.5966 -2.4639 64.8723 3.3334 64.8723 16.542 Z " data-paper-data="{&quot;origPos&quot;:null}" id="Path" fill="#553c2e" fill-rule="evenodd" stroke="none" stroke-width="1" stroke-linecap="butt" stroke-linejoin="miter"/><path d="M 32.75 24.7376 C 31.7882 23.196 32.0527 21.247 33.3191 20.4961 C 34.0439 20.1158 34.8975 20.0633 35.6637 20.352 C 36.4299 20.6407 37.0352 21.2428 37.3264 22.0058 L 38.4404 25.7521 C 38.9774 27.5813 38.8973 28.5319 38.3603 28.9472 C 37.094 29.6981 35.2826 29.0191 34.3529 27.4375 L 32.75 24.7377 Z " data-paper-data="{&quot;origPos&quot;:null}" id="Path" fill="#b47d67" fill-rule="evenodd" stroke="none" stroke-width="1" stroke-linecap="butt" stroke-linejoin="miter"/><path d="M 40.4522 13.4124 C 35.8517 18.2609 35.8916 25.7533 38.0603 32.6386 C 40.2768 39.7716 34.6957 41.1854 34.6957 41.1854 C 26.2124 43.35 29.5053 34.7953 29.5053 34.7953 C 28.4545 34.4392 27.6169 33.6322 27.2207 32.5942 C 26.8244 31.5562 26.9108 30.3953 27.4562 29.4276 C 28.6601 27.0074 32.24 24.2516 31.7776 20.5614 C 30.7812 10.8523 34.002 6.5671 34.002 6.5671 C 37.0318 2.6451 40.2768 0.8479 43.3145 0.3447 C 52.7624 -1.2049 53.9026 2.9726 53.9026 2.9726 C 57.1157 12.2143 43.9523 9.7541 40.4522 13.4124 Z " data-paper-data="{&quot;origPos&quot;:null}" id="Path" fill="#231607" fill-rule="evenodd" stroke="none" stroke-width="1" stroke-linecap="butt" stroke-linejoin="miter"/></g></g></svg>