<svg version="1.1" xmlns="http://www.w3.org/2000/svg" xmlns:xlink="http://www.w3.org/1999/xlink" width="214.10439" height="215.98923" viewBox="0,0,214.10439,215.98923"><g transform="translate(-213.00868,-102.33291)"><g fill="#ffffff" stroke="#000000" stroke-width="2" stroke-miterlimit="10"><path d="M374.98067,150.8861c0,26.2629 -26.21992,47.55319 -58.56383,47.55319c-32.34391,0 -58.56383,-21.29029 -58.56383,-47.55319c0,-26.2629 26.21992,-47.55319 58.56383,-47.55319c32.34391,0 58.56383,21.29029 58.56383,47.55319z"/><path d="M279.55514,267.80099v-100.21277h70.53192v100.21277z"/><path d="M224.66152,218.33291v-25.85106h70.85107v25.85106z"/><path d="M330.61897,216.73716v-23.93617h67.34043v23.93617z"/><path d="M230.32131,316.91538l-15.90587,-19.56239l68.09692,-55.36852l15.90587,19.56239z"/><path d="M326.75545,263.433l14.63723,-27.27847l84.36641,45.26978l-14.63723,27.27847z"/></g></g></svg>