<svg version="1.1" xmlns="http://www.w3.org/2000/svg" xmlns:xlink="http://www.w3.org/1999/xlink" width="111.24927" height="14.99213" viewBox="0,0,111.24927,14.99213"><g transform="translate(-312.50394,-172.50393)"><g data-paper-data="{&quot;isPaintingLayer&quot;:true}" fill-rule="nonzero" stroke-width="2" stroke-linecap="butt" stroke-linejoin="miter" stroke-miterlimit="10" stroke-dasharray="" stroke-dashoffset="0" style="mix-blend-mode: normal"><path d="M313.50394,180c0,-3.58768 2.90839,-6.49606 6.49606,-6.49606c3.58768,0 6.49606,2.90839 6.49606,6.49606c0,3.58768 -2.90839,6.49606 -6.49606,6.49606c-3.58768,0 -6.49606,-2.90839 -6.49606,-6.49606z" fill-opacity="0.83137" fill="#000000" stroke-opacity="0.61176" stroke="#000000"/><path d="M337.58965,180c0,-3.58767 2.90839,-6.49606 6.49606,-6.49606c3.58767,0 6.49606,2.90839 6.49606,6.49606c0,3.58767 -2.90839,6.49606 -6.49606,6.49606c-3.58767,0 -6.49606,-2.90839 -6.49606,-6.49606z" fill-opacity="0.83137" fill="#000000" stroke-opacity="0.61176" stroke="#000000"/><path d="M361.54679,180c0,-3.58767 2.90839,-6.49606 6.49606,-6.49606c3.58767,0 6.49606,2.90839 6.49606,6.49606c0,3.58767 -2.90839,6.49606 -6.49606,6.49606c-3.58767,0 -6.49606,-2.90839 -6.49606,-6.49606z" fill-opacity="0.83137" fill="#000000" stroke-opacity="0.61176" stroke="#000000"/><path d="M385.63251,180c0,-3.58767 2.90839,-6.49606 6.49606,-6.49606c3.58767,0 6.49606,2.90839 6.49606,6.49606c0,3.58767 -2.90839,6.49606 -6.49606,6.49606c-3.58767,0 -6.49606,-2.90839 -6.49606,-6.49606z" fill-opacity="0.83137" fill="#000000" stroke-opacity="0.61176" stroke="#000000"/><path d="M409.76108,180c0,-3.58767 2.90839,-6.49606 6.49607,-6.49606c3.58767,0 6.49606,2.90839 6.49606,6.49606c0,3.58767 -2.90839,6.49606 -6.49606,6.49606c-3.58767,0 -6.49607,-2.90839 -6.49607,-6.49606z" fill-opacity="0.83137" fill="#000000" stroke-opacity="0.61176" stroke="#000000"/></g></g></svg>