<svg version="1.1" xmlns="http://www.w3.org/2000/svg" xmlns:xlink="http://www.w3.org/1999/xlink" width="214.10438" height="215.98924" viewBox="0,0,214.10438,215.98924"><g transform="translate(-133.00869,-102.3329)"><g data-paper-data="{&quot;isPaintingLayer&quot;:true}" fill="#ffffff" fill-rule="nonzero" stroke="#000000" stroke-width="2" stroke-linecap="butt" stroke-linejoin="miter" stroke-miterlimit="10" stroke-dasharray="" stroke-dashoffset="0" style="mix-blend-mode: normal"><path d="M294.98067,150.8861c0,26.2629 -26.21992,47.55319 -58.56383,47.55319c-32.34391,0 -58.56383,-21.29029 -58.56383,-47.55319c0,-26.2629 26.21992,-47.55319 58.56383,-47.55319c32.34391,0 58.56383,21.29029 58.56383,47.55319z"/><path d="M199.55514,267.80099v-100.21277h70.53192v100.21277z"/><path d="M144.66152,218.33291v-25.85106h70.85107v25.85106z"/><path d="M250.61897,216.73716v-23.93617h67.34043v23.93617z"/><path d="M150.32131,316.91538l-15.90587,-19.56239l68.09692,-55.36852l15.90587,19.56239z"/><path d="M246.75545,263.433l14.63723,-27.27847l84.36641,45.26978l-14.63723,27.27847z"/></g></g></svg>