<svg xmlns="http://www.w3.org/2000/svg" xmlns:xlink="http://www.w3.org/1999/xlink" version="1.1" width="77.95176696777344" height="261.4551696777344" viewBox="-0.4999671118093829 -0.5000090440526037 77.95176696777344 261.4551696777344"><g><g data-paper-data="{&quot;isPaintingLayer&quot;:true}" stroke-miterlimit="10" stroke-dasharray="" stroke-dashoffset="0" style="mix-blend-mode: normal"><g id="Group-12" fill-rule="evenodd" stroke-linecap="butt" stroke-linejoin="miter"><path d="M 45.0321 54.2858 C 45.3537 56.786 40.9632 58.9587 38.4302 58.9587 C 36.3797 58.9427 33.0426 57.449 32.729 55.4441 L 32.5199 38.7096 L 45.7236 38.7096 Z " id="Path" fill="#b47d67" stroke-width="1" stroke="none"/><path d="M 32.6647 49.8925 L 32.5199 38.7096 L 45.7236 38.7096 L 45.4985 43.71 C 40.6919 44.4416 36.2192 46.5963 32.6647 49.8925 Z " id="Path" fill="#966a57" stroke-width="1" stroke="none"/></g><g id="Group-16" fill-rule="evenodd" stroke-linecap="butt" stroke-linejoin="miter"><path d="M 63.2535 134.715 L 60.6964 174.4064 C 60.4552 180.4771 57.7292 182.2025 54.0865 182.2025 C 54.0865 182.2025 47.3801 182.3703 46.4715 175.9081 L 38.7519 135.1144 C 38.4704 131.9193 46.3348 129.1795 50.9263 129.1236 C 55.4133 129.0756 63.2937 131.5838 63.2535 134.715 Z " id="Path" fill="#b47d67" stroke-width="1" stroke="none"/><path d="M 38.2614 136.8558 C 40.1028 131.48 46.7529 126.7272 51.3605 126.5834 C 58.0589 126.3678 64.8055 130.1939 65.1111 140.4902 C 65.0628 145.219 64.9261 151.8329 64.8779 156.5617 C 64.8377 161.1307 64.0818 167.6807 64.4276 175.7963 C 63.6315 176.635 62.7711 184.0477 54.8424 184.4631 C 46.2544 184.9184 43.5043 177.5297 42.7805 176.9306 C 41.9523 163.2475 39.0414 150.5389 38.2614 136.8558 Z " id="Path" fill="#535f6a" stroke-width="1" stroke="none"/></g><g id="Group-13" stroke-linecap="butt" stroke-linejoin="miter"><path d="M 39.5238 135.1783 L 31.571 175.9161 C 30.6624 182.3783 23.956 182.2105 23.956 182.2105 C 20.3053 182.1945 17.5873 180.4851 17.3381 174.4144 L 15.0141 134.7789 C 14.9739 131.6477 22.8543 129.1395 27.3414 129.1875 C 31.9007 129.2434 39.7651 131.9752 39.5238 135.1783 Z " id="Path" fill="#b47d67" fill-rule="evenodd" stroke-width="1" stroke="none"/><path d="M 39.162 136.8558 C 38.3337 150.5708 36.2108 163.2475 35.4067 176.9306 C 34.6508 177.5297 31.8927 184.9104 23.3449 184.4631 C 15.4162 184.0477 14.5638 176.5951 13.7597 175.7963 C 14.1135 167.6807 13.3496 161.1307 13.3094 156.5617 C 13.2612 151.8329 13.1245 145.219 13.0842 140.4902 C 13.3898 130.2019 20.1042 126.3678 26.8267 126.5834 C 31.4344 126.7272 37.3045 131.48 39.162 136.8557 Z M 27.8238 151.4095 L 25.6125 151.4095 L 19.8469 150.0676 L 17.9733 150.0676 L 18.9946 151.4095 L 20.2731 152.4799 L 17.9733 152.4799 L 19.8469 153.6541 L 22.388 153.7659 L 21.7125 154.8922 L 23.7952 154.8922 L 26.5372 153.8778 L 24.5913 153.4304 L 26.5372 152.8713 Z " id="Shape" fill="#535f6a" fill-rule="nonzero" stroke-width="1" stroke="none"/></g><g id="Group-8" fill-rule="evenodd" stroke-linecap="butt" stroke-linejoin="miter"><path d="M 64.91 139.5956 C 64.7894 144.2365 43.7857 137.7584 39.178 137.7104 C 34.3533 137.6705 18.1663 142.9984 13.3978 141.1053 C 13.156 136.1287 13.5696 131.142 14.6282 126.2719 C 16.3651 118.2841 21.1255 108.0517 23.6987 103.9061 L 53.4512 103.9061 C 60.9778 112.7805 65.0306 135.1144 64.91 139.5956 Z " id="Path" fill="#535f6a" stroke-width="1" stroke="none"/><path d="M 26.5372 105.4876 L 26.5372 119.7698 C 26.5372 125.0637 22.217 129.3552 16.8878 129.3552 L 13.9527 129.3552 C 13.9929 129.0996 14.0412 128.852 14.0894 128.6043 L 16.1882 128.6043 C 21.5174 128.6043 25.8377 124.3128 25.8377 119.019 L 25.8377 104.7368 C 25.8377 104.4492 25.8377 104.1696 25.8377 103.8901 L 26.4086 103.8901 C 26.4959 104.4181 26.539 104.9525 26.5372 105.4876 Z " id="Path" fill="#354650" stroke-width="1" stroke="none"/><path d="M 51.1273 103.8901 L 51.6983 103.8901 C 51.6983 104.1696 51.6581 104.4492 51.6581 104.7368 L 51.6581 119.019 C 51.6581 124.3128 55.9783 128.6044 61.3075 128.6044 L 63.4465 128.6044 C 63.4948 128.852 63.535 129.0996 63.5832 129.3552 L 60.6321 129.3552 C 55.3028 129.3552 50.9826 125.0637 50.9826 119.7698 L 50.9826 105.4876 C 50.9862 104.9521 51.0346 104.4177 51.1273 103.8901 Z " id="Path" fill="#354650" stroke-width="1" stroke="none"/><path d="M 38.0764 133.3092 L 38.0764 133.9562 L 35.3826 133.9562 C 34.4944 133.9562 33.7743 133.2409 33.7743 132.3586 L 33.7743 103.8901 L 34.2166 103.8901 L 34.691 132.1589 C 34.691 132.6001 35.0511 132.9577 35.4952 132.9577 Z " id="Path" fill="#354650" stroke-width="1" stroke="none"/><path d="M 38.0603 131.9113 L 37.5698 128.7162 L 37.5698 103.8901 L 38.0603 103.8901 Z " id="Path" fill="#354650" stroke-width="1" stroke="none"/></g><g fill-rule="evenodd" stroke-linecap="butt" stroke-linejoin="miter"><path d="M 58.8469 57.1534 C 62.6804 56.9179 66.1285 59.4564 67.0168 63.1682 L 74.3022 100.04 C 74.8409 102.9875 72.1391 105.7273 69.196 106.3663 C 69.196 106.3663 63.9611 107.1012 62.6263 102.4922 L 53.0251 66.2995 C 52.5007 64.3148 52.8299 62.2031 53.9338 60.4688 C 55.0377 58.7346 56.8172 57.5338 58.8469 57.1534 Z " data-paper-data="{&quot;origPos&quot;:null}" id="Path" fill="#b47d67" stroke-width="1" stroke="none"/><g data-paper-data="{&quot;origPos&quot;:null}"><path d="M 52.3898 65.8042 C 52.2049 60.1089 52.3979 54.4935 57.1342 53.4072 C 57.1342 53.4072 64.0657 50.6593 67.7888 63.4878 L 76.1597 89.8475 L 54.4484 94.6402 Z " data-paper-data="{&quot;origPos&quot;:null}" id="Path" fill="#b72c27" stroke-width="1" stroke="none"/><path d="M 53.6764 83.8567 L 72.903 79.6072 L 73.9725 82.986 L 53.9337 87.4112 Z " data-paper-data="{&quot;origPos&quot;:null}" id="Path" fill="#bd7657" stroke-width="1" stroke="none"/><path d="M 53.2181 77.3706 L 70.9409 73.4486 L 72.0185 76.8274 L 53.4673 80.9251 Z " data-paper-data="{&quot;origPos&quot;:null}" id="Path" fill="#bd7657" stroke-width="1" stroke="none"/></g></g><g data-paper-data="{&quot;origPos&quot;:null}" fill-rule="evenodd" stroke-linecap="butt" stroke-linejoin="miter"><path d="M 23.0956 66.2995 L 14.2985 102.4922 C 12.9556 107.1012 7.7288 106.3663 7.7288 106.3663 C 4.7857 105.7273 2.0758 102.9875 2.6226 100.04 L 10.7121 62.3695 C 12.6339 55.7476 18.0698 57.1534 18.0698 57.1534 C 22.5166 58.128 24.2294 62.3056 23.0956 66.2995 Z " data-paper-data="{&quot;origPos&quot;:null}" id="Path" fill="#b47d67" stroke-width="1" stroke="none"/><g data-paper-data="{&quot;origPos&quot;:null}" id="Group-11"><path d="M 22.5166 94.6402 L 0.8053 89.8475 L 9.1762 63.4878 C 12.8671 50.6593 19.7906 53.4072 19.7906 53.4072 C 24.5269 54.4935 24.7119 60.1089 24.5269 65.8042 Z " id="Path" fill="#b72c27" stroke-width="1" stroke="none"/><path d="M 22.9911 87.4112 L 2.9523 82.986 L 4.0218 79.6072 L 23.2403 83.8567 Z " id="Path" fill="#bd7657" stroke-width="1" stroke="none"/><path d="M 23.4494 80.9251 L 4.9063 76.8274 L 5.9758 73.4486 L 23.7067 77.3706 Z " id="Path" fill="#bd7657" stroke-width="1" stroke="none"/></g></g><g data-paper-data="{&quot;origPos&quot;:null}" fill-rule="evenodd" stroke-linecap="butt" stroke-linejoin="miter"><path d="M 56.7964 24.707 L 55.1881 27.4069 C 54.2554 28.9884 52.438 29.6674 51.1675 28.9165 C 50.6368 28.5012 50.5564 27.5506 51.0871 25.7214 L 52.2129 21.9751 C 52.5092 21.2155 53.1168 20.6169 53.884 20.3288 C 54.6511 20.0408 55.5054 20.0904 56.2335 20.4654 C 57.504 21.2163 57.7694 23.1653 56.7964 24.707 Z " id="Path" fill="#966a57" stroke-width="1" stroke="none"/><path d="M 53.4191 29.8671 L 53.4191 26.0649 L 54.5047 26.0649 L 54.5047 29.8671 Z " id="Rectangle" fill="#9bd2dd" stroke-width="1" stroke="none"/></g><g id="Group-7" fill-rule="evenodd" stroke-linecap="butt" stroke-linejoin="miter"><path d="M 59.6832 104.6409 L 59.8119 113.9946 L 37.224 122.7173 L 15.0302 120.6245 L 18.2467 105.9509 L 17.9894 100.4074 L 18.9704 93.1385 L 11.3875 61.5068 C 11.3875 56.1949 13.4863 53.7027 21.1737 49.8765 L 32.6084 45.5312 L 32.8174 49.4132 C 33.131 51.4182 36.4682 57.7206 38.5106 57.7206 C 41.0436 57.7445 45.1607 50.8031 45.2894 48.279 L 45.418 45.5312 L 55.6465 49.8845 C 61.991 53.1755 66.2931 55.6757 66.2931 60.9636 L 59.3937 86.8281 L 57.9382 96.4135 Z " id="Path" fill="#c62c1b" stroke-width="1" stroke="none"/><path d="M 62.5137 75.126 L 14.6603 75.126 L 13.615 70.7806 L 63.6717 70.7806 Z " id="Path" fill="#e1d2a2" stroke-width="1" stroke="none"/><path d="M 60.5436 82.4987 L 16.4214 82.4987 L 15.384 78.1454 L 61.7096 78.1454 Z " id="Path" fill="#e1d2a2" stroke-width="1" stroke="none"/><path d="M 18.2467 105.943 L 17.9894 100.3914 L 30.8554 105.9749 Z " id="Path" fill="#b72c27" stroke-width="1" stroke="none"/><path d="M 59.7797 113.9787 L 37.1919 122.7014 L 59.6832 104.6569 Z " id="Path" fill="#b72c27" stroke-width="1" stroke="none"/><path d="M 48.8276 100.9825 L 56.4506 93.5698 L 59.249 87.7547 L 57.9383 96.4135 Z " id="Path" fill="#b72c27" stroke-width="1" stroke="none"/></g><path d="M 40.5049 43.2387 L 37.9075 43.2387 C 34.876 43.2387 27.1323 38.0945 26.0146 30.3544 L 23.8515 16.4156 C 23.8515 9.3304 31.8927 3.5313 38.9851 3.5313 L 39.4032 3.5313 C 46.5358 3.5313 54.5368 9.3304 54.5368 16.4156 L 52.3898 30.3544 C 50.9746 37.6952 44.035 43.2387 40.5049 43.2387 Z " id="Path" fill="#b47d67" fill-rule="evenodd" stroke="none" stroke-width="1" stroke-linecap="butt" stroke-linejoin="miter"/><path d="M 27.2661 24.4354 C 27.2661 23.8831 27.7138 23.4354 28.2661 23.4354 C 28.8184 23.4354 29.2661 23.8831 29.2661 24.4354 C 29.2661 24.9877 28.8184 25.4354 28.2661 25.4354 C 27.7138 25.4354 27.2661 24.9877 27.2661 24.4354 Z " id="Oval" fill="#825c4a" fill-rule="evenodd" stroke="none" stroke-width="1" stroke-linecap="butt" stroke-linejoin="miter"/><path d="M 54.7941 15.2894 L 54.0865 20.4175 L 52.5681 20.4175 C 52.5681 20.4175 53.6523 6.7516 37.9879 7.7397 C 37.9879 7.7397 24.9062 9.0509 25.6795 20.4634 C 25.6896 20.6121 24.345 20.7542 24.345 20.7542 C 24.345 20.7542 22.5335 13.7487 25.6367 9.5447 C 30.1949 2.6072 39.6605 2.3971 39.6605 2.3971 C 46.7931 2.3971 54.7941 8.2042 54.7941 15.2894 Z " data-paper-data="{&quot;origPos&quot;:null}" id="Path" fill="#553c2e" fill-rule="evenodd" stroke="none" stroke-width="1" stroke-linecap="butt" stroke-linejoin="miter"/><path d="M 27.947 13.3004 C 25.6874 16.1121 25.3416 25.7773 27.947 32.527 C 30.5523 39.2767 24.5536 41.074 24.5536 41.074 C 19.568 42.1044 20.927 34.6837 20.927 34.6837 C 19.8667 34.3257 19.0221 33.5172 18.6226 32.478 C 18.2231 31.4388 18.3102 30.2769 18.8604 29.3079 C 20.0746 26.8956 23.6851 24.1318 23.2187 20.4495 C 21.8356 9.4902 25.4542 6.4548 25.4542 6.4548 C 28.5179 2.5328 31.7987 0.7995 34.8544 0.2323 C 41.7216 -0.9658 43.1208 2.8603 43.1208 2.8603 C 43.6837 12.6374 30.2066 10.4887 27.947 13.3004 Z " data-paper-data="{&quot;origPos&quot;:null}" id="Path" fill="#231607" fill-rule="evenodd" stroke="none" stroke-width="1" stroke-linecap="butt" stroke-linejoin="miter"/><path d="M 40.8024 31.233 L 39.6445 31.7921 C 39.0534 32.0795 38.3619 32.0795 37.7708 31.7921 L 36.6129 31.233 " id="Path" fill="none" fill-rule="evenodd" stroke="#6e4e41" stroke-width="0.8" stroke-linecap="round" stroke-linejoin="round"/><path d="M 45.1205 33.9489 C 43.0781 37.144 37.6502 36.6328 37.6502 36.6328 " id="Path" fill="none" fill-rule="evenodd" stroke="#6e4e41" stroke-width="0.8" stroke-linecap="round" stroke-linejoin="round"/><g fill-rule="evenodd" stroke-linecap="butt" stroke-linejoin="miter"><g id="Group-17"><path d="M 73.9805 135.7055 L 76.6744 142.591 C 76.6744 142.591 78.3952 145.6423 73.2649 152.4 C 73.2649 152.4 72.0667 153.6301 65.8509 155.2517 C 65.8509 155.2517 64.9904 153.718 67.4109 152.8553 C 68.513 151.9826 69.6826 151.1974 70.9088 150.5069 C 70.8007 149.2765 70.8007 148.039 70.9088 146.8086 C 70.1362 146.2598 69.5299 145.511 69.1558 144.6439 C 69.1558 144.6439 66.856 139.8512 67.9174 136.5203 C 68.2257 135.2057 69.3196 134.217 70.6662 134.0361 C 72.0127 133.8551 73.3318 134.5195 73.9805 135.7055 Z " id="Path" stroke-width="1" fill="#b47d67" stroke="none"/><path d="M 66.478 149.5164 C 66.9619 148.6831 67.0727 147.6867 66.7836 146.7686 L 66.6228 139.3479 C 66.7447 137.5647 67.6212 135.9162 69.0352 134.8109 C 70.1419 134.6572 71.21 135.2786 71.6164 136.3126 L 69.204 147.6233 C 68.9708 148.7576 67.5958 150.2114 66.7917 150.0196 C 66.5745 149.9637 66.3413 149.7081 66.478 149.5164 Z " id="Path" stroke-width="1" fill="#b47d67" stroke="none"/></g><path d="M 74.5273 101.342 L 73.9001 135.8333 C 73.9034 137.5228 72.5821 138.9228 70.8846 139.0284 C 69.5679 139.129 68.3643 138.2883 68.0139 137.0235 L 62.6665 102.5961 C 62.5729 99.5488 64.7492 96.8968 67.7727 96.3736 C 70.764 95.9422 73.9805 98.4025 74.5273 101.342 Z " id="Path" stroke-width="1" fill="#b47d67" stroke="none"/></g><g fill-rule="evenodd" stroke-linecap="butt" stroke-linejoin="miter"><path d="M 9.1682 96.3736 C 12.1885 96.9003 14.3605 99.5513 14.2663 102.596 L 8.9189 137.0235 C 8.5713 138.2902 7.3658 139.1322 6.0482 139.0284 C 4.3539 138.9188 3.0371 137.5199 3.0407 135.8333 L 2.4135 101.342 C 2.9443 98.4025 6.1688 95.9422 9.1682 96.3736 Z " id="Path" stroke-width="1" fill="#b47d67" stroke="none"/><g id="Group"><path d="M 6.2693 134.0992 C 7.5967 134.2838 8.6775 135.2518 8.9993 136.5442 C 10.0527 139.8752 7.761 144.6678 7.761 144.6678 C 7.3785 145.5258 6.7701 146.2653 5.9999 146.8086 C 6.1226 148.0377 6.1387 149.275 6.0482 150.5069 C 7.2743 151.1974 8.4439 151.9826 9.5461 152.8553 C 11.9665 153.718 11.1061 155.2517 11.1061 155.2517 C 4.8902 153.6302 3.6921 152.4 3.6921 152.4 C -1.4382 145.6423 0.2746 142.591 0.2746 142.591 L 2.9684 135.7055 C 3.6351 134.5506 4.942 133.9146 6.2693 134.0992 Z " id="Path" stroke-width="1" fill="#b47d67" stroke="none"/><path d="M 10.1331 150.0197 C 9.329 150.2114 7.9539 148.7576 7.7207 147.6233 L 5.3084 136.3126 C 5.7141 135.2818 6.7777 134.6611 7.8816 134.8109 C 9.3106 135.9087 10.2023 137.5583 10.3341 139.348 L 10.1733 146.7686 C 9.8762 147.6887 9.9782 148.6901 10.4548 149.5324 C 10.5754 149.7081 10.3502 149.9637 10.1331 150.0197 Z " id="Path" stroke-width="1" fill="#b47d67" stroke="none"/></g></g><g data-paper-data="{&quot;origPos&quot;:null}" id="Group-3" fill-rule="evenodd" stroke-linecap="butt" stroke-linejoin="miter"><path d="M 35.5478 21.7118 C 35.625 21.8023 35.6587 21.9218 35.6399 22.0391 C 35.361 23.5573 34.0294 24.6605 32.4757 24.6605 C 30.922 24.6605 29.5904 23.5573 29.3115 22.0391 C 29.29 21.9227 29.3216 21.803 29.3976 21.712 C 29.4737 21.621 29.5864 21.5682 29.7055 21.5678 L 35.2378 21.5678 C 35.3573 21.5686 35.4705 21.6212 35.5477 21.7118 Z " id="Path" fill="#ffffff" stroke-width="1" stroke="none"/><path d="M 35.5377 21.7038 C 35.6141 21.7888 35.6512 21.9017 35.6399 22.0151 C 35.456 23.1165 34.6871 24.0331 33.6296 24.4114 C 32.8789 24.1793 32.3488 23.5131 32.2948 22.734 C 32.2641 22.3212 32.3746 21.9103 32.6084 21.5677 L 35.2379 21.5677 C 35.3526 21.5694 35.4613 21.6188 35.5377 21.7038 Z " id="Path" fill="#4c392b" stroke-width="1" stroke="none"/></g><g data-paper-data="{&quot;origPos&quot;:null}" id="Group-2" fill-rule="evenodd" stroke-linecap="butt" stroke-linejoin="miter"><path d="M 48.7917 21.6239 C 48.8689 21.7144 48.9026 21.834 48.8838 21.9512 C 48.6049 23.4695 47.2733 24.5726 45.7196 24.5726 C 44.1659 24.5726 42.8343 23.4695 42.5554 21.9512 C 42.5337 21.8335 42.5663 21.7123 42.6441 21.621 C 42.722 21.5297 42.837 21.478 42.9574 21.4799 L 48.4818 21.4799 C 48.6013 21.4808 48.7144 21.5333 48.7917 21.6239 Z " id="Path" fill="#ffffff" stroke-width="1" stroke="none"/><path d="M 48.7743 21.6243 C 48.8474 21.7106 48.8813 21.8232 48.8678 21.9352 C 48.6805 23.0326 47.9168 23.9466 46.8655 24.3316 C 46.1143 24.0983 45.5822 23.4336 45.5226 22.6541 C 45.5008 22.2397 45.6104 21.829 45.8362 21.4799 L 48.4818 21.4799 C 48.5952 21.4857 48.7011 21.538 48.7743 21.6243 Z " id="Path" fill="#4c392b" stroke-width="1" stroke="none"/></g><path d="M 36.1063 19.5389 C 36.1063 19.8697 35.8363 20.138 35.5032 20.138 L 29.2471 20.138 C 28.9141 20.138 28.644 19.8697 28.644 19.5389 C 28.644 19.208 28.9141 18.9398 29.2471 18.9398 L 35.5434 18.6602 C 35.8731 18.6602 36.1063 19.2114 36.1063 19.5389 Z " data-paper-data="{&quot;origPos&quot;:null}" id="Path" fill="#231607" fill-rule="evenodd" stroke="none" stroke-width="1" stroke-linecap="butt" stroke-linejoin="miter"/><path d="M 49.6214 18.7401 C 49.6214 19.071 49.3514 19.3392 49.0183 19.3392 L 42.7542 20.1379 C 42.4229 20.1336 42.1555 19.8679 42.1511 19.5389 C 42.1511 19.2114 42.3924 18.6602 42.7221 18.6602 L 49.0183 18.141 C 49.3514 18.141 49.6214 18.4092 49.6214 18.7401 Z " data-paper-data="{&quot;origPos&quot;:null}" id="Path" fill="#231607" fill-rule="evenodd" stroke="none" stroke-width="1" stroke-linecap="butt" stroke-linejoin="miter"/><g><g id="Group-15" stroke-linecap="butt" stroke-linejoin="miter"><path d="M 58.7022 244.4275 C 58.8616 245.6268 58.4869 246.8355 57.6758 247.7378 C 56.8648 248.6401 55.6981 249.1464 54.4805 249.1244 L 54.4242 249.1244 C 52.4348 249.1058 50.7352 247.695 50.3634 245.7535 L 45.9327 179.1033 C 45.7638 175.9001 49.9292 173.2162 53.0733 173.2162 C 56.2175 173.2162 61.002 176.0919 60.9537 179.2151 Z " id="Path" fill="#b47d67" fill-rule="evenodd" stroke-width="1" stroke="none"/><path d="M 61.7981 225.8239 L 61.5166 228.8034 C 62.3931 230.7923 60.1898 230.8323 60.1898 230.8323 L 47.4766 231.8387 C 46.4071 231.6151 45.4422 227.9726 45.4422 227.9726 C 44.63 225.4645 46.7288 226.1674 47.6053 226.5508 L 42.7805 176.9625 C 42.7484 172.721 46.4876 164.7332 54.9952 165.7796 C 59.4983 165.7556 64.3874 171.5867 64.3874 175.7963 L 59.9727 223.9068 C 61.3397 224.0746 61.7981 225.8239 61.7981 225.8239 Z M 47.5007 187.8978 L 49.31 188.3451 L 48.4014 188.7685 L 52.631 188.7685 L 49.8568 190.0306 L 52.036 189.8389 L 48.8195 191.5882 L 52.9527 190.406 L 54.7137 190.1264 L 55.6143 189.3916 L 57.1422 189.112 L 58.6137 188.2094 L 57.0055 188.2094 L 57.6327 187.4825 L 56.8929 187.2588 L 58.3484 185.9089 L 49.9855 187.5064 Z " id="Shape" fill="#535f6a" fill-rule="nonzero" stroke-width="1" stroke="none"/><path d="M 47.5731 226.5109 L 47.5249 226.0715 C 48.6676 225.8524 49.827 225.7295 50.9906 225.7041 C 52.5419 225.7603 54.076 225.3661 55.4053 224.5698 C 55.4053 224.5698 57.4478 222.0137 60.0531 222.8604 L 59.9566 223.8989 C 59.2975 223.8585 58.646 224.0572 58.1232 224.458 C 56.8123 225.314 55.3663 225.9458 53.8453 226.3272 C 53.8453 226.3272 52.1244 226.3272 47.935 226.6627 C 47.935 226.6627 47.7902 226.5828 47.5731 226.5109 Z " id="Path" fill="#354650" fill-rule="evenodd" stroke-width="1" stroke="none"/></g><g id="Group-9" fill-rule="evenodd"><path d="M 48.6426 250.0829 C 48.329 249.7873 48.2164 249.364 48.2164 248.4134 C 48.2164 248.4134 48.7069 237.9734 48.6828 236.7273 C 55.7913 239.7706 51.3766 235.1297 59.6993 235.9764 C 61.975 239.1076 66.462 245.9931 67.8853 249.5557 C 69.6865 250.5222 71.7772 253.8371 72.5975 255.6344 L 72.5975 257.1601 C 72.591 258.2062 71.9588 259.1482 70.9892 259.5564 C 70.2333 259.836 64.7251 260.0437 64.7251 260.0437 C 54.5529 258.2145 55.5822 256.3613 53.2583 253.6534 C 52.7802 253.0055 52.2418 252.4037 51.65 251.8562 C 51.0337 251.357 50.3452 250.9531 49.6076 250.658 C 49.28 250.5164 48.972 250.3338 48.6909 250.1148 Z " id="Path" fill="#f2f3ca" stroke="none" stroke-width="1" stroke-linecap="butt" stroke-linejoin="miter"/><path d="M 57.5603 256.4492 C 60.9618 257.7672 69.0834 260.7546 72.5894 257.1441 C 73.1925 260.9064 66.9847 260.4351 64.6849 260.3872 C 54.5127 258.5579 55.5741 256.3293 53.2502 253.6375 C 52.7718 252.9923 52.2333 252.3932 51.642 251.8482 C 51.0277 251.3442 50.3387 250.9373 49.5995 250.642 C 48.5541 250.1308 48.2486 250.019 48.2486 248.4214 L 48.3612 244.8828 L 55.2445 250.658 C 55.1962 252.6789 56.8366 256.1936 57.5603 256.4492 Z " id="Path" fill="#7faaa5" stroke="none" stroke-width="1" stroke-linecap="butt" stroke-linejoin="miter"/><path d="M 59.7234 247.7105 L 52.8482 237.6219 C 54.6253 235.7208 57.3512 235.8087 59.6993 235.9285 C 61.3075 238.3248 65.883 244.8269 66.856 247.4469 Z " id="Path" fill="#c0dec8" stroke="none" stroke-width="1" stroke-linecap="butt" stroke-linejoin="miter"/><path d="M 66.856 247.4469 L 57.496 244.4355 L 63.3661 241.3362 L 54.4242 239.9384 L 60.6884 237.3903 L 53.2583 238.221 L 62.0152 239.3393 L 55.7108 241.8235 L 65.288 244.3317 L 59.7315 247.7105 L 66.856 247.4469 " id="Path" fill="none" stroke="#00bcbd" stroke-width="0.664" stroke-linecap="round" stroke-linejoin="round"/><path d="M 55.8395 248.1339 L 48.4175 243.2293 L 48.6265 238.0453 L 56.9653 247.2153 L 59.3535 253.8851 Z " id="Path" fill="#00bcbd" stroke="none" stroke-width="1" stroke-linecap="butt" stroke-linejoin="miter"/></g></g><g fill-rule="evenodd"><g id="Group-14" stroke-linecap="butt" stroke-linejoin="miter"><path d="M 31.563 174.4384 L 27.8801 245.8014 C 27.505 247.7397 25.8062 249.1466 23.8193 249.1643 L 23.755 249.1643 C 22.5364 249.1763 21.3731 248.6596 20.5696 247.7494 C 19.7661 246.8392 19.4024 245.6261 19.5735 244.4275 L 17.2737 174.2307 C 17.1853 171.1075 21.2783 168.5434 24.4224 168.5434 C 27.6469 168.5434 31.7319 171.2512 31.563 174.4384 Z " id="Path" fill="#b47d67" stroke-width="1" stroke="none"/><path d="M 32.7451 227.9087 C 32.7451 227.9087 31.7882 231.5512 30.7106 231.7748 C 26.7977 232.8187 22.6605 232.6824 18.8257 231.3834 L 17.2175 230.8243 C 17.2175 230.8243 15.7781 230.7284 16.6465 228.7395 L 16.9521 224.6737 C 16.9521 224.6737 17.2175 224.2663 18.2387 224.5299 L 13.7597 175.8043 C 13.7838 171.5947 18.6568 165.7876 23.1599 165.7876 C 31.6595 164.7731 35.3746 172.7609 35.3746 176.9705 L 30.7187 224.8973 C 31.1564 224.8078 31.6078 224.8078 32.0455 224.8973 C 32.0455 224.8973 33.7744 224.8095 32.7451 227.9088 Z " id="Path" fill="#535f6a" stroke-width="1" stroke="none"/><path d="M 18.2467 224.7136 C 18.1985 224.2663 18.1985 223.9628 18.1985 223.9628 C 18.1985 223.9628 23.5298 226.3431 26.304 224.8574 C 26.304 224.8574 28.9576 223.14 30.9358 223.14 L 30.7508 225.0491 C 28.5804 225.415 26.4326 225.903 24.3179 226.5109 C 22.9026 227.07 20.4179 225.776 20.4179 225.776 C 19.7529 225.314 19.0207 224.9558 18.2467 224.7136 Z " id="Path" fill="#354650" stroke-width="1" stroke="none"/></g><g id="Group-10"><path d="M 29.5768 250.0909 C 29.2957 250.3099 28.9877 250.4924 28.6601 250.634 C 27.9216 250.9273 27.2328 251.3314 26.6177 251.8322 C 26.0119 252.3779 25.4599 252.9797 24.9692 253.6295 C 22.6453 256.3373 23.6665 258.1905 13.5024 260.0197 C 13.5024 260.0197 7.9941 259.812 7.2383 259.5325 C 6.2687 259.1242 5.6364 258.1822 5.63 257.1361 L 5.63 255.6104 C 6.4824 253.8212 8.5731 250.5062 10.3663 249.5557 C 11.7977 245.9931 16.2847 239.1076 18.5603 235.9764 C 26.883 235.1297 22.4603 239.7706 29.5688 236.7273 C 29.5527 237.9734 30.0432 248.4134 30.0432 248.4134 C 30.0432 249.364 29.9306 249.7873 29.617 250.0829 Z " id="Path" fill="#f2f3ca" stroke="none" stroke-width="1" stroke-linecap="butt" stroke-linejoin="miter"/><path d="M 23.0152 250.658 L 29.8985 244.8828 L 30.0432 248.4454 C 30.0432 250.0429 29.7377 250.1548 28.6923 250.666 C 27.9522 250.9595 27.263 251.3665 26.6498 251.8722 C 26.0445 252.4153 25.4925 253.0144 25.0014 253.6614 C 22.6775 256.3533 23.7389 258.5819 13.5667 260.4111 C 11.2589 260.459 5.0591 260.9303 5.63 257.208 C 9.136 260.8185 17.2577 257.8311 20.6591 256.5131 C 21.423 256.1936 23.0554 252.6789 23.0152 250.658 Z " id="Path" fill="#7faaa5" stroke="none" stroke-width="1" stroke-linecap="butt" stroke-linejoin="miter"/><path d="M 11.3715 247.4469 C 12.3445 244.8269 16.9199 238.3248 18.5282 235.9285 C 20.8762 235.8087 23.6022 235.7208 25.3793 237.6219 L 18.496 247.7105 Z " id="Path" fill="#c0dec8" stroke="none" stroke-width="1" stroke-linecap="butt" stroke-linejoin="miter"/><path d="M 11.4036 247.4469 L 18.5282 247.7105 L 12.9717 244.3317 L 22.5488 241.8235 L 16.2445 239.3393 L 25.0014 238.221 L 17.5712 237.3903 L 23.8354 239.9384 L 14.8935 241.3362 L 20.7636 244.4355 L 11.4036 247.4469 " id="Path" fill="none" stroke="#00bcbd" stroke-width="0.664" stroke-linecap="round" stroke-linejoin="round"/><path d="M 18.9061 253.8851 L 21.2943 247.2153 L 29.6331 238.0453 L 29.8422 243.2294 L 22.4201 248.1339 Z " id="Path" fill="#00bcbd" stroke="none" stroke-width="1" stroke-linecap="butt" stroke-linejoin="miter"/></g></g></g></g></svg>